<?xml version="1.0" encoding="utf-8"?>
<!-- Generator: Adobe Illustrator 22.0.1, SVG Export Plug-In . SVG Version: 6.00 Build 0)  -->
<svg version="1.1" id="Layer_1" xmlns="http://www.w3.org/2000/svg" xmlns:xlink="http://www.w3.org/1999/xlink" x="0px" y="0px"
	 viewBox="0 0 1248.8 131.2" style="enable-background:new 0 0 1248.8 131.2;" xml:space="preserve">
<style type="text/css">
	.st0{fill:#0D3691;}
</style>
<g>
	<g>
		<path class="st0" d="M6.2,3.2h121.4l-5.2,25.5H76.4l-18.9,97.5H28.4l18.9-97.5H1.2L6.2,3.2z"/>
		<path class="st0" d="M178,113.3c-4.2,6.4-13.9,14.7-28,14.7c-20.8,0-34.8-15.2-34.8-40.9c0-32.4,20.8-52.5,46.4-52.5
			c16.3,0,24.9,8.3,28.6,14.7l2.4-13h27.9l-17.5,89.7h-27.4L178,113.3z M184.4,78.2c0-11.6-6.8-19.7-18.4-19.7
			c-14.4,0-22.9,12.6-22.9,26c0,11.6,6.8,19.7,18.4,19.7C175.4,104.1,184.4,91.5,184.4,78.2z"/>
		<path class="st0" d="M255.4,126.1h-27.9l17.3-89.7h28l-2.6,13.9c2.8-4.7,10.2-14,28-14h20.8L313.6,64h-26.3
			c-15.6,0-21.1,5.9-23.4,18.4L255.4,126.1z"/>
		<path class="st0" d="M393.5,126.1h-21.1c-21.5,0-35.3-9.2-30.3-33.9l6.2-32.6h-23l4.7-23.2h22.9l6.4-33.2h27.9l-6.4,33.2H411
			l-4.5,23.2h-30.3l-5.4,27.2c-2.1,10.9,1.7,14.7,12.3,14.7h15.2L393.5,126.1z"/>
		<path class="st0" d="M479.8,113.3c-4.2,6.4-13.9,14.7-28,14.7c-20.8,0-34.8-15.2-34.8-40.9c0-32.4,20.8-52.5,46.4-52.5
			c16.3,0,24.9,8.3,28.6,14.7l2.4-13h27.9l-17.5,89.7h-27.4L479.8,113.3z M486.2,78.2c0-11.6-6.8-19.7-18.4-19.7
			c-14.4,0-22.9,12.6-22.9,26c0,11.6,6.8,19.7,18.4,19.7C477.2,104.1,486.2,91.5,486.2,78.2z"/>
		<path class="st0" d="M557,126.1h-27.7l17.3-89.7h27.9l-2.6,13.5c5.5-7.8,15.9-15.4,29.1-15.4c20.8,0,35.3,16.4,29.8,45.5
			l-8.8,46.1H594l8.7-45.4c2.8-14.5-4.5-21.5-15.6-21.5c-11.3,0-18.5,7.6-20.8,19.4L557,126.1z"/>
		<path class="st0" d="M746.1,77.3h-59.6l-9.5,48.8h-29.1L671.8,3.2h29.1l-9.3,48.5h59.6l9.3-48.5h29.1l-23.9,122.9h-29.1
			L746.1,77.3z"/>
		<path class="st0" d="M859.1,113.3c-4.2,6.4-13.9,14.7-28,14.7c-20.8,0-34.8-15.2-34.8-40.9c0-32.4,20.8-52.5,46.4-52.5
			c16.3,0,24.9,8.3,28.6,14.7l2.4-13h27.9l-17.5,89.7h-27.4L859.1,113.3z M865.5,78.2c0-11.6-6.8-19.7-18.4-19.7
			c-14.4,0-22.9,12.6-22.9,26c0,11.6,6.8,19.7,18.4,19.7C856.5,104.1,865.5,91.5,865.5,78.2z"/>
		<path class="st0" d="M961.8,58.4c-13.5,0-21.8,11.8-21.8,26.1c0,11.6,6.2,19.6,17.1,19.6c10.4,0,15.1-6.2,17-9h26.8
			c-2.8,13.3-15.6,33.2-43.8,33.2c-26.8,0-45.2-16.4-45.2-42.8c0-30.3,21.6-51.4,49.9-51.4c32.4,0,42.4,20.6,43.3,33.8h-27.2
			C977,65.4,972.7,58.4,961.8,58.4z"/>
		<path class="st0" d="M1047.8,85.8l-7.8,40.3h-27.9l24.8-127.4h27.9l-14.2,72.7l40.9-35h36.4l-51.4,43.6l36.4,46.1h-33.4
			L1047.8,85.8z"/>
		<path class="st0" d="M1160.7,91.7c-20.3-2.6-32.2-10.7-32.2-27.9c0-16.6,15.1-29.8,42.2-29.8c34.6,0,42.6,17.7,44,26.1h-29.4
			c-0.9-1.9-4.5-6.6-14.5-6.6c-9,0-13.5,3.3-13.5,7.6c0,4,2.4,6.1,8.8,6.9l10,1.2c24.6,2.8,33.4,10.4,33.4,28.4
			c0,17.1-13.2,30.8-44.3,30.8c-36,0-44.7-19-45.5-27.9h29.8c0.5,2.1,4.2,8,15.8,8c10.9,0,15.2-4,15.2-8.3c0-4.2-2.1-6.8-9.7-7.4
			L1160.7,91.7z"/>
	</g>
</g>
</svg>
