<?xml version="1.0" encoding="utf-8"?>
<!-- Generator: Adobe Illustrator 21.0.0, SVG Export Plug-In . SVG Version: 6.00 Build 0)  -->
<svg version="1.1" id="Layer_1" xmlns="http://www.w3.org/2000/svg" xmlns:xlink="http://www.w3.org/1999/xlink" x="0px" y="0px"
	 viewBox="0 0 1000 470.5" style="enable-background:new 0 0 1000 470.5;" xml:space="preserve">
<style type="text/css">
	.st0{opacity:0.1;}
	.st1{fill:none;stroke:#7ED6FA;stroke-width:64;stroke-linecap:round;stroke-miterlimit:10;}
	.st2{fill:none;stroke:#DE3479;stroke-width:64;stroke-linecap:round;stroke-miterlimit:10;}
	.st3{fill:none;stroke:#FFC620;stroke-width:64;stroke-linecap:round;stroke-miterlimit:10;}
	.st4{fill:none;stroke:#4BAE16;stroke-width:64;stroke-linecap:round;stroke-miterlimit:10;}
	.st5{fill:none;stroke:#FFFFFF;stroke-width:1.5995;stroke-miterlimit:10;}
	.st6{fill:#FFFFFF;}
	.st7{clip-path:url(#SVGID_2_);fill:none;stroke:#FFFFFF;stroke-width:1.5995;stroke-linejoin:round;stroke-miterlimit:10;}
	.st8{clip-path:url(#SVGID_4_);fill:none;stroke:#FFFFFF;stroke-width:1.5995;stroke-linejoin:round;stroke-miterlimit:10;}
	.st9{opacity:0.1;fill:#FFFFFF;}
	.st10{fill:none;stroke:#FFFFFF;stroke-miterlimit:10;}
	.st11{clip-path:url(#SVGID_6_);fill:none;stroke:#FFFFFF;stroke-linejoin:round;stroke-miterlimit:10;}
	.st12{clip-path:url(#SVGID_8_);fill:none;stroke:#FFFFFF;stroke-linejoin:round;stroke-miterlimit:10;}
	.st13{fill:none;stroke:#000000;stroke-miterlimit:10;}
	.st14{clip-path:url(#SVGID_10_);fill:none;stroke:#000000;stroke-linejoin:round;stroke-miterlimit:10;}
	.st15{clip-path:url(#SVGID_12_);fill:none;stroke:#000000;stroke-linejoin:round;stroke-miterlimit:10;}
	.st16{clip-path:url(#SVGID_14_);fill:none;stroke:#000000;stroke-linejoin:round;stroke-miterlimit:10;}
	.st17{clip-path:url(#SVGID_16_);fill:none;stroke:#000000;stroke-linejoin:round;stroke-miterlimit:10;}
	.st18{fill:none;stroke:#FFFFFF;stroke-linejoin:round;stroke-miterlimit:10;}
	.st19{fill:#2679D0;}
	.st20{clip-path:url(#SVGID_18_);fill:none;stroke:#FFFFFF;stroke-linejoin:round;stroke-miterlimit:10;}
	.st21{clip-path:url(#SVGID_20_);fill:none;stroke:#FFFFFF;stroke-linejoin:round;stroke-miterlimit:10;}
	.st22{fill:#383838;}
	.st23{clip-path:url(#SVGID_22_);fill:none;stroke:#FFFFFF;stroke-linejoin:round;stroke-miterlimit:10;}
	.st24{clip-path:url(#SVGID_24_);fill:none;stroke:#FFFFFF;stroke-linejoin:round;stroke-miterlimit:10;}
	.st25{fill:#FF00FF;}
</style>
<g>
	<g>
		<path class="st6" d="M436.5,426.3h-304l-44.8-44.8v-54.1h-1.5c9.5,0,17.2-7.7,17.2-17.2c0-9.5-7.7-17.2-17.2-17.2
			S69,300.7,69,310.2c0,9.5,7.7,17.2,17.2,17.2h-2.1v55.6L131,430h309.1v-21.5h-3.7V426.3z M72.6,310.2c0-7.5,6.1-13.6,13.6-13.6
			s13.6,6.1,13.6,13.6c0,7.5-6.1,13.6-13.6,13.6S72.6,317.7,72.6,310.2z"/>
		<path class="st6" d="M23.6,117.9h1.8V65.6L85.4,5.7h581.8v7.2h3.7V2.1H83.8l-62,62v53.8H23.6c-9.5,0-17.2,7.7-17.2,17.2
			c0,9.5,7.7,17.2,17.2,17.2c9.5,0,17.2-7.7,17.2-17.2C40.9,125.6,33.2,117.9,23.6,117.9z"/>
		<path class="st6" d="M976.4,117.9h1.3V68l-54.4-54.4H810.1v10.5h3.7v-6.8h108L974,69.5v48.4H976.4c-8.9,0-16.1,6.8-17.1,15.4
			h-20.2V59.6c0-7.9-3.1-15.3-8.7-20.9c-5.6-5.6-13-8.7-20.9-8.7h-28.4c-7.9,0-15.3,3.1-20.9,8.7c-4.5,4.5-7.4,10.3-8.4,16.5
			l-6.3-9.4c-1.8-2.8-4.1-5.3-7.4-8.2c-5.9-5-13.3-7.7-21.4-7.7h-22.5c-7.9,0-15.3,3.1-20.9,8.7c-5.6,5.6-8.7,13-8.7,20.9v49.8
			L745,52.8c-1.7-4.7-4.5-9-8.3-13c-6-6.3-14.4-9.7-23.8-9.7h-35.1c-3.1,0-6.2,0.4-9,1.2V35c2.8-0.8,5.9-1.3,9-1.3H713
			c8.3,0,15.9,3.1,21.1,8.6c3.4,3.6,5.9,7.5,7.5,11.7l23.1,66.9c0.3,0.8,1.1,1.4,2,1.2c0.9-0.1,1.5-0.9,1.5-1.8V59.6
			c0-6.9,2.7-13.4,7.6-18.3c4.9-4.9,11.4-7.6,18.3-7.6h22.5c7.3,0,13.9,2.3,19,6.8c3.1,2.6,5.1,4.9,6.7,7.4l9.3,13.9
			c0.4,0.7,1.3,1,2,0.7c0.8-0.2,1.3-0.9,1.3-1.7v-1.1c0-6.9,2.7-13.4,7.6-18.3c4.9-4.9,11.4-7.6,18.3-7.6h28.4
			c6.9,0,13.4,2.7,18.3,7.6c4.9,4.9,7.6,11.4,7.6,18.3v77.3h1.8v0h22c0.9,8.6,8.2,15.4,17,15.4c9.5,0,17.2-7.7,17.2-17.2
			C993.6,125.6,985.9,117.9,976.4,117.9z M976.4,148.7c-7.5,0-13.6-6.1-13.6-13.6c0-7.5,6.1-13.6,13.6-13.6s13.6,6.1,13.6,13.6
			C989.9,142.6,983.8,148.7,976.4,148.7z"/>
		<path class="st6" d="M922.5,293h1.8v-67.4h-15.5h-1.9H887c-7.3,0-13.9-2.4-19.1-6.8c-3.1-2.6-5.1-4.9-6.7-7.4l-9.3-13.9
			c-0.4-0.7-1.3-1-2-0.7c-0.8,0.2-1.3,0.9-1.3,1.7v1.1c0,4.9-1.4,9.7-4,13.8c-0.3,0.4-0.3,1-0.2,1.4c0.1,0.5,0.5,0.9,0.9,1.1
			c4,2.1,7.8,4.5,11.2,7c7.6,5.7,13.8,12.2,18.3,19.3c5.1,8.1,7.8,16.4,8.1,24.6l0,0.7c0,6.6-2.6,12.9-7.3,17.6
			c-1.1,1.1-2.3,2.1-3.6,3c-0.4,0.3-0.7,0.8-0.8,1.3c-0.1,0.5,0.1,1.1,0.5,1.4c4.9,5.2,8.7,11.1,11.2,17.8c2.9,7.3,4.3,15.7,4.3,25
			c0,10.9-2.6,20.9-7.7,29.7c-4.8,8.4-11.6,15.6-20,21.4c-7.9,5.4-17.1,9.5-27.5,12.3c-9.8,2.6-20.5,3.9-31.9,3.9
			c-11.9,0-23-1.6-33-4.9c-4.7-1.5-9.1-3.4-13.4-5.4v4.1c3.9,1.8,7.9,3.5,12.2,4.8c10.4,3.3,21.9,5,34.2,5c11.7,0,22.8-1.4,32.9-4
			c10.8-2.9,20.4-7.2,28.6-12.8c8.9-6.1,16-13.7,21.1-22.6c5.4-9.4,8.2-20,8.2-31.6c0-9.7-1.5-18.6-4.6-26.3
			c-2.5-6.4-6.1-12.3-10.6-17.4c0.8-0.7,1.7-1.4,2.4-2.2c5.4-5.4,8.4-12.6,8.4-20.2l0-0.7c-0.3-8.9-3.2-17.8-8.6-26.4
			c-4.7-7.5-11.2-14.4-19.2-20.3c-3.1-2.3-6.4-4.4-10-6.4c1.6-3,2.7-6.2,3.2-9.6l6.3,9.4c1.7,2.7,4.1,5.3,7.4,8.1
			c5.9,5,13.3,7.7,21.4,7.7h19.9h2h11.7V293H922.5c-9.5,0-17.2,7.7-17.2,17.2c0,8.9,6.8,16.1,15.4,17l0,31.6l-54.4,54.4H670.8v-25
			h-3.7v28.6h200.7l56.5-56.5l0-33.1c8.6-0.9,15.4-8.2,15.4-17C939.7,300.7,932,293,922.5,293z"/>
		<path class="st6" d="M231.6,377c1.2,1.2,2.5,1.7,4.1,1.7h28.4c1.6,0,3-0.6,4.1-1.7c1.2-1.2,1.7-2.5,1.7-4.1v-140
			c0-1.6-0.6-3-1.7-4.1c-1.2-1.2-2.5-1.7-4.1-1.7h-28.4c-1.6,0-3,0.6-4.1,1.7c-1.2,1.2-1.7,2.5-1.7,4.1v52.2h-48.1v-52.2
			c0-1.6-0.6-3-1.7-4.1c-1.2-1.2-2.5-1.7-4.1-1.7h-28.4c-1.6,0-3,0.6-4.1,1.7s-1.7,2.5-1.7,4.1v140c0,1.7,0.6,3.1,1.7,4.2
			c1.2,1.1,2.5,1.6,4.1,1.6h28.4c1.6,0,3-0.6,4.1-1.7c1.2-1.2,1.7-2.5,1.7-4.1v-53.1h48.1v53.1C229.8,374.5,230.4,375.9,231.6,377z"
			/>
		<path class="st6" d="M292.3,378.7h27.3c2.9,0,4.9-0.6,6.2-1.8c1.2-1.2,2-2.4,2.3-3.6l6.1-18h57.7l6.1,18c0.3,1.2,1,2.3,2.3,3.6
			c1.2,1.2,3.3,1.8,6.2,1.8h27.3c1.3,0,2.4-0.5,3.4-1.4c0.9-0.9,1.4-2.1,1.4-3.4c0-0.7-0.3-1.8-0.9-3.3l-47.2-136.5
			c-0.6-1.6-1.6-3.2-3.1-4.8c-1.5-1.6-3.7-2.4-6.6-2.4h-35.1c-2.9,0-5.1,0.8-6.6,2.4c-1.5,1.6-2.6,3.2-3.1,4.8l-47.2,136.5
			c-0.6,1.4-0.9,2.5-0.9,3.3c0,1.3,0.5,2.4,1.4,3.4C289.8,378.3,291,378.7,292.3,378.7z M362.9,269.7l17.6,52h-35.1L362.9,269.7z"/>
		<path class="st6" d="M487.1,284.7c0.3-3.3,0.9-6.5,2-9.5c1-3,2.6-5.7,4.8-8c2.2-2.3,4.9-4.2,8.2-5.5c3.3-1.4,7.4-2.1,12.4-2.1
			c4.9,0,9,0.6,12.1,1.7c3.2,1.2,5.8,2.6,7.8,4.2c2,1.7,3.6,3.5,4.7,5.5c1.1,2,1.9,3.9,2.5,5.6c0.7,2.3,1.5,3.9,2.4,4.9
			c0.9,0.9,2.5,1.4,5,1.4h28.4c1.3,0,2.4-0.5,3.4-1.4c0.9-0.9,1.4-2.1,1.4-3.4c-0.1-7.4-2-14.3-5.4-20.8
			c-3.5-6.5-8.2-12.1-14.3-16.9c-6.1-4.8-13.2-8.6-21.3-11.4c-8.2-2.8-17-4.2-26.6-4.2c-10.4,0-19.7,1.6-28,4.7
			c-8.2,3.1-15.2,7.3-20.9,12.7c-5.7,5.3-10.2,11.6-13.3,18.7c-3.2,7.2-4.9,14.7-5.2,22.7c-0.3,6.2-0.4,12.7-0.4,19.5
			c0,6.8,0.1,13.1,0.4,19.1c0.4,7.9,2.2,15.5,5.3,22.7c3.1,7.2,7.5,13.4,13.3,18.7c5.8,5.4,12.8,9.6,20.9,12.7
			c8.2,3.1,17.4,4.7,27.9,4.7c9.5,0,18.4-1.4,26.6-4.2c8.2-2.8,15.3-6.6,21.3-11.4c6.1-4.8,10.8-10.4,14.3-16.9
			c3.5-6.5,5.3-13.4,5.4-20.8c0-1.3-0.5-2.4-1.4-3.4c-0.9-0.9-2.1-1.4-3.4-1.4h-28.4c-2.5,0-4.1,0.5-5,1.4c-0.9,0.9-1.7,2.6-2.4,4.9
			c-0.6,1.7-1.4,3.6-2.5,5.6c-1.1,2-2.6,3.9-4.7,5.5c-2,1.7-4.6,3.1-7.8,4.2c-3.2,1.2-7.2,1.7-12.1,1.7c-4.9,0-9-0.7-12.4-2.1
			c-3.3-1.4-6.1-3.2-8.2-5.5c-2.2-2.3-3.8-5-4.8-8c-1-3-1.7-6.2-2-9.5c-0.1-1.9-0.3-4.5-0.3-7.9c-0.1-3.4-0.1-6.9-0.1-10.4
			c0-3.5,0-7,0.1-10.3C486.8,289.1,487,286.6,487.1,284.7z"/>
		<path class="st6" d="M610.2,227c-1.6,0-3,0.6-4.1,1.7s-1.7,2.5-1.7,4.1v140c0,1.6,0.6,3,1.7,4.1c1.2,1.2,2.5,1.7,4.1,1.7h28.4
			c1.6,0,3-0.6,4.1-1.7c1.2-1.2,1.7-2.5,1.7-4.1v-50.7l41,51.6c1.3,1.6,2.6,2.8,3.9,3.7c1.3,0.9,3,1.3,5,1.3h34.5
			c1.3,0,2.4-0.5,3.4-1.4c0.9-0.9,1.4-2.1,1.4-3.4c0-1-0.2-1.8-0.6-2.4l-57.2-72l53.5-65.5c0.4-0.6,0.6-1.4,0.6-2.4
			c0-1.3-0.5-2.4-1.4-3.4c-0.9-0.9-2.1-1.4-3.4-1.4h-33.8c-2.7,0-4.7,0.6-5.9,1.7s-2.1,2.2-2.8,3l-38.2,46.8v-45.7
			c0-1.6-0.6-3-1.7-4.1c-1.2-1.2-2.5-1.7-4.1-1.7H610.2z"/>
		<path class="st6" d="M754.1,238.9c-5.3,4.3-9.4,9.3-12.2,15c-2.8,5.6-4.2,11.6-4.2,17.8c0,12.4,3.4,22.4,10.3,29.8
			c6.9,7.4,17.7,12.8,32.6,15.9c7.9,1.7,14.8,3.2,20.7,4.3c5.9,1.2,10.7,2.3,14.4,3.6c3.8,1.2,6.6,2.6,8.5,4
			c1.9,1.4,2.8,3.3,2.8,5.4c0,4.3-2.6,7.3-7.7,9c-5.1,1.7-11.5,2.5-19.2,2.5c-4.3,0-8-0.5-10.9-1.5c-3-1-5.4-2.2-7.4-3.6
			c-1.9-1.4-3.5-2.7-4.7-4c-1.2-1.3-2-2.2-2.6-2.8c-1.2-1-2.3-1.8-3.5-2.3c-1.2-0.5-2.7-0.8-4.8-0.8h-28.4c-1.2,0-2.2,0.5-3.1,1.4
			c-0.9,0.9-1.4,2.1-1.4,3.4c0.1,5.5,1.9,10.9,5.2,16.3c3.3,5.3,7.9,10.2,13.8,14.4c5.9,4.3,12.8,7.7,20.9,10.3
			c8.1,2.6,17,3.9,26.9,3.9c9.7,0,18.6-1.1,26.8-3.3c8.2-2.2,15.2-5.3,21.2-9.4c6-4.1,10.7-9.1,14-14.8c3.3-5.8,5-12.4,5-19.7
			c0-6.8-1-12.7-2.9-17.7c-2-5-4.9-9.3-8.9-13c-4-3.7-8.9-6.8-14.8-9.2c-5.9-2.5-12.9-4.5-20.8-6.1c-7.9-1.6-14.6-3-19.9-4.1
			c-5.3-1.2-9.6-2.3-12.9-3.6c-3.3-1.2-5.6-2.6-6.9-4c-1.4-1.4-2.1-3.3-2.1-5.4c0-2.2,0.6-4,1.8-5.4c1.2-1.4,2.8-2.6,4.8-3.4
			c1.9-0.8,4.2-1.4,6.7-1.7c2.5-0.4,5.2-0.5,7.9-0.5c3.8,0,6.9,0.4,9.5,1.2c2.6,0.8,4.8,1.7,6.5,2.8c1.7,1.1,3.1,2.1,4,3.1
			c0.9,1,1.6,1.7,2.1,2.2c1.3,1.2,2.6,2,3.8,2.6c1.2,0.6,2.9,0.9,4.9,0.9h28.4c1.2,0,2.2-0.5,3.1-1.4c0.9-0.9,1.4-2.1,1.4-3.4
			c-0.1-4.6-1.8-9.5-5-14.5c-3.2-5.1-7.6-9.7-13.2-13.9c-5.6-4.2-12.3-7.6-20-10.3c-7.7-2.7-16.2-4-25.5-4c-9.4,0-17.9,1.3-25.5,3.8
			C765.9,231.2,759.5,234.6,754.1,238.9z"/>
		<path class="st6" d="M119.5,203.8c1.2,1.2,2.5,1.7,4.1,1.7H152c1.6,0,3-0.6,4.1-1.7c1.2-1.2,1.7-2.5,1.7-4.1V88.5H196
			c1.6,0,3-0.6,4.1-1.7c1.2-1.2,1.7-2.5,1.7-4.1v-23c0-1.6-0.6-3-1.7-4.1c-1.2-1.2-2.5-1.7-4.1-1.7H79.6c-1.6,0-3,0.6-4.1,1.7
			s-1.7,2.5-1.7,4.1v23c0,1.6,0.6,3,1.7,4.1s2.5,1.7,4.1,1.7h38.1v111.2C117.8,201.2,118.3,202.6,119.5,203.8z"/>
		<path class="st6" d="M487.9,204.1c0.9-0.9,1.4-2.1,1.4-3.4c0-0.7-0.2-1.5-0.6-2.4l-26.9-51.6c8.2-3.8,14.6-9.2,19.1-16.4
			c4.5-7.1,6.7-16.1,6.7-27c0-8.4-1.4-15.7-4.2-22c-2.8-6.3-6.9-11.5-12.1-15.5c-5.3-4-11.7-7.1-19.2-9.1c-7.5-2-16-3-25.6-3h-58.7
			c-1.6,0-3,0.6-4.1,1.7s-1.7,2.5-1.7,4.1v140c0,1.6,0.6,3,1.7,4.1c1.2,1.2,2.5,1.7,4.1,1.7h28.4c1.6,0,3-0.6,4.1-1.7
			c1.2-1.2,1.7-2.5,1.7-4.1v-46.4h19.9l24.1,46.4c0.7,1.3,1.7,2.6,2.9,3.9c1.2,1.3,3.3,2,6.2,2h29.5
			C485.8,205.5,486.9,205,487.9,204.1z M441.5,116c-4,2.3-9,3.5-15.1,3.5h-24.5V87.4h24.5c6.1,0,11.1,1.2,15.1,3.5
			c4,2.3,6,6.5,6,12.6C447.4,109.5,445.5,113.7,441.5,116z"/>
		<path class="st6" d="M546.1,203.8c1.2,1.2,2.5,1.7,4.1,1.7h28.4c1.6,0,3-0.6,4.1-1.7c1.2-1.2,1.7-2.5,1.7-4.1V88.5h38.1
			c1.6,0,3-0.6,4.1-1.7c1.2-1.2,1.7-2.5,1.7-4.1v-23c0-1.6-0.6-3-1.7-4.1c-1.2-1.2-2.5-1.7-4.1-1.7H506.2c-1.6,0-3,0.6-4.1,1.7
			s-1.7,2.5-1.7,4.1v23c0,1.6,0.6,3,1.7,4.1s2.5,1.7,4.1,1.7h38.1v111.2C544.3,201.2,544.9,202.6,546.1,203.8z"/>
		<path class="st6" d="M722.7,60.9c-0.6-1.6-1.6-3.2-3.1-4.8c-1.5-1.6-3.7-2.4-6.6-2.4h-35.1c-2.9,0-5.1,0.8-6.6,2.4
			c-1.5,1.6-2.6,3.2-3.1,4.8l-47.2,136.5c-0.6,1.4-0.9,2.5-0.9,3.3c0,1.3,0.5,2.4,1.4,3.4c0.9,0.9,2.1,1.4,3.4,1.4H652
			c2.9,0,4.9-0.6,6.2-1.8c1.2-1.2,2-2.4,2.3-3.6l6.1-18h57.7l6.1,18c0.3,1.2,1,2.3,2.3,3.6c1.2,1.2,3.3,1.8,6.2,1.8h27.3
			c1.3,0,2.4-0.5,3.4-1.4c0.9-0.9,1.4-2.1,1.4-3.4c0-0.7-0.3-1.8-0.9-3.3L722.7,60.9z M677.8,148.5l17.6-52l17.6,52H677.8z"/>
		<path class="st6" d="M822.7,55.7c-1.5-1.3-3.5-1.9-6-1.9h-22.5c-1.6,0-3,0.6-4.1,1.7s-1.7,2.5-1.7,4.1v140c0,1.6,0.6,3,1.7,4.1
			c1.2,1.2,2.5,1.7,4.1,1.7h28.4c1.6,0,3-0.6,4.1-1.7c1.2-1.2,1.7-2.5,1.7-4.1v-73.3l49.6,74.1c0.4,0.7,1.4,1.7,2.9,3
			c1.5,1.3,3.5,2,6,2h22.5c1.6,0,3-0.6,4.1-1.7c1.2-1.2,1.7-2.5,1.7-4.1v-140c0-1.6-0.6-3-1.7-4.1s-2.5-1.7-4.1-1.7h-28.4
			c-1.6,0-3,0.6-4.1,1.7s-1.7,2.5-1.7,4.1v73.3l-49.6-74.1C825.2,58,824.2,57,822.7,55.7z"/>
		<path class="st6" d="M193.4,200.7c0,1.3,0.5,2.4,1.4,3.4c0.9,0.9,2.1,1.4,3.4,1.4h27.3c2.9,0,4.9-0.6,6.2-1.8
			c1.2-1.2,2-2.4,2.3-3.6l6.1-18h57.7l6.1,18c0.3,1.2,1,2.3,2.3,3.6c1.2,1.2,3.3,1.8,6.2,1.8h27.3c1.3,0,2.4-0.5,3.4-1.4
			c0.9-0.9,1.4-2.1,1.4-3.4c0-0.7-0.3-1.8-0.9-3.3L296.2,60.9c-0.6-1.6-1.6-3.2-3.1-4.8c-1.5-1.6-3.7-2.4-6.6-2.4h-35.1
			c-2.9,0-5.1,0.8-6.6,2.4c-1.5,1.6-2.6,3.2-3.1,4.8l-47.2,136.5C193.7,198.9,193.4,200,193.4,200.7z M268.8,96.5l17.6,52h-35.1
			L268.8,96.5z"/>
		<path class="st6" d="M409.2,212.8c3.5-3.5,5.5-8.2,5.5-13.2v-32.4l15.2,29.3v-7.9l-13.1-25.3c-0.3-0.6-0.9-1-1.6-1h-2.3
			c-1,0-1.8,0.8-1.8,1.8v35.4c0,4-1.6,7.7-4.4,10.6c-2.9,2.9-6.5,4.4-10.6,4.4H385c-0.9,0-1.7,0.7-1.8,1.7c-0.1,0.9,0.5,1.8,1.5,2
			c4.5,0.9,7.4,3.1,9.1,4.8c2.4,2.5,4.1,5.2,5.1,7.9l2.6,7.5h3.9l-3-8.7c-1.2-3.2-3.2-6.3-5.9-9.2c-0.7-0.7-1.5-1.5-2.6-2.3h2.3
			C401.1,218.3,405.7,216.4,409.2,212.8z"/>
		<path class="st6" d="M351.2,187.3c0.9-0.1,1.5-0.9,1.5-1.8v-74H349v63.1l-21.8-63.1h-3.9l25.8,74.6
			C349.4,186.9,350.2,187.4,351.2,187.3z"/>
		<path class="st6" d="M841.3,199.6v-31.2l26.1,38.9c1.2,1.9,2.8,3.6,5.4,5.8c2.7,2.3,7.3,5,14.3,5h22.5c5,0,9.6-1.9,13.1-5.5
			c3.5-3.5,5.5-8.2,5.5-13.2V77.5h-3.7v122.1c0,4-1.6,7.7-4.4,10.6c-2.9,2.9-6.5,4.4-10.6,4.4H887c-5.8,0-9.7-2.3-11.9-4.2
			c-2.3-2-3.7-3.5-4.7-5l-29.5-44c-0.4-0.7-1.3-1-2-0.7c-0.8,0.2-1.3,0.9-1.3,1.7v37.2c0,4-1.6,7.7-4.4,10.6
			c-2.9,2.9-6.5,4.4-10.6,4.4h-1.5c-0.9,0-1.7,0.7-1.8,1.6s0.5,1.8,1.4,2c2.3,0.6,4.5,1.2,6.7,2c8.6,3,16.2,6.9,22.5,11.6
			c6.5,4.9,11.7,10.4,15.5,16.3c4,6.4,6.2,12.9,6.4,19c0,4-1.4,7.5-4.1,10.2c-2.6,2.6-6,4.1-9.6,4.1h-14.5c-0.9,0-1.6,0.6-1.8,1.5
			c-0.2,0.9,0.3,1.7,1.1,2l0.9,0.4c6.9,2.9,12.8,6.5,17.6,10.9c0.7,0.7,1.4,1.4,2.1,2.1h4.9c-1.4-1.7-2.8-3.3-4.5-4.8
			c-3.5-3.2-7.5-6-12-8.5h6.2c4.5,0,8.9-1.8,12.2-5.1c3.4-3.4,5.2-7.8,5.2-12.8c-0.2-6.9-2.6-13.9-6.9-20.9
			c-4-6.4-9.5-12.2-16.4-17.3c-6.5-4.8-14.1-8.8-22.7-11.9c2.3-0.9,4.5-2.3,6.4-4.2C839.3,209.3,841.3,204.6,841.3,199.6z"/>
		<path class="st6" d="M728.8,47.3c-2.8-2.9-7.8-6.3-15.9-6.3h-35.1c-8.1,0-13.1,3.5-15.9,6.4c-2.8,2.9-4.7,6-6,9.4l-9.6,27.8h3.9
			l9.2-26.6c1.1-2.9,2.8-5.6,5.2-8.1c2.3-2.4,6.4-5.2,13.2-5.2H713c6.8,0,11,2.8,13.2,5.2c2.4,2.5,4.1,5.2,5.1,7.9l9.3,26.8h2.5v-4
			l-8.3-24C733.5,53.3,731.5,50.2,728.8,47.3z"/>
		<path class="st6" d="M741.6,218.3l1.4-3.7h-4.3c-5.4,0-9.7-1.5-12.6-4.5c-2.3-2.3-3.8-4.7-4.6-7.4l-3.5-10.2
			c-0.2-0.7-0.9-1.2-1.7-1.2h-41.9c-0.8,0-1.5,0.5-1.7,1.2l-3.5,10.3c-0.7,2.6-2.3,5.1-4.5,7.3c-3,3-7.3,4.5-12.7,4.5h-9.7
			c-0.9,0-1.7,0.7-1.8,1.6s0.5,1.8,1.4,2c2.7,0.6,5.1,2,7.2,4c2.9,2.9,4.4,6.6,4.4,10.6v14.9c0,0.8,0.5,1.5,1.2,1.7
			c0.2,0.1,0.4,0.1,0.6,0.1c0.5,0,1.1-0.2,1.4-0.7l18.7-22.9c0.9-1.1,2.1-2.3,3.4-3.7c2.9-2.9,7.1-4.4,12.3-4.4h33.8
			c3.7,0,7.2,1.4,9.8,4.1c1.5,1.5,2.6,3.3,3.3,5.2l1.8-4.6c-0.7-1.1-1.5-2.2-2.5-3.2c-0.4-0.4-0.9-0.8-1.3-1.2
			c0.8,0.1,1.7,0.1,2.6,0.1H741.6z M725.1,214.2h-33.8c-6.3,0-11.3,1.8-14.9,5.5c-1.5,1.5-2.7,2.8-3.7,4l-15.4,18.9v-9.8
			c0-5-1.9-9.6-5.5-13.2c-0.5-0.5-1-1-1.6-1.4h1.8c6.4,0,11.5-1.9,15.2-5.6c2.7-2.7,4.5-5.7,5.4-8.8l3-9H715l3,8.9
			c0.9,3.2,2.8,6.2,5.5,8.9c0.5,0.6,1.1,1.1,1.7,1.5C725.2,214.2,725.1,214.2,725.1,214.2z"/>
		<path class="st6" d="M735.3,246.9c0.5-0.8,0.2-1.9-0.5-2.4c-0.8-0.5-1.9-0.4-2.5,0.3l-44,53.7c-0.5,0.7-0.6,1.6,0,2.3l33.1,41.6
			c0.4,0.4,0.9,0.7,1.4,0.7c0.2,0,0.5,0,0.7-0.2c0.8-0.3,1.2-1.1,1.1-2c-0.2-1.6-0.4-3.2-0.4-4.7c0-3.9,1.4-7.4,4.1-10.1
			c2.6-2.6,6.1-4.1,9.6-4.1h5.1v-3.7h-5.1c-4.5,0-8.9,1.8-12.2,5.2c-3.2,3.2-4.9,7.3-5.1,11.9l-28.5-35.8l34.8-42.6
			c-1.4,4.7-2,9.5-2,14.5c0,15.7,4.6,28.6,13.7,38.5c1.4,1.5,2.9,2.9,4.5,4.3v-5c-0.6-0.6-1.2-1.2-1.8-1.8
			c-8.4-9.1-12.7-21.2-12.7-36c0-7.6,1.7-15,5.2-21.9C734.2,248.8,734.7,247.9,735.3,246.9z"/>
		<path class="st6" d="M866.2,96.8V77.5h-3.7v13.3l-8.9-13.3h-4.4l13.6,20.3c0.4,0.7,1.3,1,2,0.7C865.6,98.3,866.2,97.6,866.2,96.8z
			"/>
		<path class="st6" d="M637.6,59.6v23c0,0.7-0.1,1.3-0.2,1.9h3.7c0.1-0.6,0.2-1.3,0.2-1.9v-23c0-5-1.9-9.6-5.5-13.2
			c-3.6-3.6-8.1-5.5-13.1-5.5H506.2c-5,0-9.6,1.9-13.2,5.5c-3.6,3.6-5.5,8.1-5.5,13.2v4.4c-2.5-3.1-5.4-5.9-8.6-8.3
			c-6.6-5-14.5-8.8-23.6-11.3c-8.6-2.3-18.3-3.5-28.9-3.5h-58.7c-5,0-9.6,1.9-13.2,5.5c-3.6,3.6-5.5,8.1-5.5,13.2v24.9h3.7V59.6
			c0-4,1.5-7.7,4.4-10.6c2.9-2.9,6.5-4.4,10.6-4.4h58.7c10.3,0,19.7,1.1,27.9,3.3c8.6,2.3,16.2,5.9,22.4,10.7
			c4.4,3.4,8.1,7.4,11.1,12c0.4,0.7,1.3,1,2.1,0.8c0.8-0.2,1.3-0.9,1.3-1.8v-10c0-4,1.5-7.7,4.4-10.6c2.9-2.9,6.5-4.4,10.6-4.4
			h116.4c4,0,7.7,1.5,10.6,4.4C636,51.9,637.6,55.6,637.6,59.6z"/>
		<path class="st6" d="M777.7,187.3c0.9-0.1,1.5-0.9,1.5-1.8v-108h-3.6v108.3l0.1,0.3C776,186.9,776.8,187.4,777.7,187.3z"/>
		<path class="st6" d="M682.2,388.1c3.4,2.3,7.5,3.5,12.1,3.5h34.5c4.7,0,9.1-1.8,12.4-5.2c0.7-0.7,1.3-1.4,1.8-2.2v-10.6
			c-0.2,0.3-0.3,0.6-0.4,1c-0.1,3.5-1.6,6.8-4.1,9.3c-2.6,2.6-6.1,4.1-9.8,4.1h-34.5c-3.9,0-7.2-1-10.1-2.8c-2.1-1.4-4-3.2-5.9-5.5
			l-21.5-27.1c-0.5-0.6-1.3-0.9-2-0.6c-0.7,0.3-1.2,0.9-1.2,1.7v19.3c0,4-1.6,7.7-4.4,10.6c-2.9,2.9-6.5,4.4-10.6,4.4h-28.4
			c-4,0-7.7-1.5-10.6-4.4c-2.8-2.8-4.4-6.6-4.4-10.6v-140c0-4,1.5-7.7,4.4-10.6c2.9-2.9,6.5-4.4,10.6-4.4h10.9
			c0.9,0,1.7-0.7,1.8-1.6c0.1-0.9-0.5-1.8-1.4-2c-2.5-0.6-4.8-1.9-6.7-3.8c-2.6-2.6-4.1-6.1-4.1-9.8c0-1.9,0.5-3.9,1.4-6.5
			l18.2-52.5h-3.9L608.9,193c-1.1,2.9-1.7,5.4-1.7,7.7c0,4.7,1.8,9.1,5.1,12.4c0.4,0.4,0.8,0.8,1.2,1.1h-3.3c-5,0-9.6,1.9-13.2,5.5
			c-3.6,3.6-5.5,8.1-5.5,13.2v26.8c-1-2.8-2.2-5.6-3.7-8.3c-4.3-8-10.2-15.1-17.7-20.9c-6.3-4.9-13.6-9-21.7-12.2
			c0.5,0,1.1,0.1,1.6,0.1h28.4c5,0,9.6-1.9,13.1-5.5c3.5-3.5,5.5-8.2,5.5-13.2v-57.8h-3.7v57.8c0,4-1.6,7.7-4.4,10.6
			c-2.8,2.8-6.6,4.4-10.6,4.4h-28.4c-4,0-7.7-1.5-10.6-4.4c-2.8-2.8-4.4-6.6-4.4-10.6v-57.8h-3.7v57.8c0,5,1.9,9.6,5.5,13.1
			c1,1,2.2,1.9,3.3,2.7c-8.1-2.3-16.8-3.4-25.9-3.4c-6.3,0-12.3,0.5-18,1.5c0.2-0.1,0.3-0.3,0.5-0.5c3.3-3.3,5.2-7.7,5.2-12.4
			c0-2.8-0.7-5.5-2.1-8.3l-21.3-40.9c3.7-2.8,6.9-6.1,9.7-9.7h-4.8c-2.5,2.8-5.3,5.4-8.4,7.7c-0.7,0.5-1,1.5-0.5,2.3l22,42.3
			c1.1,2.3,1.7,4.5,1.7,6.6c0,3.7-1.5,7.2-4.1,9.8c-2.6,2.6-6.1,4.1-9.8,4.1h-20v3.7H480c-5.6,2.3-10.8,5.1-15.5,8.4v4.4
			c5.5-4.1,11.7-7.5,18.7-10.1c9.2-3.5,19.7-5.2,31.2-5.2c10.5,0,20.4,1.6,29.5,4.7c9.1,3.1,17.2,7.5,24,12.8
			c7,5.5,12.7,12.2,16.7,19.8c4.1,7.8,6.3,16.1,6.5,24.9c0,3.9-1.4,7.4-4.1,10c-2.6,2.6-6.1,4.1-9.8,4.1h-28.4
			c-5.1,0-9-1.5-11.7-4.4c-1.8-2-3.2-4.6-4.4-8.4c-0.4-1.1-1-2.5-1.8-4c-0.5-1-1.3-1.9-2.4-2.8c-0.8-0.7-2.4-1.7-5.1-2.7
			c-1.5-0.5-4.2-1.2-9-1.2c-4.6,0-7.3,0.7-8.9,1.4c-2.1,0.9-3.8,2-5.1,3.3c-1.3,1.3-2.2,2.9-2.8,4.6c-0.8,2.4-1.3,4.9-1.5,7.5
			c-0.1,1.7-0.2,4.1-0.3,7.2c-0.1,3.3-0.1,6.6-0.1,10.1c0,3.5,0,6.9,0.1,10.2c0.1,3.2,0.2,5.7,0.3,7.4c0.2,2.5,0.7,5,1.5,7.3
			c0.6,1.8,1.5,3.3,2.8,4.7c1.3,1.4,2.9,2.5,5.1,3.3c1.5,0.6,4.3,1.4,8.9,1.4c4.8,0,7.5-0.6,9-1.2c2.7-1,4.3-2,5.1-2.7
			c1.1-0.9,1.9-1.8,2.4-2.8c0.8-1.6,1.5-3,1.9-4.3c1.1-3.5,2.5-6.2,4.3-8.1c2.7-2.9,6.6-4.4,11.7-4.4h28.4c3.7,0,7.2,1.4,9.8,4.1
			c2.6,2.7,4.1,6.1,4.1,9.8c-0.2,8.9-2.4,17.4-6.5,25.1c-4.1,7.6-9.7,14.3-16.7,19.8c-6.8,5.4-14.9,9.7-24,12.8
			c-9.1,3.1-19,4.7-29.5,4.7c-11.5,0-21.9-1.8-31.1-5.3c-7-2.7-13.3-6.1-18.8-10.2v4.4c5.3,3.7,11.1,6.8,17.5,9.2
			c9.6,3.6,20.5,5.5,32.4,5.5c10.9,0,21.3-1.7,30.7-4.9c9.5-3.3,17.9-7.8,25.1-13.4c7.4-5.9,13.4-12.9,17.7-20.9
			c1.4-2.7,2.7-5.5,3.7-8.4v26.8c0,5,1.9,9.6,5.5,13.1c3.6,3.6,8.1,5.5,13.2,5.5h28.4c5,0,9.6-1.9,13.2-5.5
			c3.5-3.5,5.5-8.2,5.5-13.2v-14l18.3,23C677.6,384.4,679.9,386.5,682.2,388.1z M591.6,317.4c-0.6-0.8-1.2-1.5-1.9-2.3
			c-3.3-3.3-7.7-5.1-12.4-5.1h-28.4c-6.2,0-11,1.9-14.4,5.6c-2.2,2.4-3.8,5.5-5.1,9.5c-0.3,1-0.9,2.3-1.6,3.7
			c-0.3,0.5-0.8,1.1-1.5,1.7c-0.5,0.4-1.7,1.2-4.1,2.1c-1,0.4-3.3,1-7.8,1c-4,0-6.3-0.6-7.5-1.1c-1.6-0.7-2.9-1.5-3.8-2.5
			c-0.9-1-1.5-2-2-3.3c-0.7-2-1.1-4.3-1.3-6.5c-0.1-1.7-0.2-4.1-0.3-7.2c-0.1-3.3-0.1-6.7-0.1-10.1c0-3.4,0-6.8,0.1-10
			c0.1-3,0.2-5.4,0.3-7c0.2-2.3,0.7-4.5,1.4-6.6c0.4-1.3,1.1-2.3,1.9-3.3c0.9-1,2.2-1.8,3.8-2.5c1.2-0.5,3.5-1.1,7.5-1.1
			c4.5,0,6.8,0.6,7.8,1c2.4,0.9,3.6,1.7,4.1,2.1c0.7,0.6,1.2,1.2,1.5,1.7c0.7,1.3,1.3,2.6,1.6,3.4c1.3,4.2,3,7.3,5.2,9.7
			c3.4,3.7,8.2,5.5,14.4,5.5h28.4c4.7,0,9.1-1.8,12.4-5.2c0.7-0.7,1.3-1.4,1.9-2.2V317.4z"/>
		<path class="st6" d="M238.1,49.9c2.3-2.4,6.4-5.2,13.2-5.2h35.1c6.8,0,11,2.8,13.2,5.2c2.4,2.5,4.1,5.2,5.1,7.9l9.3,26.8h3.9
			l-9.7-28c-1.2-3.2-3.2-6.3-5.9-9.2c-2.8-2.9-7.8-6.3-15.9-6.3h-35.1c-8.1,0-13.1,3.5-15.9,6.4c-2.8,2.9-4.7,6-6,9.4l-9.6,27.8h3.9
			l9.2-26.6C234,55.1,235.6,52.4,238.1,49.9z"/>
		<path class="st6" d="M279.1,232.9v5.6h3.7v-5.6c0-5-1.9-9.6-5.5-13.2c-3.6-3.6-8.1-5.5-13.1-5.5H239c0.6-0.5,1.2-1,1.8-1.5
			c2.7-2.7,4.5-5.7,5.4-8.8l3-9h39.3l3,8.9c0.9,3.2,2.8,6.2,5.5,8.9c3.7,3.7,8.8,5.6,15.2,5.6h19.9c-1,0.8-1.9,1.5-2.6,2.3
			c-2.8,2.9-4.7,6-6,9.4l-2.9,8.5h3.9l2.5-7.3c1.1-2.9,2.8-5.6,5.2-8.1c2.3-2.4,6.4-5.2,13.2-5.2h18.6c0.9,0,1.7-0.7,1.8-1.6
			s-0.5-1.8-1.4-2c-2.7-0.6-5.2-2-7.2-4.1c-0.9-0.9-1.6-1.8-2.2-2.8c-0.3-0.5-0.9-0.9-1.6-0.9c0,0,0,0,0,0c-0.6,0-1.2,0.4-1.6,0.9
			c-0.6,1.1-1.4,2.2-2.4,3.1c-2.6,2.6-6.1,4.1-9.8,4.1h-27.3c-5.4,0-9.7-1.5-12.6-4.5c-2.3-2.3-3.8-4.7-4.6-7.4l-3.5-10.2
			c-0.2-0.7-0.9-1.2-1.7-1.2h-41.9c-0.8,0-1.5,0.5-1.7,1.2l-3.5,10.3c-0.7,2.6-2.3,5.1-4.5,7.3c-3,3-7.3,4.5-12.7,4.5h-8.9v3.7h7.5
			c-0.5,0.4-1.1,0.9-1.6,1.4c-3.6,3.6-5.5,8.1-5.5,13.2v5.6h3.7v-5.6c0-4,1.5-7.7,4.4-10.6c2.8-2.8,6.6-4.4,10.6-4.4h28.4
			c4,0,7.7,1.5,10.6,4.4C277.5,225.2,279.1,228.8,279.1,232.9z M351.9,213.1c0.5-0.5,1-1,1.4-1.6c0.4,0.4,0.8,0.9,1.2,1.3
			c0.5,0.5,1,1,1.6,1.4h-5.4C351.1,213.9,351.5,213.5,351.9,213.1z"/>
		<path class="st6" d="M69,49.1c2.9-2.9,6.5-4.4,10.6-4.4H196c4,0,7.7,1.5,10.6,4.4c2.9,2.9,4.4,6.6,4.4,10.6v23
			c0,0.7-0.1,1.3-0.2,1.9h3.7c0.1-0.6,0.2-1.3,0.2-1.9v-23c0-5-1.9-9.6-5.5-13.2C205.6,42.9,201,41,196,41H79.6
			c-5,0-9.6,1.9-13.2,5.5c-3.6,3.6-5.5,8.1-5.5,13.2v23c0,0.7,0.1,1.3,0.2,1.9h3.7c-0.1-0.6-0.2-1.3-0.2-1.9v-23
			C64.6,55.6,66.2,51.9,69,49.1z"/>
		<path class="st6" d="M280.6,360.5c0.9,0.2,1.7-0.4,2-1.2l20.7-59.8h-3.9l-16.7,48.3v-48.3h-3.7v59.2
			C279.1,359.6,279.7,360.4,280.6,360.5z"/>
		<path class="st6" d="M451.4,226.5c-0.2-0.7-0.8-1.1-1.5-1.2c-7.9-1.2-12.9-5-15.7-7.9c-2.3-2.5-4.3-5.1-5.8-7.9l-3.2-6.2
			c-0.4-0.7-1.1-1.1-1.9-1c-0.8,0.1-1.4,0.7-1.5,1.5c-0.9,5.4-3.4,10.3-7.3,14.2c-1.7,1.7-3.6,3.1-5.6,4.3c-0.8,0.5-1.2,1.5-0.8,2.4
			c0.4,0.9,0.8,1.7,1.1,2.6l15.5,44.7c0.3,0.7,1,1.2,1.7,1.2c0,0,0.1,0,0.1,0c0.8-0.1,1.5-0.7,1.7-1.5c1.1-6.5,3.1-12.8,5.8-18.9
			c4.1-9.2,9.8-17.4,17.1-24.4C451.4,227.9,451.6,227.2,451.4,226.5z M430.5,251.3c-1.9,4.3-3.5,8.7-4.6,13.3L412.5,226
			c-0.2-0.5-0.4-0.9-0.5-1.4c1.8-1.2,3.5-2.5,5-4c3.3-3.3,5.7-7.1,7.1-11.4l1,2c1.7,3.1,3.9,6,6.4,8.7c2.8,2.9,7.4,6.6,14.4,8.4
			C439.5,234.9,434.3,242.7,430.5,251.3z"/>
		<path class="st6" d="M509.8,204.2c0.4,0.4,0.9,0.6,1.4,0.6c3.7-0.1,7.6,0,11.3,0.2c0,0,0.1,0,0.1,0c0.5,0,1-0.2,1.3-0.6
			c0.4-0.4,0.6-0.9,0.5-1.5c-0.1-1.1-0.2-2.2-0.2-3.3v-35.4h-3.7v35.4c0,0.5,0,1.1,0,1.6c-2.1-0.1-4.1-0.2-6.2-0.2
			c-0.5,0-0.9,0-1.4,0c0-0.1,0-0.2,0-0.4c0-4.4-1.1-8.8-3.2-13l-12.2-23.5h-4.1l13.1,25.2c1.8,3.7,2.8,7.5,2.8,11.3
			c0,0.7,0,1.4-0.1,2.1C509.2,203.3,509.4,203.8,509.8,204.2z"/>
		<path class="st6" d="M538.1,301.2c-3.5-1.3-6.5-3.4-9-6c-2.9-3.1-5.1-7.1-6.7-12.2c-0.1-0.2-0.3-0.7-0.6-1.4
			c-0.2-0.4-0.5-0.7-0.9-0.9c-0.3-0.1-0.7-0.3-1.4-0.6c-0.4-0.1-2-0.5-5.1-0.5c-2.8,0-4.1,0.3-4.7,0.5c-0.4,0.2-0.7,0.3-1,0.5
			c-0.4,0.2-0.7,0.6-0.8,1.1c-0.4,1.6-0.7,3.1-0.8,4.7c-0.1,1.4-0.2,3.6-0.3,6.5c-0.1,3.2-0.1,6.5-0.1,9.9c0,3.4,0,6.7,0.1,10
			c0.1,2.9,0.1,5.2,0.3,6.8c0.1,1.6,0.5,3.2,1,4.7c0.2,0.5,0.6,0.9,1,1.1c0.1,0.1,0.3,0.2,0.6,0.3c0,0,0,0,0.1,0
			c0.2,0.1,1.6,0.5,4.6,0.5c3.6,0,5.1-0.5,5.3-0.5c0.6-0.2,1-0.4,1.3-0.5c0.4-0.2,0.7-0.5,0.9-0.9c0.3-0.7,0.5-1.1,0.6-1.4
			c1.6-5.1,3.8-9,6.7-12.2c2.5-2.7,5.5-4.7,9-6.1c0.7-0.3,1.2-0.9,1.2-1.7S538.8,301.4,538.1,301.2z M526.4,308.2
			c-3.2,3.5-5.7,7.9-7.4,13.5c0,0.1-0.1,0.2-0.2,0.4c-0.1,0-0.2,0.1-0.2,0.1c0,0-1.2,0.3-4.1,0.3c-1.6,0-2.6-0.1-3.1-0.2
			c-0.3-1-0.5-2-0.5-3c-0.1-1.6-0.2-3.8-0.3-6.6c-0.1-3.2-0.1-6.5-0.1-9.9c0-3.4,0-6.6,0.1-9.8c0.1-2.8,0.1-4.9,0.2-6.3
			c0.1-1,0.3-2.1,0.5-3.2c0.4-0.1,1.4-0.2,3.1-0.2c2.7,0,4,0.3,4,0.3v0c0.1,0.1,0.3,0.1,0.4,0.1c0.1,0.2,0.1,0.3,0.1,0.3
			c1.8,5.6,4.2,10,7.5,13.6c1.9,2.1,4.2,3.9,6.7,5.3C530.6,304.3,528.3,306.1,526.4,308.2z"/>
		<path class="st6" d="M291.6,295.3c0.1,0,0.2,0,0.3,0c0.8,0,1.5-0.5,1.7-1.2l22.9-66.1c0.2-0.6,0.1-1.2-0.2-1.7
			c-0.3-0.5-0.9-0.8-1.5-0.8h-2.5c-10.5,0-16.9-4.2-20.4-7.8c-3.5-3.5-6-7.5-7.3-11.9l-0.9-2.6c-0.2-0.7-0.9-1.2-1.7-1.2h-16.5v4.8
			c6.4,0.3,12.4,3,17,7.5c4.9,4.9,7.6,11.5,7.6,18.4v60.6C290,294.4,290.7,295.2,291.6,295.3z M312.2,229.3l-18.5,53.4v-49.8
			c0-3.5-0.6-6.8-1.7-10C296.2,226.2,302.7,229.3,312.2,229.3z M276.2,205.9h4.4l0.4,1.2c0.2,0.7,0.4,1.4,0.7,2
			C280,207.8,278.1,206.7,276.2,205.9z"/>
		<path class="st6" d="M514.4,401c-12.8,0-24.6-2-35-6c-7.6-2.9-14.5-6.6-20.6-11.1c-0.4-0.3-1-0.4-1.5-0.3c-0.5,0.1-1,0.5-1.2,1
			c-1.2,2.6-2.9,4.9-4.9,6.9c-4.7,4.7-10.9,7.3-17.6,7.3h-27.3c-10.5,0-16.9-4.2-20.4-7.8c-3.5-3.5-6-7.5-7.3-11.9l-0.9-2.6
			c-0.2-0.7-0.9-1.2-1.7-1.2h-26.2c-0.8,0-1.5,0.5-1.7,1.2l-0.9,2.6c-1.3,4.3-3.7,8.3-7.2,11.8c-3.6,3.5-10,7.8-20.4,7.8h-27.3
			c-4.6,0-9.1-1.3-13-3.7c-0.6-0.4-1.3-0.4-1.9,0c-3.6,2.2-7.7,3.4-11.9,3.6v3.7c4.5-0.2,8.9-1.4,12.9-3.6c4.2,2.4,9,3.6,14,3.6
			h27.3c11.7,0,19-4.8,23-8.8c4-4,6.7-8.4,8.1-13.3l0.4-1.3h23.5l0.4,1.2c1.5,4.9,4.2,9.4,8.2,13.3c4,4,11.3,8.8,23,8.8h27.3
			c7.6,0,14.8-3,20.2-8.4c1.8-1.8,3.4-3.8,4.6-6c6,4.1,12.6,7.6,19.8,10.4c10.8,4.1,23,6.2,36.3,6.2c12.1,0,23.7-1.9,34.3-5.5
			c4.8-1.6,9.3-3.6,13.6-5.8v-4.1c-4.6,2.5-9.6,4.7-14.8,6.5C537.3,399.2,526.1,401,514.4,401z"/>
		<path class="st6" d="M94,112.2v84.6h3.7v-86.4c0-1-0.8-1.8-1.8-1.8H79.6c-0.6,0-1.3,0-1.9-0.1v0.1H60.1v24.7H40.9v3.7h22.9v-24.7
			h15.8H94z"/>
		<path class="st6" d="M202.8,108.7c-0.4-0.5-1.1-0.7-1.7-0.6c-1.6,0.3-3.3,0.5-5,0.5h-16.2c-1,0-1.8,0.8-1.8,1.8v61.9
			c0,0.9,0.6,1.7,1.5,1.8c0.1,0,0.2,0,0.3,0c0.8,0,1.5-0.5,1.7-1.2l21.6-62.4C203.3,109.8,203.2,109.2,202.8,108.7z M181.6,161.4
			v-49.2H196c0.9,0,1.8,0,2.7-0.1L181.6,161.4z"/>
		<path class="st6" d="M128.8,312v60.8c0,5.3,2.1,10.1,5.8,13.6c3.5,3.3,8,5.1,12.9,5.1h28.4c5,0,9.6-1.9,13.2-5.5
			c3.5-3.5,5.5-8.2,5.5-13.2v-40.3H217v40.3c0,5,1.9,9.6,5.5,13.1c3.5,3.6,8.2,5.5,13.2,5.5h28.4c5,0,9.6-1.9,13.2-5.5
			c0.4-0.4,0.8-0.8,1.2-1.3c0.4,0.6,0.9,1.1,1.4,1.6c3.3,3.3,7.7,5.2,12.4,5.2h27.3c6.4,0,11.5-1.9,15.2-5.6
			c2.7-2.7,4.5-5.7,5.4-8.8l3-9h39.3l3,8.9c0.9,3.2,2.8,6.2,5.5,8.9c3.7,3.7,8.8,5.6,15.2,5.6h14.3v-3.7h-14.3
			c-5.4,0-9.7-1.5-12.6-4.5c-2.3-2.3-3.8-4.7-4.6-7.4l-3.5-10.2c-0.2-0.7-0.9-1.2-1.7-1.2H342c-0.8,0-1.5,0.5-1.7,1.2l-3.5,10.3
			c-0.7,2.6-2.3,5.1-4.5,7.3c-3,3-7.3,4.5-12.7,4.5h-27.3c-3.7,0-7.2-1.5-9.9-4.1c-0.9-0.9-1.7-2-2.3-3.1c-0.3-0.6-0.9-0.9-1.6-0.9
			c-0.8-0.1-1.3,0.3-1.6,0.9c-0.6,1-1.4,2-2.3,2.9c-2.9,2.9-6.5,4.4-10.6,4.4h-28.4c-4,0-7.8-1.6-10.6-4.4
			c-2.8-2.8-4.4-6.6-4.4-10.6v-42.1c0-1-0.8-1.8-1.8-1.8h-26.2c-1,0-1.8,0.8-1.8,1.8v42.1c0,4-1.6,7.7-4.4,10.6
			c-2.9,2.9-6.5,4.4-10.6,4.4h-28.4c-3.9,0-7.5-1.4-10.4-4.1c-3-2.8-4.6-6.7-4.6-10.9v-64.4h-1.8v-0.1h-27.2v1.8v1.8H128.8z"/>
		<path class="st6" d="M502,454.9h-20l11.1-8.4c1.8-1.3,3.3-2.7,4.6-4c1.2-1.3,2.3-2.7,3-4s1.3-2.7,1.6-4.2c0.3-1.4,0.5-2.9,0.5-4.5
			c0-2.4-0.5-4.8-1.4-7c-0.9-2.3-2.3-4.2-4.1-6c-1.8-1.7-4-3.1-6.7-4.1c-2.7-1-5.8-1.6-9.3-1.6c-3.7,0-6.9,0.6-9.7,1.7
			c-2.7,1.1-5,2.6-6.8,4.4c-1.8,1.8-3.2,3.8-4.1,6c-0.9,2.2-1.4,4.4-1.4,6.6c0,0.5,0.2,0.9,0.5,1.2c0.3,0.3,0.8,0.5,1.2,0.5h9.8
			c0.7,0,1.4-0.1,1.9-0.4c0.6-0.2,1-0.7,1.2-1.5c0.1-0.3,0.3-0.8,0.5-1.5c0.2-0.7,0.6-1.3,1.1-1.9c0.5-0.6,1.2-1.2,2.1-1.7
			c0.9-0.5,2.1-0.8,3.6-0.8c1.5,0,2.7,0.2,3.5,0.7s1.6,1,2,1.7c0.5,0.7,0.8,1.3,0.9,2c0.1,0.7,0.2,1.2,0.2,1.6
			c0,1.1-0.2,2.2-0.7,3.3c-0.5,1.1-1.6,2.4-3.5,3.8l-23.8,17c-0.8,0.6-1.4,1.3-1.8,2.1c-0.3,0.8-0.5,1.7-0.5,2.5v6.8
			c0,0.6,0.2,1.1,0.6,1.5c0.4,0.4,0.9,0.6,1.5,0.6h42c0.6,0,1.1-0.2,1.5-0.6c0.4-0.4,0.6-0.9,0.6-1.5v-8.4c0-0.6-0.2-1.1-0.6-1.5
			C503.1,455.1,502.6,454.9,502,454.9z"/>
		<path class="st6" d="M556.6,424.5c-0.9-2.6-2.3-4.9-4.2-6.9c-1.9-2-4.3-3.5-7.1-4.7c-2.9-1.2-6.3-1.7-10.3-1.7
			c-4,0-7.4,0.6-10.3,1.7c-2.9,1.2-5.2,2.7-7.1,4.7c-1.9,2-3.3,4.3-4.2,6.9c-0.9,2.6-1.5,5.4-1.6,8.2c-0.1,2.3-0.2,4.7-0.2,7.2
			c0,2.5,0.1,4.8,0.2,7c0.2,2.9,0.7,5.6,1.6,8.2c0.9,2.6,2.3,4.9,4.2,6.9c1.9,2,4.3,3.5,7.1,4.7c2.9,1.2,6.3,1.7,10.3,1.7
			c4,0,7.4-0.6,10.3-1.7c2.9-1.2,5.2-2.7,7.1-4.7c1.9-2,3.3-4.3,4.2-6.9c0.9-2.6,1.5-5.4,1.6-8.2c0.1-2.2,0.2-4.5,0.2-7
			c0-2.5-0.1-4.9-0.2-7.2C558.1,429.9,557.6,427.1,556.6,424.5z M543.6,446.5c-0.1,1.3-0.2,2.5-0.5,3.7c-0.3,1.1-0.8,2.1-1.4,2.9
			c-0.7,0.8-1.5,1.5-2.6,1.9c-1.1,0.5-2.4,0.7-4,0.7c-1.6,0-2.9-0.2-4-0.7s-1.9-1.1-2.6-1.9c-0.7-0.8-1.1-1.8-1.4-2.9
			c-0.3-1.1-0.5-2.3-0.5-3.7c-0.3-4.5-0.3-9,0-13.4c0.1-1.3,0.2-2.5,0.6-3.7c0.3-1.1,0.8-2.1,1.4-2.9c0.6-0.8,1.5-1.5,2.5-1.9
			s2.4-0.7,4-0.7c1.6,0,2.9,0.2,4,0.7c1.1,0.5,1.9,1.1,2.5,1.9c0.6,0.8,1.1,1.8,1.4,2.9c0.3,1.1,0.5,2.3,0.6,3.7
			C543.8,437.5,543.8,442,543.6,446.5z"/>
		<path class="st6" d="M595,412h-9.7c-0.8,0-1.5,0.2-2.1,0.6c-0.6,0.4-1.1,0.8-1.5,1.1l-17.1,13.1c-0.5,0.4-0.8,0.8-0.9,1.4
			c-0.1,0.6,0,1.1,0.4,1.6l5.9,7.6c0.4,0.5,0.8,0.8,1.4,0.8c0.6,0.1,1.1-0.1,1.6-0.4l9.5-7.2v34.8c0,0.6,0.2,1.1,0.6,1.5
			c0.4,0.4,0.9,0.6,1.5,0.6H595c0.6,0,1.1-0.2,1.5-0.6c0.4-0.4,0.6-0.9,0.6-1.5v-51.4c0-0.6-0.2-1.1-0.6-1.5
			C596.1,412.2,595.6,412,595,412z"/>
		<path class="st6" d="M644.9,412h-38c-0.6,0-1.1,0.2-1.5,0.6c-0.4,0.4-0.6,0.9-0.6,1.5v8.4c0,0.6,0.2,1.1,0.6,1.5
			c0.4,0.4,0.9,0.6,1.5,0.6h23.7l-17.2,40.1c-0.2,0.4-0.2,0.7-0.2,1c0,0.5,0.2,1,0.6,1.4c0.4,0.4,0.8,0.6,1.4,0.6h11.1
			c0.6,0,1.1-0.2,1.5-0.6c0.3-0.4,0.6-0.8,0.8-1.3l17.3-40.2c0.8-1.9,1.3-3.2,1.3-4.1v-7.4c0-0.6-0.2-1.1-0.6-1.5
			C646,412.2,645.5,412,644.9,412z"/>
	</g>
</g>
</svg>
