<svg width="801" height="1308" viewBox="0 0 801 1308" fill="none" xmlns="http://www.w3.org/2000/svg">
<path d="M193.481 723.389C189.474 709.907 186.172 689.3 187.402 683.595L169.83 691.944L304.328 1013.95C304.328 1013.95 206.557 766.194 206.725 724.194C206.725 724.194 202.011 751.913 193.481 723.389Z" fill="#224D9B"/>
<path d="M175.586 730.883C189.868 756.998 166.826 740.867 166.826 740.867C196.838 770.298 304.329 1013.95 304.329 1013.95L169.831 691.943L151.53 698.548C156.441 701.716 168.824 718.485 175.603 730.841L175.586 730.883Z" fill="#224D9B"/>
<path d="M71.6909 688.173C85.1734 684.166 105.78 680.864 111.485 682.094L103.137 664.523L-218.867 799.02C-218.867 799.02 28.8858 701.249 70.8859 701.417C70.8859 701.417 43.1668 696.703 71.6909 688.173Z" fill="#224D9B"/>
<path d="M64.1804 670.319C38.0649 684.601 54.1955 661.56 54.1955 661.56C24.7646 691.571 -218.867 799.021 -218.867 799.021L103.137 664.523L96.5314 646.222C93.364 651.133 76.5943 663.516 64.2554 670.254L64.1804 670.319Z" fill="#224D9B"/>
<path d="M106.906 566.382C110.913 579.865 114.215 600.471 112.985 606.176L130.557 597.828L-3.94092 275.825C-3.94092 275.825 93.8302 523.577 93.6624 565.577C93.6624 565.577 98.3763 537.858 106.906 566.382Z" fill="#224D9B"/>
<path d="M124.784 558.93C110.502 532.814 133.544 548.945 133.544 548.945C103.533 519.514 -3.91699 275.883 -3.91699 275.883L130.581 597.886L148.882 591.281C143.97 588.113 131.587 571.344 124.809 558.988L124.784 558.93Z" fill="#224D9B"/>
<path d="M228.697 601.598C215.214 605.605 194.608 608.907 188.903 607.677L197.251 625.249L519.254 490.751C519.254 490.751 271.502 588.522 229.502 588.354C229.502 588.354 257.221 593.068 228.697 601.598Z" fill="#224D9B"/>
<path d="M236.149 619.477C262.265 605.195 246.134 628.236 246.134 628.236C275.565 598.225 519.196 490.775 519.196 490.775L197.193 625.273L203.798 643.574C206.966 638.663 223.735 626.28 236.091 619.501L236.149 619.477Z" fill="#224D9B"/>
<path d="M610.947 843.688C610.947 843.688 334.089 713.848 310.937 653.342C310.937 653.342 319.698 703.861 291.702 682.668C278.444 672.616 262.374 650.63 260.911 639.633L260.877 639.716C258.28 618.917 250.007 599.162 237.01 582.718L237.051 582.735C230.283 573.994 225.851 547.1 227.989 530.6C232.531 495.783 262.382 537.471 262.382 537.471C235.529 478.48 337.259 190.106 337.259 190.106C337.259 190.106 207.419 466.964 146.913 490.116C146.913 490.116 197.432 481.355 176.24 509.351C166.187 522.608 144.201 538.678 133.204 540.142L133.245 540.159C112.446 542.756 92.6919 551.029 76.2479 564.026L76.2817 563.944C67.5405 570.712 40.6468 575.144 24.147 573.005C-10.6703 568.464 31.0173 538.613 31.0173 538.613C-27.9493 565.524 -316.323 463.794 -316.323 463.794C-316.323 463.794 -39.4653 593.633 -16.3133 654.14C-16.3133 654.14 -25.0738 603.621 2.92165 624.813C16.1795 634.866 32.2494 656.852 33.7128 667.849L33.7466 667.766C36.3274 688.607 44.5996 708.361 57.6387 724.822L57.515 724.771C64.2826 733.512 68.7154 760.406 66.5763 776.906C62.035 811.723 32.1837 770.036 32.1837 770.036C59.0542 828.985 -42.6765 1117.36 -42.6765 1117.36C-42.6765 1117.36 87.1633 840.501 147.67 817.349C147.67 817.349 97.1507 826.11 118.343 798.114C128.396 784.857 150.382 768.787 161.379 767.323L161.255 767.273C182.095 764.692 201.891 756.436 218.31 743.38L218.277 743.463C227.018 736.695 253.911 732.263 270.411 734.402C305.229 738.943 263.541 768.794 263.541 768.794C322.491 741.924 610.865 843.654 610.865 843.654L610.906 843.671L610.947 843.688ZM176.514 671.048C168.861 683.267 154.277 689.374 140.218 686.213C129.273 700.356 102.321 763.44 102.321 763.44C102.321 763.44 127.377 699.58 129.461 681.806C117.241 674.152 111.135 659.569 114.237 645.533C100.094 634.589 37.0099 607.637 37.0099 607.637C37.0099 607.637 100.87 632.693 118.628 634.817C126.281 622.598 140.865 616.491 154.941 619.611C165.886 605.467 192.879 542.401 192.879 542.401C192.879 542.401 167.823 606.261 165.698 624.018C177.917 631.672 184.024 646.255 180.905 660.332C195.048 671.276 258.132 698.228 258.132 698.228C258.132 698.228 194.272 673.172 176.514 671.048Z" fill="#224D9B"/>
<path d="M273.493 347.514C484.133 433.379 543.545 703.682 379.863 864.824C305.687 938.259 195.273 972.203 92.724 952.524C-56.2043 926.214 -167.664 792.706 -167.77 641.523C-168.947 412.358 63.0103 260.56 273.534 347.531L273.493 347.514ZM273.104 348.462C92.5276 273.808 -114.679 390.452 -150.98 580.918C-189.589 771.498 -39.924 954.736 154.777 954.265C346.168 954.94 488.952 780.423 461.544 593.314C447.16 486.148 374.1 388.732 273.121 348.421L273.104 348.462Z" fill="#224D9B"/>
<path d="M481.607 677.104C480.037 682.814 477.586 688.212 474.351 693.288C466.39 705.67 452.458 715.943 434.104 722.912C426.139 725.906 417.55 728.307 408.569 730.019C404.137 730.851 399.715 731.542 395.36 732.068C392.015 732.478 387.056 732.95 382.291 733.067L382.252 731.752C386.976 731.618 391.894 731.129 395.181 730.743C399.478 730.241 403.9 729.55 408.291 728.702C417.23 726.973 425.744 724.637 433.61 721.65C451.732 714.779 465.438 704.703 473.257 692.551C477.639 685.731 480.49 678.186 481.789 670.199C483.311 660.137 483.702 652.018 482.977 644.742C482.252 636.406 479.883 628.794 475.969 622.136C472.02 615.56 466.452 609.765 459.478 604.935C453.443 600.633 446.205 596.801 436.749 592.976C429.355 589.994 421.023 587.303 411.343 584.733C403.213 582.605 394.536 580.639 384.791 578.813C373.362 576.633 364.309 574.176 356.369 571.115C345.263 566.854 336.761 561.879 329.634 555.541C320.642 547.766 314.606 537.592 312.685 526.889C310.633 516.037 312.884 503.963 318.891 493.765C324.488 484.217 332.692 476.411 342.536 471.298C351.051 466.845 361.369 464.334 373.235 463.804C383.61 463.386 393.95 464.349 402.215 465.087L404.207 465.278C412.893 466.045 421.1 466.808 429.124 466.726C438.669 466.69 446.48 465.365 453.012 462.698C456.789 461.117 460.005 459.258 462.77 456.973C465.576 454.705 468.205 451.931 470.888 448.554C475.831 442.011 479.425 434.531 481.25 426.904C485.22 411.106 482.345 393.803 473.513 380.702C471.528 377.675 469.022 374.627 465.865 371.408C463.297 368.864 460.233 366.357 456.4 363.728C449.638 359.321 441.991 355.899 433.713 353.663C429.925 352.688 425.78 351.761 421.622 351.453L418.589 351.221C417.985 351.166 417.348 351.194 416.711 351.222C416.314 351.252 415.934 351.24 415.553 351.229C415.156 351.259 414.834 351.223 414.395 351.236C413.775 351.222 413.138 351.25 412.501 351.278L409.446 351.567C401.557 352.378 393.35 354.551 385.034 357.931C370.576 363.848 355.877 372.94 340.039 385.753C333.56 390.993 326.993 396.918 319.88 403.823C312.85 410.762 306.674 417.377 301.536 423.455L298.428 426.225L300.493 422.595C305.606 416.459 311.799 409.802 318.887 402.839C326 395.934 332.625 389.984 339.121 384.703C355.035 371.825 369.867 362.643 384.441 356.677C392.832 353.231 401.179 351.068 409.226 350.225L412.321 349.953C413 349.942 413.678 349.931 414.315 349.903C414.713 349.874 415.035 349.909 415.432 349.88C415.829 349.85 416.193 349.902 416.59 349.873C417.227 349.845 417.947 349.851 418.608 349.881L421.642 350.113C425.899 350.413 430.068 351.399 433.955 352.366C442.357 354.653 450.103 358.067 457.055 362.6C460.928 365.246 464.058 367.828 466.691 370.447C469.915 373.741 472.486 376.864 474.495 379.949C483.531 393.374 486.494 411.05 482.431 427.195C480.538 434.987 476.876 442.632 471.825 449.323C469.091 452.824 466.346 455.646 463.506 457.996C460.608 460.371 457.316 462.296 453.423 463.926C446.742 466.724 438.774 468.08 429.047 468.09C420.982 468.155 412.716 467.416 404.03 466.649L402.038 466.459C393.351 465.692 383.516 464.791 373.198 465.185C361.548 465.659 351.387 468.138 343.046 472.519C333.377 477.558 325.373 485.109 319.903 494.468C314.055 504.394 311.898 516.122 313.886 526.659C315.736 536.948 321.772 547.122 330.42 554.564C337.44 560.809 345.794 565.676 356.777 569.886C364.675 572.93 373.588 575.378 384.993 577.499C394.779 579.343 403.497 581.326 411.626 583.453C421.406 586.016 429.721 588.748 437.157 591.747C446.677 595.647 454.015 599.472 460.133 603.807C467.255 608.746 472.954 614.691 477.017 621.458C481.046 628.307 483.487 636.094 484.185 644.611C484.942 652.045 484.535 660.205 482.986 670.449C482.636 672.712 482.146 674.966 481.532 677.169L481.491 677.153L481.607 677.104Z" fill="#224D9B" stroke="#224D9B" stroke-width="0.723184" stroke-miterlimit="10"/>
<path d="M489.818 679.264C487.994 685.833 485.195 692.195 481.467 697.888C476.874 705.103 470.291 711.889 461.912 717.89C454.931 722.828 446.84 727.07 437.115 730.835C420.148 737.12 401.763 740.755 382.427 741.546L382.388 740.23C401.584 739.431 419.852 735.844 436.662 729.59C446.271 725.874 454.287 721.697 461.193 716.825C469.456 710.873 475.913 704.276 480.397 697.209C485.391 689.484 488.74 680.603 490.18 671.567C491.867 660.753 492.246 651.956 491.461 643.885C490.613 634.44 487.835 625.36 483.308 617.73C478.789 610.198 472.262 603.337 464.425 597.912C457.839 593.192 450.081 589.099 439.967 585.003C432.242 581.887 423.605 579.118 413.537 576.437C405.243 574.243 396.326 572.274 386.416 570.38C375.35 568.254 367.032 566.001 359.463 563.092C349.446 559.229 341.535 554.688 335.303 549.103C327.682 542.563 322.633 534.093 321.052 525.262C319.389 516.398 321.258 506.43 326.217 497.969C330.925 489.886 338.086 483.097 346.451 478.774C353.928 474.858 362.854 472.691 373.627 472.243C382.77 471.897 391.672 472.608 401.507 473.509L403.921 473.728C412.227 474.483 420.814 475.258 429.219 475.187C439.864 475.168 448.694 473.588 456.272 470.483C460.745 468.609 464.727 466.294 468.099 463.584C471.455 460.915 474.584 457.625 477.685 453.697C483.322 446.283 487.43 437.666 489.554 428.957C494.129 410.856 490.77 391.093 480.631 376.013C478.287 372.453 475.429 368.972 471.845 365.386C468.908 362.45 465.4 359.616 461.165 356.678C453.646 351.768 445.174 348.009 435.997 345.501C426.937 342.944 417.753 342.214 408.68 343.214C399.979 344.126 391.027 346.475 381.972 350.129C366.759 356.363 351.353 365.888 334.815 379.232C320.25 391.17 306.832 404.301 295.128 418.182L291.223 422.31L294.102 417.28C305.88 403.333 319.315 390.162 333.997 378.175C350.61 364.765 366.132 355.192 381.478 348.868C390.624 345.106 399.718 342.767 408.534 341.806C417.807 340.792 427.114 341.572 436.356 344.156C445.632 346.656 454.227 350.466 461.894 355.485C466.212 358.457 469.786 361.365 472.788 364.376C476.421 368.079 479.361 371.594 481.73 375.211C492.09 390.575 495.462 410.776 490.833 429.241C488.683 438.131 484.483 446.855 478.721 454.458C475.569 458.51 472.382 461.825 468.934 464.6C465.47 467.416 461.356 469.822 456.783 471.703C449.072 474.898 440.06 476.452 429.257 476.503C420.754 476.581 412.125 475.789 403.802 475.075L401.389 474.856C391.594 473.972 382.733 473.278 373.649 473.6C363.116 474.05 354.364 476.144 347.062 479.987C338.946 484.171 331.893 490.812 327.328 498.665C322.529 506.855 320.695 516.5 322.294 525.049C323.812 533.565 328.722 541.786 336.13 548.142C342.272 553.594 350.042 558.126 359.895 561.921C367.422 564.813 375.658 567.032 386.625 569.166C396.634 571.053 405.534 573.062 413.886 575.233C424.013 577.889 432.674 580.716 440.439 583.849C450.62 588.02 458.476 592.105 465.128 596.9C473.113 602.434 479.812 609.462 484.422 617.127C489.022 624.932 491.931 634.162 492.794 643.805C493.603 651.934 493.214 660.872 491.494 671.768C491.125 674.312 490.575 676.83 489.884 679.339L489.818 679.264Z" fill="#224D9B" stroke="#224D9B" stroke-width="0.723184" stroke-miterlimit="17"/>
<path d="M497.964 681.59C495.942 688.993 492.739 696.104 488.55 702.571C483.387 710.708 476.062 718.248 466.752 724.879C459.163 730.241 450.457 734.809 440.052 738.825C431.173 742.167 421.664 744.817 411.739 746.72C406.893 747.622 402.04 748.426 397.345 748.957C393.206 749.427 388.289 749.916 382.53 750.108L382.492 748.792C388.233 748.642 393.109 748.136 397.207 747.649C401.902 747.118 406.738 746.356 411.543 745.436C421.41 743.558 430.878 740.891 439.64 737.597C449.929 733.63 458.561 729.128 466.074 723.831C475.21 717.273 482.426 709.881 487.539 701.867C493.178 693.155 496.983 683.162 498.573 672.935C500.382 661.354 500.792 651.895 499.914 643.112C498.993 632.435 495.746 622.151 490.599 613.448C485.484 604.903 478.13 597.125 469.322 591.013C462.168 585.916 453.868 581.505 443.135 577.156C434.998 573.871 426.279 571.068 415.74 568.243C407.182 565.988 398.141 563.969 388.009 562.032C377.512 560.042 369.623 557.917 362.524 555.153C353.578 551.729 346.335 547.558 340.94 542.748C334.683 537.345 330.693 530.752 329.445 523.695C328.122 516.703 329.567 509.064 333.627 502.208C337.52 495.524 343.507 489.842 350.451 486.285C356.814 482.972 364.547 481.134 374.045 480.741C382.691 480.433 391.652 481.12 400.826 481.99L403.561 482.245C411.868 483 420.455 483.775 429.38 483.725C441.101 483.665 450.999 481.945 459.54 478.368C464.753 476.22 469.399 473.454 473.413 470.237C477.235 467.134 480.923 463.302 484.442 458.824C490.765 450.44 495.378 440.826 497.793 430.937C502.958 410.575 499.149 388.268 487.744 371.226C485.106 367.209 481.855 363.277 477.877 359.241C474.571 355.913 470.619 352.754 465.923 349.53C457.647 344.118 448.327 339.963 438.317 337.258C437.483 337.06 436.649 336.863 435.832 336.625C434.305 336.24 432.655 335.804 430.978 335.55C430.251 335.445 429.524 335.34 428.814 335.193C427.013 334.889 425.13 334.551 423.327 334.486L419.393 334.222C418.549 334.165 417.714 334.208 416.895 334.209C416.456 334.222 415.977 334.218 415.538 334.231C415.1 334.244 414.661 334.257 414.223 334.269C413.346 334.295 412.527 334.297 411.691 334.339L407.883 334.705C398.412 335.734 388.631 338.225 378.904 342.23C362.686 348.919 347.007 358.524 329.586 372.613C322.674 378.205 315.732 384.458 308.286 391.708C300.438 399.467 294.371 405.935 288.632 412.777L285.1 415.758L287.671 411.95C293.41 405.108 299.494 398.599 307.359 390.799C314.822 383.508 321.88 377.206 328.792 371.614C346.329 357.476 362.101 347.764 378.435 341.027C388.319 336.99 398.175 334.434 407.828 333.43L411.677 333.082C412.571 333.015 413.448 332.989 414.308 333.005C414.746 332.992 415.185 332.979 415.623 332.966C416.062 332.953 416.541 332.957 416.98 332.944C417.857 332.918 418.676 332.917 419.577 332.949L423.471 333.197C425.372 333.254 427.297 333.609 429.155 333.889C429.882 333.995 430.593 334.141 431.32 334.246C433.079 334.534 434.688 334.953 436.256 335.355C437.09 335.552 437.907 335.79 438.741 335.987C448.933 338.719 458.36 342.966 466.743 348.47C471.504 351.769 475.481 354.986 478.91 358.365C482.954 362.476 486.229 366.465 488.933 370.557C500.599 387.9 504.397 410.587 499.179 431.312C496.714 441.325 492.017 451.145 485.585 459.677C482.032 464.238 478.269 468.135 474.33 471.287C470.225 474.611 465.462 477.425 460.134 479.622C451.394 483.214 441.363 485.024 429.46 485.057C420.477 485.131 411.848 484.34 403.525 483.626L400.789 483.371C391.64 482.559 382.738 481.848 374.191 482.149C364.891 482.526 357.357 484.349 351.168 487.59C344.456 491.049 338.654 496.518 334.845 502.996C331.002 509.556 329.576 516.914 330.835 523.591C332.061 530.35 335.888 536.635 341.973 541.872C347.261 546.589 354.381 550.71 363.162 554.067C370.195 556.755 378.002 558.847 388.44 560.861C398.59 562.757 407.671 564.793 416.213 567.089C426.81 569.89 435.554 572.75 443.731 576.052C454.53 580.477 462.971 584.897 470.19 590.069C479.146 596.289 486.648 604.176 491.853 612.855C497.114 621.749 500.393 632.19 501.37 643.083C502.255 651.965 501.795 661.548 499.994 673.228C499.548 676.078 498.962 678.919 498.153 681.716L498.17 681.675L497.964 681.59Z" fill="#224D9B" stroke="#224D9B" stroke-width="0.723184" stroke-miterlimit="10"/>
<path d="M61.7434 1062.33C57.0036 1060.39 52.0036 1057.91 46.5712 1054.72C40.7846 1051.34 34.9683 1047.56 29.2702 1043.49C18.4827 1035.75 7.95458 1026.67 -1.97713 1016.49L-0.0761438 1014.67C9.74881 1024.76 20.1702 1033.75 30.8097 1041.38C36.3841 1045.4 42.1761 1049.12 47.8802 1052.46C54.2925 1056.2 60.0756 1059 65.518 1060.99C71.826 1063.33 77.7298 1064.55 83.0477 1064.61C88.6298 1064.73 93.5625 1063.38 97.7538 1060.67C101.771 1058.03 105.172 1053.84 107.624 1048.45C109.956 1043.58 111.51 1037.67 112.419 1030.87C113.905 1019.25 113.196 1006.06 110.338 991.653C107.813 979.019 103.686 966.065 98.0039 953.147C86.8826 927.893 70.7943 905.129 51.4392 887.284L53.2335 885.372C72.8433 903.418 89.1768 926.523 100.403 952.109C106.158 965.2 110.358 978.329 112.898 991.162C115.795 1005.83 116.527 1019.31 115.004 1031.25C114.077 1038.33 112.363 1044.52 109.988 1049.61C107.326 1055.4 103.557 1060.02 99.1411 1062.92C94.5917 1065.92 89.0126 1067.44 82.9677 1067.27C77.3275 1067.18 71.1595 1065.9 64.6042 1063.46C63.6974 1063.08 62.7326 1062.74 61.7846 1062.35L61.8258 1062.37L61.7434 1062.33Z" fill="#224D9B"/>
<path d="M58.5182 1070.2C53.4487 1068.13 48.0946 1065.45 42.2669 1062.05C36.233 1058.57 30.1451 1054.63 24.2747 1050.4C13.0677 1042.39 2.15366 1032.96 -8.10579 1022.4L-6.2048 1020.58C3.96476 1031.01 14.7308 1040.33 25.8142 1048.29C31.6603 1052.46 37.6246 1056.35 43.6172 1059.82C50.4659 1063.78 56.6854 1066.81 62.5813 1068.98C69.7717 1071.64 76.6086 1073.04 82.9271 1073.13C90.0307 1073.3 96.9612 1071.42 102.442 1067.79C107.773 1064.3 112.219 1058.85 115.368 1052.1C118.072 1046.32 119.896 1039.76 120.912 1031.99C122.515 1019.27 121.786 1005.54 118.723 989.986C116.112 976.739 111.741 963.204 105.857 949.722C94.2565 923.406 77.4735 899.635 57.2644 881.055L59.0586 879.143C79.5299 898.023 96.5339 922.076 108.256 948.683C114.255 962.356 118.64 976.09 121.283 989.495C124.385 1005.3 125.137 1019.33 123.474 1032.32C122.439 1040.36 120.554 1047.2 117.766 1053.18C114.472 1060.4 109.693 1066.19 103.921 1069.94C98.0242 1073.87 90.5466 1075.91 82.9221 1075.73C76.3225 1075.62 69.2214 1074.16 61.7255 1071.42C60.6783 1071.04 59.6479 1070.62 58.5763 1070.18L58.5182 1070.2Z" fill="#224D9B"/>
<path d="M55.2931 1078.08C49.8526 1075.85 44.1445 1072.98 37.987 1069.45C31.7228 1065.82 25.4456 1061.76 19.3205 1057.32C7.71073 1049 -3.5479 1039.24 -14.2101 1028.37L-12.309 1026.55C-1.77053 1037.37 9.3982 1047 20.86 1055.21C26.8784 1059.55 33.1143 1063.6 39.313 1067.15C46.6225 1071.4 53.2954 1074.61 59.6034 1076.95C67.8411 1079.99 75.405 1081.5 82.7654 1081.63C91.4318 1081.86 100.278 1079.42 107.048 1074.88C115.481 1069.33 120.361 1061.41 122.948 1055.69C126.013 1049.15 128.093 1041.72 129.224 1033.08C130.959 1019.45 130.179 1004.79 126.95 988.351C124.195 974.515 119.68 960.392 113.553 946.329C101.514 918.967 83.9785 894.214 62.9079 874.799L64.7021 872.887C86.0107 892.543 103.767 917.579 115.952 945.29C122.152 959.527 126.781 973.842 129.551 987.876C132.861 1004.59 133.621 1019.53 131.868 1033.45C130.677 1042.34 128.578 1050.05 125.37 1056.82C122.624 1062.82 117.442 1071.24 108.51 1077.06C101.208 1081.97 92.0301 1084.51 82.7022 1084.25C75.0439 1084.15 67.1915 1082.52 58.6896 1079.42C57.5599 1079.01 56.4059 1078.53 55.2518 1078.06L55.2931 1078.08Z" fill="#224D9B"/>
<path d="M67.7427 816.709C65.9135 813.89 64.028 810.856 62.2345 807.714C60.3025 804.323 58.7543 801.523 57.1539 798.028L55.9581 798.597C57.5996 802.109 59.1479 804.909 61.0631 808.341C62.8809 811.541 64.7663 814.576 66.5956 817.395C70.4339 823.299 74.6209 829.058 79.0253 834.52C84.9448 841.807 91.2411 848.526 97.8394 854.743L98.642 853.724C92.1261 847.541 85.854 840.88 80.0413 833.685C75.6781 828.24 71.5155 822.539 67.7015 816.693L67.7427 816.709Z" fill="#224D9B" stroke="#224D9B" stroke-width="0.723184" stroke-miterlimit="10"/>
<path d="M544.51 774.401C546.47 766.444 547.555 759.332 547.81 752.601C548.032 749.708 547.949 746.738 547.857 743.908C547.814 743.072 547.796 742.295 547.77 741.418L547.625 740.01C547.304 736.799 547.017 733.504 546.275 730.264C544.601 721.78 542.071 714.679 538.54 708.612C534.578 701.598 529.296 695.342 523.24 690.502L520.194 688.773L522.437 691.521C528.345 696.252 533.562 702.433 537.393 709.297C540.858 715.289 543.356 722.233 544.982 730.601C545.7 733.783 546.004 737.036 546.3 740.19L546.445 741.597C546.447 742.416 546.49 743.252 546.508 744.029C546.6 746.859 546.7 749.788 546.453 752.623C546.191 759.254 545.14 766.284 543.213 774.159C541.429 781.803 538.341 789.106 535.913 794.561C532.396 801.736 528.78 807.86 524.691 813.26C519.414 820.147 514.641 825.219 509.653 829.289C507.71 831.092 505.53 832.654 503.367 834.174C502.535 834.796 501.661 835.401 500.846 835.981C499.74 836.683 498.61 837.327 497.479 837.971L493.673 840.214L486.067 843.741L478.145 846.512L469.981 848.462C461.211 849.778 454.186 850.125 447.871 849.56L446.061 849.396C444.796 849.311 443.631 849.218 442.383 849.092L436.94 848.162C433.833 847.756 430.755 846.928 427.817 846.109L426.348 845.7C423.707 845.099 421.2 844.168 418.734 843.254C417.869 842.9 417.011 842.644 416.186 842.307L406.819 838.854C393.064 833.893 381.129 831.891 370.451 832.811C368.259 832.875 366.072 833.279 363.96 833.617C363.173 833.776 362.344 833.918 361.475 834.043C360.869 834.228 360.223 834.397 359.634 834.541C357.421 835.126 355.092 835.76 352.901 836.643C347.209 838.788 341.693 841.678 336.478 845.125C328.802 850.115 321.539 856.093 313.902 862.398C311.004 864.772 308.106 867.147 305.108 869.529C295.267 877.338 283.382 886.139 269.526 892.351C263.796 895.057 257.317 897.361 249.152 899.551C240.923 901.426 234.148 902.453 227.801 902.789C214.783 903.665 200.938 902.565 185.512 899.567C167.469 896.025 149.883 889.254 133.559 879.87C134.494 880.879 135.518 882.021 136.576 883.08C142.241 886.171 148.024 888.974 153.959 891.405C164.14 895.576 174.643 898.724 185.27 900.863C200.819 903.913 214.781 904.964 227.898 904.08C234.327 903.778 241.201 902.744 249.488 900.844C257.811 898.622 264.348 896.294 270.136 893.564C284.109 887.303 296.109 878.453 305.985 870.562C308.965 868.221 311.88 865.805 314.779 863.431C322.44 857.184 329.644 851.23 337.262 846.265C342.378 842.825 347.819 840 353.412 837.863C355.561 836.963 357.816 836.395 359.988 835.793C360.593 835.607 361.24 835.439 361.77 835.319C362.598 835.177 363.386 835.018 364.197 834.918C366.268 834.563 368.355 834.167 370.49 834.126C381.01 833.238 392.78 835.172 406.312 840.091L415.68 843.543C416.562 843.857 417.403 844.153 418.228 844.491C420.735 845.422 423.341 846.345 425.965 846.987L427.393 847.379C430.389 848.174 433.509 849.018 436.681 849.5L442.165 850.447C443.413 850.573 444.661 850.699 445.884 850.767L447.653 850.914C454.067 851.472 461.175 851.159 470.102 849.811L478.365 847.853L486.386 845.075L494.108 841.5L497.973 839.233C499.121 838.547 500.251 837.903 501.398 837.218C502.23 836.596 503.104 835.992 503.936 835.37C506.099 833.85 508.354 832.222 510.297 830.419C515.36 826.284 520.167 821.13 525.519 814.177C529.584 808.718 533.316 802.546 536.826 795.272C539.287 789.734 542.351 782.373 544.227 774.622L544.26 774.54L544.51 774.401Z" fill="#224D9B" stroke="#224D9B" stroke-width="0.723184" stroke-miterlimit="10"/>
<path d="M86.7344 828.389C77.4593 816.84 70.3556 805.747 64.9066 794.61L63.752 795.195C69.2328 806.49 76.4189 817.617 85.7427 829.282C90.8682 835.57 96.303 841.455 101.948 846.944C101.903 846.348 101.892 845.67 101.889 845.091C96.5886 839.935 91.5565 834.36 86.7419 828.488L86.7344 828.389Z" fill="#224D9B" stroke="#224D9B" stroke-width="0.723184" stroke-miterlimit="10"/>
<path d="M114.297 857.923C127.442 868.604 141.928 877.186 157.219 883.45C166.863 887.402 176.879 890.446 186.995 892.424C201.793 895.31 215.011 896.297 227.374 895.49C233.266 895.208 239.668 894.269 247.524 892.482C255.299 890.421 261.388 888.247 266.694 885.751C279.837 879.872 291.305 871.382 300.806 863.819C303.728 861.502 306.626 859.128 309.483 856.737C316.896 850.628 324.557 844.381 332.683 838.998C338.273 835.223 344.254 832.138 350.51 829.791C353.066 828.721 355.827 827.975 358.471 827.277L360.038 826.86C360.808 826.742 361.653 826.559 362.465 826.458C364.908 826.015 367.451 825.565 370.024 825.512C381.777 824.551 394.638 826.643 409.4 831.969L418.891 835.472C419.691 835.752 420.573 836.065 421.356 836.386C423.657 837.232 426.081 838.129 428.558 838.663L430.085 839.048C432.817 839.782 435.59 840.533 438.456 840.937L443.495 841.798C444.602 841.915 445.685 841.973 446.751 842.073C447.355 842.128 447.958 842.182 448.52 842.22C455.884 842.927 463.269 842.053 468.859 841.215L476.318 839.457L483.543 836.978L490.493 833.761L494.166 831.608C495.122 831.037 496.12 830.483 497.092 829.87C497.925 829.249 498.74 828.668 499.614 828.063C501.511 826.723 503.483 825.316 505.2 823.71C509.714 819.975 514.178 815.306 519.087 808.846C522.809 803.873 526.256 798.161 529.563 791.382C532.025 785.844 534.768 779.266 536.398 772.233C538.221 764.845 539.227 758.278 539.427 752.15C539.672 749.555 539.577 746.966 539.507 744.434C539.465 743.598 539.463 742.779 539.438 741.902L539.277 740.296C539.028 737.499 538.712 734.626 538.082 731.817C535.521 717.627 528.444 705.293 518.14 697.077L512.554 693.441L517.321 698.137C527.353 706.194 534.308 718.237 536.806 732.112C537.429 734.822 537.703 737.678 537.969 740.434L538.105 741.982C538.148 742.818 538.149 743.637 538.192 744.473C538.279 746.963 538.39 749.512 538.162 752.065C537.938 758.135 536.966 764.62 535.135 771.908C533.497 778.842 530.788 785.337 528.402 790.809C525.145 797.466 521.773 803.112 518.068 808.043C513.118 814.487 508.903 819.018 504.365 822.694C502.706 824.276 500.75 825.641 498.912 826.957C498.079 827.579 497.223 828.143 496.448 828.74C495.534 829.328 494.578 829.899 493.639 830.429L490.023 832.558L483.189 835.726L476.064 838.198L468.704 839.948C463.213 840.779 455.944 841.604 448.704 840.948C448.101 840.893 447.498 840.839 446.894 840.784C445.811 840.725 444.745 840.625 443.72 840.542L438.682 839.682C435.897 839.311 433.125 838.56 430.434 837.843L428.866 837.441C426.488 836.9 424.105 836.02 421.846 835.191C421.022 834.853 420.18 834.557 419.38 834.277L409.889 830.774C395.004 825.397 381.921 823.262 370.01 824.255C367.379 824.332 364.795 824.765 362.293 825.233C361.506 825.392 360.678 825.533 359.866 825.634L358.258 826.034C355.556 826.756 352.795 827.503 350.139 828.581C343.866 830.968 337.769 834.102 332.063 837.925C323.855 843.275 316.201 849.621 308.747 855.713C305.849 858.088 302.951 860.462 300.07 862.795C290.661 870.252 279.251 878.718 266.225 884.548C261.018 887.036 254.987 889.186 247.269 891.222C239.571 892.978 233.268 893.91 227.377 894.192C215.112 894.991 201.994 893.997 187.337 891.12C161.424 885.991 136.486 874.138 115.215 856.856C113.58 855.56 111.938 854.165 110.353 852.746C111.317 854.152 112.43 855.666 113.624 857.215C113.92 857.432 114.158 857.674 114.396 857.916L114.297 857.923Z" fill="#224D9B" stroke="#224D9B" stroke-width="0.723184" stroke-miterlimit="17" stroke-linecap="square"/>
<path d="M80.8655 808.175C84.4099 813.622 88.2373 818.848 92.2897 823.878C100.674 834.196 109.877 843.453 119.637 851.351C132.142 861.48 145.92 869.676 160.428 875.619C169.619 879.385 179.041 882.234 188.653 884.151C217.471 889.941 242.525 887.883 263.103 878.071C275.415 872.574 286.334 864.484 295.46 857.248C298.324 854.956 301.206 852.623 304.121 850.207C311.608 844.033 319.361 837.679 328.044 831.995C334.207 827.877 340.728 824.532 347.524 821.925C350.528 820.701 353.761 819.86 356.895 819.026L358.188 818.689C358.975 818.53 359.745 818.413 360.515 818.295C363.373 817.781 366.388 817.235 369.358 817.153C382.345 816.119 396.337 818.386 412.204 824.069L421.818 827.623C422.66 827.919 423.418 828.182 424.243 828.519C426.378 829.298 428.556 830.094 430.793 830.625L432.361 831.027C434.828 831.701 437.378 832.409 439.898 832.719L444.474 833.535C445.441 833.642 446.383 833.691 447.326 833.741C447.888 833.778 448.45 833.816 449.053 833.871C455.433 834.511 461.85 833.771 467.324 832.981L473.937 831.406L480.382 829.185L484.476 827.301C505.412 817.202 521.793 795.899 528.143 770.295C529.829 763.477 530.756 757.455 530.918 751.889C531.127 749.617 531.039 747.366 530.974 745.174C530.932 744.338 530.93 743.519 530.921 742.601L530.729 740.837C530.509 738.437 530.224 735.962 529.706 733.583C527.516 721.423 521.55 710.844 512.84 703.906L508.595 701.108L511.979 704.95C520.417 711.728 526.221 721.999 528.33 733.886C528.882 736.182 529.126 738.641 529.322 740.983L529.49 742.688C529.532 743.524 529.534 744.343 529.56 745.22C529.641 747.371 529.688 749.605 529.496 751.836C529.327 757.302 528.433 763.242 526.74 769.96C520.459 795.16 504.378 816.201 483.808 826.112L479.813 827.99L473.526 830.179L467.028 831.704C461.414 832.485 455.354 833.179 449.114 832.548C448.552 832.51 447.948 832.455 447.386 832.418C446.444 832.368 445.501 832.319 444.593 832.188L440.058 831.389C437.579 831.095 435.071 830.404 432.661 829.706L431.052 829.287C428.897 828.79 426.761 828.011 424.667 827.249C423.843 826.912 423.043 826.632 422.243 826.352L412.628 822.798C396.596 817.049 382.422 814.755 369.278 815.82C366.209 815.911 363.235 816.473 360.278 816.994C359.508 817.112 358.762 817.288 357.933 817.43L356.582 817.791C353.408 818.608 350.117 819.474 347.079 820.78C340.241 823.37 333.587 826.805 327.349 830.988C318.633 836.755 310.838 843.092 303.351 849.266C300.453 851.641 297.596 854.032 294.707 856.266C285.698 863.453 274.854 871.477 262.658 876.926C242.329 886.599 217.532 888.618 189.019 882.905C164.444 878.035 140.791 866.804 120.563 850.383C110.869 842.56 101.731 833.377 93.4125 823.134C89.3844 818.163 85.5739 812.896 82.095 807.523C80.4286 805.012 78.7811 802.219 77.068 799.351C75.3644 796.342 73.8087 793.443 72.7436 791.226L71.5478 791.795C72.596 794.053 74.176 797.011 75.9208 800.036C77.617 802.945 79.3227 805.714 80.9722 808.267L80.8486 808.216L80.8655 808.175Z" fill="#224D9B" stroke="#224D9B" stroke-width="0.723184" stroke-miterlimit="10"/>
<path d="M78.5405 991.959C69.2577 984.305 61.131 976.885 53.6265 969.237C49.1654 964.618 45.534 960.675 42.2493 956.827C40.414 954.727 38.5956 952.586 36.8934 950.397C35.223 948.365 33.4478 946.001 32.0416 944.029L29.9196 945.566C31.3914 947.613 33.2078 949.994 34.8613 952.067C36.6047 954.274 38.4231 956.414 40.2827 958.572C43.6087 962.438 47.2812 966.397 51.7667 971.075C59.2955 978.78 67.529 986.293 76.8774 994.021C87.3122 1002.39 97.8375 1009.83 108.395 1016.37C108.429 1015.23 108.43 1014.17 108.445 1013.31C98.4067 1007.03 88.4659 999.924 78.5405 991.959Z" fill="#224D9B"/>
<path d="M141.789 1033.9C143.445 1034.67 145.225 1035.5 147.038 1036.24C147.863 1036.58 148.687 1036.92 149.528 1037.22C151.754 1038.13 154.219 1039.04 157.288 1040.01C159.218 1040.7 161.174 1041.22 163.072 1041.75L165.275 1042.37C175.673 1045.18 186.629 1046.64 197.829 1046.56C209.302 1046.4 219.939 1044.4 229.374 1040.76C239.98 1036.49 248.361 1030.25 253.627 1022.68C259.301 1014.71 261.377 1004.82 259.458 994.938C258.577 990.39 256.871 985.744 254.192 980.651C251.897 976.149 248.939 971.856 245.307 967.914C241.897 964.254 237.896 960.979 233.337 958.244C229.32 955.829 224.641 953.623 218.689 951.232C213.627 949.255 208.456 947.425 202.979 945.518C197.421 943.578 191.639 941.594 185.976 939.322C174.54 934.926 163.633 929.591 153.602 923.412C143.571 917.232 133.913 909.906 124.818 901.559C109.05 887.061 94.1789 869.079 79.4453 846.533L77.2166 847.979C92.1225 870.692 107.124 888.823 123.024 903.472C132.226 911.91 142.056 919.403 152.211 925.633C162.39 931.922 173.461 937.324 185.021 941.771C190.742 944.019 196.548 946.06 202.107 948.001C207.542 949.891 212.73 951.679 217.734 953.681C223.496 955.946 228.077 958.159 231.986 960.483C236.298 963.116 240.144 966.183 243.365 969.717C246.841 973.452 249.685 977.553 251.825 981.847C254.406 986.707 255.999 991.162 256.84 995.454C258.608 1004.65 256.695 1013.78 251.456 1021.17C246.459 1028.31 238.51 1034.2 228.369 1038.28C219.249 1041.86 208.944 1043.75 197.768 1043.89C186.825 1043.93 176.093 1042.51 165.958 1039.76L163.755 1039.15C161.898 1038.63 159.984 1038.13 158.112 1037.41C155.101 1036.42 152.66 1035.56 150.393 1034.63C147.763 1033.65 145.2 1032.51 142.802 1031.43L137.759 1029.17C137.685 1030.05 137.554 1030.96 137.405 1031.91L141.706 1033.87L141.789 1033.9Z" fill="#224D9B"/>
<path d="M73.2003 998.531C53.4191 982.196 37.6573 965.92 25.0702 948.826L22.9482 950.363C35.6907 967.665 51.5836 984.092 71.554 1000.55C83.5004 1010.16 95.6216 1018.64 107.77 1025.88C107.877 1024.92 108.001 1023.91 108.05 1022.97C96.3557 1015.91 84.6784 1007.76 73.2003 998.531Z" fill="#224D9B"/>
<path d="M138.417 1041.66C140.155 1042.47 141.935 1043.3 143.831 1044.07C144.696 1044.43 145.562 1044.78 146.444 1045.1C148.835 1046.08 151.482 1047.02 154.716 1048.05C156.81 1048.81 158.931 1049.39 160.953 1049.98L163.156 1050.6C174.289 1053.62 186.029 1055.15 197.973 1055.14C210.522 1054.94 222.128 1052.81 232.509 1048.73C244.651 1043.89 254.348 1036.55 260.592 1027.65C264.074 1022.68 266.528 1017.04 267.717 1011.32C268.906 1005.6 268.956 999.599 267.758 993.477C266.736 988.1 264.73 982.658 261.677 976.834C259.073 971.676 255.648 966.759 251.5 962.316C247.565 958.057 242.931 954.329 237.739 951.143C233.286 948.5 228.269 946.06 221.847 943.525C216.496 941.429 210.979 939.506 205.626 937.65C200.191 935.76 194.55 933.786 189.076 931.639C178.111 927.388 167.682 922.297 158.053 916.427C148.483 910.532 139.228 903.516 130.56 895.536C115.308 881.538 100.896 864.082 86.5295 842.167L84.3008 843.613C98.8229 865.735 113.366 883.342 128.749 897.49C137.565 905.578 146.951 912.744 156.645 918.69C166.421 924.668 176.981 929.909 188.087 934.17C193.603 936.334 199.244 938.308 204.72 940.215C210.031 942.054 215.549 943.977 220.858 946.056C227.157 948.54 232.026 950.872 236.338 953.505C241.358 956.525 245.803 960.126 249.524 964.202C253.5 968.478 256.769 973.187 259.3 978.171C262.256 983.762 264.148 989.014 265.131 994.133C266.2 999.866 266.169 1005.58 265.09 1010.92C263.954 1016.27 261.676 1021.6 258.395 1026.32C252.46 1034.81 243.154 1041.78 231.519 1046.45C221.429 1050.4 210.096 1052.45 197.928 1052.66C186.224 1052.68 174.747 1051.21 163.837 1048.23L161.634 1047.61C159.612 1047.03 157.533 1046.46 155.504 1045.78C152.27 1044.74 149.746 1043.85 147.356 1042.87C144.561 1041.82 141.915 1040.64 139.394 1039.51L136.419 1038.2C136.246 1039.09 136.073 1039.98 135.9 1040.87L138.257 1041.94L138.216 1041.92L138.233 1041.88L138.417 1041.66Z" fill="#224D9B"/>
<path d="M67.8198 1005.09C58.0687 997.049 49.4082 989.169 41.5273 981.031C36.8527 976.228 32.9348 971.927 29.4534 967.853C27.708 965.887 25.7511 963.497 23.7043 960.973C21.6088 958.334 19.8823 956.086 18.0997 953.623L15.9777 955.161C17.7435 957.665 19.4943 959.971 21.6722 962.644C23.7021 965.208 25.8482 967.724 27.47 969.64C30.9926 973.731 34.976 978.106 39.6918 982.926C47.6964 991.115 56.3813 999.053 66.2391 1007.18C79.3936 1017.72 92.7081 1026.93 106.1 1034.78C106.355 1033.92 106.569 1033.04 106.759 1032.11C93.68 1024.44 80.6615 1015.45 67.9022 1005.12L67.8198 1005.09Z" fill="#224D9B"/>
<path d="M276.048 1012.95C277.461 1006.21 277.472 998.901 276.142 991.81C274.977 985.605 272.713 979.382 269.261 972.77C266.349 966.956 262.482 961.473 257.809 956.43C253.35 951.57 248.1 947.35 242.199 943.777C237.327 940.866 231.881 938.298 225.064 935.553C219.383 933.322 213.767 931.406 208.29 929.5C202.732 927.559 197.461 925.737 192.251 923.651C171.152 915.584 152.366 903.989 136.393 889.166C121.717 875.644 107.747 858.754 93.7639 837.43L91.552 838.834C105.666 860.308 119.733 877.431 134.599 891.078C150.851 906.16 169.95 917.932 191.296 926.099C196.548 928.203 201.859 930.042 207.418 931.982C212.853 933.872 218.453 935.829 224.05 938.026C230.72 940.662 236.108 943.255 240.832 946.057C246.503 949.487 251.564 953.582 255.884 958.192C260.384 963.068 264.096 968.343 266.952 973.942C270.307 980.322 272.474 986.312 273.599 992.26C274.866 999.036 274.866 1005.97 273.506 1012.34C272.195 1018.83 269.379 1025.24 265.445 1030.84C258.422 1040.82 248.1 1048.62 234.722 1054.02C223.661 1058.35 211.326 1060.61 198.098 1060.82C185.617 1060.86 173.372 1059.26 161.752 1056.13L159.508 1055.5C157.346 1054.91 155.142 1054.29 152.948 1053.54C149.591 1052.45 146.903 1051.49 144.347 1050.45C141.428 1049.35 138.659 1048.12 136.097 1046.97L134.778 1046.43C134.588 1047.36 134.374 1048.24 134.169 1048.97L134.994 1049.31C136.773 1050.14 138.635 1051 140.614 1051.81C141.521 1052.18 142.427 1052.55 143.392 1052.9C145.906 1053.93 148.677 1054.92 152.093 1055.98C154.27 1056.77 156.572 1057.38 158.776 1057.99L160.979 1058.61C172.846 1061.83 185.331 1063.44 198.052 1063.4C211.619 1063.18 224.227 1060.84 235.621 1056.41C249.464 1050.82 260.184 1042.74 267.492 1032.31C271.644 1026.4 274.578 1019.71 275.983 1012.88L276.024 1012.89L276.007 1012.93L276.048 1012.95Z" fill="#224D9B"/>
<path d="M-107.941 434.512C-110.871 439.665 -112.911 445.232 -114.167 451.118C-117.282 465.534 -114.562 482.629 -106.431 500.496C-102.898 508.201 -98.4212 515.956 -93.2814 523.5C-90.7068 527.203 -88.0572 530.839 -85.3643 534.253C-83.2689 536.892 -80.0835 540.748 -76.8116 544.159L-75.8611 543.248C-79.133 539.838 -82.2772 535.999 -84.3483 533.418C-87.058 530.045 -89.7245 526.45 -92.1998 522.74C-97.3153 515.254 -101.685 507.591 -105.236 499.927C-113.269 482.292 -115.908 465.471 -112.912 451.344C-111.208 443.426 -107.946 436.05 -103.226 429.464C-97.2519 421.226 -91.7922 415.184 -86.129 410.525C-79.7233 405.111 -72.6945 401.348 -65.2506 399.392C-57.7824 397.494 -49.766 397.313 -41.3664 398.78C-34.0478 399.95 -26.2183 402.339 -16.8136 406.288C-9.46981 409.393 -1.68602 413.304 7.03972 418.323C14.3249 422.511 21.8534 427.28 30.0955 432.775C39.7517 439.282 47.9099 443.924 55.7145 447.314C66.6009 452.111 76.1337 454.572 85.6994 455.074C97.5866 455.901 109.026 452.886 117.887 446.649C127.004 440.372 133.872 430.19 136.812 418.783C139.581 408.029 139.237 396.769 135.785 386.161C132.859 376.972 127.31 367.96 119.243 359.216C112.102 351.622 104.159 345.046 97.7269 339.716L96.191 338.412C89.4631 332.864 83.0966 327.609 77.4949 321.896C70.7357 315.132 66.1406 308.725 63.4156 302.217C61.8342 298.441 60.8879 294.876 60.5206 291.308C60.1532 287.74 60.1852 283.903 60.684 279.631C61.7937 271.518 64.4811 263.666 68.532 256.95C76.8291 242.925 91.0829 232.688 106.568 229.55C110.106 228.785 114.013 228.412 118.58 228.31C122.195 228.299 126.178 228.679 130.671 229.461C138.582 231.065 146.398 234.075 153.865 238.289C157.248 240.253 160.852 242.5 163.972 245.222L166.297 247.185C166.748 247.611 167.2 248.036 167.634 248.503C167.896 248.803 168.175 249.062 168.454 249.321C168.717 249.621 168.971 249.821 169.275 250.138C169.726 250.564 170.161 251.03 170.595 251.497L172.569 253.846C177.604 260.001 181.927 267.307 185.44 275.533C191.532 289.918 195.586 306.693 197.824 326.959C198.748 335.28 199.27 344.109 199.428 353.945C199.552 363.863 199.27 372.893 198.625 380.812L198.855 384.949L199.931 380.914C200.593 372.954 200.892 363.883 200.743 353.907C200.578 343.971 200.014 335.125 199.149 326.78C196.904 306.414 192.818 289.482 186.677 274.981C183.116 266.639 178.744 259.216 173.619 252.928L171.621 250.521C171.145 250.038 170.71 249.571 170.235 249.087C169.973 248.787 169.718 248.587 169.456 248.287C169.193 247.987 168.897 247.769 168.676 247.486C168.201 247.003 167.725 246.519 167.232 246.076L164.908 244.113C161.705 241.357 158.06 239.093 154.611 237.055C147.038 232.749 139.122 229.746 131.006 228.058C126.389 227.225 122.323 226.811 118.65 226.846C114.001 226.915 110.036 227.312 106.398 228.084C90.5159 231.252 75.979 241.71 67.4887 256.089C63.329 262.953 60.5741 270.97 59.4381 279.265C58.9299 283.677 58.8641 287.597 59.2801 291.281C59.6792 295.007 60.6742 298.688 62.3043 302.58C65.1022 309.262 69.8284 315.819 76.6944 322.675C82.3785 328.422 88.745 333.677 95.4972 339.283L97.0331 340.586C103.761 346.135 111.326 352.459 118.402 359.979C126.354 368.531 131.796 377.451 134.666 386.425C138.021 396.8 138.367 407.82 135.658 418.311C132.819 429.47 126.128 439.339 117.277 445.436C108.757 451.428 97.3175 454.443 85.8688 453.603C76.5018 453.087 67.0926 450.676 56.3711 445.946C48.6658 442.549 40.5731 437.982 30.9412 431.533C22.6748 425.98 15.1463 421.211 7.8199 417.006C-0.90584 411.987 -8.77204 408.043 -16.1983 404.904C-25.6854 400.921 -33.5973 398.498 -41.0152 397.336C-49.5797 395.8 -57.7704 396.055 -65.396 397.985C-73.0554 399.997 -80.2754 403.874 -86.8142 409.378C-92.5524 414.103 -98.0871 420.21 -104.153 428.555C-105.492 430.413 -106.724 432.363 -107.857 434.306L-107.891 434.388L-107.941 434.512Z" fill="#224D9B" stroke="#224D9B" stroke-width="0.723184" stroke-miterlimit="10"/>
<path d="M-115.268 430.307C-118.617 436.251 -121.028 442.724 -122.424 449.42C-124.255 457.767 -124.309 467.179 -122.624 477.4C-121.172 485.841 -118.383 494.54 -114.095 504.047C-106.473 520.454 -95.982 535.967 -82.8162 550.122L-81.8826 549.253C-94.9417 535.19 -105.425 519.776 -112.957 503.502C-117.197 494.112 -119.962 485.47 -121.382 477.187C-123.052 467.165 -123.008 457.893 -121.186 449.687C-119.283 440.695 -115.439 432.018 -110.083 424.585C-103.657 415.714 -97.7551 409.179 -91.5257 404.078C-84.254 397.96 -75.9375 393.521 -67.3167 391.277C-58.829 389.123 -49.3641 388.813 -39.9489 390.504C-31.9614 391.803 -23.5211 394.347 -13.4983 398.549C-5.82469 401.789 2.27192 405.876 11.2862 411.013C18.7362 415.269 26.4539 420.164 34.8271 425.808C44.1462 432.081 51.6374 436.353 59.1123 439.608C68.944 443.925 77.7667 446.24 86.15 446.69C96.1691 447.378 105.693 444.926 113.039 439.801C120.485 434.669 126.146 426.254 128.591 416.763C130.949 407.717 130.626 397.814 127.698 388.865C125.135 380.787 120.32 373.038 112.975 365.119C106.72 358.417 99.9185 352.695 92.2541 346.378L90.381 344.84C83.9734 339.568 77.3278 334.053 71.3646 328.048C63.8506 320.542 58.6264 313.203 55.4466 305.691C53.5732 301.217 52.4025 296.791 51.9175 292.452C51.4569 288.172 51.5192 283.673 52.1064 278.715C53.3497 269.454 56.4518 260.472 61.1066 252.753C70.5702 236.702 86.888 224.952 104.701 221.42C108.868 220.528 113.33 220.094 118.418 220.012C122.553 220.022 127.041 220.465 132.12 221.342C140.923 223.119 149.621 226.443 157.821 231.101C166.054 235.678 173.11 241.601 178.857 248.721C184.375 255.458 189.131 263.471 192.96 272.452C199.368 287.593 203.647 305.229 205.944 326.291C207.889 345.041 208.155 363.778 206.738 381.921L206.567 387.627L208.044 382.023C209.495 363.797 209.205 345.003 207.235 326.194C204.865 304.958 200.62 287.239 194.122 271.966C190.244 262.868 185.464 254.797 179.856 247.927C174.002 240.715 166.798 234.683 158.458 230.015C150.094 225.288 141.313 221.932 132.329 220.128C127.126 219.2 122.597 218.74 118.345 218.779C113.175 218.827 108.597 219.31 104.33 220.209C86.1447 223.83 69.5438 235.801 59.8627 252.147C55.1572 259.99 51.9876 269.136 50.6767 278.563C50.0801 283.661 49.984 288.243 50.4933 292.639C50.9688 297.118 52.1882 301.661 54.1103 306.251C57.3631 313.937 62.636 321.392 70.281 329.049C76.2854 335.07 82.931 340.585 89.363 345.915L91.236 347.453C98.8181 353.736 105.619 359.458 111.809 366.086C118.981 373.838 123.707 381.453 126.197 389.357C129.028 398.073 129.311 407.72 127.054 416.518C124.728 425.721 119.226 433.864 112.047 438.817C104.95 443.803 95.6993 446.174 85.9614 445.506C77.7186 445.065 69.0608 442.818 59.3696 438.51C51.9771 435.289 44.5683 431.051 35.2904 424.795C26.8929 419.092 19.1415 414.28 11.6671 409.966C2.58731 404.754 -5.55052 400.65 -13.2653 397.393C-23.4118 393.14 -31.8933 390.58 -40.0045 389.23C-49.6183 387.554 -59.2237 387.854 -67.91 390.023C-76.7051 392.34 -85.2371 396.835 -92.6176 403.101C-98.9389 408.309 -104.916 414.909 -111.417 423.846C-112.94 425.918 -114.315 428.098 -115.566 430.329L-115.449 430.281L-115.268 430.307Z" fill="#224D9B" stroke="#224D9B" stroke-width="0.723184" stroke-miterlimit="17"/>
<path d="M-122.71 426.151C-126.463 432.844 -129.212 440.141 -130.805 447.671C-132.877 457.075 -132.948 467.587 -131.065 478.852C-129.462 487.98 -126.48 497.385 -121.924 507.53C-117.984 516.124 -113.043 524.742 -107.364 533.085C-104.561 537.17 -101.65 541.106 -98.6945 544.82C-96.1159 548.042 -92.9305 551.899 -88.962 556.075L-88.0115 555.165C-91.9557 551.046 -95.0999 547.207 -97.6954 544.026C-100.65 540.312 -103.562 536.376 -106.3 532.366C-111.954 524.081 -116.829 515.538 -120.745 507.002C-125.235 496.932 -128.268 487.651 -129.822 478.639C-131.691 467.573 -131.629 457.201 -129.625 447.962C-127.489 437.815 -123.189 428.024 -117.106 419.638C-110.228 410.134 -103.842 403.124 -97.0541 397.481C-88.8656 390.535 -79.3534 385.528 -69.58 382.938C-59.9566 380.478 -49.2755 380.137 -38.6875 382.02C-30.0311 383.449 -20.9969 386.187 -10.3389 390.602C-2.25316 394.011 5.92589 398.132 15.401 403.554C23.0233 407.976 30.9227 412.897 39.4439 418.651C48.3602 424.614 55.415 428.66 62.3954 431.712C71.1554 435.59 79.2437 437.7 86.5027 438.075C94.7361 438.656 102.245 436.775 108.111 432.68C113.959 428.626 118.289 422.169 120.289 414.469C122.204 406.974 121.967 398.742 119.531 391.295C117.379 384.445 113.159 377.71 106.683 370.725C100.797 364.414 93.889 358.6 86.7996 352.759L84.6718 351.021C78.2398 345.69 71.5774 340.217 65.3108 333.896C57.0177 325.588 51.2299 317.393 47.6121 308.835C45.4056 303.647 44.0516 298.375 43.4902 293.284C42.9437 288.391 43.0045 283.073 43.7213 277.446C45.0983 267.036 48.6151 256.925 53.8569 248.242C64.5452 230.143 82.9343 216.979 103.026 212.936C107.724 211.925 112.799 211.405 118.489 211.378C123.204 211.384 128.254 211.864 133.845 212.904C143.563 214.912 153.079 218.473 162.093 223.61C162.825 224.055 163.558 224.499 164.29 224.944C165.648 225.741 167.113 226.63 168.503 227.584C169.095 228.019 169.687 228.454 170.296 228.848C171.792 229.894 173.372 230.974 174.684 232.234L177.674 234.807C178.314 235.358 178.88 235.975 179.462 236.55C179.766 236.867 180.11 237.201 180.414 237.518C180.717 237.835 181.021 238.151 181.324 238.468C181.931 239.102 182.513 239.678 183.079 240.294L185.536 243.226C191.562 250.605 196.726 259.266 200.847 268.945C207.71 285.09 212.027 302.983 214.514 325.229C215.474 334.046 216.075 343.389 216.236 353.804C216.384 364.839 216.112 373.728 215.318 382.597L215.743 387.199L216.624 382.699C217.376 373.813 217.625 364.866 217.535 353.806C217.332 343.375 216.807 333.966 215.805 325.132C213.328 302.746 208.945 284.777 202.05 268.475C197.88 258.681 192.627 249.886 186.552 242.391L184.071 239.401C183.481 238.726 182.874 238.092 182.25 237.5C181.947 237.183 181.643 236.866 181.34 236.55C181.037 236.233 180.692 235.899 180.389 235.582C179.782 234.948 179.199 234.373 178.534 233.764L175.586 231.208C174.191 229.914 172.588 228.776 171.05 227.713C170.458 227.278 169.849 226.884 169.257 226.449C167.802 225.419 166.378 224.547 164.979 223.733C164.246 223.289 163.497 222.886 162.781 222.4C153.602 217.195 143.98 213.542 134.08 211.508C128.348 210.459 123.298 209.979 118.485 209.98C112.678 210.056 107.562 210.559 102.764 211.578C82.2997 215.708 63.5695 229.117 52.7218 247.488C47.4124 256.336 43.8281 266.612 42.4248 277.204C41.7154 282.93 41.662 288.347 42.1991 293.381C42.7923 298.63 44.2118 303.976 46.4089 309.305C50.0996 318.037 55.9773 326.365 64.3771 334.764C70.6681 341.144 77.3717 346.634 83.8449 351.982L85.9727 353.72C93.0622 359.561 99.8874 365.341 105.749 371.593C112.053 378.412 116.2 384.972 118.32 391.665C120.659 398.88 120.956 406.848 119.043 414.103C117.137 421.456 112.991 427.7 107.367 431.557C101.768 435.472 94.5738 437.29 86.6215 436.728C79.5442 436.379 71.5553 434.261 63.0013 430.468C56.1034 427.449 49.0898 423.421 40.2558 417.491C31.6935 411.721 23.811 406.759 16.1474 402.32C6.6311 396.881 -1.53107 392.718 -9.69922 389.276C-20.464 384.769 -29.5806 381.997 -38.3363 380.576C-49.0649 378.683 -59.9446 379.039 -69.7666 381.513C-79.7386 384.118 -89.4421 389.24 -97.7637 396.276C-104.61 401.943 -111.088 409.06 -118.041 418.63C-119.723 420.973 -121.298 423.408 -122.725 425.952L-122.677 426.068L-122.71 426.151Z" fill="#224D9B" stroke="#224D9B" stroke-width="0.723184" stroke-miterlimit="10"/>
<path d="M-80.8029 1003.64C-76.0631 1005.58 -70.7591 1007.32 -64.6681 1008.91C-58.1893 1010.6 -51.3692 1012.04 -44.4966 1013.13C-31.3958 1015.22 -17.4999 1016.2 -3.29615 1015.95L-3.3735 1013.32C-17.4199 1013.53 -31.1509 1012.63 -44.1523 1010.52C-50.9669 1009.42 -57.6801 1008.06 -64.1009 1006.35C-71.2899 1004.51 -77.36 1002.41 -82.6336 1000C-88.7727 997.249 -93.8154 993.932 -97.6474 990.244C-101.71 986.414 -104.278 981.992 -105.305 977.095C-106.316 972.397 -105.783 966.983 -103.76 961.459C-101.964 956.37 -98.967 951.052 -94.8024 945.586C-87.6696 936.283 -77.8855 927.439 -65.6994 919.195C-54.9943 911.981 -42.9404 905.704 -29.8284 900.486C-4.16099 890.353 23.2819 885.519 49.6013 886.483L49.7057 883.878C23.0472 882.92 -4.80991 887.825 -30.7678 898.08C-44.0541 903.37 -56.2823 909.72 -67.1206 917.024C-79.5559 925.407 -89.5237 934.464 -96.7991 943.998C-101.106 949.694 -104.287 955.226 -106.143 960.579C-108.352 966.557 -108.906 972.491 -107.799 977.661C-106.661 982.989 -103.766 988.026 -99.4004 992.173C-95.3718 996.086 -90.0406 999.521 -83.6711 1002.42C-82.7643 1002.79 -81.8333 1003.22 -80.8853 1003.61L-80.8029 1003.64Z" fill="#224D9B"/>
<path d="M-84.0859 1011.54C-79.0163 1013.62 -73.3246 1015.47 -66.8214 1017.22C-60.0371 1018.99 -52.9942 1020.47 -45.8405 1021.58C-32.2113 1023.79 -17.8358 1024.77 -3.13537 1024.49L-3.21269 1021.86C-17.7557 1022.11 -31.9907 1021.14 -45.4962 1018.97C-52.5918 1017.85 -59.5524 1016.39 -66.2542 1014.66C-73.9546 1012.66 -80.4538 1010.43 -86.1808 1007.84C-93.1517 1004.65 -98.9923 1000.81 -103.555 996.439C-108.733 991.574 -112.296 985.349 -113.616 978.936C-114.945 972.664 -114.308 965.705 -111.735 958.72C-109.568 952.725 -106.259 946.764 -101.493 940.534C-93.6832 930.401 -83.5316 921.131 -70.4139 912.257C-59.2345 904.708 -46.6239 898.13 -32.9478 892.71C-6.19337 882.155 22.4339 877.133 49.8945 878.131L49.9989 875.527C22.1579 874.517 -6.84228 879.627 -33.9284 890.287C-47.7789 895.779 -60.5638 902.43 -71.8932 910.111C-85.2601 919.123 -95.6366 928.59 -103.589 938.954C-108.498 945.414 -111.99 951.588 -114.201 957.807C-116.918 965.261 -117.617 972.724 -116.193 979.469C-114.753 986.412 -110.897 993.094 -105.349 998.351C-100.573 1002.91 -94.5189 1006.93 -87.2426 1010.2C-86.2291 1010.66 -85.2156 1011.12 -84.144 1011.56L-84.0859 1011.54Z" fill="#224D9B"/>
<path d="M-87.2947 1019.37C-81.8543 1021.6 -75.8328 1023.59 -68.9249 1025.4C-61.9177 1027.22 -54.5524 1028.74 -47.1514 1029.94C-33.0594 1032.2 -18.163 1033.21 -2.95857 1032.98L-3.03593 1030.35C-18.0998 1030.58 -32.8145 1029.61 -46.7659 1027.36C-54.1258 1026.17 -61.3505 1024.66 -68.3165 1022.86C-76.4872 1020.72 -83.4978 1018.33 -89.6613 1015.51C-97.6457 1011.86 -104.095 1007.63 -109.429 1002.55C-115.748 996.595 -120.281 988.625 -121.935 980.679C-124.053 970.81 -121.918 961.721 -119.76 955.867C-117.354 949.055 -113.543 942.337 -108.308 935.433C-99.9375 924.518 -89.0698 914.675 -75.1948 905.246C-63.4999 897.378 -50.3327 890.498 -36.0755 884.835C-8.23407 873.86 21.5945 868.608 50.2374 869.657L50.3006 867.035C21.3185 865.991 -8.92419 871.315 -37.0562 882.412C-51.4708 888.107 -64.8123 895.059 -76.6572 903.058C-90.7814 912.626 -101.775 922.659 -110.387 933.811C-115.823 940.97 -119.718 947.894 -122.242 954.994C-124.494 961.195 -126.733 970.771 -124.529 981.253C-122.764 989.87 -118.069 998.147 -111.298 1004.53C-105.768 1009.83 -99.0879 1014.2 -90.8319 1018.02C-89.7359 1018.52 -88.5988 1019.03 -87.4448 1019.5L-87.411 1019.42L-87.3697 1019.44L-87.2947 1019.37Z" fill="#224D9B"/>
<path d="M87.7971 824.974C91.1198 824.266 94.5344 823.45 98.0577 822.487C101.813 821.427 104.881 820.518 108.457 819.191L108.91 820.435C105.293 821.745 102.208 822.695 98.3943 823.78C94.8298 824.727 91.3572 825.566 88.0757 826.292C81.1979 827.806 74.1499 828.913 67.1788 829.716C57.8653 830.713 48.6234 831.066 39.5597 830.867L39.7028 829.578C48.6672 829.785 57.7929 829.48 67.0239 828.449C73.9781 827.688 80.9438 826.546 87.8046 825.073L87.7634 825.056L87.7971 824.974Z" fill="#224D9B" stroke="#224D9B" stroke-width="0.723184" stroke-miterlimit="10"/>
<path d="M-221.076 459.352C-216.89 452.306 -212.631 446.494 -208.066 441.577C-206.194 439.36 -204.069 437.343 -201.959 435.367C-201.343 434.801 -200.784 434.26 -200.15 433.653L-199.059 432.753C-196.577 430.689 -194.037 428.601 -191.218 426.772C-184.048 421.959 -177.263 418.674 -170.449 416.845C-162.705 414.627 -154.569 413.917 -146.817 414.734L-143.433 415.639L-146.96 416.024C-154.53 415.233 -162.526 415.952 -170.095 418.097C-176.752 419.895 -183.421 423.131 -190.516 427.877C-193.26 429.641 -195.8 431.729 -198.224 433.769L-199.315 434.669C-199.932 435.235 -200.507 435.817 -201.066 436.359C-203.117 438.31 -205.243 440.327 -207.081 442.462C-211.588 447.355 -215.771 453.101 -219.923 460.064C-224.016 466.763 -226.98 474.116 -229.119 479.69C-231.688 487.253 -233.367 494.17 -234.324 500.854C-235.397 509.464 -235.595 516.41 -234.954 522.834C-234.835 525.482 -234.378 528.124 -233.903 530.725C-233.746 531.752 -233.548 532.796 -233.374 533.781C-233.079 535.058 -232.725 536.31 -232.372 537.561L-231.25 541.872L-228.304 549.721L-224.604 557.254L-220.155 564.371C-214.846 571.504 -210.142 576.704 -205.229 580.691L-203.841 581.885C-202.88 582.712 -201.961 583.522 -201.007 584.249L-196.493 587.446C-193.994 589.337 -191.22 590.906 -188.552 592.384L-187.219 593.123C-184.914 594.549 -182.475 595.644 -180.094 596.764C-179.229 597.119 -178.438 597.539 -177.631 597.918L-168.55 602.071C-155.285 608.228 -145.434 615.2 -138.488 623.388C-136.971 624.972 -135.696 626.795 -134.445 628.558C-133.996 629.224 -133.505 629.906 -132.973 630.605C-132.672 631.162 -132.371 631.719 -132.028 632.292C-130.862 634.262 -129.688 636.332 -128.763 638.54C-126.229 644.102 -124.368 650.015 -123.128 656.155C-121.218 665.12 -120.261 674.417 -119.219 684.326C-118.82 688.051 -118.421 691.777 -118.039 695.543C-116.546 707.996 -114.269 722.647 -108.854 736.802C-106.728 742.775 -103.711 748.921 -99.4046 756.269C-94.8979 763.362 -90.8083 768.888 -86.4803 773.597C-77.8188 783.355 -67.2568 792.351 -54.137 801.096C-38.7712 811.29 -21.547 818.828 -3.36581 823.677C-4.75624 823.781 -6.27035 823.835 -7.76757 823.847C-13.9559 822.034 -20.0429 819.973 -25.978 817.542C-36.1583 813.371 -45.834 808.204 -54.874 802.189C-68.0763 793.411 -78.7038 784.34 -87.472 774.491C-91.7831 769.74 -95.9552 764.18 -100.51 756.971C-104.841 749.565 -107.907 743.303 -110.057 737.272C-115.562 722.983 -117.847 708.233 -119.347 695.681C-119.787 691.939 -120.169 688.172 -120.568 684.447C-121.586 674.596 -122.543 665.299 -124.429 656.392C-125.661 650.352 -127.515 644.538 -129.983 639.05C-130.884 636.901 -132.091 634.914 -133.199 632.919C-133.501 632.363 -133.843 631.789 -134.137 631.332C-134.628 630.65 -135.077 629.984 -135.585 629.343C-136.811 627.637 -138.021 625.89 -139.538 624.306C-146.394 616.251 -156.097 609.387 -169.197 603.298L-178.278 599.145C-179.126 598.749 -179.934 598.37 -180.741 597.991C-183.18 596.896 -185.685 595.725 -187.989 594.3L-189.282 593.578C-191.974 592.042 -194.748 590.472 -197.329 588.548L-201.885 585.334C-202.863 584.548 -203.84 583.762 -204.76 582.952L-206.123 581.816C-211.085 577.714 -215.913 572.463 -221.312 565.197L-225.809 557.963L-229.558 550.314L-232.511 542.366L-233.674 538.039C-234.011 536.746 -234.323 535.511 -234.643 534.176C-234.8 533.149 -234.998 532.105 -235.155 531.078C-235.613 528.436 -236.095 525.736 -236.196 523.047C-236.862 516.565 -236.671 509.519 -235.548 500.786C-234.615 494.044 -232.902 487.045 -230.299 479.399C-228.168 473.726 -225.187 466.331 -221.003 459.526L-221.044 459.509L-221.027 459.468L-221.076 459.352Z" fill="#224D9B" stroke="#224D9B" stroke-width="0.723184" stroke-miterlimit="10"/>
<path d="M66.1025 819.888C80.8561 818.183 93.6671 815.345 105.405 811.249L105.817 812.477C94.0037 816.638 81.0353 819.508 66.1993 821.179C58.0945 822.046 50.11 822.385 42.253 822.295C42.7029 821.901 43.1866 821.426 43.6365 821.032C51.0307 821.077 58.4943 820.718 66.0613 819.871L66.1025 819.888Z" fill="#224D9B" stroke="#224D9B" stroke-width="0.723184" stroke-miterlimit="10"/>
<path d="M25.7337 821.495C8.89065 819.841 -7.47704 815.734 -22.7512 809.429C-32.3956 805.477 -41.6348 800.537 -50.231 794.849C-62.7832 786.482 -72.8938 777.911 -81.0795 768.637C-85.063 764.262 -88.9241 759.118 -93.2267 752.349C-97.2631 745.401 -100.077 739.579 -102.049 734.054C-107.23 720.62 -109.404 706.541 -110.826 694.502C-111.283 690.801 -111.624 687.052 -112.04 683.367C-113.036 673.814 -114.071 664.004 -116.043 654.484C-117.377 647.872 -119.458 641.436 -122.187 635.409C-123.257 632.852 -124.701 630.384 -126.095 628.031L-126.919 626.635C-127.369 625.97 -127.859 625.287 -128.367 624.646C-129.797 622.616 -131.293 620.511 -133.031 618.644C-140.715 609.672 -151.33 602.098 -165.486 595.528L-174.689 591.324C-175.456 590.962 -176.304 590.566 -177.087 590.246C-179.321 589.234 -181.677 588.173 -183.775 586.832L-185.133 586.035C-187.595 584.641 -190.139 583.214 -192.407 581.466L-196.601 578.545C-197.472 577.851 -198.285 577.133 -199.098 576.415C-199.566 576.03 -199.993 575.663 -200.461 575.278C-206.187 570.574 -210.837 564.77 -214.232 560.251L-218.272 553.782L-221.664 546.905L-224.318 539.753L-225.425 535.642C-225.705 534.564 -225.986 533.486 -226.25 532.368C-226.406 531.341 -226.58 530.355 -226.737 529.328C-227.148 527.042 -227.567 524.656 -227.663 522.306C-228.26 516.478 -228.082 510.053 -227.088 501.988C-226.251 495.833 -224.659 489.362 -222.218 482.228C-220.086 476.555 -217.384 469.96 -213.611 463.805C-209.727 457.261 -205.795 451.893 -201.638 447.387C-199.951 445.383 -198.066 443.603 -196.257 441.89C-195.641 441.324 -195.065 440.742 -194.39 440.152L-193.149 439.12C-190.967 437.319 -188.768 435.476 -186.365 433.957C-174.601 425.685 -160.863 421.879 -147.732 423.311L-141.201 424.639L-147.875 424.6C-160.643 423.22 -174.107 426.946 -185.605 435.039C-187.95 436.533 -190.19 438.359 -192.314 440.136L-193.538 441.127C-194.155 441.692 -194.73 442.275 -195.347 442.84C-197.156 444.554 -199.023 446.292 -200.653 448.272C-204.793 452.737 -208.633 457.998 -212.483 464.459C-216.165 470.508 -218.85 477.061 -220.989 482.635C-223.338 489.662 -224.938 496.035 -225.758 502.148C-226.752 510.213 -226.927 516.398 -226.331 522.226C-226.259 524.518 -225.823 526.862 -225.437 529.091C-225.28 530.118 -225.065 531.12 -224.932 532.089C-224.693 533.15 -224.371 534.244 -224.115 535.264L-223.049 539.359L-220.403 546.411L-217.101 553.155L-213.126 559.549C-209.797 563.993 -205.254 569.705 -199.593 574.334C-199.125 574.719 -198.657 575.103 -198.206 575.529C-197.393 576.247 -196.604 576.907 -195.774 577.584L-191.58 580.505C-189.336 582.195 -186.834 583.605 -184.413 584.982L-183.014 585.796C-180.94 587.079 -178.625 588.124 -176.45 589.159C-175.625 589.497 -174.835 589.917 -174.052 590.238L-164.848 594.442C-150.486 601.096 -139.682 608.795 -131.95 617.883C-130.129 619.784 -128.633 621.89 -127.154 624.036C-126.705 624.701 -126.197 625.342 -125.723 626.066L-124.875 627.521C-123.456 629.931 -122.013 632.4 -120.918 635.014C-118.123 641.117 -116.036 647.652 -114.652 654.38C-112.615 663.975 -111.597 673.826 -110.618 683.421C-110.219 687.146 -109.861 690.854 -109.404 694.556C-107.948 706.511 -105.84 720.516 -100.69 733.792C-98.7422 739.259 -95.9363 744.982 -91.9654 751.855C-87.7284 758.549 -83.8915 763.634 -79.9324 767.952C-71.771 777.168 -61.7672 785.647 -49.2973 793.98C-27.3098 808.572 -1.21572 817.722 26.0322 820.414C28.1233 820.597 30.2556 820.796 32.3805 820.897C30.707 821.222 28.8518 821.521 26.9141 821.786C26.5506 821.733 26.2114 821.739 25.8891 821.703L25.7655 821.652L25.7337 821.495Z" fill="#224D9B" stroke="#224D9B" stroke-width="0.723184" stroke-miterlimit="17" stroke-linecap="square"/>
<path d="M84.492 809.66C78.1615 811.014 71.7094 812.077 65.3099 812.776C52.0724 814.188 39.0604 814.344 26.557 813.024C10.5571 811.427 -4.99371 807.559 -19.526 801.557C-28.717 797.792 -37.413 793.17 -45.5483 787.767C-70.1116 771.591 -86.4454 752.481 -94.1414 731.085C-98.9994 718.505 -101.046 705.056 -102.431 693.514C-102.864 689.871 -103.263 686.146 -103.621 682.437C-104.624 672.785 -105.632 662.793 -107.789 652.667C-109.251 645.426 -111.534 638.426 -114.564 631.842C-115.846 628.862 -117.542 625.953 -119.149 623.177L-119.834 622.03C-120.3 621.405 -120.749 620.74 -121.216 620.116C-122.892 617.744 -124.657 615.24 -126.699 613.056C-135.169 603.184 -146.713 594.941 -162.03 587.799L-171.358 583.545C-172.124 583.182 -172.89 582.82 -173.714 582.483C-175.783 581.539 -177.892 580.579 -179.801 579.363L-181.2 578.549C-183.431 577.298 -185.728 575.972 -187.758 574.467L-191.574 571.796C-192.338 571.195 -193.044 570.568 -193.75 569.942C-194.177 569.575 -194.604 569.207 -195.073 568.823C-200.051 564.761 -204.062 559.749 -207.409 555.345L-211.017 549.583L-214.01 543.496L-215.563 539.297C-223.321 517.347 -219.923 490.725 -206.442 468.042C-202.819 462.018 -199.254 457.076 -195.482 453.038C-194.036 451.272 -192.394 449.731 -190.768 448.231C-190.152 447.665 -189.576 447.082 -188.884 446.451L-187.51 445.33C-185.669 443.773 -183.729 442.21 -181.708 440.92C-171.575 433.808 -159.935 430.539 -148.844 431.665L-143.856 432.649L-148.946 432.971C-159.697 431.839 -171.064 435.028 -180.948 442.001C-182.952 443.25 -184.851 444.831 -186.675 446.346L-187.991 447.443C-188.608 448.009 -189.183 448.591 -189.8 449.157C-191.367 450.632 -193.01 452.174 -194.397 453.916C-198.111 457.929 -201.683 462.772 -205.232 468.73C-218.519 491.06 -221.889 517.26 -214.236 538.878L-212.707 543.018L-209.763 548.99L-206.203 554.636C-202.767 559.172 -198.919 563.878 -194.088 567.83C-193.661 568.198 -193.193 568.582 -192.766 568.949C-192.06 569.576 -191.354 570.202 -190.631 570.787L-186.815 573.457C-184.843 574.987 -182.571 576.255 -180.381 577.489L-178.94 578.32C-177.056 579.477 -175.004 580.462 -172.96 581.348C-172.177 581.668 -171.37 582.047 -170.604 582.409L-161.276 586.664C-145.794 593.873 -134.102 602.225 -125.542 612.23C-123.459 614.431 -121.694 616.936 -119.994 619.365C-119.527 619.989 -119.078 620.655 -118.629 621.32L-117.919 622.525C-116.288 625.359 -114.551 628.285 -113.244 631.323C-110.207 638.007 -107.917 645.106 -106.39 652.423C-104.225 662.647 -103.216 672.639 -102.23 682.333C-101.831 686.058 -101.473 689.767 -101.04 693.41C-99.6633 704.852 -97.6239 718.202 -92.8146 730.666C-85.1746 751.846 -69.0374 770.731 -44.7458 786.748C-23.8934 800.586 0.864913 809.237 26.7656 811.81C39.1623 813.038 52.1236 813.006 65.2374 811.543C71.5789 810.868 77.9898 809.788 84.3203 808.435C87.3112 807.831 90.4278 807.038 93.6363 806.139C96.961 805.19 100.087 804.257 102.419 803.383L102.871 804.627C100.54 805.501 97.3388 806.5 93.9898 807.391C90.7401 808.273 87.5823 809.049 84.5745 809.694L84.5407 809.777L84.5819 809.794L84.492 809.66Z" fill="#224D9B" stroke="#224D9B" stroke-width="0.723184" stroke-miterlimit="10"/>
<path d="M-43.226 941.88C-31.2583 942.98 -20.2367 943.453 -9.50696 943.228C-3.104 943.107 2.24967 942.846 7.27362 942.449C10.0545 942.241 12.811 941.974 15.5845 941.667C18.2005 941.391 21.107 940.993 23.5507 940.55L23.9841 943.134C21.4992 943.56 18.5346 943.982 15.8774 944.241C13.087 944.59 10.2893 944.84 7.46717 945.031C2.38511 945.452 -3.00981 945.697 -9.51208 945.825C-20.3242 946.016 -31.404 945.568 -43.5121 944.458C-56.8006 943.057 -69.5454 940.916 -81.6564 938.169C-80.8802 937.331 -80.1546 936.618 -79.5453 935.953C-68.045 938.547 -55.9111 940.534 -43.3084 941.846L-43.226 941.88Z" fill="#224D9B"/>
<path d="M-117.659 927.125C-119.383 926.515 -121.213 925.813 -123.026 925.07C-123.851 924.733 -124.675 924.395 -125.483 924.016C-127.708 923.104 -130.089 921.984 -132.955 920.521C-134.818 919.662 -136.571 918.655 -138.3 917.706L-140.301 916.597C-149.669 911.267 -158.439 904.594 -166.404 896.661C-174.45 888.456 -180.588 879.587 -184.696 870.347C-189.257 859.863 -190.792 849.511 -189.195 840.442C-187.601 830.795 -182.146 822.296 -173.802 816.617C-169.984 813.994 -165.467 811.897 -160.043 810.172C-155.249 808.574 -150.146 807.633 -144.792 807.371C-139.795 807.156 -134.621 807.687 -129.495 808.921C-124.955 810.059 -120.073 811.771 -114.155 814.243C-109.16 816.386 -104.209 818.751 -98.9692 821.235C-93.6639 823.794 -88.1355 826.395 -82.5396 828.832C-71.3235 833.764 -59.8089 837.616 -48.3593 840.333C-36.8928 843.009 -24.8299 844.582 -12.5097 845.056C8.86476 845.871 32.1184 843.509 58.4674 837.939L59.0001 840.515C32.4187 846.183 9.00021 848.478 -12.6309 847.702C-25.1086 847.259 -37.3364 845.619 -48.9846 842.917C-60.6329 840.214 -72.2954 836.254 -83.6521 831.313C-89.3061 828.9 -94.8588 826.24 -100.164 823.682C-105.346 821.174 -110.256 818.825 -115.226 816.741C-120.921 814.311 -125.721 812.633 -130.137 811.546C-135.041 810.356 -139.933 809.843 -144.691 810.06C-149.788 810.282 -154.692 811.209 -159.254 812.71C-164.462 814.379 -168.746 816.378 -172.357 818.846C-180.093 824.1 -185.137 831.948 -186.643 840.91C-188.137 849.491 -186.622 859.306 -182.297 869.308C-178.311 878.258 -172.311 886.877 -164.503 894.841C-156.751 902.59 -148.13 909.154 -138.975 914.301L-136.974 915.409C-135.286 916.341 -133.574 917.332 -131.753 918.174C-128.928 919.62 -126.588 920.723 -124.321 921.652C-121.775 922.839 -119.128 923.78 -116.663 924.693L-111.443 926.639C-112.011 927.321 -112.555 928.061 -113.157 928.825L-117.593 927.2L-117.577 927.159L-117.659 927.125Z" fill="#224D9B"/>
<path d="M-44.0318 950.31C-18.4683 952.649 4.14915 952.192 25.1528 948.86L25.5693 951.485C4.32579 954.815 -18.4902 955.287 -44.2767 952.905C-59.557 951.314 -74.0686 948.786 -87.8452 945.404C-87.2433 944.64 -86.6245 943.835 -85.9983 943.129C-72.7332 946.349 -58.6919 948.732 -44.0318 950.31Z" fill="#224D9B"/>
<path d="M-120.703 935.023C-122.509 934.379 -124.34 933.678 -126.236 932.901C-127.101 932.546 -127.967 932.192 -128.815 931.796C-131.206 930.816 -133.752 929.629 -136.783 928.098C-138.81 927.172 -140.728 926.097 -142.564 925.056L-144.565 923.948C-154.6 918.248 -163.986 911.081 -172.468 902.648C-181.252 893.659 -187.97 883.975 -192.509 873.788C-197.703 861.793 -199.464 849.76 -197.629 839.056C-196.62 833.068 -194.372 827.346 -191.205 822.435C-188.037 817.523 -183.841 813.274 -178.675 809.71C-174.175 806.597 -168.943 804.167 -162.641 802.177C-157.183 800.369 -151.293 799.269 -145.22 799.013C-139.445 798.78 -133.469 799.351 -127.567 800.806C-122.541 802.047 -117.27 803.869 -110.916 806.569C-105.633 808.83 -100.368 811.372 -95.2523 813.805C-90.0706 816.313 -84.6659 818.864 -79.2592 821.175C-68.4964 825.921 -57.4933 829.611 -46.5139 832.184C-35.5758 834.74 -24.075 836.275 -12.2588 836.687C8.41296 837.455 30.9376 835.227 56.5745 829.75L57.1072 832.327C31.2304 837.802 8.53151 840.103 -12.3801 839.333C-24.3368 838.911 -36.0194 837.35 -47.1392 834.768C-58.3003 832.168 -69.4683 828.411 -80.3547 823.614C-85.8026 821.286 -91.1905 818.694 -96.4303 816.21C-101.505 813.794 -106.769 811.252 -112.011 809.008C-118.242 806.359 -123.348 804.605 -128.234 803.373C-133.93 802.002 -139.607 801.409 -145.159 801.685C-150.993 801.943 -156.65 802.946 -161.892 804.697C-167.922 806.607 -172.978 808.964 -177.213 811.898C-182.038 815.216 -186.009 819.269 -189 823.868C-191.991 828.466 -194.104 833.858 -195.077 839.524C-196.808 849.741 -195.126 861.261 -190.168 872.774C-185.751 882.67 -179.188 892.146 -170.666 900.835C-162.356 909.101 -153.201 916.125 -143.355 921.7L-141.354 922.808C-139.518 923.849 -137.682 924.89 -135.697 925.8C-132.666 927.33 -130.243 928.467 -127.87 929.488C-125.159 930.743 -122.429 931.717 -119.84 932.681L-116.798 933.831C-117.3 934.588 -117.803 935.345 -118.305 936.102L-120.73 935.205L-120.688 935.222L-120.703 935.023Z" fill="#224D9B"/>
<path d="M-44.8786 958.723C-32.2665 959.895 -20.6076 960.34 -9.23339 960.186C-2.53249 960.044 3.30089 959.786 8.63968 959.326C11.2631 959.15 14.3589 958.878 17.5633 958.458C20.9083 958.047 23.7399 957.715 26.697 957.194L27.1304 959.778C24.1151 960.324 21.2498 960.738 17.8393 961.074C14.5936 961.477 11.258 961.747 8.81632 961.95C3.43631 962.393 -2.43828 962.633 -9.19729 962.801C-20.6296 962.978 -32.4121 962.483 -45.0992 961.377C-61.8504 959.616 -77.8234 956.778 -92.8364 952.89C-92.4163 952.099 -91.9549 951.326 -91.4354 950.528C-76.7934 954.264 -61.1839 957.049 -44.8374 958.74L-44.8786 958.723Z" fill="#224D9B"/>
<path d="M-198.328 817.736C-194.607 811.944 -189.502 806.767 -183.521 802.623C-178.297 799.036 -172.334 796.232 -165.252 793.983C-159.073 791.942 -152.471 790.748 -145.603 790.433C-139.033 790.14 -132.29 790.833 -125.595 792.469C-120.098 793.854 -114.399 795.804 -107.632 798.673C-102.019 801.069 -96.6728 803.644 -91.4498 806.169C-86.1445 808.728 -81.1107 811.127 -75.9344 813.296C-55.3157 822.417 -33.7691 827.394 -11.9225 828.113C8.02972 828.875 29.876 826.658 54.8082 821.374L55.341 823.95C30.1933 829.291 8.14829 831.523 -12.0438 830.759C-34.1884 830.062 -56.0646 824.95 -76.9719 815.711C-82.1725 813.484 -87.2475 811.068 -92.5529 808.509C-97.7346 806.001 -103.098 803.467 -108.612 801.063C-115.214 798.262 -120.855 796.288 -126.187 794.97C-132.634 793.436 -139.096 792.762 -145.41 793.015C-152.021 793.291 -158.366 794.446 -164.33 796.431C-171.18 798.582 -176.967 801.313 -181.925 804.721C-187.566 808.619 -192.446 813.599 -196.031 819.062C-199.651 824.606 -202.178 831.128 -203.351 837.867C-205.386 849.885 -203.525 862.729 -197.82 875.945C-193.014 886.77 -185.846 897.12 -176.628 906.576C-167.777 915.401 -157.988 922.877 -147.475 928.82L-145.491 929.97C-143.532 931.061 -141.49 932.187 -139.438 933.172C-136.301 934.794 -133.713 935.998 -131.158 937.045C-128.324 938.351 -125.47 939.376 -122.84 940.357L-121.521 940.897C-122.041 941.695 -122.502 942.469 -122.913 943.119L-123.737 942.781C-125.584 942.121 -127.514 941.426 -129.492 940.616C-130.399 940.244 -131.306 939.873 -132.237 939.443C-134.751 938.413 -137.445 937.117 -140.6 935.536C-142.75 934.558 -144.775 933.392 -146.776 932.283L-148.76 931.134C-159.462 925.065 -169.464 917.405 -178.447 908.43C-187.944 898.715 -195.267 888.158 -200.219 876.983C-206.16 863.286 -208.059 849.946 -205.92 837.441C-204.694 830.338 -202.049 823.528 -198.253 817.67L-198.328 817.736Z" fill="#224D9B"/>
</svg>
