<svg width="891" height="1352" viewBox="0 0 891 1352" fill="none" xmlns="http://www.w3.org/2000/svg">
<path d="M759.114 686.002C746.247 680.321 728.409 669.489 724.86 664.856L719.838 683.651L1052.28 789.763C1052.28 789.763 800.195 703.767 768.307 676.433C768.307 676.433 786.371 697.98 759.114 686.002Z" fill="#224D9B"/>
<path d="M753.232 704.489C782.379 710.524 755.165 717.63 755.165 717.63C797.026 713.83 1052.28 789.763 1052.28 789.763L719.838 683.65L713.015 701.871C718.61 700.181 739.407 701.61 753.211 704.449L753.232 704.489Z" fill="#224D9B"/>
<path d="M653.395 755.975C659.076 743.108 669.908 725.27 674.541 721.721L655.746 716.699L549.634 1049.14C549.634 1049.14 635.63 797.056 662.963 765.167C662.963 765.167 641.417 783.232 653.395 755.975Z" fill="#224D9B"/>
<path d="M634.928 750.132C628.892 779.28 621.787 752.065 621.787 752.065C625.587 793.927 549.634 1049.14 549.634 1049.14L655.746 716.699L637.525 709.876C639.215 715.471 637.786 736.268 634.927 750.033L634.928 750.132Z" fill="#224D9B"/>
<path d="M583.42 650.256C596.287 655.937 614.125 666.769 617.674 671.402L622.696 652.607L290.257 546.495C290.257 546.495 542.339 632.491 574.228 659.824C574.228 659.824 556.163 638.278 583.42 650.256Z" fill="#224D9B"/>
<path d="M589.323 631.808C560.175 625.773 587.39 618.667 587.39 618.667C545.528 622.467 290.317 546.514 290.317 546.514L622.756 652.626L629.579 634.405C623.984 636.095 603.187 634.666 589.383 631.827L589.323 631.808Z" fill="#224D9B"/>
<path d="M689.139 580.281C683.459 593.148 672.627 610.986 667.994 614.536L686.788 619.558L792.901 287.119C792.901 287.119 706.905 539.2 679.571 571.089C679.571 571.089 701.118 553.025 689.139 580.281Z" fill="#224D9B"/>
<path d="M707.587 586.185C713.623 557.037 720.729 584.252 720.729 584.252C716.929 542.39 792.882 287.179 792.882 287.179L686.769 619.618L704.991 626.441C703.301 620.846 704.729 600.049 707.568 586.245L707.587 586.185Z" fill="#224D9B"/>
<path d="M1121.18 445.88C1121.18 445.88 842.926 572.699 781.832 551.144C781.832 551.144 825.995 577.194 791.715 584.795C775.469 588.383 748.309 586.384 738.983 580.376L739.024 580.456C721.496 568.962 701.088 562.468 680.14 561.719L680.18 561.698C669.137 561.192 645.777 547.148 634.592 534.831C611.008 508.818 662.104 513.079 662.104 513.079C599.767 495.326 445.967 231.027 445.967 231.027C445.967 231.027 572.786 509.281 551.231 570.375C551.231 570.375 577.281 526.212 584.881 560.492C588.47 576.738 586.471 603.898 580.463 613.224L580.503 613.203C569.009 630.731 562.515 651.14 561.766 672.087L561.725 672.008C561.219 683.051 547.175 706.411 534.858 717.596C508.845 741.18 513.106 690.084 513.106 690.084C495.413 752.44 231.114 906.24 231.114 906.24C231.114 906.24 509.368 779.421 570.462 800.976C570.462 800.976 526.299 774.926 560.579 767.326C576.825 763.737 603.985 765.736 613.31 771.744L613.269 771.665C630.818 783.198 651.227 789.692 672.213 790.421L672.095 790.482C683.138 790.988 706.498 805.032 717.683 817.349C741.267 843.362 690.171 839.101 690.171 839.101C752.487 856.815 906.288 1121.11 906.288 1121.11C906.288 1121.11 779.468 842.859 801.024 781.766C801.024 781.766 774.974 825.928 767.373 791.649C763.784 775.402 765.783 748.243 771.791 738.917L771.672 738.978C783.206 721.43 789.739 701.001 790.428 680.035L790.469 680.114C790.975 669.07 805.019 645.71 817.336 634.525C843.349 610.942 839.088 662.037 839.088 662.037C856.802 599.721 1121.1 445.921 1121.1 445.921L1121.14 445.9L1121.18 445.88ZM708.248 665.023C712.6 678.769 707.805 693.835 696.29 702.499C699.976 719.998 730.578 781.395 730.578 781.395C730.578 781.395 698.156 720.94 685.964 707.839C672.219 712.191 657.153 707.397 648.47 695.941C630.97 699.627 569.574 730.229 569.574 730.229C569.574 730.229 630.029 697.807 643.15 685.655C638.798 671.91 643.592 656.843 655.087 648.14C651.401 630.64 620.839 569.223 620.839 569.223C620.839 569.223 653.261 629.678 665.413 642.799C679.158 638.448 694.224 643.242 702.928 654.737C720.428 651.051 781.824 620.449 781.824 620.449C781.824 620.449 721.369 652.871 708.248 665.023Z" fill="#224D9B"/>
<path d="M524.583 381.57C726.442 276.713 970.856 406.541 987.597 635.622C995.495 739.701 949.834 845.807 868.415 911.186C751.901 1007.6 577.989 1006.04 462.742 908.191C287.391 760.645 321.996 485.6 524.623 381.549L524.583 381.57ZM525.054 382.48C351.209 471.694 305.855 705.111 427.447 856.142C547.63 1009 784.176 1013.68 909.936 865.039C1034.43 719.666 993.959 497.841 833.657 397.521C742.694 339.062 621.154 331.621 525.033 382.44L525.054 382.48Z" fill="#224D9B"/>
<path d="M910.487 436.511C913.821 441.406 916.345 446.77 918.117 452.523C922.394 466.608 921.195 483.876 914.616 502.373C911.737 510.381 908.003 518.48 903.49 526.431C901.253 530.346 898.915 534.163 896.494 537.822C894.64 540.636 891.788 544.719 888.791 548.426L887.763 547.603C890.721 543.917 893.534 539.854 895.369 537.1C897.77 533.501 900.108 529.684 902.306 525.79C906.779 517.86 910.515 509.86 913.335 501.933C919.838 483.676 921.04 466.707 916.847 452.879C914.49 445.122 910.588 438.064 905.344 431.9C898.665 424.223 892.733 418.666 886.719 414.505C879.9 409.658 872.566 406.531 864.958 405.201C857.391 403.95 849.369 404.438 841.172 406.622C833.985 408.434 826.377 411.466 817.338 416.192C810.276 419.894 802.829 424.498 794.6 430.208C787.714 435.024 780.595 440.36 772.892 446.601C763.828 453.897 756.091 459.202 748.617 463.269C738.177 468.97 728.878 472.224 719.434 473.549C707.685 475.363 696.024 473.371 686.626 467.902C677.029 462.435 669.289 452.9 665.411 441.717C661.762 431.269 661.129 419.962 663.611 409.151C665.733 399.779 670.504 390.291 677.786 380.908C684.189 372.733 691.62 365.479 697.536 359.661L698.971 358.267C705.183 352.146 711.08 346.388 716.215 340.222C722.37 332.926 726.421 326.118 728.62 319.414C729.862 315.512 730.529 311.858 730.579 308.271C730.669 304.664 730.259 300.865 729.424 296.633C727.641 288.629 724.27 281.046 719.642 274.715C710.177 261.457 695.133 252.44 679.431 250.682C675.839 250.233 671.894 250.168 667.396 250.488C663.795 250.797 659.9 251.507 655.414 252.724C647.677 255.021 640.116 258.631 633.051 263.488C629.855 265.743 626.463 268.3 623.535 271.268L621.394 273.429C620.961 273.853 620.57 274.357 620.178 274.86C619.944 275.182 619.688 275.465 619.433 275.747C619.199 276.069 618.963 276.291 618.688 276.634C618.276 277.097 617.885 277.601 617.493 278.104L615.735 280.618C611.242 287.154 607.582 294.814 604.77 303.339C599.914 318.187 597.319 335.275 596.82 355.641C596.616 363.97 596.876 372.812 597.529 382.704C598.262 392.555 599.301 401.545 600.604 409.396L600.701 413.558L599.272 409.633C597.91 401.763 596.85 392.733 596.136 382.822C595.483 372.93 595.242 364.029 595.426 355.66C595.923 335.194 598.536 317.947 603.431 302.979C606.241 294.354 610 286.593 614.57 279.917L616.368 277.383C616.799 276.859 617.23 276.335 617.622 275.831C617.856 275.51 618.092 275.287 618.327 274.965C618.562 274.643 618.837 274.4 619.072 274.078C619.463 273.575 619.934 273.031 620.386 272.547L622.527 270.386C625.514 267.337 628.965 264.799 632.22 262.464C639.404 257.545 647.023 253.855 654.979 251.495C659.504 250.258 663.499 249.546 667.2 249.236C671.797 248.914 675.842 248.978 679.494 249.446C695.575 251.258 710.96 260.45 720.628 274.004C725.338 280.493 728.791 288.235 730.616 296.418C731.512 300.768 731.885 304.687 731.836 308.374C731.767 312.12 731.102 315.874 729.822 319.896C727.625 326.798 723.497 333.747 717.204 341.164C712.03 347.351 706.113 353.169 699.902 359.29L698.467 360.684C692.255 366.806 685.198 373.715 678.815 381.831C671.63 391.013 666.937 400.36 664.871 409.552C662.447 420.183 663.015 431.172 666.602 441.402C670.376 452.287 677.913 461.527 687.229 466.838C696.266 472.093 707.927 474.085 719.198 472.317C728.503 471.014 737.623 467.802 747.944 462.162C755.379 458.116 763.017 452.912 772.021 445.597C779.765 439.336 786.923 433.979 793.809 429.163C802.097 423.372 809.564 418.808 816.665 415.085C825.804 410.358 833.471 407.245 840.736 405.393C849.113 403.167 857.333 402.676 865.12 403.964C872.948 405.331 880.462 408.515 887.403 413.5C893.557 417.738 899.51 423.334 906.31 431.15C907.808 432.883 909.208 434.716 910.489 436.611L910.449 436.631L910.487 436.511Z" fill="#224D9B" stroke="#3A5FF3" stroke-width="0.723184" stroke-miterlimit="10"/>
<path d="M917.452 431.655C921.274 437.3 924.308 443.554 926.23 450.081C928.753 458.254 929.658 467.665 928.803 477.936C928.043 486.452 926.033 495.364 922.602 505.213C916.4 522.21 907.261 538.571 895.338 553.814L894.31 552.992C906.136 537.849 915.236 521.609 921.361 504.751C924.753 495.023 926.764 486.211 927.526 477.794C928.343 467.643 927.5 458.451 925.02 450.456C922.37 441.648 917.774 433.344 911.822 426.393C904.677 418.104 898.22 412.117 891.563 407.486C883.818 402.015 875.101 398.249 866.355 396.755C857.69 395.32 848.235 395.848 839.025 398.305C831.163 400.265 823.02 403.524 813.348 408.577C805.97 412.443 798.266 417.229 789.702 423.163C782.657 428.061 775.382 433.579 767.52 439.902C758.732 446.955 751.627 451.833 744.508 455.715C735.076 460.844 726.493 463.93 718.201 465.059C708.282 466.63 698.558 464.99 690.807 460.474C682.976 455.999 676.593 448.118 673.359 438.859C670.25 430.037 669.717 420.183 671.842 411.011C673.702 402.778 677.833 394.574 684.47 386.076C690.129 378.887 696.437 372.565 703.494 365.656L705.224 363.959C711.18 358.12 717.333 352.079 722.723 345.631C729.604 337.509 734.119 329.757 736.662 321.973C738.133 317.351 738.947 312.818 739.068 308.494C739.208 304.209 738.728 299.693 737.745 294.786C735.748 285.69 731.843 276.978 726.585 269.719C715.759 254.508 698.526 244.265 680.47 242.221C676.239 241.702 671.736 241.624 666.682 242.032C662.543 242.367 658.112 243.205 653.13 244.528C644.519 247.076 636.167 251.095 628.312 256.461C620.495 261.708 613.991 268.232 608.875 275.792C603.933 283.011 599.924 291.353 596.843 300.619C591.738 316.247 589.015 334.153 588.469 355.396C588.129 374.226 589.441 392.954 592.435 410.862L593.05 416.511L591.083 411.06C588.088 393.052 586.755 374.285 587.134 355.335C587.678 333.992 590.44 315.966 595.562 300.178C598.621 290.773 602.729 282.33 607.708 274.991C612.942 267.27 619.565 260.685 627.52 255.317C635.433 249.87 643.904 245.79 652.693 243.199C657.754 241.835 662.285 240.996 666.523 240.659C671.698 240.29 676.28 240.327 680.571 240.865C698.986 242.924 716.561 253.441 727.629 268.928C733.01 276.325 736.936 285.176 738.996 294.49C740.04 299.516 740.501 304.092 740.383 308.516C740.284 312.979 739.452 317.672 737.923 322.374C735.362 330.318 730.709 338.191 723.75 346.454C718.301 352.983 712.109 359.044 706.173 364.922L704.443 366.619C697.426 373.508 691.157 379.809 685.517 386.938C679.037 395.254 674.964 403.278 673.162 411.331C671.092 420.224 671.583 429.899 674.609 438.464C677.739 447.425 683.9 455.07 691.449 459.389C698.919 463.75 708.364 465.334 718.005 463.807C726.137 462.66 734.622 459.675 743.896 454.628C750.975 450.766 758 445.929 766.73 438.956C774.651 432.553 781.946 427.074 789.01 422.117C797.594 416.123 805.358 411.355 812.775 407.469C822.547 402.415 830.748 399.075 838.71 397.114C848.098 394.615 857.792 394.064 866.617 395.517C875.543 397.068 884.459 400.83 892.365 406.42C899.082 411.069 905.64 417.155 912.826 425.523C914.526 427.452 916.088 429.502 917.552 431.654L917.452 431.655Z" fill="#224D9B" stroke="#3A5FF3" stroke-width="0.723184" stroke-miterlimit="17"/>
<path d="M924.501 426.956C928.831 433.292 932.174 440.338 934.387 447.718C937.242 456.923 938.242 467.387 937.262 478.776C936.432 488.03 934.273 497.622 930.592 508.151C927.387 517.079 923.247 526.041 918.267 534.834C915.816 539.111 913.284 543.329 910.648 547.25C908.325 550.708 905.512 554.77 901.928 559.282L900.901 558.459C904.505 553.987 907.278 549.945 909.562 546.508C912.198 542.587 914.75 538.408 917.162 534.152C922.123 525.419 926.224 516.478 929.39 507.669C933.033 497.26 935.194 487.768 936.025 478.613C936.947 467.405 935.989 457.119 933.196 448.033C930.211 438.094 925.063 428.722 918.302 420.886C910.65 412.006 903.709 405.567 896.449 400.546C887.718 394.331 877.78 390.144 867.816 388.428C857.993 386.789 847.303 387.354 836.942 390.105C828.425 392.254 819.687 395.72 809.422 401.08C801.648 405.15 793.866 409.978 784.886 416.177C777.625 421.237 770.231 426.816 762.191 433.281C753.876 439.988 747.147 444.623 740.443 448.24C732.039 452.837 724.169 455.654 717.011 456.649C708.841 457.916 701.234 456.685 695.049 453.065C688.865 449.544 683.982 443.495 681.388 435.96C678.818 428.664 678.367 420.423 680.156 412.829C681.753 405.835 685.362 398.753 691.216 391.262C696.581 384.476 702.908 378.094 709.514 371.669L711.48 369.749C717.436 363.911 723.588 357.87 729.332 351.038C736.879 342.07 741.98 333.415 744.787 324.591C746.527 319.228 747.43 313.897 747.579 308.755C747.691 303.833 747.16 298.542 746.028 292.959C743.736 282.711 739.4 272.97 733.43 264.724C721.263 247.599 701.802 236.053 681.43 233.702C676.661 233.11 671.56 233.04 665.908 233.456C661.232 233.819 656.265 234.783 650.767 236.273C641.283 239.072 632.08 243.481 623.535 249.355C622.844 249.862 622.154 250.37 621.443 250.838C620.161 251.752 618.76 252.727 617.48 253.84C616.929 254.326 616.378 254.812 615.806 255.258C614.408 256.432 612.931 257.648 611.714 258.979L608.963 261.806C608.374 262.411 607.865 263.076 607.336 263.7C607.062 264.043 606.748 264.406 606.474 264.748C606.2 265.091 605.925 265.433 605.651 265.775C605.103 266.46 604.573 267.085 604.065 267.749L601.876 270.887C596.526 278.769 592.088 287.834 588.838 297.839C583.429 314.527 580.59 332.694 580.04 355.093C579.823 363.981 580.09 373.32 580.789 383.689C581.617 394.694 582.614 403.506 584.109 412.31L584.093 416.932L582.857 412.507C581.362 403.702 580.345 394.851 579.496 383.807C578.776 373.398 578.547 363.938 578.764 355.051C579.352 332.532 582.17 314.226 587.617 297.418C590.945 287.272 595.381 278.108 600.87 270.104L603.097 266.946C603.625 266.221 604.174 265.537 604.743 264.891C605.017 264.549 605.291 264.207 605.565 263.864C605.839 263.522 606.153 263.159 606.427 262.816C606.976 262.132 607.505 261.507 608.114 260.841L610.824 258.035C612.1 256.623 613.617 255.387 615.034 254.153C615.585 253.667 616.157 253.221 616.708 252.735C618.067 251.581 619.428 250.626 620.75 249.692C621.441 249.184 622.151 248.716 622.842 248.209C631.525 242.213 640.867 237.783 650.49 234.962C656.087 233.471 661.114 232.525 665.91 232.101C671.661 231.684 676.822 231.773 681.691 232.363C702.46 234.709 722.204 246.511 734.614 263.911C740.645 272.275 745.084 282.215 747.418 292.642C748.591 298.303 749.123 303.694 748.973 308.736C748.846 314.017 747.905 319.468 746.127 324.951C743.202 333.936 738.083 342.751 730.399 351.841C724.636 358.732 718.444 364.793 712.508 370.672L710.542 372.591C703.997 379.035 697.689 385.357 692.382 392.063C686.645 399.393 683.154 406.313 681.614 413.128C679.902 420.482 680.31 428.445 682.777 435.543C685.286 442.72 689.968 448.572 695.871 451.938C701.814 455.383 709.081 456.538 717.013 455.294C724.032 454.322 731.783 451.566 740.028 447.051C746.632 443.434 753.283 438.841 761.579 432.194C769.598 425.689 777.031 420.089 784.313 415.069C793.312 408.81 801.155 404.002 808.967 399.911C819.333 394.55 828.169 390.982 836.785 388.832C847.325 386.039 858.193 385.432 868.176 387.088C878.36 388.841 888.439 393.106 897.37 399.418C904.711 404.497 911.713 411.055 919.445 419.993C921.328 422.179 923.112 424.465 924.719 426.894L924.698 426.854L924.501 426.956Z" fill="#224D9B" stroke="#3A5FF3" stroke-width="0.723184" stroke-miterlimit="10"/>
<path d="M932.004 1005.92C927.454 1008.27 922.325 1010.47 916.377 1012.55C910.052 1014.76 903.406 1016.75 896.616 1018.45C883.731 1021.66 869.995 1023.8 855.805 1024.77L855.649 1022.14C869.701 1021.19 883.298 1019.07 896.004 1015.91C902.675 1014.27 909.261 1012.26 915.506 1010.09C922.505 1007.62 928.386 1005.03 933.427 1002.17C939.298 998.885 944.048 995.175 947.539 991.163C951.247 986.988 953.415 982.357 954.065 977.407C954.657 972.638 953.668 967.333 951.144 961.969C948.945 957.039 945.45 952.026 940.858 946.93C932.971 938.272 922.462 930.268 909.635 923.113C898.374 916.853 885.831 911.606 872.309 907.567C845.866 899.682 818.102 897.193 791.969 900.38L791.675 897.774C818.125 894.523 846.308 897.046 873.072 905.067C886.774 909.162 899.496 914.467 910.919 920.844C923.967 928.136 934.717 936.316 942.827 945.209C947.621 950.503 951.219 955.812 953.56 960.92C956.249 966.7 957.325 972.562 956.68 977.81C956.017 983.218 953.558 988.451 949.516 992.948C945.789 997.183 940.822 1001.06 934.713 1004.47C933.843 1004.92 932.953 1005.43 932.043 1005.9L932.083 1005.88L932.004 1005.92Z" fill="#224D9B"/>
<path d="M935.912 1013.47C931.046 1015.99 925.54 1018.34 919.176 1020.58C912.614 1022.92 905.67 1025 898.642 1026.73C885.281 1030.08 871.028 1032.29 856.339 1033.27L856.184 1030.64C870.713 1029.65 884.787 1027.48 898.029 1024.19C904.998 1022.44 911.823 1020.42 918.345 1018.1C925.799 1015.44 932.136 1012.67 937.612 1009.59C944.294 1005.83 949.793 1001.53 953.951 996.772C958.679 991.468 961.738 984.972 962.525 978.447C963.315 972.121 962.045 965.206 958.945 958.436C956.295 952.635 952.473 946.99 947.214 941.185C938.559 931.722 927.627 923.385 913.796 915.646C902.012 909.054 888.87 903.616 874.787 899.366C847.224 891.157 818.243 888.546 790.997 891.907L790.702 889.301C818.346 885.935 847.686 888.561 875.55 896.865C889.852 901.152 903.155 906.707 915.08 913.377C929.132 921.253 940.305 929.766 949.123 939.446C954.583 945.447 958.568 951.309 961.32 957.308C964.685 964.493 966.001 971.886 965.119 978.711C964.299 985.754 961.008 992.771 955.926 998.459C951.572 1003.42 945.856 1007.88 938.917 1011.82C937.949 1012.37 936.96 1012.88 935.931 1013.41L935.912 1013.47Z" fill="#224D9B"/>
<path d="M939.82 1021.03C934.598 1023.73 928.716 1026.22 922.035 1028.62C915.216 1031.05 908.053 1033.2 900.707 1034.99C886.85 1038.45 872.119 1040.7 856.934 1041.79L856.779 1039.16C871.845 1038.14 886.416 1035.87 900.095 1032.45C907.302 1030.68 914.424 1028.55 921.144 1026.13C929.114 1023.31 935.886 1020.31 941.758 1017.02C949.408 1012.71 955.458 1007.93 960.323 1002.4C966.112 995.949 969.982 987.629 970.907 979.528C972.144 969.511 969.274 960.665 966.587 954.985C963.589 948.412 959.278 942.016 953.432 935.562C944.17 925.41 932.494 916.506 917.879 908.319C905.554 901.455 891.87 895.746 877.187 891.305C848.543 882.752 818.326 880.078 789.887 883.555L789.592 880.949C818.37 877.448 848.945 880.137 877.949 888.805C892.812 893.303 906.716 899.049 919.202 906.03C934.078 914.332 945.955 923.433 955.42 933.782C961.428 940.453 965.941 947.045 969.022 953.876C971.813 959.854 974.87 969.254 973.521 979.831C972.525 988.57 968.519 997.211 962.279 1004.15C957.239 1009.92 950.911 1014.84 943.044 1019.31C941.996 1019.9 940.889 1020.48 939.781 1021.05L939.82 1021.03Z" fill="#224D9B"/>
<path d="M748.763 842.244C745.43 841.811 741.897 841.282 738.342 840.613C734.507 839.889 731.371 839.254 727.671 838.209L727.33 839.489C731.069 840.514 734.206 841.148 738.061 841.912C741.676 842.6 745.209 843.129 748.542 843.561C755.527 844.462 762.626 845.002 769.641 845.185C779.026 845.395 788.224 844.951 797.234 843.951L796.978 842.68C788.046 843.639 778.909 844.102 769.662 843.87C762.687 843.667 755.648 843.146 748.723 842.264L748.763 842.244Z" fill="#224D9B" stroke="#3A5FF3" stroke-width="0.723184" stroke-miterlimit="10"/>
<path d="M1025.36 451.614C1020.57 444.966 1015.85 439.533 1010.89 434.979C1008.83 432.935 1006.51 431.074 1004.3 429.312C1003.63 428.803 1003.03 428.313 1002.34 427.765L1001.18 426.964C998.521 425.128 995.826 423.212 992.876 421.679C985.328 417.459 978.279 414.787 971.37 413.547C963.46 412.021 955.272 411.994 947.663 413.473L944.372 414.673L947.919 414.744C955.35 413.308 963.438 413.336 971.149 414.864C977.959 416.106 984.867 418.701 992.295 422.882C995.184 424.396 997.86 426.272 1000.45 428.089L1001.62 428.89C1002.25 429.42 1002.91 429.928 1003.51 430.418C1005.73 432.181 1008.03 434.002 1010.03 436.026C1014.91 440.522 1019.58 445.876 1024.33 452.445C1029 458.756 1032.57 465.839 1035.15 471.222C1038.34 478.549 1040.66 485.27 1042.13 491.884C1043.95 500.365 1044.73 507.287 1044.6 513.724C1044.71 516.371 1044.49 519.044 1044.25 521.677C1044.18 522.714 1044.08 523.771 1043.99 524.768C1043.81 526.065 1043.57 527.344 1043.33 528.622L1042.57 532.975L1040.33 541.054L1037.31 548.884L1033.51 556.367C1028.83 563.901 1024.54 569.478 1020.02 573.922L1018.72 575.195C1017.84 576.104 1017.01 576.932 1016.11 577.801L1011.87 581.345C1009.55 583.448 1006.93 585.257 1004.4 586.965L1003.14 587.819C1000.97 589.442 998.636 590.749 996.343 592.036C995.512 592.465 994.761 592.954 993.97 593.363L985.272 598.263C972.582 605.529 963.326 613.325 957.11 622.056C955.739 623.768 954.63 625.695 953.52 627.523C953.131 628.226 952.703 628.949 952.235 629.692C951.984 630.273 951.693 630.875 951.422 631.417C950.434 633.482 949.408 635.667 948.662 637.909C946.609 643.634 945.237 649.709 944.486 655.915C943.315 664.995 943.165 674.4 943.021 684.302C942.953 688.048 942.885 691.794 942.758 695.621C942.332 708.177 941.339 722.932 937.096 737.513C935.446 743.631 933.004 750.059 929.384 757.699C925.482 765.182 921.876 771.009 918.021 776.062C910.256 786.547 900.45 796.383 888.173 806.192C873.788 817.645 857.237 826.656 839.515 833.014C840.888 832.956 842.422 832.915 843.914 832.795C849.939 830.481 855.82 827.891 861.517 824.944C871.288 819.89 880.49 813.927 889.004 807.217C901.399 797.346 911.243 787.39 919.067 776.824C923.002 771.731 926.666 765.824 930.587 758.28C934.285 750.5 936.746 744.012 938.415 737.833C942.696 723.133 943.728 708.258 944.113 695.622C944.26 691.835 944.308 688.05 944.376 684.304C944.58 674.42 944.711 665.075 945.862 656.055C946.555 649.93 947.928 643.955 949.922 638.31C950.629 636.089 951.656 634.003 952.604 631.958C952.855 631.377 953.146 630.776 953.398 630.294C953.827 629.571 954.216 628.868 954.664 628.185C955.735 626.377 956.786 624.53 958.138 622.878C964.275 614.288 973.373 606.574 985.886 599.45L994.584 594.55C995.394 594.081 996.165 593.632 996.956 593.223C999.289 591.916 1001.68 590.528 1003.87 588.945L1005.09 588.111C1007.64 586.343 1010.3 584.514 1012.73 582.409L1017 578.844C1017.9 577.975 1018.81 577.106 1019.65 576.218L1020.91 574.966C1025.49 570.441 1029.86 564.823 1034.61 557.148L1038.47 549.585L1041.55 541.674L1043.83 533.476L1044.61 529.063C1044.83 527.745 1045.07 526.466 1045.29 525.149C1045.36 524.112 1045.46 523.055 1045.53 522.018C1045.77 519.385 1045.99 516.613 1045.87 513.965C1046 507.429 1045.19 500.428 1043.36 491.847C1041.83 485.214 1039.55 478.373 1036.28 470.987C1033.66 465.525 1030.03 458.423 1025.34 451.973L1025.3 451.894L1025.36 451.614Z" fill="#224D9B" stroke="#3A5FF3" stroke-width="0.723184" stroke-miterlimit="10"/>
<path d="M769.963 835.34C755.156 834.925 742.103 833.152 730.089 830.089L729.787 831.348C741.942 834.488 755.074 836.221 770.001 836.674C778.111 836.842 786.115 836.514 793.954 835.769C793.471 835.417 792.947 834.986 792.503 834.613C785.142 835.312 777.635 835.534 770.043 835.399L769.963 835.34Z" fill="#224D9B" stroke="#3A5FF3" stroke-width="0.723184" stroke-miterlimit="10"/>
<path d="M810.317 833.473C826.968 830.376 842.89 824.899 857.568 817.308C866.825 812.52 875.632 806.861 883.692 800.436C895.476 791.031 904.79 781.601 912.184 771.659C915.785 766.988 919.217 761.502 922.944 754.36C926.41 747.101 928.698 741.053 930.234 735.395C934.268 721.574 935.229 707.337 935.621 695.2C935.749 691.473 935.817 687.727 935.846 684.001C935.994 674.397 936.197 664.514 937.359 654.836C938.104 648.133 939.628 641.578 941.893 635.292C942.733 632.65 943.953 630.064 945.134 627.598L945.832 626.134C946.241 625.471 946.649 624.708 947.098 624.025C948.343 621.876 949.647 619.647 951.273 617.653C958.155 608.076 968.079 599.633 981.698 591.837L990.515 586.876C991.246 586.447 992.057 585.978 992.808 585.589C994.943 584.385 997.197 583.119 999.208 581.577L1000.49 580.663C1002.82 579.058 1005.19 577.432 1007.35 575.509L1011.27 572.229C1012.08 571.461 1012.82 570.673 1013.59 569.926C1014.02 569.502 1014.46 569.077 1014.85 568.674C1020.16 563.521 1024.28 557.329 1027.26 552.527L1030.75 545.706L1033.54 538.596L1035.59 531.217L1036.33 527.024C1036.52 525.925 1036.74 524.807 1036.9 523.669C1036.97 522.632 1037.05 521.635 1037.16 520.578C1037.37 518.264 1037.57 515.851 1037.46 513.502C1037.54 507.644 1036.87 501.219 1035.13 493.294C1033.75 487.237 1031.64 480.911 1028.61 474C1025.99 468.538 1022.75 462.187 1018.45 456.389C1014 450.215 1009.65 445.195 1005.11 441.073C1003.3 439.206 1001.26 437.6 999.288 436.013C998.624 435.505 997.999 434.975 997.314 434.427L995.987 433.509C993.693 431.887 991.301 430.266 988.752 428.926C976.282 421.686 962.302 419.089 949.368 421.616L942.98 423.516L949.645 422.927C962.282 420.503 975.962 423.005 988.151 430.09C990.619 431.371 992.972 433.012 995.245 434.595L996.512 435.494C997.176 436.002 997.801 436.532 998.465 437.041C1000.42 438.588 1002.43 440.154 1004.23 441.982C1008.71 446.084 1013.02 451.025 1017.39 457.141C1021.61 462.88 1024.8 469.152 1027.43 474.514C1030.39 481.307 1032.5 487.533 1033.86 493.55C1035.56 501.495 1036.29 507.641 1036.15 513.48C1036.28 515.769 1036.05 518.143 1035.86 520.396C1035.8 521.433 1035.67 522.451 1035.62 523.428C1035.48 524.505 1035.3 525.604 1035.09 526.662L1034.37 530.796L1032.36 538.054L1029.63 545.084L1026.19 551.825C1023.27 556.546 1019.19 562.618 1014 567.709C1013.57 568.133 1013.13 568.558 1012.7 568.982C1011.96 569.769 1011.19 570.517 1010.46 571.244L1006.54 574.524C1004.46 576.406 1002.09 578.032 999.799 579.617L998.477 580.551C996.524 582.012 994.31 583.258 992.215 584.442C991.424 584.851 990.653 585.3 989.922 585.728L981.105 590.69C967.367 598.547 957.265 607.132 950.306 616.849C948.661 618.904 947.317 621.153 946.053 623.362C945.664 624.064 945.235 624.787 944.787 625.471L944.05 626.955C942.849 629.481 941.63 632.068 940.731 634.789C938.486 641.115 936.924 647.79 936.141 654.614C934.9 664.332 934.777 674.275 934.59 683.899C934.521 687.645 934.453 691.391 934.364 695.098C933.951 707.096 933.009 721.273 929.013 734.973C927.536 740.551 925.267 746.539 921.82 753.738C918.17 760.74 914.798 766.145 911.196 770.816C903.861 780.677 894.606 790.027 882.92 799.331C862.228 815.75 837.043 827.071 810.099 832.081C808.052 832.488 805.926 832.836 803.818 833.124C805.514 833.3 807.388 833.433 809.342 833.526C809.699 833.442 810.037 833.417 810.376 833.392L810.317 833.473Z" fill="#224D9B" stroke="#3A5FF3" stroke-width="0.723184" stroke-miterlimit="17" stroke-linecap="square"/>
<path d="M750.761 826.718C757.207 827.546 763.668 828.015 770.124 828.186C783.416 828.482 796.43 827.468 808.769 825.147C824.586 822.182 839.754 816.994 853.68 809.791C862.503 805.228 870.777 799.896 878.463 793.814C901.541 775.609 916.202 755.189 922.056 733.156C925.844 720.215 926.754 706.657 927.152 695.017C927.262 691.35 927.35 687.644 927.398 683.858C927.544 674.155 927.726 664.132 929.019 653.835C929.875 646.472 931.55 639.338 933.966 632.472C934.98 629.39 936.433 626.382 937.827 623.454L938.408 622.251C938.797 621.549 939.206 620.886 939.615 620.223C941.075 617.713 942.613 615.062 944.474 612.746C952.098 602.183 962.889 592.991 977.496 584.584L986.431 579.561C987.202 579.112 987.894 578.704 988.685 578.295C990.662 577.172 992.678 576.029 994.532 574.669L995.854 573.734C997.966 572.291 1000.16 570.807 1002.03 569.088L1005.61 566.131C1006.32 565.464 1006.97 564.777 1007.61 564.091C1008.01 563.687 1008.4 563.284 1008.83 562.859C1013.45 558.413 1017.05 553.045 1019.99 548.364L1023.07 542.305L1025.56 535.956L1026.77 531.617C1032.64 509.125 1027.02 482.847 1011.63 461.423C1007.53 455.722 1003.54 451.115 999.404 447.387C997.808 445.755 996.036 444.365 994.324 442.994C993.66 442.485 993.035 441.956 992.33 441.368L990.862 440.372C988.891 438.984 986.82 437.598 984.673 436.452C973.99 430.244 962.065 427.937 951.138 430.078L946.257 431.5L951.375 431.41C962.005 429.372 973.59 431.604 984.012 437.697C986.119 438.763 988.15 440.17 990.061 441.538L991.469 442.515C992.133 443.024 992.758 443.553 993.443 444.102C995.134 445.433 996.867 446.844 998.443 448.436C1002.5 452.106 1006.44 456.633 1010.46 462.276C1025.59 483.384 1031.21 509.264 1025.43 531.356L1024.28 535.615L1021.87 541.824L1018.83 547.762C1015.78 552.545 1012.39 557.611 1007.86 561.956C1007.47 562.36 1007.04 562.784 1006.65 563.188C1006 563.874 1005.35 564.56 1004.66 565.167L1001.12 568.105C999.286 569.803 997.135 571.267 995.042 572.65L993.681 573.605C991.906 574.924 989.929 576.047 987.992 577.149C987.201 577.558 986.47 577.986 985.738 578.415L976.803 583.438C962.038 591.927 951.109 601.24 943.407 611.943C941.487 614.34 939.989 616.97 938.471 619.561C938.062 620.224 937.712 620.906 937.284 621.629L936.684 622.892C935.25 625.84 933.778 628.908 932.805 632.069C930.35 638.956 928.656 646.25 927.802 653.712C926.55 664.088 926.329 674.131 926.183 683.835C926.114 687.581 926.086 691.307 925.916 694.954C925.556 706.474 924.644 719.933 920.895 732.753C915.097 754.507 900.572 774.706 877.75 792.728C858.122 808.296 834.244 819.042 808.632 823.814C796.392 826.133 783.477 827.147 770.285 826.849C763.889 826.698 757.407 826.189 751.061 825.359C748.068 825.002 744.873 824.448 741.579 823.895C738.183 823.244 734.966 822.551 732.587 821.926L732.246 823.206C734.646 823.87 737.922 824.583 741.358 825.213C744.673 825.805 747.887 826.299 750.9 826.696L750.781 826.757L750.761 826.718Z" fill="#224D9B" stroke="#3A5FF3" stroke-width="0.723184" stroke-miterlimit="10"/>
<path d="M889.271 947.537C877.427 949.651 866.509 951.035 855.822 951.799C849.413 952.206 844.057 952.418 838.997 952.428C836.209 952.466 833.4 952.464 830.629 952.343C827.999 952.299 825.048 952.121 822.635 951.915L822.432 954.527C824.945 954.732 827.935 954.89 830.586 954.973C833.396 955.074 836.205 955.076 839.053 955.056C844.152 955.027 849.548 954.793 856.017 954.406C866.764 953.661 877.821 952.255 889.764 950.139C902.898 947.609 915.384 944.41 927.205 940.603C926.358 939.838 925.552 939.151 924.906 938.583C913.62 942.163 901.768 945.134 889.271 947.537Z" fill="#224D9B"/>
<path d="M962.193 926.518C963.856 925.758 965.637 924.937 967.378 924.037C968.169 923.627 968.961 923.218 969.731 922.769C971.868 921.664 974.161 920.378 976.887 918.667C978.666 917.647 980.323 916.489 981.962 915.391L983.856 914.11C992.738 908.012 1000.94 900.609 1008.14 892.024C1015.45 883.178 1020.82 873.782 1024.15 864.234C1027.77 853.387 1028.44 842.959 1026.09 834.047C1023.69 824.558 1017.5 816.574 1008.73 811.634C1004.69 809.359 1000.05 807.649 994.435 806.392C989.518 805.224 984.332 804.697 978.976 804.91C973.979 805.138 968.892 806.064 963.855 807.766C959.413 809.261 954.701 811.398 949.025 814.384C944.239 816.959 939.496 819.713 934.496 822.65C929.417 825.628 924.161 828.748 918.761 831.591C908.004 837.456 896.875 842.309 885.67 845.949C874.464 849.588 862.627 852.2 850.376 853.723C829.117 856.344 805.785 856.026 779.064 852.647L778.722 855.281C805.681 858.637 829.212 858.953 850.671 856.328C863.061 854.784 875.136 852.149 886.461 848.448C897.845 844.766 909.132 839.831 920.008 833.905C925.427 831.002 930.743 827.901 935.822 824.923C940.782 822.007 945.505 819.213 950.272 816.697C955.73 813.774 960.383 811.718 964.686 810.245C969.485 808.665 974.313 807.723 979.092 807.558C984.188 807.329 989.155 807.818 993.813 808.97C999.188 810.151 1003.61 811.824 1007.43 813.963C1015.58 818.573 1021.3 825.945 1023.53 834.72C1025.74 843.156 1025.07 853.026 1021.61 863.392C1018.43 872.659 1013.2 881.735 1006.06 890.339C999.005 898.703 990.976 905.964 982.312 911.9L980.417 913.181C978.819 914.258 977.201 915.396 975.441 916.356C972.734 918.007 970.501 919.313 968.325 920.438C965.874 921.806 963.34 923.016 960.965 924.144L955.978 926.523C956.604 927.152 957.211 927.841 957.838 928.57L962.114 926.559L962.193 926.518Z" fill="#224D9B"/>
<path d="M890.819 955.862C865.56 960.351 842.95 961.816 821.774 960.332L821.57 962.945C843.006 964.445 865.815 962.977 891.292 958.425C906.353 955.55 920.664 951.808 934.049 947.242C933.382 946.534 932.694 945.787 932.008 945.139C919.059 949.479 905.283 953.094 890.819 955.862Z" fill="#224D9B"/>
<path d="M965.923 934.116C967.665 933.316 969.447 932.494 971.267 931.553C972.098 931.123 972.928 930.694 973.739 930.224C976.033 929.038 978.464 927.63 981.348 925.837C983.285 924.735 985.101 923.495 986.858 922.335L988.753 921.055C998.266 914.53 1007.04 906.581 1014.77 897.471C1022.74 887.78 1028.64 877.559 1032.26 867.011C1036.43 854.623 1037.12 842.482 1034.39 831.961C1032.85 826.085 1030.15 820.564 1026.56 815.952C1022.97 811.34 1018.43 807.418 1012.99 804.364C1008.24 801.66 1002.79 799.663 996.376 798.217C990.759 796.86 984.795 796.284 978.723 796.566C972.929 796.805 967.088 797.921 961.297 799.813C956.399 801.493 951.29 803.734 945.199 806.985C940.136 809.704 935.097 812.661 930.216 815.537C925.256 818.454 920.098 821.473 914.916 824.253C904.574 829.853 893.94 834.5 883.231 838.033C872.541 841.506 861.201 844.012 849.507 845.447C828.963 847.999 806.329 847.671 780.327 844.421L779.985 847.056C806.245 850.322 829.079 850.647 849.822 848.092C861.695 846.615 873.234 844.107 884.043 840.572C894.931 836.997 905.764 832.346 916.204 826.646C921.425 823.845 926.583 820.826 931.583 817.889C936.424 815.034 941.464 812.076 946.487 809.378C952.459 806.189 957.389 803.99 962.189 802.41C967.741 800.541 973.364 799.488 978.88 799.293C984.713 799.034 990.418 799.593 995.854 800.894C1002.03 802.263 1007.25 804.224 1011.79 806.791C1016.85 809.69 1021.19 813.416 1024.55 817.693C1027.9 822.03 1030.48 827.214 1031.95 832.771C1034.58 842.796 1033.86 854.399 1029.88 866.287C1026.35 876.535 1020.57 886.495 1012.85 895.903C1005.28 904.832 996.726 912.618 987.39 919.001L985.495 920.282C983.738 921.442 981.962 922.662 980.125 923.762C977.241 925.555 974.928 926.901 972.634 928.088C970.024 929.538 967.411 930.789 964.918 931.979L961.989 933.393C962.556 934.103 963.124 934.812 963.691 935.521L966.027 934.414L965.987 934.434L965.967 934.395L965.923 934.116Z" fill="#224D9B"/>
<path d="M892.328 964.208C879.888 966.43 868.275 967.923 856.969 968.656C850.282 969.106 844.468 969.305 839.109 969.318C836.481 969.374 833.392 969.317 830.144 969.242C826.776 969.128 823.945 968.988 820.914 968.75L820.71 971.363C823.762 971.64 826.653 971.8 830.1 971.872C833.369 971.987 836.676 971.981 839.186 971.987C844.584 971.953 850.498 971.752 857.224 971.282C868.648 970.488 880.322 969.013 892.901 966.769C909.452 963.575 925.092 959.397 939.744 954.276C939.255 953.525 938.727 952.795 938.139 952.046C923.825 957.043 908.542 961.137 892.407 964.167L892.328 964.208Z" fill="#224D9B"/>
<path d="M1033.2 810.662C1028.98 805.222 1023.42 800.477 1017.15 796.897C1011.67 793.765 1005.47 791.459 998.192 789.806C991.876 788.259 985.194 787.653 978.325 787.946C971.735 788.195 965.118 789.461 958.574 791.643C953.201 793.469 947.716 795.955 941.209 799.37C935.83 802.253 930.732 805.291 925.732 808.228C920.653 811.206 915.851 814.041 910.887 816.658C891.075 827.507 870.071 834.309 848.432 836.876C828.624 839.299 806.707 839.001 781.404 835.841L781.041 838.436C806.543 841.593 828.701 841.967 848.727 839.482C870.744 836.87 892.084 829.944 912.134 818.972C917.138 816.334 921.979 813.479 927.058 810.501C932.018 807.584 937.137 804.586 942.437 801.744C948.766 798.371 954.231 795.945 959.425 794.161C965.712 792.063 972.11 790.86 978.421 790.554C985.051 790.284 991.473 790.874 997.589 792.324C1004.62 793.901 1010.59 796.13 1015.85 799.126C1021.83 802.55 1027.11 807.04 1031.09 812.205C1035.18 817.408 1038.24 823.701 1039.96 830.331C1043.01 842.142 1042.27 855.061 1037.72 868.75C1033.85 879.978 1027.58 890.841 1019.18 901.056C1011.12 910.589 1001.97 918.882 992.063 925.711L990.129 927.012C988.273 928.273 986.378 929.554 984.382 930.736C981.38 932.59 978.909 934.019 976.456 935.287C973.728 936.799 970.997 938.111 968.464 939.321L967.198 939.976C967.785 940.725 968.313 941.455 968.74 942.086L969.532 941.677C971.313 940.856 973.174 939.994 975.073 939.011C975.943 938.561 976.814 938.111 977.703 937.601C980.117 936.353 982.666 934.884 985.688 932.97C987.704 931.826 989.658 930.465 991.553 929.184L993.448 927.903C1003.59 920.951 1012.9 912.477 1021.11 902.763C1029.73 892.286 1036.12 881.162 1040.12 869.613C1044.83 855.445 1045.62 842.047 1042.4 829.72C1040.6 822.733 1037.4 816.163 1033.1 810.663L1033.14 810.643L1033.16 810.682L1033.2 810.662Z" fill="#224D9B"/>
<path d="M343.786 728.518C345.814 734.088 348.734 739.247 352.405 744.018C361.37 755.728 376.155 764.73 395.034 770.109C403.193 772.408 412 774.02 421.078 774.992C425.566 775.428 430.053 775.765 434.398 775.925C437.766 776.038 442.767 776.109 447.484 775.826L447.407 774.512C442.689 774.796 437.728 774.704 434.42 774.61C430.095 774.49 425.629 774.192 421.199 773.675C412.182 772.723 403.514 771.089 395.375 768.829C376.736 763.526 362.212 754.641 353.39 743.208C348.461 736.781 344.955 729.518 342.995 721.656C340.588 711.768 339.522 703.695 339.641 696.362C339.665 687.975 341.352 680.183 344.683 673.245C348.075 666.326 353.129 660.101 359.688 654.652C365.32 649.834 372.212 645.417 381.312 640.81C388.435 637.227 396.456 633.83 405.932 630.433C413.842 627.596 422.352 624.949 431.876 622.229C443.089 619.088 451.91 615.879 459.548 612.129C470.254 606.943 478.305 601.275 484.883 594.312C493.213 585.791 498.326 575.123 499.314 564.333C500.438 553.321 497.129 541.493 490.343 531.865C483.944 522.788 475.142 515.757 464.825 511.516C455.929 507.793 445.469 506.183 433.582 506.664C423.171 507.185 413.016 508.978 404.788 510.425L402.8 510.751C394.216 512.283 386.088 513.729 378.107 514.296C368.575 515.064 360.718 514.414 353.995 512.275C350.093 511.034 346.765 509.446 343.809 507.414C340.852 505.383 337.949 502.873 335.018 499.726C329.556 493.625 325.315 486.491 322.822 479.055C317.512 463.649 318.946 446.159 326.586 432.329C328.295 429.138 330.542 425.92 333.422 422.374C335.754 419.613 338.625 416.825 342.131 413.908C348.477 408.921 355.833 404.916 363.88 401.957C367.568 400.651 371.614 399.361 375.709 398.747L378.711 398.248C379.327 398.18 379.944 398.111 380.581 398.083C380.979 398.077 381.357 398.032 381.735 397.987C382.133 397.982 382.451 397.918 382.889 397.892C383.506 397.824 384.143 397.795 384.78 397.766L387.848 397.784C395.799 397.934 404.165 399.374 412.708 402.026C427.613 406.703 443.019 414.48 459.909 425.903C466.845 430.589 473.91 435.911 481.506 442.162C489.143 448.492 495.84 454.556 501.455 460.176L504.756 462.681L502.378 459.247C496.743 453.587 490.026 447.484 482.329 441.134C474.653 434.825 467.548 429.524 460.63 424.777C443.66 413.296 428.114 405.441 413.088 400.726C404.426 398.035 395.939 396.558 387.829 396.39L384.701 396.353C384.024 396.402 383.387 396.431 382.711 396.48C382.312 396.485 381.994 396.549 381.596 396.555C381.198 396.56 380.84 396.645 380.481 396.63C379.805 396.679 379.128 396.728 378.472 396.817L375.471 397.316C371.296 397.971 367.21 399.282 363.423 400.589C355.237 403.569 347.822 407.655 341.278 412.745C337.654 415.723 334.704 418.552 332.352 421.373C329.393 424.959 327.127 428.237 325.359 431.509C317.485 445.661 316.036 463.51 321.491 479.292C324.025 486.907 328.348 494.199 333.932 500.438C336.964 503.683 339.908 506.272 342.985 508.342C346.081 510.451 349.53 512.077 353.552 513.357C360.454 515.553 368.511 516.2 378.182 515.41C386.242 514.802 394.37 513.356 403.015 511.844L405.002 511.518C413.587 509.986 423.306 508.319 433.618 507.799C445.284 507.281 455.606 508.913 464.301 512.539C474.378 516.704 482.999 523.578 489.236 532.438C495.898 541.829 499.083 553.319 497.995 564.012C497.041 574.384 491.928 585.052 483.872 593.23C477.411 600.032 469.479 605.639 458.931 610.743C451.352 614.413 442.631 617.62 431.478 620.781C421.893 623.481 413.383 626.128 405.434 628.986C395.958 632.382 387.858 635.82 380.656 639.445C371.476 644.092 364.505 648.55 358.815 653.449C352.098 658.979 346.986 665.384 343.517 672.444C340.088 679.583 338.365 687.595 338.323 696.141C338.205 703.573 339.273 711.746 341.701 721.773C342.25 723.997 342.937 726.199 343.684 728.32L343.724 728.399L343.786 728.518Z" fill="#224D9B" stroke="#3A5FF3" stroke-width="0.723184" stroke-miterlimit="10"/>
<path d="M335.837 731.375C338.195 737.777 341.565 743.807 345.762 749.208C350.935 756.01 358.071 762.148 366.949 767.485C374.32 771.846 382.755 775.356 392.775 778.247C410.212 783.069 428.826 785.125 448.138 784.263L448.081 782.989C428.908 783.829 410.374 781.831 393.097 777.028C383.197 774.175 374.822 770.684 367.592 766.4C358.875 761.181 351.84 755.141 346.768 748.437C341.15 741.163 337.029 732.614 334.836 723.719C332.24 713.077 331.084 704.348 331.233 696.298C331.282 686.795 333.288 677.584 337.162 669.562C341.019 661.7 346.914 654.289 354.301 648.211C360.465 642.968 367.87 638.185 377.564 633.271C385.003 629.524 393.361 626.003 403.114 622.463C411.182 619.544 419.91 616.835 429.634 614.112C440.449 611.075 448.557 608.136 455.879 604.549C465.536 599.855 473.014 594.633 478.788 588.538C485.801 581.35 490.103 572.506 490.957 563.59C491.87 554.593 489.126 544.829 483.479 536.819C478.115 529.163 470.361 522.994 461.647 519.428C453.832 516.148 444.81 514.797 434.019 515.264C424.861 515.688 416.096 517.162 406.319 518.91L403.934 519.341C395.767 520.807 387.261 522.298 378.823 522.951C368.237 523.813 359.262 523.04 351.479 520.596C346.858 519.126 342.727 517.15 339.108 514.71C335.548 512.288 332.161 509.326 328.764 505.668C322.514 498.721 317.681 490.54 314.815 481.993C308.717 464.387 310.335 444.344 319.182 428.485C321.203 424.732 323.762 421.052 326.995 417.123C329.681 413.979 332.925 410.846 336.884 407.545C343.94 401.99 352.106 397.516 360.967 394.287C369.786 390.979 378.869 389.44 388.016 389.674C396.724 389.833 405.909 391.401 415.232 394.301C430.917 399.226 447.125 407.391 464.659 419.283C480.204 429.948 494.65 441.882 507.556 454.714L511.791 458.54L508.479 453.785C495.533 440.874 481.026 428.92 465.422 418.237C447.708 406.288 431.459 398.044 415.614 393.101C406.171 390.162 396.926 388.576 388.058 388.398C378.772 388.187 369.511 389.767 360.552 393.097C351.533 396.408 343.288 400.923 336.095 406.6C332.017 409.962 328.733 413.115 326.009 416.379C322.697 420.349 320.099 424.15 318.02 427.983C308.998 444.183 307.365 464.584 313.547 482.548C316.475 491.214 321.39 499.553 327.722 506.658C331.22 510.415 334.648 513.456 338.327 515.916C342.047 518.454 346.298 520.468 351.04 521.977C359.003 524.478 368.098 525.289 378.883 524.425C387.36 523.751 395.866 522.26 404.094 520.813L406.478 520.382C416.176 518.675 424.941 517.201 434 516.778C444.552 516.335 453.415 517.668 461.049 520.89C469.523 524.38 477.056 530.412 482.297 537.831C487.802 545.565 490.441 555.031 489.564 563.709C488.766 572.345 484.58 580.929 477.763 587.915C472.088 593.909 464.768 599.049 455.209 603.642C447.966 607.188 439.938 610.086 429.162 613.102C419.378 615.806 410.691 618.594 402.563 621.494C392.711 625.036 384.313 628.577 376.834 632.345C367.021 637.32 359.577 642.123 353.294 647.428C345.79 653.667 339.797 661.179 335.823 669.202C331.891 677.404 329.789 686.815 329.782 696.497C329.655 704.686 330.811 713.515 333.409 724.257C334.001 726.759 334.771 729.218 335.661 731.617L335.699 731.497L335.837 731.375Z" fill="#224D9B" stroke="#3A5FF3" stroke-width="0.723184" stroke-miterlimit="17"/>
<path d="M327.849 734.353C330.517 741.548 334.296 748.369 339.001 754.46C344.823 762.13 352.786 768.993 362.588 774.856C370.581 779.547 379.677 783.367 390.357 786.468C399.456 789.033 409.223 790.851 419.258 791.929C424.185 792.44 429.07 792.771 433.814 792.926C437.939 793.048 442.94 793.119 448.693 792.802L448.615 791.488C442.922 791.825 437.961 791.733 433.856 791.65C429.113 791.496 424.227 791.164 419.4 790.652C409.425 789.594 399.758 787.774 390.719 785.228C380.138 782.126 371.103 778.424 363.23 773.771C353.59 768.026 345.728 761.261 339.988 753.75C333.64 745.549 328.966 735.932 326.518 725.865C323.732 714.469 322.528 705.063 322.626 696.236C322.639 685.499 324.985 675.008 329.343 665.884C333.703 656.96 340.362 648.602 348.655 641.755C355.35 636.085 363.289 630.976 373.556 625.716C381.39 621.764 389.828 618.203 400.096 614.496C408.403 611.554 417.269 608.723 427.172 605.958C437.491 603.028 445.142 600.274 451.989 596.933C460.618 592.771 467.465 587.976 472.452 582.688C478.229 576.793 481.66 569.853 482.339 562.732C483.039 555.65 480.925 548.169 476.353 541.658C471.884 535.344 465.459 530.193 458.207 527.224C451.595 524.426 443.73 523.279 434.214 523.688C425.593 524.085 416.689 525.581 407.647 527.199L404.945 527.694C396.717 529.141 388.232 530.672 379.356 531.351C367.656 532.288 357.663 531.389 348.8 528.601C343.418 526.922 338.525 524.539 334.282 521.668C330.201 518.915 326.189 515.424 322.366 511.233C315.327 503.441 309.902 494.212 306.682 484.595C299.817 464.728 301.7 442.191 311.634 424.266C313.907 420.031 316.798 415.828 320.463 411.475C323.522 407.887 327.159 404.351 331.572 400.765C339.397 394.662 348.274 389.719 358.027 386.18C358.84 385.909 359.653 385.639 360.466 385.369C361.953 384.851 363.579 384.311 365.207 383.87C365.922 383.701 366.636 383.532 367.331 383.323C369.097 382.861 370.943 382.357 372.754 382.173L376.65 381.562C377.485 381.431 378.321 381.4 379.137 381.329C379.575 381.303 380.052 381.257 380.49 381.231C380.928 381.205 381.366 381.179 381.804 381.153C382.679 381.101 383.495 381.03 384.332 380.999L388.157 381.026C397.681 381.215 407.625 382.891 417.668 386.021C434.414 391.25 450.843 399.552 469.401 412.067C476.74 417.046 484.247 422.641 492.286 429.264C500.789 436.3 507.385 442.266 513.627 448.615L517.409 451.272L514.551 447.686C508.269 441.357 501.613 435.372 493.129 428.277C485.051 421.674 477.542 415.98 470.163 411.021C451.504 398.407 434.976 390.107 418.09 384.8C407.927 381.632 397.823 379.938 388.179 379.711L384.293 379.665C383.397 379.677 382.521 379.729 381.666 379.82C381.228 379.846 380.79 379.872 380.352 379.898C379.914 379.924 379.437 379.97 378.999 379.996C378.123 380.048 377.307 380.119 376.412 380.231L372.556 380.821C370.666 381.046 368.761 381.531 366.954 382.013C366.24 382.183 365.545 382.391 364.83 382.56C363.103 383.002 361.517 383.522 359.99 384.061C359.177 384.331 358.384 384.641 357.551 384.871C347.64 388.493 338.624 393.457 330.661 399.682C326.149 403.369 322.513 406.905 319.395 410.573C315.691 415.047 312.761 419.27 310.43 423.585C300.321 441.851 298.403 464.807 305.373 484.971C308.674 494.747 314.181 504.134 321.342 512.064C325.245 516.314 329.337 519.863 333.52 522.715C337.903 525.663 342.896 528.045 348.378 529.822C357.422 532.667 367.574 533.584 379.414 532.625C388.349 531.965 396.874 530.414 405.141 528.946L407.844 528.451C416.886 526.833 425.711 525.378 434.271 524.962C443.549 524.576 451.233 525.666 457.705 528.386C464.717 531.279 470.98 536.213 475.267 542.37C479.636 548.585 481.706 555.788 481.002 562.571C480.358 569.373 477.083 576.031 471.503 581.725C466.653 586.891 459.865 591.606 451.434 595.666C444.666 598.966 437.054 601.699 426.814 604.589C416.872 607.374 407.986 610.165 399.639 613.128C389.331 616.855 380.873 620.377 372.96 624.37C362.553 629.652 354.536 634.802 347.782 640.552C339.39 647.499 332.614 656.019 328.137 665.104C323.662 674.389 321.279 685.099 321.249 695.996C321.131 704.882 322.357 714.428 325.144 725.924C325.84 728.723 326.675 731.501 327.688 734.236L327.808 734.274L327.849 734.353Z" fill="#224D9B" stroke="#3A5FF3" stroke-width="0.723184" stroke-miterlimit="10"/>
<path d="M794.956 1076.5C799.506 1074.15 804.267 1071.23 809.417 1067.62C814.903 1063.78 820.422 1059.52 825.699 1054.98C835.781 1046.36 845.525 1036.4 854.539 1025.42L852.484 1023.78C843.549 1034.62 833.962 1044.49 823.939 1053.03C818.682 1057.51 813.301 1061.75 807.835 1065.53C801.778 1069.81 796.244 1073.08 790.999 1075.54C784.923 1078.43 779.129 1080.12 773.837 1080.65C768.288 1081.27 763.255 1080.36 758.86 1077.97C754.625 1075.7 750.847 1071.78 747.948 1066.66C745.234 1062 743.124 1056.27 741.658 1049.56C739.19 1038.1 738.791 1024.92 740.403 1010.29C741.841 997.463 744.867 984.214 749.386 970.845C758.292 944.726 772.386 920.688 790.168 901.261L788.252 899.494C770.254 919.183 755.945 943.583 746.944 970.002C742.368 983.551 739.285 996.98 737.829 1009.97C736.16 1024.87 736.604 1038.33 739.154 1050.05C740.704 1057.02 742.858 1063.03 745.734 1067.91C748.858 1073.47 753.02 1077.73 757.676 1080.24C762.472 1082.82 768.184 1083.88 774.171 1083.24C779.762 1082.7 785.833 1080.87 792.167 1077.89C793.037 1077.44 793.967 1077.01 794.877 1076.54L794.956 1076.5Z" fill="#224D9B"/>
<path d="M798.846 1084.12C803.712 1081.6 808.808 1078.46 814.354 1074.64C820.096 1070.62 825.793 1066.22 831.266 1061.48C841.781 1052.53 851.84 1042.21 861.147 1030.83L859.092 1029.19C849.863 1040.43 839.903 1050.64 829.506 1059.53C824.052 1064.21 818.434 1068.57 812.771 1072.55C806.26 1077.12 800.352 1080.63 794.671 1083.32C787.723 1086.56 781.017 1088.52 774.731 1089.17C767.67 1089.96 760.619 1088.64 754.879 1085.49C749.239 1082.44 744.35 1077.45 740.696 1070.97C737.532 1065.43 735.134 1059.05 733.475 1051.38C730.814 1038.87 730.327 1025.13 732.064 1009.39C733.554 995.982 736.711 982.114 741.441 968.184C750.73 940.964 765.447 915.902 783.995 895.627L782.079 893.861C763.276 914.417 748.384 939.821 738.959 967.361C734.172 981.471 730.958 995.52 729.471 1009.13C727.678 1025.15 728.169 1039.18 730.913 1051.96C732.655 1059.88 735.097 1066.54 738.402 1072.25C742.322 1079.15 747.555 1084.52 753.616 1087.8C759.838 1091.2 767.427 1092.59 775.025 1091.77C781.59 1091.09 788.574 1089.08 795.779 1085.65C796.788 1085.18 797.798 1084.71 798.827 1084.18L798.846 1084.12Z" fill="#224D9B"/>
<path d="M802.734 1091.63C807.956 1088.93 813.369 1085.63 819.23 1081.55C825.149 1077.38 831.082 1072.76 836.792 1067.9C847.642 1058.63 858.054 1047.93 867.734 1036.2L865.68 1034.56C856.098 1046.18 845.824 1056.76 835.072 1065.93C829.401 1070.77 823.566 1075.29 817.687 1079.44C810.761 1084.27 804.398 1088.06 798.262 1090.94C790.304 1094.65 782.903 1096.83 775.583 1097.6C766.951 1098.56 757.943 1096.85 750.818 1092.96C741.927 1088.18 736.386 1080.67 733.324 1075.23C729.692 1068.99 727.043 1061.73 725.174 1053.27C722.281 1039.82 721.821 1025.17 723.625 1008.49C725.206 994.484 728.494 979.996 733.415 965.466C743.088 937.146 758.408 911.019 777.761 889.877L775.805 888.131C756.237 909.534 740.702 936.023 730.934 964.643C725.935 979.314 722.59 993.982 721.011 1008.19C719.152 1025.15 719.674 1040.02 722.592 1053.8C724.525 1062.58 727.276 1070.04 731.051 1076.56C734.317 1082.29 740.162 1090.2 749.575 1095.31C757.282 1099.55 766.63 1101.33 775.879 1100.31C783.498 1099.53 791.157 1097.27 799.412 1093.45C800.5 1092.94 801.629 1092.41 802.736 1091.83L802.695 1091.75L802.735 1091.73L802.734 1091.63Z" fill="#224D9B"/>
<path d="M768.05 832.319C769.662 829.328 771.253 826.199 772.801 822.891C774.426 819.342 775.721 816.416 777.026 812.832L778.268 813.294C776.923 816.898 775.648 819.864 774.004 823.472C772.416 826.8 770.807 829.99 769.234 832.96C765.932 839.18 762.211 845.267 758.306 851.098C753.033 858.84 747.316 866.109 741.293 872.885L740.403 871.941C746.368 865.246 752.047 858.096 757.241 850.395C761.166 844.604 764.808 838.558 768.13 832.377L768.09 832.398L768.05 832.319Z" fill="#224D9B" stroke="#3A5FF3" stroke-width="0.723184" stroke-miterlimit="10"/>
<path d="M289.427 830.799C286.771 823.046 285.101 816.037 284.313 809.374C283.835 806.512 283.676 803.586 283.537 800.699C283.505 799.863 283.455 799.086 283.403 798.211L283.423 796.796C283.459 793.568 283.514 790.281 283.946 786.948C284.924 778.368 286.817 771.071 289.837 764.695C293.163 757.359 297.893 750.7 303.537 745.324L306.418 743.332L304.426 746.268C298.92 751.523 294.289 758.08 291.02 765.237C288.077 771.472 286.223 778.649 285.243 787.129C284.81 790.362 284.755 793.65 284.739 796.818L284.718 798.232C284.749 799.069 284.82 799.885 284.871 800.661C285.029 803.487 285.189 806.414 285.625 809.197C286.433 815.799 288.101 822.709 290.716 830.383C293.169 837.839 296.85 844.861 299.711 850.101C303.809 856.957 307.992 862.717 312.463 867.776C318.328 874.17 323.491 878.82 328.801 882.493C330.895 884.118 333.204 885.48 335.493 886.804C336.377 887.349 337.301 887.875 338.164 888.381C339.328 888.982 340.511 889.524 341.694 890.066L345.704 892.003L353.592 894.843L361.728 896.903L370.032 898.124C378.905 898.7 385.914 898.485 392.133 897.324L393.942 897.04C395.195 896.844 396.407 896.668 397.579 896.413L402.939 895.045C405.998 894.365 408.991 893.269 411.845 892.194L413.272 891.656C415.85 890.824 418.265 889.675 420.66 888.587C421.491 888.157 422.323 887.827 423.135 887.457L432.181 883.23C445.464 877.112 457.157 874.123 467.894 874.135C470.084 874.006 472.298 874.215 474.452 874.404C475.25 874.493 476.088 874.561 476.965 874.609C477.584 874.74 478.204 874.871 478.862 874.981C481.119 875.369 483.456 875.815 485.737 876.541C491.616 878.213 497.327 880.625 502.807 883.658C510.874 888.01 518.577 893.303 526.801 898.928C529.898 901.037 532.995 903.146 536.112 905.295C546.565 912.224 559.202 919.979 573.494 925.023C579.422 927.273 586.059 928.955 594.446 930.434C602.769 931.595 609.628 932.059 616.019 931.812C629.064 931.534 642.759 929.315 657.919 924.983C675.639 919.88 692.539 911.641 708.01 900.931C707.189 902.058 706.249 903.246 705.289 904.394C699.899 907.934 694.386 911.237 688.689 914.184C678.917 919.238 668.713 923.262 658.275 926.254C643.036 930.626 629.241 932.846 616.057 933.146C609.646 933.353 602.707 932.93 594.264 931.731C585.817 930.233 579.06 928.513 573.073 926.244C558.621 921.183 545.904 913.368 535.37 906.381C532.233 904.292 529.116 902.143 526.02 900.034C517.855 894.429 510.153 889.135 502.145 884.803C496.746 881.829 491.116 879.475 485.335 877.801C483.115 877.094 480.819 876.727 478.581 876.28C477.962 876.149 477.303 876.039 476.764 875.966C475.927 875.898 475.129 875.809 474.311 875.781C472.217 875.61 470.103 875.4 467.913 875.53C457.335 875.535 445.822 878.481 432.696 884.518L423.65 888.745C422.799 889.135 421.987 889.505 421.176 889.875C418.761 891.023 416.247 892.173 413.669 893.005L412.281 893.522C409.367 894.578 406.374 895.675 403.236 896.395L397.837 897.784C396.605 898.02 395.373 898.256 394.16 898.432L392.412 898.735C386.072 899.857 378.944 900.134 369.912 899.54L361.488 898.281L353.232 896.183L345.264 893.284L341.213 891.367C340.01 890.786 338.867 890.224 337.643 889.603C336.759 889.057 335.836 888.532 334.952 887.987C332.642 886.624 330.273 885.242 328.158 883.577C322.789 879.886 317.545 875.176 311.619 868.664C307.087 863.586 302.864 857.747 298.725 850.812C295.784 845.513 292.081 838.452 289.607 830.856L289.567 830.876L289.547 830.837L289.427 830.799Z" fill="#224D9B" stroke="#3A5FF3" stroke-width="0.723184" stroke-miterlimit="10"/>
<path d="M750.122 845.552C758.38 833.207 764.516 821.609 768.999 810.013L770.201 810.495C765.719 822.19 759.505 833.929 751.168 846.314C746.579 853.051 741.665 859.353 736.507 865.281C736.499 864.683 736.45 864.006 736.441 863.409C741.265 857.805 745.826 851.886 750.082 845.572L750.122 845.552Z" fill="#224D9B" stroke="#3A5FF3" stroke-width="0.723184" stroke-miterlimit="10"/>
<path d="M725.197 877.348C713.027 889.109 699.296 898.918 684.598 906.47C675.34 911.258 665.592 915.097 655.69 917.962C641.185 922.104 628.106 924.256 615.739 924.485C609.825 924.685 603.405 924.295 595.461 923.188C587.553 921.763 581.295 920.135 575.809 918.059C562.217 913.304 550.083 905.84 539.991 899.126C536.875 897.077 533.797 894.907 530.721 892.838C522.798 887.408 514.654 881.842 506.123 877.178C500.222 873.912 493.971 871.328 487.611 869.503C484.97 868.662 482.155 868.163 479.459 867.702L477.862 867.425C477.063 867.336 476.226 867.268 475.409 867.239C472.935 867.014 470.363 866.79 467.814 866.905C456.002 866.947 443.355 870.128 429.181 876.657L420.017 880.946C419.244 881.295 418.393 881.685 417.642 882.074C415.425 883.12 413.089 884.228 410.709 884.958L409.222 885.476C406.566 886.449 403.83 887.462 401.03 888.058L396.087 889.361C394.994 889.575 393.921 889.729 392.847 889.884C392.251 889.991 391.694 890.079 391.098 890.186C383.805 891.501 376.372 891.284 370.729 890.943L363.184 889.831L355.748 887.961L348.58 885.35L344.731 883.53C343.728 883.045 342.725 882.561 341.702 882.037C340.818 881.491 339.955 880.985 339.071 880.44C337.063 879.272 334.974 878.045 333.122 876.597C328.295 873.276 323.515 868.979 318.015 862.998C313.868 858.373 309.969 852.968 306.115 846.487C303.174 841.188 299.9 834.858 297.655 827.997C295.186 820.799 293.643 814.326 292.902 808.24C292.468 805.656 292.333 803.068 292.2 800.58C292.168 799.744 292.097 798.928 292.085 798.032L292.103 796.418C292.144 793.589 292.164 790.72 292.564 787.905C293.882 773.584 299.881 760.653 309.478 751.577L314.721 747.461L310.367 752.521C301.046 761.354 295.163 774.025 293.881 788.027C293.5 790.781 293.44 793.671 293.418 796.44L293.38 798.014C293.411 798.85 293.482 799.666 293.513 800.502C293.647 802.991 293.762 805.539 294.214 808.063C294.935 814.109 296.456 820.443 298.884 827.561C301.107 834.284 304.361 840.575 307.221 845.814C311.053 852.157 314.872 857.503 318.998 862.088C324.499 868.069 329.097 872.209 333.924 875.53C335.716 876.96 337.784 878.146 339.732 879.295C340.616 879.841 341.519 880.326 342.343 880.853C343.307 881.358 344.349 881.822 345.291 882.287L349.102 884.127L356.189 886.68L363.465 888.532L370.911 889.646C376.454 889.988 383.748 890.227 390.941 888.914C391.538 888.806 392.134 888.698 392.75 888.63C393.824 888.476 394.838 888.302 395.891 888.109L400.833 886.806C403.574 886.191 406.27 885.198 408.886 884.246L410.413 883.707C412.733 882.958 415.029 881.871 417.227 880.884C418.018 880.475 418.85 880.145 419.602 879.756L428.767 875.467C443.139 868.836 456.003 865.592 467.936 865.588C470.563 865.433 473.136 865.657 475.729 865.92C476.527 866.009 477.345 866.037 478.203 866.145L479.86 866.441C482.616 866.922 485.431 867.421 488.133 868.28C494.592 870.104 500.923 872.747 506.945 876.051C515.575 880.714 523.739 886.32 531.683 891.789C534.779 893.898 537.837 896.028 540.952 898.077C551.004 904.712 563.038 912.177 576.489 916.854C581.916 918.911 588.093 920.48 595.902 921.907C603.746 923.015 610.106 923.386 615.96 923.167C628.267 922.919 641.207 920.789 655.633 916.687C680.992 909.388 704.866 895.436 724.567 876.42C726.061 874.946 727.594 873.451 729.047 871.897C728.211 873.382 727.236 874.989 726.183 876.637C725.908 876.88 725.692 877.142 725.456 877.364L725.337 877.426L725.197 877.348Z" fill="#224D9B" stroke="#3A5FF3" stroke-width="0.723184" stroke-miterlimit="17" stroke-linecap="square"/>
<path d="M754.242 824.917C751.172 830.617 747.803 836.221 744.19 841.549C736.691 852.549 728.382 862.563 719.277 871.234C707.696 882.389 694.676 891.731 680.69 898.914C671.868 903.477 662.714 907.109 653.328 909.807C625.093 918.042 599.954 918.107 578.668 910.111C565.938 905.664 554.365 898.511 544.676 892.09C541.62 890.06 538.523 887.951 535.466 885.821C527.462 880.333 519.197 874.629 510.085 869.713C503.622 866.136 496.811 863.341 489.831 861.385C486.731 860.431 483.416 859.839 480.26 859.265L478.942 859.044C478.165 858.994 477.367 858.906 476.589 858.857C473.697 858.597 470.645 858.32 467.659 858.461C454.652 858.519 440.894 861.975 425.531 869.018L416.248 873.368C415.476 873.717 414.704 874.066 413.912 874.476C411.854 875.44 409.756 876.425 407.593 877.092L406.067 877.631C403.668 878.52 401.171 879.411 398.708 879.983L394.202 881.16C393.249 881.352 392.314 881.485 391.38 881.617C390.823 881.704 390.267 881.791 389.67 881.899C383.351 883.061 376.934 882.87 371.412 882.567L364.685 881.584L358.108 879.921L353.904 878.384C332.156 870.076 314.075 850.243 305.526 825.28C303.284 818.617 301.828 812.7 301.195 807.211C300.786 804.965 300.676 802.716 300.586 800.506C300.554 799.669 300.483 798.854 300.451 797.918L300.486 796.144C300.493 793.734 300.559 791.243 300.885 788.868C302.031 776.541 307.08 765.555 315.122 757.835L319.103 754.673L316.051 758.759C308.224 766.217 303.291 776.942 302.201 788.989C301.855 791.325 301.829 793.795 301.801 796.166L301.785 797.88C301.816 798.716 301.887 799.532 301.918 800.368C302.028 802.518 302.138 804.767 302.566 806.953C303.218 812.382 304.593 818.24 306.835 824.804C315.239 849.391 333.017 868.929 354.444 877.102L358.589 878.619L365.045 880.244L371.652 881.19C377.334 881.51 383.411 881.626 389.552 880.506C390.108 880.419 390.704 880.311 391.261 880.224C392.196 880.092 393.13 879.959 394.044 879.788L398.55 878.61C400.993 878.099 403.431 877.189 405.79 876.32L407.356 875.761C409.458 875.074 411.537 874.15 413.536 873.166C414.287 872.777 415.099 872.408 415.871 872.058L425.155 867.708C440.675 860.583 454.612 857.086 467.779 857.045C470.805 856.884 473.857 857.161 476.809 857.439C477.586 857.488 478.384 857.577 479.183 857.666L480.56 857.906C483.776 858.499 487.13 859.071 490.291 860.044C497.351 862.059 504.243 864.913 510.806 868.488C519.998 873.462 528.263 879.166 536.287 884.694C539.384 886.803 542.441 888.933 545.497 890.963C555.106 897.326 566.598 904.42 579.209 908.829C600.294 916.728 625.134 916.667 653.072 908.535C677.121 901.613 699.749 888.354 718.487 870.289C727.453 861.64 735.823 851.744 743.204 840.806C746.797 835.537 750.127 829.954 753.197 824.254C754.674 821.585 756.089 818.697 757.482 815.67C758.913 812.522 760.227 809.536 761.071 807.194L762.313 807.655C761.468 809.997 760.156 813.083 758.665 816.211C757.232 819.259 755.778 822.167 754.321 824.876L754.362 824.956L754.402 824.935L754.242 824.917Z" fill="#224D9B" stroke="#3A5FF3" stroke-width="0.723184" stroke-miterlimit="10"/>
<path d="M772.243 1007.86C780.833 999.46 788.333 991.369 795.111 983.049C799.167 978.093 802.436 973.845 805.388 969.761C807.031 967.507 808.613 965.234 810.175 962.922C811.659 960.75 813.239 958.278 814.485 956.13L816.734 957.473C815.449 959.643 813.85 962.174 812.327 964.367C810.785 966.719 809.163 969.012 807.481 971.286C804.509 975.43 801.201 979.699 797.087 984.735C790.229 993.096 782.711 1001.25 774.022 1009.75C764.347 1018.97 754.46 1027.29 744.522 1034.74C744.387 1033.61 744.313 1032.59 744.201 1031.7C753.627 1024.61 763 1016.66 772.164 1007.91L772.243 1007.86Z" fill="#224D9B"/>
<path d="M712.788 1055.01C711.207 1055.93 709.486 1056.87 707.746 1057.77C706.954 1058.18 706.163 1058.59 705.351 1058.96C703.215 1060.07 700.82 1061.15 697.848 1062.39C695.988 1063.25 694.084 1063.94 692.241 1064.64L690.101 1065.44C679.972 1069.13 669.207 1071.49 658.004 1072.42C646.541 1073.23 635.809 1072.16 626.108 1069.31C615.166 1065.99 606.285 1060.45 600.411 1053.36C594.093 1045.9 591.152 1036.24 592.23 1026.2C592.705 1021.6 594.034 1016.8 596.233 1011.55C598.121 1006.86 600.709 1002.36 603.978 998.114C607.051 994.167 610.807 990.57 615.067 987.464C618.875 984.742 623.341 982.131 629.059 979.224C633.926 976.807 638.936 974.567 644.222 972.184C649.608 969.799 655.171 967.273 660.652 964.588C671.675 959.238 682.068 952.96 691.554 945.998C701.021 938.995 710.033 930.824 718.375 921.745C732.841 905.989 746.104 886.743 758.928 863.061L761.236 864.324C748.336 888.247 734.915 907.574 720.312 923.552C711.892 932.771 702.722 941.024 693.118 948.148C683.514 955.271 672.942 961.591 661.821 967.043C656.321 969.787 650.698 972.295 645.312 974.679C640.045 977.002 635.075 979.222 630.267 981.658C624.727 984.423 620.34 986.993 616.651 989.653C612.568 992.618 609.009 996.013 606.092 999.778C602.96 1003.81 600.489 1008.14 598.678 1012.59C596.575 1017.64 595.323 1022.2 594.864 1026.55C593.856 1035.84 596.568 1044.77 602.42 1051.72C607.99 1058.42 616.448 1063.62 626.87 1066.81C636.271 1069.57 646.724 1070.58 657.849 1069.79C668.773 1068.9 679.359 1066.59 689.21 1062.95L691.351 1062.14C693.154 1061.46 695.018 1060.79 696.839 1059.95C699.77 1058.74 702.126 1057.67 704.302 1056.54C706.856 1055.37 709.287 1053.97 711.58 1052.68L716.444 1049.96C716.595 1050.84 716.807 1051.73 716.999 1052.68L712.887 1055.01L712.867 1054.97L712.788 1055.01Z" fill="#224D9B"/>
<path d="M778.144 1013.94C796.484 995.979 810.787 978.452 821.853 960.292L824.123 961.675C812.9 980.017 798.48 997.705 779.962 1015.81C768.852 1026.42 757.526 1035.84 746.026 1044.14C745.834 1043.19 745.621 1042.19 745.488 1041.26C756.534 1033.24 767.445 1024.09 778.144 1013.94Z" fill="#224D9B"/>
<path d="M716.833 1062.45C715.173 1063.41 713.452 1064.35 711.632 1065.29C710.802 1065.72 709.971 1066.15 709.12 1066.54C706.825 1067.73 704.271 1068.9 701.142 1070.21C699.123 1071.16 697.061 1071.92 695.079 1072.65L692.939 1073.45C682.096 1077.41 670.556 1079.92 658.637 1080.92C646.099 1081.78 634.37 1080.63 623.669 1077.49C611.166 1073.68 600.858 1067.22 593.891 1058.89C589.983 1054.24 587.08 1048.83 585.39 1043.23C583.7 1037.64 583.18 1031.69 583.812 1025.44C584.355 1020 585.893 1014.44 588.459 1008.35C590.617 1003.02 593.594 997.818 597.333 993.026C600.896 988.475 605.202 984.292 610.133 980.739C614.335 977.713 619.137 974.878 625.31 971.786C630.455 969.225 635.801 966.861 640.969 964.539C646.236 962.216 651.68 959.751 656.944 957.129C667.531 952.004 677.469 946.012 686.541 939.314C695.574 932.636 704.193 924.868 712.161 916.134C726.137 900.882 739.03 882.279 751.464 859.199L753.772 860.463C741.181 883.723 728.231 902.507 714.099 917.94C706.032 926.776 697.275 934.665 688.105 941.464C678.895 948.283 668.798 954.358 658.092 959.544C652.79 962.186 647.324 964.612 642.038 966.995C636.91 969.296 631.564 971.66 626.459 974.201C620.405 977.232 615.761 979.984 611.657 982.909C606.923 986.361 602.794 990.302 599.408 994.711C595.825 999.322 592.925 1004.28 590.864 1009.41C588.414 1015.24 586.933 1020.62 586.426 1025.75C585.828 1031.57 586.344 1037.22 587.91 1042.48C589.476 1047.74 592.215 1052.84 595.901 1057.25C602.563 1065.19 612.429 1071.37 624.412 1075.05C634.813 1078.09 646.283 1079.23 658.423 1078.37C670.103 1077.39 681.385 1074.97 692.01 1071.08L694.15 1070.27C696.132 1069.55 698.115 1068.82 700.094 1067.9C703.223 1066.58 705.659 1065.47 707.974 1064.32C710.686 1063.07 713.196 1061.62 715.608 1060.27L718.455 1058.7C718.706 1059.57 718.957 1060.45 719.208 1061.32L716.954 1062.59L716.994 1062.57L716.833 1062.45Z" fill="#224D9B"/>
<path d="M784.005 1020.03C793.067 1011.18 800.958 1002.59 808.209 993.826C812.44 988.628 816.023 984.017 819.131 979.652C820.695 977.539 822.493 975.004 824.249 972.291C826.103 969.477 827.684 967.104 829.203 964.514L831.452 965.857C829.915 968.508 828.374 970.959 826.421 973.775C824.626 976.509 822.671 979.225 821.244 981.217C818.096 985.603 814.474 990.234 810.223 995.492C802.954 1004.32 794.944 1012.97 785.883 1021.92C773.691 1033.54 761.183 1043.87 748.495 1052.79C748.165 1051.96 747.875 1051.11 747.603 1050.19C759.934 1041.46 772.167 1031.37 784.044 1020.01L784.005 1020.03Z" fill="#224D9B"/>
<path d="M577.196 1045.61C575.193 1039.03 574.556 1031.78 575.274 1024.54C575.925 1018.24 577.65 1011.88 580.525 1005.03C582.972 998.999 586.339 993.196 590.548 987.76C594.581 982.565 599.477 977.876 605.059 973.836C609.676 970.545 614.853 967.466 621.422 964.169C626.882 961.445 632.308 959.04 637.615 956.696C643.001 954.312 648.089 952.031 653.094 949.492C673.399 939.692 691.148 926.501 705.847 910.323C719.351 895.616 731.814 877.536 743.938 855.119L746.246 856.382C734.025 879 721.445 897.241 707.784 912.129C692.909 928.548 674.844 941.904 654.262 951.847C649.197 954.366 644.069 956.668 638.683 959.052C633.416 961.375 628.011 963.82 622.608 966.464C616.198 969.679 611.04 972.698 606.582 975.906C601.237 979.824 596.537 984.311 592.641 989.285C588.568 994.5 585.338 1000.08 582.987 1005.91C580.189 1012.52 578.521 1018.7 577.905 1024.69C577.222 1031.51 577.855 1038.45 579.693 1044.72C581.573 1051.07 584.905 1057.22 589.279 1062.48C597.117 1071.82 608.108 1078.72 621.871 1082.93C633.232 1086.28 645.759 1087.53 658.935 1086.63C671.391 1085.6 683.428 1082.99 694.766 1078.83L696.927 1078.06C699.027 1077.27 701.207 1076.45 703.286 1075.52C706.555 1074.18 709.148 1072.99 711.601 1071.72C714.432 1070.41 717.061 1068.9 719.512 1067.53L720.778 1066.88C721.05 1067.79 721.34 1068.64 721.57 1069.38L720.778 1069.79C719.078 1070.76 717.3 1071.79 715.401 1072.77C714.53 1073.22 713.66 1073.67 712.729 1074.1C710.316 1075.35 707.584 1076.56 704.335 1077.94C702.198 1078.94 699.997 1079.73 697.857 1080.54L695.696 1081.3C684.14 1085.53 671.825 1088.19 659.169 1089.21C645.616 1090.16 632.83 1088.9 621.108 1085.43C606.825 1081.09 595.432 1073.89 587.29 1064.16C582.673 1058.63 579.198 1052.2 577.194 1045.51L577.196 1045.61Z" fill="#224D9B"/>
</svg>
