<svg width="32" height="28" viewBox="0 0 32 28" fill="none" xmlns="http://www.w3.org/2000/svg">
<path d="M1.68988 27.7825H0.0842285C0.0842285 25.0248 0.581217 22.3443 1.55608 19.8374C1.93838 18.8732 2.37802 17.9476 2.89412 17.0412L3.10439 16.6748L3.52492 16.6362C4.34686 16.5784 5.64668 16.4048 7.11853 15.8649C9.2594 15.0935 10.9989 13.8593 12.2987 12.2009C13.3118 10.9089 14.019 9.42398 14.4013 7.76555L12.681 1.67177L14.3057 0.572571L14.7645 0.919685C15.8158 1.71033 16.9245 2.46241 18.0714 3.09879C18.7978 3.52304 19.5623 3.90872 20.3269 4.25584C21.7988 4.19798 23.2898 4.04371 24.7425 3.83159C26.5584 3.56161 28.3743 3.19521 30.152 2.71311L30.8784 2.52027L31.1269 3.25306C31.5665 4.60295 31.7577 5.99141 31.6812 7.39915C31.6239 8.72975 31.318 10.0218 30.8019 11.2367L29.3301 10.6003C29.7697 9.55897 30.0182 8.44049 30.0756 7.30273C30.1329 6.35781 30.0373 5.41288 29.808 4.48725C28.2214 4.89221 26.5966 5.22004 24.9719 5.45145C23.4045 5.68286 21.7988 5.81785 20.1931 5.89499H20.002L19.83 5.81785C18.9698 5.41288 18.1096 4.98863 17.2686 4.50653C16.3893 4.00514 15.51 3.4459 14.6689 2.8481L16.0834 7.72698L16.0452 7.91982C15.6056 9.90608 14.7836 11.6802 13.5794 13.2037C12.0884 15.1128 10.1005 16.5013 7.67286 17.3883C6.25835 17.8897 4.99677 18.1211 4.07925 18.2175C3.69695 18.931 3.35288 19.6831 3.04704 20.4352C2.14864 22.7493 1.68988 25.2177 1.68988 27.7825Z" fill="#F8F0EE"/>
<path d="M5.9748 27.7823V27.4545C5.9748 26.6445 6.18506 26.0275 6.58647 25.6418C7.21727 25.0632 8.1539 25.1018 8.21124 25.1018H8.23036H19.7567H19.7949H19.8522C19.9096 25.1018 20.6742 25.044 21.2285 25.5646C21.7064 26.0082 21.9549 26.741 21.9549 27.7823H23.5605C23.5605 26.2589 23.1209 25.1018 22.2798 24.3305C21.2667 23.4241 20.0243 23.4627 19.7184 23.4819H8.32593C8.03921 23.4627 6.60559 23.4434 5.51604 24.4269C4.75144 25.1211 4.36914 26.1432 4.36914 27.4352V27.763H5.9748V27.7823Z" fill="#F8F0EE"/>
<path d="M24.936 16.2511C26.0064 19.9536 26.5034 23.8297 26.446 27.783H28.0517C28.109 23.6755 27.5738 19.6451 26.4843 15.7883C26.2549 14.9976 26.0064 14.207 25.7197 13.4356L29.1604 14.8626L29.772 13.3585L25.0315 11.3915L23.7891 12.8764L23.9611 13.3199C24.3243 14.2841 24.6492 15.2676 24.936 16.2511Z" fill="#F8F0EE"/>
</svg>
