<svg width="400" height="110" viewBox="0 0 400 110" fill="none" xmlns="http://www.w3.org/2000/svg">
<mask id="path-1-inside-1_2984_59" fill="white">
<path fill-rule="evenodd" clip-rule="evenodd" d="M238.566 0.00021513L355.206 0.000220253V0.000952675C355.206 29.8604 375.081 54.0666 399.599 54.0692V55.0101C375.08 55.0114 355.204 79.218 355.204 109.079H319.814L285.601 109.079L238.565 109.079H203.175V109.079L168.962 109.079V109.079L87.1691 109.079V109.078L56.189 109.078H44.3952C44.3951 79.2179 24.5188 55.0112 0 55.0105V54.0686C24.5188 54.0678 44.395 29.8609 44.395 0.000360486V0.000116345L168.961 0.000121817V0L203.176 1.50279e-06V0.000167915L203.808 0.000167943V0L212.839 2.26445e-06L238.023 8.57956e-06V9.17299e-05L238.566 9.17538e-05V0.00021513Z"/>
</mask>
<path fill-rule="evenodd" clip-rule="evenodd" d="M238.566 0.00021513L355.206 0.000220253V0.000952675C355.206 29.8604 375.081 54.0666 399.599 54.0692V55.0101C375.08 55.0114 355.204 79.218 355.204 109.079H319.814L285.601 109.079L238.565 109.079H203.175V109.079L168.962 109.079V109.079L87.1691 109.079V109.078L56.189 109.078H44.3952C44.3951 79.2179 24.5188 55.0112 0 55.0105V54.0686C24.5188 54.0678 44.395 29.8609 44.395 0.000360486V0.000116345L168.961 0.000121817V0L203.176 1.50279e-06V0.000167915L203.808 0.000167943V0L212.839 2.26445e-06L238.023 8.57956e-06V9.17299e-05L238.566 9.17538e-05V0.00021513Z" fill="#3A5FF3"/>
<path d="M238.566 0.00021513H237.566V1.00022L238.566 1.00022L238.566 0.00021513ZM355.206 0.000220253H356.206V-0.99978L355.206 -0.99978L355.206 0.000220253ZM399.599 54.0692H400.599V53.0693L399.599 53.0692L399.599 54.0692ZM399.599 55.0101L399.599 56.0101L400.599 56.01V55.0101H399.599ZM355.204 109.079V110.079H356.204V109.079H355.204ZM319.814 109.079L319.814 110.079H319.814V109.079ZM285.601 109.079L285.601 110.079L285.601 110.079L285.601 109.079ZM238.565 109.079L238.565 108.079H238.565V109.079ZM203.175 109.079V108.079H202.175V109.079H203.175ZM203.175 109.079L203.175 110.079L204.175 110.079V109.079H203.175ZM168.962 109.079H167.962V110.079L168.962 110.079L168.962 109.079ZM168.962 109.079H169.962V108.079L168.962 108.079L168.962 109.079ZM87.1691 109.079H86.1691V110.079L87.1691 110.079L87.1691 109.079ZM87.1691 109.078H88.1691V108.078L87.1691 108.078L87.1691 109.078ZM56.189 109.078L56.189 110.078L56.189 110.078L56.189 109.078ZM44.3952 109.078L43.3952 109.078L43.3952 110.078H44.3952V109.078ZM0 55.0105H-1V56.0104L-2.92495e-05 56.0105L0 55.0105ZM0 54.0686L-3.29835e-05 53.0686L-1 53.0686V54.0686H0ZM44.395 0.000116345L44.395 -0.999884L43.395 -0.999884V0.000116345H44.395ZM168.961 0.000121817L168.961 1.00012L169.961 1.00012V0.000121817H168.961ZM168.961 0L168.961 -1L167.961 -1V0H168.961ZM203.176 1.50279e-06H204.176V-0.999998L203.176 -0.999998L203.176 1.50279e-06ZM203.176 0.000167915H202.176V1.00017L203.176 1.00017L203.176 0.000167915ZM203.808 0.000167943L203.808 1.00017L204.808 1.00017V0.000167943H203.808ZM203.808 0L203.808 -1L202.808 -1V0H203.808ZM212.839 2.26445e-06L212.839 1L212.839 2.26445e-06ZM238.023 8.57956e-06H239.023V-0.999991L238.023 -0.999991L238.023 8.57956e-06ZM238.023 9.17299e-05H237.023V1.00009L238.023 1.00009L238.023 9.17299e-05ZM238.566 9.17538e-05H239.566V-0.999908L238.566 -0.999908L238.566 9.17538e-05ZM238.566 1.00022L355.206 1.00022L355.206 -0.99978L238.566 -0.999785L238.566 1.00022ZM354.206 0.000220253V0.000952675H356.206V0.000220253H354.206ZM354.206 0.000952675C354.206 30.2194 374.353 55.0666 399.598 55.0692L399.599 53.0692C375.809 53.0667 356.206 29.5015 356.206 0.000952675H354.206ZM398.599 54.0692V55.0101H400.599V54.0692H398.599ZM399.599 54.0101C374.352 54.0114 354.204 78.8591 354.204 109.079H356.204C356.204 79.5769 375.808 56.0113 399.599 56.0101L399.599 54.0101ZM355.204 108.079H319.814V110.079H355.204V108.079ZM319.814 108.079L285.601 108.079L285.601 110.079L319.814 110.079L319.814 108.079ZM285.601 108.079L238.565 108.079L238.565 110.079L285.601 110.079L285.601 108.079ZM238.565 108.079H203.175V110.079H238.565V108.079ZM202.175 109.079V109.079H204.175V109.079H202.175ZM203.175 108.079L168.962 108.079L168.962 110.079L203.175 110.079L203.175 108.079ZM169.962 109.079V109.079H167.962V109.079H169.962ZM168.962 108.079L87.1691 108.079L87.1691 110.079L168.962 110.079L168.962 108.079ZM88.1691 109.079V109.078H86.1691V109.079H88.1691ZM87.1691 108.078L56.189 108.078L56.189 110.078L87.1691 110.078L87.1691 108.078ZM56.189 108.078H44.3952V110.078H56.189V108.078ZM45.3952 109.078C45.3951 78.8589 25.2464 54.0112 2.92495e-05 54.0105L-2.92495e-05 56.0105C23.7912 56.0111 43.3951 79.5768 43.3952 109.078L45.3952 109.078ZM1 55.0105V54.0686H-1V55.0105H1ZM3.29835e-05 55.0686C25.2464 55.0677 45.395 30.2198 45.395 0.000360486H43.395C43.395 29.502 23.7912 53.0678 -3.29835e-05 53.0686L3.29835e-05 55.0686ZM45.395 0.000360486V0.000116345H43.395V0.000360486H45.395ZM44.395 1.00012L168.961 1.00012L168.961 -0.999878L44.395 -0.999884L44.395 1.00012ZM169.961 0.000121817V0H167.961V0.000121817H169.961ZM168.961 1L203.176 1L203.176 -0.999998L168.961 -1L168.961 1ZM202.176 1.50279e-06V0.000167915H204.176V1.50279e-06H202.176ZM203.176 1.00017L203.808 1.00017L203.808 -0.999832L203.176 -0.999832L203.176 1.00017ZM204.808 0.000167943V0H202.808V0.000167943H204.808ZM203.808 1L212.839 1L212.839 -0.999998L203.808 -1L203.808 1ZM212.839 1L238.023 1.00001L238.023 -0.999991L212.839 -0.999998L212.839 1ZM237.023 8.57956e-06V9.17299e-05H239.023V8.57956e-06H237.023ZM238.023 1.00009L238.566 1.00009L238.566 -0.999908L238.023 -0.999908L238.023 1.00009ZM237.566 9.17538e-05V0.00021513H239.566V9.17538e-05H237.566Z" fill="#F8F0EE" mask="url(#path-1-inside-1_2984_59)"/>
</svg>
