<svg width="876" height="1072" viewBox="0 0 876 1072" fill="none" xmlns="http://www.w3.org/2000/svg">
<path d="M885.033 98.5063C883.987 96.7518 883.285 94.667 881.86 93.2978C870.848 82.5904 859.923 71.7601 848.498 61.4929C841.173 54.8896 833.271 48.8852 825.236 43.1747C815.767 36.4462 805.864 30.361 796.172 23.9463C781.025 13.9 765.067 5.27887 748.736 -2.58958C733.632 -9.85811 718.336 -16.8389 702.381 -22.173C684.499 -28.1519 666.69 -34.2699 648.022 -37.4124C640.585 -38.6722 633.209 -40.3801 625.886 -42.156C624.056 -42.6145 621.753 -43.7248 620.918 -45.2515C615.414 -55.183 610.434 -65.3522 609.132 -76.8476C609.058 -77.5304 608.954 -78.2164 608.938 -78.8931C608.767 -84.3256 611.021 -87.3143 616.311 -88.3516C622.799 -89.6139 629.338 -89.4325 635.777 -88.1615C647.247 -85.9157 658.297 -82.1887 669.158 -77.9387C692.869 -68.6845 715.378 -56.9465 737.714 -44.8304C745.831 -40.4319 753.995 -36.0722 762.016 -31.4638C780.423 -20.895 798.83 -10.3264 816.47 1.52541C829.547 10.3247 843.038 18.5518 856.119 27.3221C863.791 32.4511 870.887 38.4432 878.575 43.5593C888.003 49.8431 896.972 56.7094 906.095 63.3719C919.672 73.2806 933.238 83.1442 946.017 94.0688C948.868 96.5139 951.706 99.0751 954.848 101.126C969.603 110.719 981.669 123.52 994.994 134.825C1010.16 147.691 1024.91 161.084 1039.7 174.394C1051.44 184.959 1063.09 195.602 1074.57 206.433C1091.31 222.224 1108 238.054 1124.46 254.123C1141.89 271.132 1159.76 287.675 1175.8 306.122C1185.26 316.972 1194.55 327.849 1203.38 339.205C1210.95 348.93 1218.45 358.678 1225.62 368.698C1232.57 378.416 1239.21 388.41 1244.23 399.288C1246.66 404.564 1248.29 410.225 1250.52 415.612C1251.42 417.777 1252.82 419.775 1254.24 421.656C1256.71 424.941 1259.97 425.992 1264.16 425.733C1276.71 424.938 1287.43 419.621 1296.66 411.813C1306.53 403.471 1306.39 391.776 1298.06 381.633C1284.93 365.638 1269.39 352.087 1254.22 338.164C1231.21 317.041 1208 296.131 1184.8 275.222C1166.97 259.139 1148.97 243.258 1131.16 227.192C1119.45 216.629 1108.03 205.747 1096.25 195.236C1083.19 183.578 1069.82 172.283 1056.71 160.677C1040.79 146.587 1025.12 132.186 1009.12 118.19C998.012 108.485 986.524 99.2236 975.222 89.7325C967.88 83.5674 960.849 76.9659 953.232 71.1825C936.843 58.7445 921.751 44.7277 905.129 32.5584C890.465 21.8299 876.808 9.78492 862.641 -1.60987C852.234 -9.99345 841.794 -18.3511 831.233 -26.5309C821.758 -33.891 812.082 -41.0083 802.505 -48.2325C797.873 -51.7326 793.28 -55.3165 788.597 -58.7487C777.272 -67.0538 765.86 -75.2361 754.566 -83.5671C744.362 -91.1073 734.332 -98.8933 724.077 -106.366C715.782 -112.397 707.211 -118.047 698.878 -123.994C689.112 -130.96 679.586 -138.252 669.712 -145.024C656.72 -153.946 643.486 -162.513 630.356 -171.244C624.928 -174.843 619.516 -178.456 614.072 -182.042C587.718 -199.427 560.775 -215.833 533.193 -231.192C514.089 -241.834 495.078 -252.658 475.665 -262.732C454.679 -273.604 433.434 -283.975 412.016 -293.969C394.051 -302.348 375.867 -310.311 357.459 -317.696C336.813 -325.979 315.824 -333.506 294.186 -338.945C281.209 -342.201 268.298 -345.804 255.198 -348.457C225.45 -354.479 195.325 -356.535 165.049 -355.1C142.692 -354.042 121.904 -347.036 101.955 -337.285C90.5154 -331.678 79.4437 -325.385 69.1123 -317.914C57.6186 -309.583 48.088 -299.151 39.0297 -288.33C12.0372 -256.071 0.026986 -218.434 0.121018 -176.782C0.152626 -166.17 1.35437 -155.522 2.74257 -144.971C3.53546 -138.9 5.57497 -132.961 7.45946 -127.082C9.66447 -120.216 12.1591 -113.451 14.8211 -106.741C20.0178 -93.6434 25.3847 -80.6305 30.7357 -67.6046C31.2248 -66.4081 32.129 -65.3876 33.2882 -63.5916C34.3822 -67.2611 32.8179 -69.5257 31.9268 -71.9092C26.8986 -85.4879 22.8681 -99.3419 21.606 -113.841C17.3708 -162.917 32.1101 -204.696 69.6407 -237.538C74.5442 -241.844 79.7102 -245.858 84.889 -249.857C86.6966 -251.264 88.8511 -252.209 90.6668 -253.278C94.1747 -250.939 93.9653 -247.586 94.5948 -244.673C98.0997 -228.219 102.177 -211.91 107.327 -195.883C113.215 -177.561 120.394 -159.778 127.968 -142.128C136.648 -121.896 147.159 -102.614 157.532 -83.2738C164.979 -69.3942 173.261 -55.9248 181.659 -42.5751C193.331 -23.9916 205.266 -5.54143 217.426 12.7272C223.512 21.8696 230.244 30.5965 236.919 39.317C247.977 53.7271 259.036 68.137 270.492 82.2518C282.6 97.1401 295.046 111.756 307.587 126.294C318.34 138.75 329.153 151.182 340.426 163.165C356.181 179.908 372.511 196.081 388.317 212.756C404.85 230.198 422.35 246.672 439.992 262.926C463.687 284.768 487.91 306.049 512.118 327.344C524.73 338.456 537.663 349.177 550.643 359.859C566.539 372.934 582.62 385.78 598.667 398.68C612.833 410.075 627.032 421.444 641.285 432.716C649.353 439.09 657.575 445.26 665.694 451.567C666.454 452.146 666.942 453.078 668.031 454.427C662.772 454.352 658.776 452.328 654.794 450.584C631.813 440.528 608.765 430.552 585.957 420.117C570.958 413.241 556.377 405.47 541.47 398.414C507.426 382.281 476.529 361.111 446.089 339.228C390.813 299.475 336.642 258.299 284.041 215.059C273.15 206.111 261.888 197.622 251.129 188.54C233.032 173.265 213.963 159.119 197.07 142.446C189.487 134.964 182.314 127.071 175.074 119.259C171.203 115.091 167.621 110.69 163.201 106.992C172.473 118.469 181.289 130.366 191.142 141.347C208.797 161.065 226.625 180.669 245.194 199.516C267.141 221.789 289.406 243.831 312.54 264.879C432.997 374.476 561.261 474.263 695.524 566.339C770.446 617.702 847.625 665.358 928.455 706.96C984.174 735.638 1041.5 760.524 1100.45 781.842C1119.86 788.864 1139.71 794.347 1159.36 800.485C1178.72 806.547 1198.27 811.971 1217.83 817.394C1239.71 823.46 1261.59 829.439 1283.6 835.034C1298.97 838.956 1313.52 844.919 1328 851.182C1346.88 859.35 1365.69 867.687 1384.55 875.927C1403.06 883.998 1421.61 891.955 1440.08 900.081C1458.93 908.363 1477.67 916.855 1496.52 925.078C1522.91 936.598 1549.29 948.176 1575.84 959.331C1599.25 969.169 1622.82 978.408 1647.88 983.711C1679.1 990.316 1710.12 997.911 1741.23 1005.12C1766.63 1011.02 1792.01 1017.12 1817.44 1022.89C1843.55 1028.8 1869.74 1034.33 1895.87 1040.2C1913.95 1044.26 1931.94 1048.7 1950.02 1052.79C1969.77 1057.26 1989.54 1061.58 2009.32 1065.87C2018.41 1067.83 2027.52 1069.55 2036.62 1071.35C2037.78 1071.58 2038.96 1071.66 2040.51 1070.56C2033.23 1066.93 2026 1063.11 2018.6 1059.69C2005.85 1053.82 1992.84 1048.46 1980.18 1042.38C1951.78 1028.74 1923.48 1014.92 1895.24 1000.91C1880.5 993.591 1865.9 985.908 1851.4 978.102C1828.16 965.626 1804.91 953.192 1781.94 940.26C1761.35 928.668 1741.09 916.464 1720.73 904.426C1707.48 896.591 1694.21 888.711 1681.12 880.614C1668.59 872.856 1656.24 864.795 1643.83 856.859C1627.37 846.336 1610.81 835.977 1594.51 825.192C1581.63 816.678 1569.19 807.551 1556.43 798.872C1548.5 793.496 1540.22 788.67 1532.35 783.255C1523.88 777.44 1515.78 771.121 1507.35 765.251C1488.19 751.976 1468.94 738.823 1450.44 724.62C1441.48 717.741 1431.95 711.593 1422.83 704.93C1412.04 697.064 1401.36 689.033 1390.68 681.031C1379.7 672.821 1368.74 664.614 1357.85 656.281C1352.12 651.916 1346.61 647.267 1340.92 642.876C1327.36 632.397 1313.64 622.121 1300.17 611.548C1286.96 601.18 1274.06 590.462 1260.89 580.068C1246.35 568.575 1231.64 557.299 1217.03 545.887C1213.8 543.357 1210.73 540.639 1207.55 538.028C1183.2 517.965 1158.73 498.021 1134.51 477.797C1122.43 467.694 1110.8 457.009 1098.9 446.647C1074.6 425.446 1050.44 404.068 1025.89 383.148C997.978 359.332 970.712 334.778 943.812 309.822C924.713 292.093 905.304 274.668 886.17 256.993C874.584 246.298 863.053 235.506 851.83 224.439C836.45 209.276 821.268 193.9 806.183 178.446C798.268 170.357 790.776 161.872 783.022 153.653C780.674 151.173 777.921 149.046 775.573 146.567C764.492 134.854 753.298 123.232 742.509 111.257C733.321 101.066 724.665 90.4186 715.734 80.0203C710.367 73.7716 704.788 67.7205 699.547 61.3971C685.129 43.945 670.823 26.4022 656.504 8.84325C656.154 8.40989 656.269 7.60037 656.137 6.91137C657.294 4.86262 659.161 5.79468 660.652 6.12909C675.353 9.45187 690.159 12.3455 704.582 16.7685C721.603 22.0104 738.567 27.3782 755.516 32.8912C761.387 34.8062 767.166 37.0343 772.828 39.5434C788.142 46.35 803.422 53.2116 818.586 60.3252C838.153 69.5058 856.579 80.7222 874.929 92.1065C878.274 94.1787 880.325 98.4903 885.07 98.1582L885.021 98.4904L885.033 98.5063Z" fill="url(#paint0_linear_823_2960)" fill-opacity="0.6"/>
<defs>
<linearGradient id="paint0_linear_823_2960" x1="646.763" y1="705.899" x2="1311.8" y2="168.6" gradientUnits="userSpaceOnUse">
<stop offset="0.07" stop-color="#3A5FF3"/>
<stop offset="0.83" stop-color="#0B3B48"/>
</linearGradient>
</defs>
</svg>
