<svg width="1142" height="176" viewBox="0 0 1142 176" fill="none" xmlns="http://www.w3.org/2000/svg">
<path d="M52.8299 30.623C27.7456 30.4884 15.0688 30.3313 0.933594 29.748L1.80863 71.0093H5.89213C8.22556 47.8321 16.2355 36.0303 32.7041 36.1649C43.2045 36.1649 46.2559 41.8414 46.2559 52.9252V115.614C46.2559 126.697 43.2045 132.374 27.1622 136.166L27.7456 140.249C41.0057 139.531 48.2977 139.24 52.9646 139.24C57.6314 139.24 66.3818 139.531 77.8918 140.249L78.4752 136.166C62.4329 132.239 59.3815 126.697 59.3815 115.614V52.9252C59.3815 41.8414 62.4329 36.2995 72.9333 36.1649C89.4019 36.0303 97.4343 47.8321 99.7453 71.0093H103.829L104.547 29.748C90.5462 30.3313 77.8694 30.7576 52.8075 30.623H52.8299Z" fill="#F8F0EE"/>
<path d="M374.281 36.1425C390.75 36.0078 398.782 47.8096 401.093 70.9868H405.177L405.895 29.7255C391.894 30.3089 379.218 30.7352 354.156 30.6006C329.094 30.4659 316.394 30.3089 302.259 29.7255L303.134 70.9868H307.218C309.551 47.8096 317.561 36.0078 334.03 36.1425C344.53 36.1425 347.582 41.819 347.582 52.9027V115.591C347.582 126.675 344.53 132.351 328.488 136.143L329.071 140.227C342.331 139.509 349.623 139.217 354.29 139.217C358.957 139.217 367.707 139.509 379.218 140.227L379.801 136.143C363.759 132.217 360.707 126.675 360.707 115.591V52.9027C360.707 41.819 363.759 36.2771 374.259 36.1425H374.281Z" fill="#F8F0EE"/>
<path d="M412.043 45.7676C435.96 34.2575 454.179 36.2993 464.523 50.1428C451.262 57.4347 438.72 66.7684 429.387 75.8105C401.542 103.789 402.283 130.758 411.886 137.916C424.271 146.801 462.615 138.364 476.167 95.4876C479.51 118.956 480.677 128.425 481.417 139.217H504.752L506.636 135.425C497.168 128.133 489.136 107.873 486.376 87.4552C482.45 58.0181 487.386 47.8093 500.668 39.3507L498.043 36.1422C492.075 37.7352 484.783 40.3603 476.751 44.0175C470.042 34.1004 459.833 29.4336 445.698 29.4336C431.563 29.4336 420.187 33.9434 409.979 41.6841L412.02 45.7676H412.043ZM472.981 72.7366C475.023 88.1956 469.189 99.1223 461.606 109.039C450.814 123.04 434.21 131.925 424.877 125.665C415.835 119.697 421.668 94.1862 435.377 79.7369C443.252 71.4353 454.763 62.6849 467.596 54.9442C470.222 59.9028 471.972 65.7363 472.981 72.7366Z" fill="#F8F0EE"/>
<path d="M609.869 30.6228C605.359 30.6228 599.66 30.4881 589.9 29.6131L589.317 33.6966C603.901 38.9468 606.952 44.6233 606.952 57.1655V115.613L533.92 29.4561C530.577 30.0394 526.92 30.6228 523.285 30.6228C519.359 30.6228 515.859 30.1965 510.025 29.6131L509.442 33.6966C521.109 38.9468 524.901 44.6233 524.901 62.9991V112.719C524.901 125.261 521.109 130.938 509.442 136.188L510.025 140.271C518.192 139.553 520.952 139.262 526.494 139.262C531.587 139.262 538.295 139.553 547.786 140.271L548.37 136.188C533.786 130.803 530.734 125.261 530.734 112.719V50.4793L608.276 142.022L612.786 139.396V57.1431C612.786 44.6009 615.837 39.059 627.504 33.6742L626.921 29.5907C619.786 30.3087 614.379 30.6003 609.869 30.6003V30.6228Z" fill="#F8F0EE"/>
<path d="M941.058 31.3408C930.266 37.466 916.557 28.424 898.63 28.424C869.193 28.424 843.682 53.7776 843.682 84.8301C843.682 115.883 867.891 141.393 898.63 141.393C926.025 141.393 942.068 123.758 947.609 96.4973L944.109 95.9139C936.391 117.79 925.734 128.559 903.588 128.559C878.661 128.559 858.827 107.132 858.827 79.4229C858.827 53.6205 874.869 34.3698 895.848 34.3698C914.223 34.3698 928.067 44.8702 934.776 69.0571L938.41 68.6308C937.984 56.829 940.295 43.7035 943.661 33.0684L941.035 31.3184L941.058 31.3408Z" fill="#F8F0EE"/>
<path d="M1106.04 78.7274C1084.9 69.259 1075.14 61.3837 1075.14 50.0082C1075.14 40.6745 1085.35 34.2576 1096.14 34.2576C1109.27 34.2576 1123.99 42.8509 1131.12 67.3519L1134.46 66.6339C1133.16 54.8322 1133.01 44.1747 1134.17 32.2383C1115.5 32.2383 1112.16 28.4465 1098.03 28.4465C1080.53 28.4465 1062.31 37.6231 1062.31 55.8418C1062.31 69.977 1071.78 80.6345 1094.53 90.3945C1119.16 101.03 1128.63 108.77 1128.63 119.989C1128.63 129.031 1119.59 135.582 1104.71 135.582C1089.84 135.582 1074.24 126.406 1065.36 98.1128L1061.72 99.2795C1063.77 109.039 1063.18 126.966 1059.84 135.425C1075.14 140.227 1087.97 141.393 1100.65 141.393C1129.21 141.393 1141.17 130.018 1141.17 113.549C1141.17 98.6737 1131.41 90.0804 1106.04 78.7049V78.7274Z" fill="#F8F0EE"/>
<path d="M316.036 137.467V137.422C315.924 137.355 315.789 137.288 315.632 137.22C310.225 133.922 305.805 130.31 302.686 126.383C299.41 122.3 295.551 116.848 289.785 109.174L273.742 84.5387C291.243 77.8301 299.679 68.6534 299.679 55.8196C299.679 38.1842 284.804 28.4242 257.117 29.8826C250.588 30.2192 229.093 30.4211 217.942 30.4884C266.361 7.96187 341.277 4.55147 359.271 5.80793C404.1 8.94908 414.533 26.719 414.533 26.719C410.652 17.2058 377.872 -14.1384 268.963 8.76959C228.375 17.318 197.726 29.7929 175.245 42.0882C168.559 33.5398 158.843 29.4563 145.695 29.4563C130.977 29.4563 120.185 33.9661 109.976 41.7068L112.018 45.7903C135.195 34.6392 152.987 36.2322 163.488 48.9539C134.32 67.038 122.698 82.9905 122.698 82.9905L123.012 82.7886C101.719 108.165 103.066 131.387 111.883 137.916C124.268 146.801 162.613 138.365 176.165 95.4879C179.508 118.957 180.674 128.425 181.415 139.217H204.749L206.634 135.425C197.166 128.133 189.133 107.873 186.373 87.4555C184.264 71.66 184.736 61.4288 187.652 54.0022C188.684 51.7361 192.072 45.7679 200.105 41.9985C200.172 41.9761 200.217 41.9536 200.262 41.9088C215.99 34.4822 226.378 44.8928 226.378 54.2041V115.569C226.378 126.653 223.327 132.329 211.66 136.121L212.243 140.204C221.128 139.486 228.42 139.195 233.087 139.195C237.754 139.195 246.504 139.486 253.639 140.204L254.222 136.121C242.555 132.194 239.504 126.653 239.504 115.569V94.2763L260.639 88.5997C269.345 100.895 276.076 111.799 281.348 121.604C284.175 127.505 287.99 140.945 259.832 134.012C259.832 134.012 315.206 167.465 416.777 173.187C518.348 178.885 616.554 172.917 616.554 172.917C616.554 172.917 384.603 178.706 316.036 137.467ZM161.581 109.04C150.789 123.04 134.185 131.925 124.852 125.665C115.81 119.697 121.643 94.1865 135.352 79.7372C143.227 71.4356 154.738 62.6852 167.571 54.9445C170.196 59.9031 171.947 65.7366 172.956 72.7369C174.998 88.1959 169.164 99.1226 161.581 109.04ZM253.639 84.5611L239.504 88.353V36.4566C266.607 34.1232 283.682 38.2067 283.682 56.8741C283.682 68.6759 274.214 79.1763 253.661 84.5611H253.639Z" fill="#F8F0EE"/>
<path d="M753.262 33.6743L752.679 29.5908C745.544 30.3087 736.793 30.6004 732.127 30.6004C727.46 30.6004 720.168 30.3087 711.283 29.5908L710.699 33.6743C722.366 37.4661 725.418 43.1426 725.418 54.2264V66.0506C723.713 69.0795 718.911 75.2721 705.404 86.1315C694.186 95.1511 684.134 98.5615 675.541 96.2505C667.823 94.1863 662.617 87.8591 659.678 83.1474V54.2488C659.678 43.165 662.752 37.6231 674.397 33.6967L673.813 29.6132C666.678 30.3312 657.928 30.6229 653.261 30.6229C648.594 30.6229 641.302 30.3312 632.417 29.6132L631.834 33.6967C643.501 37.4885 646.553 43.165 646.553 54.2488V115.613C646.553 126.697 643.479 132.374 631.834 136.166L632.417 140.249C641.302 139.531 648.594 139.239 653.261 139.239C657.928 139.239 666.678 139.531 673.813 140.249L674.397 136.166C662.729 132.239 659.678 126.697 659.678 115.613V95.6672C663.246 99.1449 667.778 102.286 673.454 103.812C675.9 104.462 678.413 104.799 680.971 104.799C690.102 104.799 699.952 100.603 710.34 92.2568C716.959 86.9392 721.828 82.4519 725.418 78.6376V115.613C725.418 126.697 722.366 132.374 710.699 136.166L711.283 140.249C720.168 139.531 727.46 139.239 732.127 139.239C736.793 139.239 745.544 139.531 752.679 140.249L753.262 136.166C741.595 132.239 738.543 126.697 738.543 115.613V54.2488C738.543 43.165 741.595 37.6231 753.262 33.6967V33.6743Z" fill="#F8F0EE"/>
<path d="M923.513 8.00673C879.851 15.9942 846.442 30.2416 823.781 42.6492C817.072 33.7193 807.223 29.4563 793.783 29.4563C779.064 29.4563 768.272 33.9661 758.064 41.7068L760.105 45.7903C783.597 34.4822 801.569 36.2771 812.002 49.4699C796.453 59.028 788.488 66.1854 788.488 66.1854H788.51C784.494 69.349 780.747 72.6023 777.427 75.8108C749.582 103.789 750.323 130.758 759.926 137.916C772.311 146.801 810.655 138.365 824.207 95.4878C827.55 118.957 828.717 128.425 829.458 139.217H852.792L854.677 135.425C845.208 128.133 837.176 107.873 834.416 87.4555C832.24 71.1888 832.801 60.823 835.942 53.3515C838.365 48.2808 849.404 32.1039 895.601 19.0905C939.375 6.75027 976.665 2.71164 1023.2 4.73096C1069.73 6.75027 998.294 31.2961 998.294 31.2961C1056.52 14.8948 1016.38 53.9349 1016.38 53.9349L976.149 91.9877V54.2266C976.149 43.1428 979.201 37.6009 990.868 33.6744L990.285 29.5909C983.15 30.3089 974.399 30.6006 969.732 30.6006C965.066 30.6006 957.774 30.3089 948.889 29.5909L948.305 33.6744C959.972 37.4663 963.024 43.1428 963.024 54.2266V105.674C962.62 112.921 954.857 149 843.638 166.298C843.638 166.298 947.52 160.465 1004.96 111.553C1004.96 111.553 976.149 127.707 976.149 104.373V99.9752L996.118 81.0161C1010.54 101.434 1023.96 125.486 1029.8 139.172H1054.3L1056.47 135.089C1046.85 130.871 1041.46 127.213 1029.37 108.411L1005.9 71.817L1020.33 58.1081C1023.45 55.1465 1032.94 47.8545 1036.24 45.2967C1044.67 39.6202 1050.55 34.527 1054.23 29.9724C1079.36 -1.12505 1000.7 -6.19577 923.445 7.96186L923.513 8.00673ZM809.691 109.04C798.899 123.04 782.295 131.925 772.962 125.665C763.92 119.697 769.753 94.1865 783.462 79.7372C791.337 71.4356 802.847 62.6852 815.681 54.9445C818.306 59.9031 820.057 65.7366 821.066 72.7369C823.108 88.1959 817.274 99.1226 809.691 109.04Z" fill="#F8F0EE"/>
</svg>
