<svg width="100" height="100" viewBox="0 0 100 100" fill="none" xmlns="http://www.w3.org/2000/svg">
<g clip-path="url(#clip0_1113_236)">
<rect width="100" height="100" fill="#1B1818"/>
<path fill-rule="evenodd" clip-rule="evenodd" d="M92.2581 20.4348L73.0107 31.9018L74.9629 19.6556L63.599 25.2513L65.3192 28.7446L69.9331 26.4727L67.8554 39.5057L83.0549 30.4503L77.5306 41.8046L84.0773 43.1751L78.3678 47.1221L80.5821 50.3251L93.7504 41.2217L83.2173 39.0167L92.2581 20.4348Z" fill="#1028F1" stroke="#1028F1" stroke-width="1.56"/>
<path fill-rule="evenodd" clip-rule="evenodd" d="M45.2379 28.7811C44.077 30.7389 43.8779 33.064 44.07 34.5637L39.7283 35.1197C39.4431 32.8923 39.7036 29.5325 41.4729 26.5486C43.3183 23.4366 46.6731 20.9673 52.0486 20.5364C57.4241 20.1055 61.1295 22.0088 63.447 24.7872C65.669 27.4511 66.4615 30.7265 66.5347 32.9709L62.1599 33.1136C62.1106 31.6025 61.5437 29.3388 60.0857 27.5909C58.7233 25.9575 56.4279 24.5765 52.3984 24.8995C48.3688 25.2225 46.3228 26.9515 45.2379 28.7811Z" fill="#735FFF" stroke="#1D34FC" stroke-width="1.5"/>
<path fill-rule="evenodd" clip-rule="evenodd" d="M79.3424 55.535C77.7869 56.0649 75.959 56.3918 74.2837 56.5335L69.7566 56.9165L72.302 60.6797C73.1243 61.8954 73.5954 62.8132 73.8379 63.4759C73.9354 63.7422 73.9863 63.9409 74.0127 64.0813C73.9093 64.1067 73.7712 64.1329 73.5913 64.1532C72.5517 64.2707 70.9729 64.1052 69.0775 63.6748C67.2369 63.2567 65.3115 62.6393 63.6756 62.0154L61.7774 66.9926C63.5954 67.686 65.764 68.3847 67.8977 68.8694C69.9768 69.3416 72.253 69.6653 74.1896 69.4464C75.1646 69.3362 76.2594 69.0673 77.2177 68.4317C78.2561 67.7429 79.0156 66.6951 79.2727 65.3509C79.5107 64.1065 79.2761 62.8359 78.8404 61.6452C78.7915 61.5115 78.7391 61.3765 78.6835 61.2402C79.4873 61.0598 80.2882 60.8403 81.0604 60.5772C83.0483 59.8999 85.2484 58.7993 86.6055 56.9525C87.3223 55.977 87.7962 54.7995 87.8472 53.4539C87.8975 52.1286 87.5313 50.8238 86.8697 49.5752C85.8819 47.7106 84.1376 45.7854 81.615 43.7519C82.2083 43.0717 82.7733 42.359 83.2709 41.637C84.2721 40.1843 85.3735 38.1715 85.2588 36.1124C85.1936 34.9424 84.7337 33.7828 83.7583 32.874C82.8431 32.0213 81.6691 31.5705 80.4665 31.3444C78.1155 30.9026 74.8183 31.1686 70.4453 32.1101L71.5665 37.3176C75.7755 36.4114 78.2132 36.3411 79.4826 36.5797C79.6591 36.6128 79.7934 36.6485 79.8934 36.6808C79.8647 36.788 79.8208 36.9202 79.756 37.0779C79.5808 37.5044 79.2919 38.0235 78.8847 38.6142C78.0691 39.7978 76.9291 41.0537 75.7814 42.1339L73.4018 44.3732L76.0749 46.2524C79.7313 48.8228 81.4695 50.7606 82.1627 52.069C82.4896 52.6861 82.5313 53.0641 82.5241 53.252C82.5178 53.4197 82.469 53.5859 82.313 53.7982C81.9245 54.3268 80.9788 54.9774 79.3424 55.535Z" fill="#F2DC00" stroke="#1028F1" stroke-width="1.5"/>
<path fill-rule="evenodd" clip-rule="evenodd" d="M51.9317 53.7648L75.463 52.2346L75.1526 47.4615L51.6213 48.9917L51.9317 53.7648Z" fill="#FF7AA5" stroke="#1028F1" stroke-width="1.5"/>
<path fill-rule="evenodd" clip-rule="evenodd" d="M51.6075 47.0474L68.0182 40.8814L66.3359 36.4038L49.9251 42.5698L51.6075 47.0474Z" fill="#FF7AA5" stroke="#1028F1" stroke-width="1.5"/>
<path fill-rule="evenodd" clip-rule="evenodd" d="M49.0181 41.9272L67.6974 17.7836L63.9142 14.8567L45.2349 39.0002L49.0181 41.9272Z" fill="#FF7AA5" stroke="#1028F1" stroke-width="1.5"/>
<path d="M57.5839 69.3054C55.0246 70.1619 51.1528 70.8964 48.4006 70.8808C45.6485 70.8653 42.9888 70.3823 40.4275 69.5319C39.9541 69.3395 39.5419 69.1634 39.0909 69.0097C38.2921 69.4191 37.3708 69.7957 36.4108 70.1947C33.3857 71.3202 30.2366 72.0514 27.0411 72.3436C23.8067 72.6582 20.7976 72.377 17.6317 71.824L14.0682 65.6519L37.0547 33.7478L40.5285 39.7647L21.317 66.6426C23.0522 66.7794 24.759 66.7774 26.4763 66.614C28.9103 66.3475 31.3098 65.842 33.5913 65.0423C32.6636 63.9734 32.0301 62.7864 31.6131 61.5262C30.779 59.0058 31.2604 55.9848 32.9127 53.7368C34.2829 51.8071 36.3403 50.6192 38.5474 50.5872C40.3931 50.5567 42.2032 51.2714 43.6491 52.6104C44.9666 53.8166 45.8691 55.4694 46.1324 57.1806C46.5827 59.6638 45.922 62.3743 44.3309 64.6387C45.672 64.8996 47.0458 65.038 48.4137 65.0764C50.5431 65.0891 52.6097 64.7241 54.5583 64.065L57.5839 69.3054ZM38.8602 62.1556C38.9154 62.0719 38.9931 62.0271 39.0483 61.9435C40.1052 60.8157 40.6602 59.3566 40.4493 58.1844C40.2728 57.2512 39.4183 56.3988 38.6956 56.402C38.1729 56.3932 37.8356 56.795 37.5923 57.0908C37.0564 57.8659 36.8612 58.9621 37.1093 59.7505C37.3006 60.2611 37.716 61.1599 38.8602 62.1556Z" fill="#E5E5E5"/>
</g>
<defs>
<clipPath id="clip0_1113_236">
<rect width="100" height="100" fill="white"/>
</clipPath>
</defs>
</svg>
