<svg width="100" height="100" viewBox="0 0 100 100" fill="none" xmlns="http://www.w3.org/2000/svg">
<rect width="100" height="100" fill="#1B1818"/>
<path d="M57.5839 69.3054C55.0246 70.1619 51.1528 70.8964 48.4006 70.8808C45.6485 70.8653 42.9888 70.3823 40.4275 69.5319C39.9541 69.3395 39.5419 69.1634 39.0909 69.0097C38.2921 69.4191 37.3708 69.7957 36.4108 70.1947C33.3857 71.3202 30.2366 72.0514 27.0411 72.3436C23.8067 72.6582 20.7976 72.377 17.6317 71.824L14.0682 65.6519L37.0547 33.7478L40.5285 39.7647L21.317 66.6426C23.0522 66.7794 24.759 66.7774 26.4763 66.614C28.9103 66.3475 31.3098 65.842 33.5913 65.0423C32.6636 63.9734 32.0301 62.7864 31.6131 61.5262C30.779 59.0058 31.2604 55.9848 32.9127 53.7368C34.2829 51.8071 36.3403 50.6192 38.5474 50.5872C40.3931 50.5567 42.2032 51.2714 43.6491 52.6104C44.9666 53.8166 45.8691 55.4694 46.1324 57.1806C46.5827 59.6638 45.922 62.3743 44.3309 64.6387C45.672 64.8996 47.0458 65.038 48.4137 65.0764C50.5431 65.0891 52.6097 64.7241 54.5583 64.065L57.5839 69.3054ZM38.8602 62.1556C38.9154 62.0719 38.9931 62.0271 39.0483 61.9435C40.1052 60.8157 40.6602 59.3566 40.4493 58.1844C40.2728 57.2512 39.4183 56.3988 38.6956 56.402C38.1729 56.3932 37.8356 56.795 37.5923 57.0908C37.0564 57.8659 36.8612 58.9621 37.1093 59.7505C37.3006 60.2611 37.716 61.1599 38.8602 62.1556Z" fill="#E5E5E5"/>
</svg>
