<svg viewBox="0 0 1614 786" fill="none" xmlns="http://www.w3.org/2000/svg">
<g>
<path d="M1384.71 0.00390625L911.953 0.00390625L911.953 785.809H1000.3C930.759 311.317 1270.78 64.7127 1384.71 0.00390625Z" fill="#F7F1E2"/>
<path d="M1141.1 785.809L1613.86 785.809L1613.86 0.00317383L1525.5 0.0031661C1595.05 474.495 1255.03 721.1 1141.1 785.809Z" fill="#F7F1E2"/>
<path d="M-1.21915e-05 510.951L0 789.859L806.637 789.859C405.55 782.347 81.8327 597.66 -1.21915e-05 510.951Z" fill="#6E9AFD"/>
<path d="M806.637 0.00191787L806.637 196.069C641.323 134.743 496.895 182.907 407.756 276.657C516.913 396.956 538.655 588.623 405.054 722.445C270.648 587.282 294.851 395.402 407.756 276.657C318.185 177.944 169.757 127.285 -2.30087e-05 196.069L2.69985e-06 0.00195312L806.637 0.00191787Z" fill="#F7F1E2"/>
<path d="M1258.56 300.324C1387.31 300.324 1483.95 394.357 1483.95 394.357C1483.95 394.357 1393.68 484.916 1258.56 484.916C1123.45 484.916 1040.41 394.357 1040.41 394.357C1040.41 394.357 1129.81 300.324 1258.56 300.324Z" fill="#F7F1E2"/>
</g>
</svg>
