<svg width="95" height="76" viewBox="0 0 95 76" fill="none" xmlns="http://www.w3.org/2000/svg">
<path fillRule="evenodd" clipRule="evenodd" d="M86.2581 8.43478L67.0107 19.9018L68.9629 7.6556L57.599 13.2513L59.3192 16.7446L63.9331 14.4727L61.8554 27.5057L77.0549 18.4503L71.5306 29.8046L78.0773 31.1751L72.3678 35.1221L74.5821 38.3251L87.7504 29.2217L77.2173 27.0168L86.2581 8.43478Z" fill="#1028F1" stroke="#1028F1" strokeWidth="1.56"/>
<path fillRule="evenodd" clipRule="evenodd" d="M39.2379 16.7811C38.077 18.7389 37.8779 21.064 38.07 22.5637L33.7283 23.1197C33.4431 20.8923 33.7036 17.5325 35.4729 14.5486C37.3183 11.4366 40.6731 8.96728 46.0486 8.53638C51.4241 8.10548 55.1295 10.0088 57.447 12.7872C59.669 15.4511 60.4615 18.7265 60.5347 20.9709L56.1599 21.1136C56.1106 19.6025 55.5437 17.3388 54.0857 15.5909C52.7233 13.9575 50.4279 12.5765 46.3984 12.8995C42.3688 13.2225 40.3228 14.9515 39.2379 16.7811Z" fill="#735FFF" stroke="#1D34FC" strokeWidth="1.5"/>
<path fillRule="evenodd" clipRule="evenodd" d="M73.3423 43.535C71.7868 44.0649 69.9589 44.3918 68.2836 44.5335L63.7565 44.9165L66.3019 48.6797C67.1242 49.8954 67.5953 50.8132 67.8378 51.4759C67.9353 51.7422 67.9862 51.9409 68.0126 52.0813C67.9092 52.1067 67.771 52.1329 67.5911 52.1532C66.5516 52.2707 64.9728 52.1052 63.0774 51.6748C61.2367 51.2567 59.3114 50.6393 57.6755 50.0154L55.7773 54.9926C57.5953 55.686 59.7639 56.3847 61.8976 56.8694C63.9767 57.3416 66.2529 57.6653 68.1895 57.4464C69.1645 57.3362 70.2593 57.0673 71.2176 56.4317C72.256 55.7429 73.0155 54.6951 73.2726 53.3509C73.5106 52.1065 73.276 50.8359 72.8403 49.6452C72.7913 49.5115 72.739 49.3765 72.6834 49.2402C73.4871 49.0598 74.288 48.8403 75.0602 48.5772C77.0482 47.8999 79.2483 46.7993 80.6054 44.9525C81.3222 43.977 81.7961 42.7995 81.8471 41.4539C81.8974 40.1286 81.5311 38.8238 80.8696 37.5752C79.8818 35.7106 78.1375 33.7854 75.6148 31.7519C76.2081 31.0717 76.7732 30.359 77.2708 29.637C78.272 28.1843 79.3734 26.1715 79.2587 24.1124C79.1935 22.9424 78.7336 21.7828 77.7582 20.874C76.8429 20.0213 75.669 19.5705 74.4664 19.3444C72.1153 18.9026 68.8181 19.1686 64.4452 20.1101L65.5664 25.3176C69.7753 24.4114 72.2131 24.3411 73.4825 24.5797C73.659 24.6128 73.7933 24.6485 73.8933 24.6808C73.8646 24.788 73.8207 24.9202 73.7559 25.0779C73.5807 25.5044 73.2917 26.0235 72.8846 26.6142C72.0689 27.7978 70.929 29.0537 69.7812 30.1339L67.4017 32.3732L70.0748 34.2524C73.7312 36.8228 75.4693 38.7606 76.1625 40.069C76.4895 40.6861 76.5312 41.0641 76.524 41.252C76.5177 41.4197 76.4688 41.5859 76.3128 41.7981C75.9244 42.3268 74.9787 42.9774 73.3423 43.535Z" fill="#F2DC00" stroke="#1028F1" strokeWidth="1.5"/>
<path fillRule="evenodd" clipRule="evenodd" d="M45.9318 41.7648L69.4631 40.2346L69.1527 35.4615L45.6214 36.9917L45.9318 41.7648Z" fill="#FF7AA5" stroke="#1028F1" strokeWidth="1.5"/>
<path fillRule="evenodd" clipRule="evenodd" d="M45.6077 35.0474L62.0185 28.8814L60.3361 24.4038L43.9254 30.5698L45.6077 35.0474Z" fill="#FF7AA5" stroke="#1028F1" strokeWidth="1.5"/>
<path fillRule="evenodd" clipRule="evenodd" d="M43.0182 29.9272L61.6975 5.78359L57.9144 2.85667L39.2351 27.0002L43.0182 29.9272Z" fill="#FF7AA5" stroke="#1028F1" strokeWidth="1.5"/>
<path d="M51.584 57.3054C49.0248 58.1619 45.1529 58.8964 42.4008 58.8808C39.6486 58.8653 36.9889 58.3823 34.4277 57.5319C33.9542 57.3395 33.542 57.1634 33.091 57.0097C32.2922 57.4191 31.371 57.7957 30.4109 58.1947C27.3859 59.3202 24.2368 60.0514 21.0412 60.3436C17.8068 60.6582 14.7978 60.377 11.6318 59.824L8.06834 53.6519L31.0548 21.7478L34.5286 27.7647L15.3171 54.6426C17.0523 54.7794 18.7592 54.7774 20.4764 54.614C22.9104 54.3475 25.3099 53.842 27.5914 53.0423C26.6637 51.9734 26.0302 50.7864 25.6132 49.5262C24.7791 47.0058 25.2605 43.9848 26.9128 41.7368C28.2831 39.8071 30.3404 38.6192 32.5475 38.5872C34.3932 38.5567 36.2033 39.2714 37.6492 40.6104C38.9667 41.8166 39.8692 43.4694 40.1325 45.1806C40.5828 47.6638 39.9222 50.3743 38.331 52.6387C39.6721 52.8996 41.046 53.038 42.4138 53.0764C44.5433 53.0891 46.6099 52.7241 48.5584 52.065L51.584 57.3054ZM32.8603 50.1556C32.9155 50.0719 32.9932 50.0271 33.0484 49.9435C34.1053 48.8157 34.6603 47.3566 34.4494 46.1844C34.2729 45.2512 33.4185 44.3988 32.6957 44.402C32.1731 44.3932 31.8357 44.795 31.5924 45.0908C31.0565 45.8659 30.8613 46.9621 31.1094 47.7505C31.3007 48.2611 31.7161 49.1599 32.8603 50.1556Z" fill="#E5E5E5"/>
</svg>
