<svg width="112" height="135" viewBox="0 0 112 135" fill="none" xmlns="http://www.w3.org/2000/svg">
<path fillRule="evenodd" clipRule="evenodd" d="M72.1502 45.5437C66.4331 45.0821 59.9681 45.5411 54.1779 46.4959L38.5317 49.0759L43.9228 34.1629C45.6644 29.3452 46.4728 25.8363 46.7261 23.3866C46.8278 22.4019 46.83 21.686 46.799 21.1881C46.4275 21.1909 45.9376 21.2206 45.3115 21.3058C41.6933 21.7981 36.4927 23.7098 30.448 26.7891C24.5775 29.7796 18.5912 33.517 13.5899 37.0287L2.90567 21.8124C8.46385 17.9096 15.2034 13.6887 22.0085 10.2221C28.6394 6.84428 36.0642 3.80008 42.8044 2.88284C46.1979 2.42104 50.1327 2.39362 53.9194 3.72389C58.0227 5.16538 61.4896 8.06058 63.5105 12.3891C65.3813 16.3961 65.6753 20.8961 65.2202 25.2982C65.1692 25.7925 65.1077 26.294 65.0361 26.8028C67.9104 26.7253 70.8083 26.7821 73.6464 27.0113C80.9529 27.6011 89.3398 29.4418 95.513 34.529C98.7735 37.216 101.385 40.7948 102.71 45.3042C104.015 49.7457 103.892 54.4741 102.723 59.2655C100.977 66.4205 96.7229 74.4282 89.9278 83.4686C92.5177 85.2622 95.04 87.1901 97.3418 89.2072C101.973 93.2657 107.423 99.1332 108.798 106.199C109.579 110.214 109.016 114.531 106.493 118.441C104.126 122.11 100.54 124.641 96.6644 126.435C89.0873 129.943 77.7028 131.866 62.0999 132.424L61.4352 113.843C76.4531 113.306 84.7621 111.457 88.8529 109.563C89.4217 109.3 89.8456 109.064 90.1564 108.869C89.9674 108.531 89.7059 108.121 89.3516 107.643C88.3935 106.35 86.9714 104.841 85.0881 103.191C81.3148 99.8841 76.3822 96.6102 71.5738 93.9381L61.6048 88.398L69.0412 79.7507C79.2128 67.9228 83.435 59.8778 84.6605 54.857C85.2384 52.4891 85.0559 51.1744 84.8709 50.5446C84.7058 49.9827 84.3983 49.4622 83.6887 48.8774C81.9217 47.4213 78.1646 46.0292 72.1502 45.5437Z" fill="#F2DC00" stroke="#1028F1" strokeWidth="4"/>
</svg>
