<svg width="158" height="35" viewBox="0 0 158 35" fill="none" xmlns="http://www.w3.org/2000/svg">
<path d="M81.0874 32.5165V0.605917C81.397 0.586099 81.6624 0.554648 81.9279 0.554217C85.3758 0.550914 88.8237 0.572169 92.2708 0.533968C92.9122 0.526931 93.2661 0.765467 93.6205 1.25073C97.8491 7.03978 102.095 12.8166 106.338 18.5949C106.478 18.7851 106.635 18.962 106.917 19.3088V0.551489H107.908C114.988 0.551489 122.068 0.558526 129.148 0.538851C129.761 0.536984 130.138 0.706875 130.507 1.22114C132.59 4.11948 134.72 6.98334 136.835 9.8587C136.958 10.0263 137.09 10.1867 137.269 10.4149C139.355 7.57588 141.448 4.84557 143.396 2.01645C144.157 0.911949 144.941 0.470636 146.308 0.513863C149.905 0.627315 153.508 0.55192 157.243 0.55192C157.08 0.815013 156.977 1.01075 156.848 1.18725C152.319 7.3665 147.782 13.54 143.273 19.7333C143.009 20.0956 142.847 20.6198 142.844 21.0702C142.811 25.1332 142.825 29.1966 142.825 33.2601V34.3104H131.674V33.3373C131.674 29.2433 131.685 25.1487 131.658 21.0547C131.656 20.6269 131.537 20.1225 131.291 19.785C126.76 13.5691 122.202 7.37339 117.649 1.17361C117.595 1.09979 117.536 1.02914 117.353 0.794764V34.3637H116.286C112.869 34.3637 109.452 34.3402 106.036 34.383C105.332 34.3919 104.929 34.1562 104.528 33.606C100.322 27.8381 96.091 22.0891 91.8665 16.3348C91.7776 16.2134 91.6816 16.0971 91.4585 15.811V34.3129H81.0888L81.0874 32.5165Z" fill="#F8F0EE"/>
<path d="M74.3293 3.82585C77.6021 8.215 76.0728 12.8591 70.5533 15.7198C71.6324 16.2317 72.854 16.6459 73.8926 17.3358C77.0154 19.4097 77.8708 22.4957 77.4624 26.0439C77.0559 29.5803 75.0149 31.8476 71.7938 33.1427C69.7425 33.9676 67.5854 34.3276 65.3901 34.3356C56.9908 34.3658 48.5914 34.354 40.1915 34.3559C40.0739 34.3559 39.9558 34.33 39.7844 34.3098V0.586013C40.0842 0.57237 40.3816 0.547382 40.679 0.547382C48.5555 0.545515 56.4321 0.536611 64.3083 0.551116C66.8442 0.555855 69.3722 0.760499 71.6795 1.9167C72.622 2.38918 73.4211 3.14773 74.3293 3.82585ZM62.6552 20.1837H50.1279V26.538C50.3278 26.5521 50.4761 26.5715 50.6238 26.5715C54.5278 26.5715 58.4322 26.5752 62.3361 26.5616C62.8251 26.5597 63.3215 26.5079 63.8001 26.4086C65.4999 26.0567 66.3864 24.9358 66.3751 23.2054C66.3642 21.5594 65.5417 20.6597 63.736 20.3269C63.434 20.2713 63.1286 20.2364 62.6552 20.1837ZM57.7301 13.3127C59.4486 13.2662 61.186 13.3588 62.8801 13.1325C64.4994 12.9161 65.2448 11.7951 65.1573 10.277C65.0697 8.75986 64.1898 7.81821 62.618 7.5857C62.2543 7.53199 61.8825 7.51189 61.514 7.51131C57.9447 7.50571 54.3753 7.50614 50.806 7.51031C50.5754 7.51031 50.3448 7.55741 50.1269 7.58096V13.3126L57.7301 13.3127Z" fill="#F8F0EE"/>
<path d="M20.2246 22.9951C13.8519 25.4454 7.54523 27.8685 0.952393 30.4016C1.27429 29.9226 1.43614 29.6619 1.61688 29.4158C4.38058 25.646 7.13537 21.8691 9.92593 18.119C10.316 17.5948 10.2742 17.2658 9.90331 16.7665C7.13487 13.0381 4.39752 9.28711 1.65077 5.54262C1.45833 5.28054 1.27243 5.01371 1.19761 4.59351C12.2497 8.84895 23.3013 13.1044 34.5868 17.4497C29.6668 19.3486 24.9788 21.1583 20.2246 22.9951Z" fill="#F8F0EE"/>
</svg>
