<svg width="169" height="129" viewBox="0 0 169 129" fill="none" xmlns="http://www.w3.org/2000/svg">
<path d="M97.4002 0.250526C120.45 0.250526 143.499 0.250526 166.549 0.250526C168.527 0.250526 168.583 0.302999 168.583 2.23413C168.583 24.3882 168.575 46.5422 168.608 68.6962C168.61 69.8132 168.25 70.5779 167.466 71.314C166.003 72.6874 164.623 74.1492 163.193 75.5571C162.238 76.4972 161.234 77.3848 160.291 78.3354C157.856 80.7913 155.461 83.2861 153.015 85.7315C150.357 88.3868 147.657 90.9972 144.987 93.6405C144.301 94.3212 143.653 95.0408 143.003 95.7575C142.547 96.2583 142.015 96.5282 141.326 96.4637C141.104 96.4427 140.879 96.4607 140.656 96.4607C94.5944 96.4607 48.5317 96.4607 2.47054 96.4607C1.03169 96.4607 0.312281 95.7335 0.312281 94.2792C0.312281 72.2001 0.319771 50.1196 0.289795 28.0405C0.289795 26.9415 0.62403 26.1798 1.39741 25.4107C9.39952 17.4568 17.3776 9.48037 25.3258 1.47247C26.2101 0.581875 27.1153 0.226533 28.3668 0.228032C51.3795 0.259518 74.3921 0.250526 97.4032 0.250526H97.4002ZM70.9088 48.2829C70.9088 54.7225 70.9088 61.1606 70.9088 67.6002C70.9088 67.9345 70.8924 68.2719 70.9208 68.6047C70.9928 69.4638 71.4079 69.9376 72.2563 69.9466C75.122 69.9766 77.9877 69.9721 80.8549 69.9481C81.6493 69.9421 81.997 69.5838 82.1004 68.8027C82.1439 68.4728 82.1274 68.1339 82.1274 67.7996C82.1289 64.636 82.1244 61.4725 82.1319 58.3089C82.1349 57.2144 82.1618 57.1904 83.2695 57.1844C85.131 57.1754 86.9925 57.1919 88.8525 57.1754C89.416 57.1709 89.8237 57.2908 90.1265 57.8456C92.0345 61.339 94.0054 64.7965 95.8894 68.3019C96.5069 69.4504 97.3012 70.0081 98.6307 69.9811C101.384 69.9256 104.139 69.9781 106.894 69.9541C107.493 69.9496 108.249 70.224 108.625 69.5268C108.978 68.8716 108.461 68.3154 108.156 67.7831C106.394 64.72 104.602 61.6764 102.844 58.6117C101.945 57.0449 102.172 57.2518 103.445 56.5906C105.852 55.3387 107.276 53.3071 107.331 50.6278C107.448 45.0099 107.417 39.3874 107.343 33.7679C107.315 31.5879 106.336 29.7512 104.614 28.3689C103.229 27.2564 101.634 26.7406 99.8552 26.7421C90.8849 26.7481 81.9146 26.7451 72.9427 26.7451C72.7943 26.7451 72.6445 26.7421 72.4961 26.7481C71.3315 26.7976 70.9598 27.1574 70.9133 28.2939C70.8999 28.6282 70.9088 28.9641 70.9088 29.2984C70.9088 35.6256 70.9088 41.9527 70.9088 48.2799V48.2829ZM26.6672 48.3039C26.6672 51.1331 26.6672 53.9623 26.6672 56.7931C26.6672 60.5159 26.6642 64.2387 26.6672 67.963C26.6687 69.6423 26.9985 69.9616 28.7131 69.9661C30.3513 69.9706 31.9895 69.9676 33.6276 69.9661C34.5584 69.9661 35.4892 69.9811 36.4199 69.9586C37.553 69.9331 37.8483 69.6213 37.8857 68.4713C37.8962 68.137 37.8887 67.8011 37.8887 67.4668C37.8887 63.3346 37.8843 59.201 37.8917 55.0688C37.8947 53.8484 38.1091 53.628 39.3246 53.6235C43.0476 53.613 46.7706 53.613 50.4952 53.6235C51.7002 53.628 51.8921 53.8379 51.8981 55.0943C51.9086 57.5142 51.901 59.9341 51.9025 62.354C51.9025 64.3272 51.8905 66.3003 51.9085 68.2734C51.9205 69.4983 52.3732 69.9496 53.6127 69.9571C56.2191 69.9736 58.8255 69.9721 61.4319 69.9571C62.625 69.9511 63.2035 69.3934 63.3024 68.2164C63.3174 68.032 63.3129 67.8446 63.3129 67.6587C63.3129 54.7765 63.3129 41.8943 63.3129 29.0136C63.3129 28.7542 63.3159 28.4888 63.2755 28.2339C63.1166 27.2324 62.643 26.7646 61.6388 26.7556C58.884 26.7316 56.1277 26.7286 53.3729 26.7601C52.4166 26.7706 51.97 27.2759 51.9115 28.2339C51.8935 28.5308 51.9055 28.8292 51.9055 29.1275C51.9055 33.0737 51.907 37.02 51.904 40.9662C51.904 42.5315 51.7662 42.6634 50.1609 42.6649C46.7362 42.6679 43.3099 42.6664 39.8851 42.6649C37.9157 42.6649 37.8932 42.6424 37.8932 40.6633C37.8932 36.5687 37.8977 32.4725 37.8887 28.3779C37.8857 27.1964 37.5785 26.7781 36.5338 26.7631C33.7041 26.7241 30.8743 26.7301 28.0446 26.7631C27.1498 26.7736 26.7332 27.2744 26.6762 28.1949C26.6552 28.5293 26.6687 28.8651 26.6687 29.1995C26.6687 35.5656 26.6687 41.9317 26.6687 48.2994L26.6672 48.3039ZM128.638 26.7466C123.872 26.7466 119.106 26.7466 114.34 26.7466C114.004 26.7466 113.667 26.7301 113.335 26.7601C112.453 26.8425 112.037 27.2174 112.028 28.114C111.999 30.7573 111.997 33.4006 112.033 36.0439C112.045 36.921 112.45 37.3138 113.32 37.4638C113.721 37.5327 114.136 37.5282 114.543 37.5297C116.927 37.5357 119.31 37.5207 121.693 37.5402C122.709 37.5492 122.937 37.7996 122.98 38.7997C122.995 39.134 122.985 39.4699 122.985 39.8042C122.985 48.9636 122.985 58.1245 122.988 67.2838C122.988 67.7651 122.988 68.2569 123.075 68.7277C123.243 69.6348 123.598 69.9256 124.518 69.9571C125.261 69.9826 126.008 69.9661 126.753 69.9661C128.689 69.9661 130.626 69.9796 132.562 69.9601C133.725 69.9481 134.154 69.4983 134.199 68.3244C134.211 68.0275 134.202 67.7291 134.202 67.4308C134.202 61.7708 134.202 56.1109 134.202 50.4524C134.202 46.6171 134.196 42.7819 134.206 38.9466C134.209 37.7771 134.425 37.5702 135.564 37.5372C136.048 37.5237 136.532 37.5342 137.017 37.5342C139.139 37.5342 141.261 37.5492 143.383 37.5267C144.662 37.5132 145.282 37.008 145.305 35.846C145.353 33.3151 145.345 30.7828 145.305 28.2504C145.29 27.2938 144.779 26.8425 143.833 26.7586C143.5 26.7301 143.163 26.7466 142.829 26.7466C138.1 26.7466 133.37 26.7466 128.641 26.7466H128.638Z" fill="#F8F0EE"/>
<path d="M166.293 114.529C166.894 113.364 167.812 113.878 168.71 113.89C168.737 114.271 168.781 114.595 168.781 114.919C168.785 117.559 168.823 120.201 168.761 122.84C168.737 123.868 168.62 124.934 168.311 125.909C167.697 127.85 165.659 128.88 163.337 128.585C161.36 128.333 159.801 126.796 159.585 124.876C159.573 124.775 159.627 124.667 159.684 124.417C160.068 124.417 160.467 124.436 160.862 124.412C161.381 124.379 161.684 124.58 161.862 125.084C162.127 125.828 162.635 126.332 163.451 126.49C165.093 126.813 166.219 126.009 166.429 124.333C166.471 124.002 166.478 123.666 166.48 123.331C166.48 123.157 166.435 122.982 166.391 122.67C166.096 122.861 165.895 122.997 165.689 123.124C164.035 124.144 161.814 123.847 160.471 122.429C158.803 120.667 158.551 117.638 159.864 115.587C161.053 113.731 163.956 112.725 166.29 114.53L166.293 114.529ZM166.591 118.444C166.571 118.304 166.556 117.967 166.474 117.647C166.156 116.406 165.207 115.629 164.016 115.607C162.881 115.586 161.936 116.297 161.549 117.488C161.251 118.406 161.291 119.321 161.699 120.198C162.246 121.375 163.541 121.926 164.77 121.529C165.889 121.168 166.595 120.045 166.592 118.444H166.591Z" fill="#F8F0EE"/>
<path d="M30.0765 110.031V111.134C30.0765 114.817 30.084 118.498 30.066 122.18C30.0645 122.585 30.2774 123.111 29.7183 123.352C29.1038 123.616 28.0651 123.339 27.62 122.781C26.6218 123.462 25.5336 123.877 24.2851 123.66C22.2543 123.307 21.0867 122.042 20.5591 120.12C20.2144 118.863 20.2758 117.613 20.7749 116.403C21.8616 113.773 24.8037 112.827 27.2453 114.309C27.3652 114.38 27.4971 114.433 27.7983 114.58C27.7983 113.464 27.7983 112.478 27.7983 111.493C27.7983 110.416 28.3239 109.9 29.3751 109.944C29.5549 109.951 29.7318 109.987 30.075 110.029L30.0765 110.031ZM27.9392 118.468C27.9003 118.262 27.8628 117.853 27.7444 117.466C27.4026 116.34 26.4959 115.649 25.3673 115.614C24.3136 115.581 23.3679 116.211 22.9482 117.258C22.557 118.234 22.569 119.217 23.0172 120.174C23.4473 121.093 24.1922 121.598 25.2009 121.658C26.7582 121.75 27.9437 120.439 27.9392 118.468Z" fill="#F8F0EE"/>
<path d="M140.215 114.68C140.215 113.286 140.207 112.138 140.217 110.989C140.226 109.952 140.24 109.944 141.291 109.944C141.62 109.944 141.949 109.976 142.38 109.997C142.418 110.349 142.479 110.667 142.481 110.983C142.487 114.742 142.491 118.499 142.475 122.258C142.473 122.66 142.683 123.195 142.046 123.378C141.325 123.585 140.493 123.35 140.053 122.757C138.997 123.507 137.833 123.916 136.512 123.618C136.259 123.561 136.001 123.507 135.759 123.417C133.654 122.642 132.431 120.214 132.825 117.613C133.167 115.363 134.876 113.752 137.1 113.577C138.191 113.491 139.132 113.886 140.215 114.679V114.68ZM140.367 118.516C140.339 118.345 140.307 117.973 140.212 117.618C139.874 116.372 138.926 115.619 137.722 115.615C136.583 115.61 135.648 116.34 135.27 117.528C134.988 118.415 135.03 119.289 135.417 120.132C135.857 121.095 136.626 121.63 137.686 121.658C139.216 121.702 140.337 120.448 140.366 118.516H140.367Z" fill="#F8F0EE"/>
<path d="M128.539 114.511C128.839 114.247 129.063 113.887 129.336 113.847C129.832 113.772 130.364 113.854 130.865 113.949C130.974 113.97 131.087 114.317 131.087 114.515C131.102 117.226 131.091 119.938 131.103 122.649C131.106 123.244 130.802 123.466 130.272 123.396C129.711 123.322 128.936 123.754 128.716 122.712C127.593 123.523 126.397 123.93 125.041 123.606C124.825 123.553 124.605 123.507 124.396 123.432C122.278 122.673 121.052 120.288 121.427 117.665C121.758 115.352 123.479 113.724 125.75 113.575C126.842 113.503 127.785 113.887 128.537 114.511H128.539ZM123.68 118.646C123.68 119.961 124.389 121.114 125.435 121.499C126.475 121.882 127.661 121.543 128.338 120.669C129.11 119.675 129.242 117.961 128.488 116.893C128.149 116.412 127.599 115.959 127.049 115.77C125.285 115.163 123.678 116.578 123.678 118.646H123.68Z" fill="#F8F0EE"/>
<path d="M0.136719 123.405V110.124C0.261119 110.052 0.321078 109.988 0.387025 109.983C1.69898 109.879 2.35495 110.473 2.35495 111.764C2.35495 112.578 2.35495 113.391 2.35495 114.354C2.73265 114.181 2.98445 114.072 3.23175 113.955C5.73175 112.767 8.19728 114.192 8.31269 116.952C8.39063 118.808 8.34716 120.669 8.33068 122.528C8.32318 123.329 8.24374 123.375 7.40591 123.404C7.22006 123.41 7.03271 123.39 6.84836 123.404C6.26982 123.448 6.06148 123.182 6.07047 122.613C6.09295 121.164 6.07797 119.714 6.07497 118.264C6.07497 117.929 6.08846 117.592 6.05549 117.261C5.95357 116.258 5.43349 115.707 4.5402 115.627C3.6649 115.547 2.81358 116.084 2.58726 116.956C2.44037 117.526 2.38493 118.129 2.36994 118.72C2.33696 119.946 2.36844 121.173 2.35345 122.4C2.34146 123.357 2.30248 123.386 1.33126 123.404C0.967051 123.411 0.602849 123.404 0.139719 123.404L0.136719 123.405Z" fill="#F8F0EE"/>
<path d="M89.062 119.168C89.041 120.31 89.4786 121.063 90.3599 121.441C91.8302 122.07 92.9408 121.408 93.8551 120.171C94.4696 120.514 95.0422 120.832 95.7181 121.21C95.4229 121.61 95.2205 121.963 94.9463 122.243C93.4624 123.76 91.6279 124.029 89.6959 123.471C87.9079 122.955 87.0326 121.558 86.7073 119.786C86.4645 118.456 86.6848 117.192 87.3128 116.007C88.371 114.013 90.5637 113.118 92.716 113.778C94.5805 114.349 95.895 116.409 95.7661 118.487C95.7316 119.045 95.4558 119.171 94.9807 119.168C93.4205 119.162 91.8602 119.168 90.3 119.168C89.9028 119.168 89.5056 119.168 89.0605 119.168H89.062ZM93.2931 117.22C92.9858 116.015 92.2769 115.473 91.1558 115.539C90.1336 115.599 89.4666 116.211 89.3287 117.303C90.4469 117.303 91.553 117.307 92.6591 117.3C92.8689 117.3 93.0772 117.249 93.2931 117.22Z" fill="#F8F0EE"/>
<path d="M44.3349 113.565C47.2471 113.581 49.4383 115.763 49.4308 118.636C49.4233 121.505 47.2186 123.703 44.3304 123.718C41.4017 123.733 39.1625 121.496 39.182 118.576C39.2015 115.71 41.4257 113.547 44.3334 113.563L44.3349 113.565ZM47.0822 118.639C47.0792 116.841 46.0061 115.646 44.3634 115.611C42.6937 115.577 41.5231 116.83 41.5276 118.649C41.5321 120.441 42.6233 121.646 44.2615 121.67C45.9596 121.694 47.0837 120.484 47.0822 118.637V118.639Z" fill="#F8F0EE"/>
<path d="M151.643 114.369C152.607 113.724 153.608 113.422 154.734 113.637C156.186 113.913 157.075 114.731 157.303 116.189C157.423 116.953 157.402 117.743 157.412 118.522C157.427 119.786 157.424 121.048 157.412 122.312C157.403 123.376 157.358 123.409 156.255 123.405C156.144 123.405 156.032 123.396 155.921 123.403C155.344 123.441 155.131 123.162 155.137 122.601C155.153 121.189 155.149 119.777 155.134 118.364C155.129 117.883 155.119 117.393 155.028 116.923C154.849 115.997 154.404 115.64 153.505 115.604C152.559 115.565 151.937 115.916 151.709 116.769C151.538 117.408 151.468 118.085 151.445 118.748C151.405 119.973 151.444 121.201 151.426 122.427C151.414 123.333 151.36 123.372 150.483 123.402C150.26 123.409 150.037 123.394 149.815 123.4C149.343 123.411 149.148 123.17 149.154 122.715C149.161 122.232 149.152 121.75 149.152 121.265C149.152 119.222 149.139 117.177 149.164 115.133C149.169 114.716 149.272 113.964 149.416 113.943C150.044 113.851 150.703 113.958 151.348 114.027C151.447 114.037 151.528 114.232 151.639 114.369H151.643Z" fill="#F8F0EE"/>
<path d="M51.1217 113.874C52.0135 113.869 52.8453 113.467 53.5138 114.351C54.5 113.7 55.5776 113.388 56.7752 113.671C58.0596 113.974 58.9275 114.716 59.1253 116.046C59.2572 116.923 59.2677 117.823 59.2842 118.714C59.3081 119.979 59.3036 121.246 59.2842 122.511C59.2722 123.336 59.2137 123.373 58.3804 123.405C58.2695 123.409 58.1571 123.408 58.0447 123.405C57.0765 123.385 57.0255 123.351 57.015 122.4C57 121.023 57.021 119.645 57.003 118.267C56.997 117.785 56.9655 117.295 56.8621 116.827C56.6793 115.997 56.2881 115.683 55.4847 115.61C54.5944 115.529 53.9035 115.829 53.6592 116.567C53.4523 117.192 53.3474 117.871 53.322 118.532C53.2695 119.871 53.2845 121.213 53.307 122.553C53.3174 123.173 53.0761 123.456 52.4526 123.405C52.3043 123.393 52.1544 123.408 52.006 123.405C51.0827 123.382 51.0498 123.363 51.0333 122.465C51.0153 121.571 51.0288 120.678 51.0288 119.784C51.0288 118.108 51.0258 116.433 51.0333 114.757C51.0333 114.502 51.0812 114.247 51.1187 113.877L51.1217 113.874Z" fill="#F8F0EE"/>
<path d="M10.6391 113.938C10.8429 113.892 11.0168 113.827 11.1966 113.812C12.7659 113.689 12.8153 113.739 12.8198 115.328C12.8243 116.815 12.7853 118.304 12.8498 119.789C12.9097 121.15 13.8795 121.886 15.0815 121.591C15.9433 121.379 16.387 120.846 16.4229 119.789C16.4724 118.34 16.4514 116.889 16.4559 115.439C16.4604 113.698 16.5443 113.62 18.2934 113.836C18.3984 113.85 18.4958 113.916 18.7116 114.007C18.7116 114.968 18.7146 115.965 18.7116 116.962C18.7071 118.04 18.7386 119.121 18.6801 120.196C18.5887 121.876 17.6175 123.041 16.0048 123.508C14.9331 123.82 13.8705 123.795 12.8363 123.364C11.6567 122.873 10.7485 122.011 10.6765 120.741C10.5476 118.49 10.6406 116.228 10.6406 113.94L10.6391 113.938Z" fill="#F8F0EE"/>
<path d="M37.6935 115.318C37.1719 115.666 36.7148 115.97 36.2112 116.307C35.9609 116.136 35.739 115.943 35.4843 115.824C35.222 115.703 34.8997 115.544 34.6539 115.604C34.3766 115.672 34.0544 115.922 33.945 116.175C33.8775 116.331 34.1128 116.742 34.3182 116.867C34.9492 117.253 35.6371 117.547 36.2921 117.897C37.7175 118.655 38.251 119.579 38.0562 120.922C37.8524 122.335 36.8182 123.369 35.3359 123.64C33.4354 123.99 32.07 123.236 31.3191 121.333C31.8467 121.059 32.3877 120.777 32.9573 120.48C33.2196 120.805 33.4024 121.083 33.6347 121.309C34.1983 121.855 35.0706 121.832 35.5187 121.285C35.9699 120.735 35.8035 120.087 35.0271 119.636C34.4516 119.3 33.8191 119.065 33.2315 118.745C32.043 118.1 31.6083 117.33 31.7747 116.129C31.9426 114.911 32.6185 114.087 33.8041 113.724C35.3808 113.241 36.7777 113.784 37.692 115.316L37.6935 115.318Z" fill="#F8F0EE"/>
<path d="M81.7508 119.1C82.4343 117.591 83.0982 116.339 83.5689 115.018C83.9421 113.97 84.585 113.661 85.5892 113.8C85.8725 113.839 86.1573 113.868 86.6504 113.926C85.0167 117.3 83.4445 120.546 81.8722 123.793C81.7778 123.802 81.6834 123.81 81.589 123.819C80.0107 120.577 78.434 117.336 76.8228 114.025C77.6276 113.674 78.3351 113.761 79.0035 113.872C79.2433 113.913 79.4846 114.297 79.6165 114.574C80.1951 115.779 80.7316 117.006 81.2877 118.222C81.3926 118.45 81.52 118.669 81.7478 119.1H81.7508Z" fill="#F8F0EE"/>
<path d="M113.302 115.841C112.668 115.906 112.23 115.951 111.673 116.008C111.65 116.373 111.61 116.732 111.608 117.089C111.601 118.798 111.61 120.509 111.604 122.218C111.599 123.395 111.58 123.41 110.426 123.404C110.131 123.402 109.837 123.374 109.363 123.347C109.29 120.906 109.372 118.475 109.317 116.08C108.192 115.867 107.632 115.45 107.637 114.829C107.642 114.241 108.203 113.853 109.32 113.664V110.162C109.522 110.04 109.58 109.976 109.645 109.97C110.951 109.856 111.604 110.453 111.604 111.76C111.604 112.021 111.604 112.28 111.604 112.541C111.61 113.627 111.608 113.646 112.696 113.802C113.106 113.86 113.3 114.033 113.299 114.436C113.299 114.874 113.299 115.31 113.299 115.843L113.302 115.841Z" fill="#F8F0EE"/>
<path d="M68.5013 114.331C70.0601 113.37 71.0403 113.325 72.2679 114.163C72.0146 114.742 71.7523 115.339 71.4885 115.943C71.2562 115.917 71.1108 115.913 70.9714 115.886C69.3017 115.564 68.4159 116.223 68.3185 117.94C68.26 118.976 68.299 120.017 68.296 121.056C68.296 121.463 68.3005 121.873 68.296 122.281C68.281 123.389 68.266 123.402 67.1719 123.405C66.0748 123.408 66.0358 123.383 66.0313 122.3C66.0223 119.888 66.0178 117.477 66.0388 115.064C66.0418 114.655 65.8095 114.037 66.3626 113.896C66.9726 113.74 67.6725 113.583 68.2586 114.076C68.338 114.144 68.4039 114.226 68.5028 114.331H68.5013Z" fill="#F8F0EE"/>
<path d="M120.574 115.934C118.122 115.55 117.419 116.166 117.406 118.577C117.398 119.843 117.413 121.11 117.4 122.375C117.389 123.353 117.347 123.383 116.399 123.405C115.177 123.434 115.134 123.399 115.131 122.198C115.125 119.778 115.126 117.358 115.132 114.938C115.132 114.613 115.174 114.288 115.195 113.988C116.511 113.662 116.886 113.712 117.536 114.274C118.029 114.063 118.513 113.742 119.036 113.662C119.604 113.576 120.213 113.674 120.792 113.767C121.235 113.838 121.419 114.133 121.199 114.589C120.991 115.022 120.793 115.462 120.574 115.934Z" fill="#F8F0EE"/>
<path d="M99.7217 123.253C97.505 123.64 97.427 123.577 97.427 121.595C97.427 119.435 97.4135 117.276 97.439 115.117C97.4435 114.679 97.1768 113.998 97.8362 113.886C98.5092 113.77 99.329 113.457 99.8761 114.35C100.739 113.691 101.696 113.386 102.784 113.67C103.605 113.883 103.7 114.043 103.374 114.829C103.22 115.201 103.031 115.557 102.857 115.923C102.682 115.923 102.571 115.943 102.468 115.92C100.705 115.541 99.8027 116.195 99.7412 117.973C99.6947 119.312 99.7262 120.654 99.7232 121.994C99.7232 122.397 99.7232 122.799 99.7232 123.255L99.7217 123.253Z" fill="#F8F0EE"/>
<path d="M73.4142 113.887H75.586C75.6279 114.22 75.6879 114.474 75.6879 114.726C75.6954 117.285 75.7044 119.844 75.6759 122.404C75.6729 122.721 75.4885 123.282 75.3207 123.308C74.7556 123.398 74.1606 123.311 73.5806 123.254C73.5131 123.248 73.4217 123.005 73.4202 122.871C73.4112 119.912 73.4127 116.951 73.4127 113.887H73.4142Z" fill="#F8F0EE"/>
<path d="M146.874 113.874C146.905 114.257 146.95 114.55 146.952 114.841C146.958 117.334 146.965 119.829 146.943 122.322C146.94 122.66 146.815 123.256 146.662 123.285C146.097 123.391 145.493 123.337 144.912 123.274C144.817 123.264 144.697 122.901 144.697 122.7C144.682 119.983 144.693 117.265 144.682 114.548C144.681 114.036 144.886 113.779 145.408 113.805C145.881 113.827 146.355 113.85 146.875 113.874H146.874Z" fill="#F8F0EE"/>
<path d="M74.5102 112.634C73.7098 112.608 73.1208 111.997 73.1238 111.196C73.1268 110.35 73.7908 109.703 74.6151 109.74C75.4274 109.778 76.0749 110.499 76.0165 111.305C75.961 112.084 75.3075 112.661 74.5087 112.635L74.5102 112.634Z" fill="#F8F0EE"/>
<path d="M145.835 109.739C146.648 109.748 147.299 110.439 147.264 111.254C147.229 112.046 146.615 112.632 145.82 112.631C144.982 112.631 144.366 111.977 144.405 111.129C144.441 110.334 145.063 109.73 145.835 109.739Z" fill="#F8F0EE"/>
<path d="M88.869 47.1089C86.8216 47.1089 84.7742 47.1164 82.7284 47.1059C81.7407 47.0999 81.7167 47.0789 81.7137 46.1029C81.7032 43.4236 81.7032 40.7443 81.7137 38.065C81.7182 37.1564 81.7646 37.1024 82.6564 37.0994C86.8246 37.0889 90.9928 37.0889 95.1624 37.0994C96.0647 37.1009 96.1216 37.1594 96.1261 38.0485C96.1396 40.7278 96.1381 43.4071 96.1261 46.0864C96.1216 47.0669 96.0917 47.0984 95.122 47.1044C93.0371 47.1164 90.9538 47.1089 88.869 47.1089Z" fill="#F8F0EE"/>
</svg>
