<svg width="393" height="105" viewBox="0 0 393 105" fill="none" xmlns="http://www.w3.org/2000/svg">
<path d="M104.589 53.7829C104.583 78.4215 85.6682 100.404 60.2664 104.294C31.9516 108.628 5.29147 89.1841 0.851617 60.9622C-3.68261 32.1319 16.1929 5.22118 45.1013 1.18259C53.2281 0.047588 61.25 0.750417 69.0538 3.42113C70.7778 4.01066 70.8889 4.22046 70.2681 5.85687C69.8088 7.0674 69.2677 8.24856 68.8902 9.48217C68.5421 10.6214 67.9633 10.7179 66.9209 10.3612C57.6469 7.17229 48.2178 6.82195 38.9647 10.0067C20.8698 16.2334 10.0983 28.9304 7.7788 47.9547C4.87622 71.7604 21.8093 93.4807 45.5459 97.15C70.3478 100.985 93.7866 83.5384 96.8674 58.6271C98.9626 41.6839 92.8931 27.873 79.647 17.1628C77.944 15.7845 77.9042 15.774 79.1625 13.9529C79.7518 13.1012 80.337 12.2452 80.9347 11.3976C81.8826 10.0591 82.1993 10.013 83.552 11.0284C89.785 15.7047 94.7639 21.4616 98.4403 28.3303C102.53 35.9669 104.487 44.1427 104.587 53.7808L104.589 53.7829Z" fill="#F8F0EE"/>
<path d="M52.3831 11.7312C72.7703 11.7375 90.1984 26.8869 93.0611 47.0946C96.2237 69.4128 80.4043 90.5855 58.0079 93.3443C40.8357 95.4591 27.3127 88.9134 17.6045 74.5969C16.5517 73.0444 16.6419 72.8513 18.2484 71.9954C19.3453 71.41 20.461 70.8541 21.5306 70.2247C22.5079 69.6499 23.0951 69.7212 23.7851 70.789C28.959 78.7823 36.205 83.8552 45.5461 85.8672C63.9619 89.8323 82.6609 77.127 85.6746 58.6187C88.6758 40.1776 77.0717 23.3434 58.7754 19.5965C40.3176 15.818 21.6984 28.8548 18.9279 47.4722C18.3889 51.0912 18.3386 54.6955 18.9845 58.2914C19.1922 59.4474 18.9048 60.0118 17.701 60.2174C16.428 60.4335 15.1843 60.83 13.926 61.1321C12.2377 61.5391 12.1664 61.5055 11.8875 59.8733C11.1975 55.8158 10.9332 51.7185 11.5918 47.6547C14.3769 30.4807 24.0158 18.9755 40.5966 13.5627C44.3422 12.3396 48.3962 12.0564 52.3076 11.3389C52.3306 11.4689 52.3558 11.6011 52.3789 11.7312H52.3831Z" fill="#F8F0EE"/>
<path d="M52.3096 82.6343C36.723 82.6343 23.89 70.8836 22.4659 55.3103C21.0692 40.035 31.9958 25.922 47.2679 23.2722C65.5243 20.1043 82.2456 34.1859 82.275 52.7152C82.2813 56.3341 81.7003 59.8231 80.421 63.2029C79.8275 64.768 79.7772 64.789 78.3573 64.0379C77.2123 63.4316 76.107 62.7372 74.9221 62.2232C73.7455 61.7113 73.498 61.1028 73.8986 59.8315C76.451 51.7312 75.0374 44.2855 69.4399 37.9203C63.4565 31.1145 55.7512 28.6074 46.947 30.7914C38.1659 32.9691 32.5075 38.7553 30.2719 47.5143C27.8495 57.0034 31.9434 66.6793 40.2904 72.0039C48.306 77.1167 58.7188 76.5565 66.3611 70.6003C67.8376 69.4507 67.9739 69.4486 69.3812 70.6969C70.2725 71.4878 71.1177 72.3375 72.0405 73.0906C73.0388 73.9067 72.8773 74.5466 71.9859 75.346C66.7806 80.0118 59.7506 82.6364 52.3075 82.6364L52.3096 82.6343Z" fill="#F8F0EE"/>
<path d="M245.633 64.5288C246.958 62.3616 248.051 60.572 248.993 59.0342C251.885 59.9363 254.534 61.0168 257.289 61.5329C259.043 61.8623 260.989 61.5308 262.782 61.1679C264.29 60.8616 265.252 59.7119 265.397 58.065C265.548 56.353 264.573 55.2495 263.166 54.6872C261.205 53.9005 259.131 53.397 257.119 52.7298C255.255 52.113 253.334 51.6011 251.568 50.7682C244.716 47.5374 245.138 38.4972 250.031 34.8509C252.354 33.1201 254.968 32.3061 257.832 32.132C262.593 31.8424 267.077 32.8453 271.555 34.9286C270.676 36.7979 269.829 38.5979 269.13 40.0854C265.997 39.4686 263.094 38.749 260.146 38.3881C258.835 38.2287 257.379 38.6378 256.088 39.0783C254.72 39.5441 253.95 40.7106 253.932 42.2001C253.913 43.6016 254.733 44.5918 255.943 45.0848C257.612 45.7646 259.366 46.2408 261.081 46.8073C263.239 47.5206 265.471 48.0702 267.534 48.9954C271.213 50.6423 272.949 53.6425 272.918 57.6664C272.889 61.6756 271.104 64.6274 267.49 66.3624C262.805 68.6094 257.908 68.3786 253.049 67.1492C250.58 66.5261 248.225 65.4624 245.633 64.5309V64.5288Z" fill="#F8F0EE"/>
<path d="M352.305 56.6091C352.464 60.247 355.103 62.5443 358.873 62.0995C361.241 61.8205 363.544 60.9771 366.136 60.3204C366.874 61.4449 367.858 62.9408 368.898 64.5269C366.222 66.5011 363.303 67.6717 360.115 67.892C358.022 68.0368 355.811 68.0011 353.798 67.4829C348.307 66.0668 345.426 62.1457 344.663 56.7056C343.964 51.7188 344.811 47.0822 348.719 43.4548C352.731 39.7289 359.685 38.9253 364.402 41.6863C367.944 43.7591 369.41 47.0969 369.685 51.0159C369.781 52.3964 369.515 53.7979 369.494 55.1909C369.477 56.3553 368.923 56.6448 367.829 56.6322C363.21 56.5819 358.59 56.6112 353.972 56.6112C353.418 56.6112 352.865 56.6112 352.303 56.6112L352.305 56.6091ZM362.592 51.1418C362.898 47.7074 361.161 45.5004 358.167 45.4186C355.048 45.3326 352.246 48.1081 352.391 51.1418H362.592Z" fill="#F8F0EE"/>
<path d="M232.167 56.6048H215.078C215.108 60.1126 217.792 62.3364 221.576 62.177C224.08 62.0721 226.336 61.2434 228.635 59.9007C229.621 61.3986 230.606 62.8903 231.674 64.512C229.247 66.375 226.569 67.4114 223.681 67.8142C218.61 68.5213 213.87 67.81 210.379 63.6183C207.44 60.0895 206.868 55.8873 207.417 51.4563C208.095 45.989 211.859 41.7595 217.216 40.4756C219.472 39.9343 221.743 39.9133 223.998 40.4462C229.241 41.6861 232.259 45.6177 232.488 51.6284C232.548 53.2124 232.29 54.8068 232.167 56.6048ZM214.995 51.1312H225.428C225.617 47.8541 224.097 45.752 221.395 45.4541C218.203 45.1016 215.611 47.3632 214.992 51.1312H214.995Z" fill="#F8F0EE"/>
<path d="M324.327 56.5838C324.862 60.4357 327.215 62.3302 330.911 62.177C333.417 62.0742 335.676 61.2497 337.966 59.9049C338.96 61.3945 339.954 62.8861 341.034 64.5037C338.633 66.3394 335.965 67.3947 333.073 67.8017C328.247 68.4814 323.769 67.8352 320.154 64.1218C314.588 58.4069 314.552 43.4086 326.536 40.4798C328.79 39.928 331.064 39.9071 333.318 40.4358C338.981 41.7617 342.204 46.5073 341.846 52.9942C341.781 54.1628 341.56 55.3229 341.401 56.5817H324.325L324.327 56.5838ZM324.308 51.1081H334.814C334.893 47.7849 333.463 45.8003 330.846 45.4709C327.656 45.0681 325.231 47.1094 324.308 51.1081Z" fill="#F8F0EE"/>
<path d="M164.903 51.3893C165.012 51.2025 165.054 51.1606 165.061 51.1165C165.549 46.8115 164.018 45.3723 159.706 46.1653C158.543 46.3793 157.4 46.7549 156.282 47.1514C155.212 47.5311 154.189 48.0388 152.997 48.5549C152.138 46.7884 151.284 45.0408 150.376 43.1778C155.462 40.7211 160.627 39.3091 166.208 40.6602C170.333 41.6589 172.443 44.682 172.493 49.4885C172.529 52.9061 172.548 56.3258 172.479 59.7434C172.447 61.3001 172.812 62.4099 174.609 62.5337V67.5604C171.376 67.4639 168.19 67.6087 166.019 64.4617C164.226 66.0541 162.383 67.508 159.975 67.7744C158.597 67.9276 157.163 68.0324 155.806 67.8206C152.626 67.3233 150.439 65.2212 149.885 62.4267C149.264 59.2986 150.521 56.3426 153.304 54.5236C156.439 52.4739 160.029 51.9347 163.645 51.5005C164.052 51.4522 164.463 51.427 164.901 51.3893H164.903ZM165.13 55.5223C162.825 55.602 160.757 55.9083 158.897 57.0307C157.355 57.9622 156.712 59.5902 157.255 60.9749C157.775 62.305 159.079 62.8924 161.03 62.6743C162.932 62.4624 165.033 61.2057 165.105 60.0895C165.201 58.6126 165.128 57.123 165.128 55.5223H165.13Z" fill="#F8F0EE"/>
<path d="M202.925 67.3209H195.565V65.5964C195.565 60.3662 195.574 55.1359 195.563 49.9057C195.555 46.1881 193.208 44.5684 189.798 46.1084C187.246 47.2601 186.268 48.1581 186.367 50.9568C186.539 55.8178 186.415 60.6914 186.415 65.5587V67.3063H179.205V40.8613H185.908C186.054 41.669 186.208 42.5103 186.396 43.5446C186.784 43.2383 187.118 42.9782 187.449 42.7139C189.855 40.7879 192.552 39.7767 195.668 40.1606C199.997 40.6935 202.511 43.2027 202.753 47.6105C202.973 51.6386 202.893 55.6814 202.927 59.7179C202.948 62.1998 202.931 64.6817 202.931 67.323L202.925 67.3209Z" fill="#F8F0EE"/>
<path d="M375.979 34.1185H383.371V40.7544H389.218V45.8777H383.409C383.409 47.47 383.409 48.8505 383.409 50.233C383.409 53.1324 383.401 56.0339 383.411 58.9333C383.422 61.7089 384.726 62.6593 387.406 61.8285C388.042 61.6313 388.646 61.3313 389.468 60.9956C390.301 62.3488 391.154 63.7356 392.085 65.2482C390.206 66.8846 388.036 67.6063 385.72 67.9126C384.653 68.0532 383.537 68.0238 382.461 67.9C378.302 67.4217 376.079 64.7237 376.006 60.0012C375.943 55.9626 375.991 51.9219 375.991 47.8812C375.991 47.3148 375.991 46.7462 375.991 45.9721H371.889V40.8069H375.976V34.1165L375.979 34.1185Z" fill="#F8F0EE"/>
<path d="M122.611 63.1777C124.274 61.6672 125.879 60.2091 127.313 58.9083C128.672 59.6993 129.857 60.6958 131.22 61.1196C134.117 62.0196 136.529 60.3916 137.051 57.4251C137.175 56.716 137.202 55.9817 137.204 55.26C137.214 48.4185 137.21 41.5791 137.21 34.7376C137.21 34.1271 137.21 33.5166 137.21 32.7949H144.777V34.5362C144.777 41.791 144.809 49.0479 144.75 56.3027C144.737 57.7335 144.534 59.2105 144.135 60.5825C143.217 63.7526 141.176 65.9827 138.037 67.1639C132.569 69.222 126.485 67.7135 122.611 63.1777Z" fill="#F8F0EE"/>
<path d="M286.07 40.7693H292.014V45.8359H286.456C286.295 46.1401 286.164 46.2702 286.164 46.4024C286.16 50.7011 286.085 55.0019 286.204 59.2986C286.271 61.7511 287.553 62.54 289.958 61.8854C290.697 61.684 291.399 61.3546 292.202 61.0525C292.372 61.277 292.572 61.5036 292.729 61.7553C293.431 62.8966 294.121 64.0463 294.801 65.1708C291.913 68.0345 285.64 68.9199 282.23 66.973C279.562 65.4498 278.868 62.8693 278.816 60.0769C278.74 55.9838 278.795 51.8886 278.795 47.7933C278.795 47.2353 278.795 46.6772 278.795 45.9618H274.718V40.7861H278.736V34.188H286.072V40.7651L286.07 40.7693Z" fill="#F8F0EE"/>
<path d="M298.177 67.2855V40.8804H304.865C305.039 42.0595 305.201 43.163 305.409 44.5728C308.057 40.4126 311.6 39.1706 316.258 40.5174C315.907 42.7539 315.568 44.9211 315.217 47.1575C314.565 47.0233 314.068 46.9016 313.565 46.824C309.853 46.2428 307.317 47.5499 305.725 50.9381C305.476 51.471 305.436 52.1381 305.432 52.7444C305.409 56.9928 305.419 61.2433 305.419 65.4917C305.419 66.0539 305.419 66.6162 305.419 67.2876H298.177V67.2855Z" fill="#F8F0EE"/>
</svg>
