<svg width="218" height="29" viewBox="0 0 218 29" fill="none" xmlns="http://www.w3.org/2000/svg">
<path d="M14.0594 0.675913C19.7336 0.67304 25.3519 0.64159 30.9692 0.683381C34.4981 0.709805 37.5964 1.94025 40.2095 4.32892C42.7869 6.68412 44.3088 9.59653 44.6786 13.0746C45.1412 17.4266 43.8504 21.1982 40.8152 24.3592C38.7154 26.5465 36.1461 27.8627 33.173 28.3925C32.5734 28.4993 31.956 28.552 31.3466 28.5535C25.6709 28.5652 19.9957 28.5535 14.3201 28.5638C12.1276 28.5675 10.0623 28.0481 8.13994 27.0292C4.57858 25.1412 2.13579 22.2744 1.11323 18.362C-0.219914 13.2633 0.948065 8.73071 4.59317 4.89445C6.94607 2.41819 9.88814 1.11105 13.258 0.718565C13.5046 0.689843 13.7544 0.690992 14.0594 0.675913ZM36.8797 20.9321C39.0387 18.6389 39.8519 15.9416 39.2641 12.8461C38.8985 10.9192 37.9489 9.29883 36.4985 7.98882C34.8454 6.4957 32.8986 5.67268 30.6586 5.66549C25.3288 5.64812 19.9986 5.65659 14.6688 5.66549C14.193 5.6665 13.7093 5.70456 13.2434 5.79632C8.45382 6.73754 5.27505 11.2231 6.02702 16.0258C6.74983 20.6413 10.7032 23.6172 14.817 23.6134C20.032 23.6083 25.247 23.612 30.4619 23.6124C32.9424 23.6124 35.0524 22.7141 36.8797 20.9321Z" fill="#F8F0EE"/>
<path d="M73.7389 23.7503C75.616 25.3277 77.4635 26.8764 79.3948 28.4962C79.16 28.5258 79.0231 28.5578 78.8861 28.5584C76.6043 28.5617 74.3224 28.5536 72.0406 28.5683C71.7032 28.5706 71.4608 28.4511 71.2218 28.2426C69.2891 26.5565 67.3508 24.8765 65.4162 23.1923C62.9762 21.0681 60.5386 18.941 58.1001 16.8154C57.35 16.1613 56.5999 15.5071 55.8512 14.8521C55.7994 14.8069 55.7566 14.7519 55.6446 14.631C55.91 14.6163 56.0921 14.5975 56.2738 14.5975C59.9937 14.5956 63.7137 14.5961 67.4336 14.5965C68.6406 14.5965 69.8496 14.6455 71.0538 14.5903C73.194 14.4924 74.9083 12.8327 75.1864 10.7255C75.5219 8.18388 73.7144 6.04036 71.45 5.69785C71.2618 5.66913 71.0688 5.66065 70.8782 5.66065C65.164 5.65879 59.4497 5.65922 53.7355 5.65922H53.0531V28.519H47.6645C47.5403 28.1224 47.4984 1.5468 47.6306 0.709558C47.8551 0.697351 48.0956 0.672794 48.336 0.672794C55.91 0.670927 63.4845 0.672363 71.0585 0.669922C72.0034 0.669922 72.9389 0.770162 73.8316 1.07131C77.5294 2.31928 79.8174 4.84495 80.4597 8.71164C80.9736 11.8076 80.0245 14.5201 77.8541 16.7591C76.3723 18.2875 74.5328 19.2189 72.3987 19.456C71.4702 19.5595 70.5267 19.5303 69.5898 19.5585C69.3691 19.5651 69.1479 19.5595 68.9267 19.5595C68.9121 19.6033 68.8976 19.647 68.883 19.6913C70.4914 21.0348 72.1008 22.3787 73.7389 23.7503Z" fill="#F8F0EE"/>
<path d="M199.11 23.6113H217.397C217.338 23.7727 217.318 23.8819 217.262 23.9685C216.373 25.3547 215.467 26.7312 214.594 28.1284C214.381 28.4696 214.136 28.5684 213.753 28.5674C208.172 28.5571 202.592 28.5825 197.013 28.5495C194.808 28.5363 192.749 27.8808 190.837 26.791C187.785 25.0517 185.667 22.5186 184.492 19.21C184.094 18.0885 183.876 16.9277 183.775 15.7356C183.548 13.0646 184.063 10.5422 185.315 8.19451C187.328 4.41757 190.449 2.03077 194.614 1.02521C195.698 0.763557 196.801 0.669493 197.916 0.669923C203.995 0.674088 210.074 0.67179 216.152 0.67179H216.979C216.89 0.863797 216.845 1.00023 216.77 1.11784C215.887 2.4863 214.985 3.84298 214.124 5.22509C213.907 5.57291 213.664 5.66654 213.283 5.66554C208.221 5.65663 203.159 5.66841 198.096 5.6552C196.13 5.65003 194.359 6.22748 192.779 7.37047C191.281 8.45415 190.218 9.88436 189.587 11.6264C189.53 11.7826 189.502 11.9492 189.445 12.1693H215.444C215.368 12.3473 215.335 12.4672 215.271 12.5674C214.366 13.9895 213.453 15.4079 212.55 16.8313C212.414 17.0455 212.26 17.141 211.993 17.1368C210.919 17.1199 209.845 17.1298 208.771 17.1298H189.46C189.562 17.7693 189.813 18.287 190.084 18.7839C191.568 21.5113 193.863 23.1048 196.927 23.5542C197.623 23.6563 198.343 23.5962 199.11 23.6113Z" fill="#F8F0EE"/>
<path d="M95.6769 14.9938C93.5965 18.2836 91.5368 21.5372 89.478 24.7913C88.7504 25.9409 88.022 27.0896 87.3034 28.2448C87.1829 28.4387 87.0639 28.5648 86.8131 28.5634C84.8762 28.5545 82.9392 28.5563 81.0023 28.5526C80.9511 28.5526 80.8997 28.5243 80.7788 28.4881C81.0927 27.9832 81.3854 27.4994 81.6903 27.0231C84.7571 22.2307 87.8262 17.4398 90.8939 12.6478C93.084 9.22715 95.276 5.80794 97.4604 2.384C98.0651 1.43631 98.8769 0.764794 99.9842 0.534157C101.674 0.182169 103.288 0.645742 104.271 2.14733C105.846 4.55193 107.381 6.9821 108.934 9.40135C110.993 12.6107 113.054 15.8196 115.113 19.029C117.08 22.0934 119.046 25.1574 121.012 28.2227C121.06 28.2985 121.093 28.3841 121.159 28.5164C120.96 28.5343 120.816 28.5588 120.672 28.5588C118.888 28.5616 117.104 28.548 115.321 28.5705C114.938 28.5753 114.733 28.4368 114.548 28.1231C113.788 26.836 112.99 25.5711 112.241 24.2779C111.994 23.8515 111.729 23.6713 111.208 23.6742C106.816 23.7 102.424 23.6816 98.0322 23.6991C97.5579 23.701 97.2675 23.5683 97.013 23.1552C96.2097 21.8502 95.3612 20.5735 94.5321 19.2842C94.4422 19.144 94.3664 18.9948 94.2332 18.7604C95.8742 18.7185 97.4346 18.7458 98.9941 18.7412C100.547 18.736 102.101 18.7402 103.654 18.7402H108.37C108.263 18.2573 102.267 8.51068 100.964 6.67822C100.025 8.04811 99.1927 9.45563 98.3075 10.8278C97.4247 12.1963 96.5668 13.5801 95.6769 14.9938Z" fill="#F8F0EE"/>
<path d="M127.948 22.2409C129.453 23.1746 131.05 23.616 132.783 23.6131C138.958 23.6037 145.134 23.6094 151.309 23.6094H152.059C151.991 23.7915 151.967 23.9176 151.903 24.0184C151.004 25.4226 150.093 26.8188 149.205 28.2296C149.035 28.4993 148.834 28.5647 148.542 28.5628C147.027 28.5533 145.512 28.5586 143.997 28.5586C140.084 28.5586 136.172 28.5427 132.259 28.5648C129.963 28.578 127.815 28.0322 125.813 26.9427C122.091 24.9168 119.695 21.8355 118.76 17.6963C117.854 13.6897 118.603 9.95469 120.974 6.60657C123.355 3.2438 126.635 1.29989 130.738 0.787349C131.306 0.716262 131.882 0.676338 132.454 0.675333C138.591 0.667291 144.728 0.670594 150.865 0.670594H151.634C151.555 0.859728 151.518 0.998168 151.445 1.11291C150.549 2.51813 149.642 3.91661 148.752 5.326C148.6 5.5664 148.428 5.68459 148.147 5.66018C147.994 5.64696 147.84 5.65831 147.686 5.65831C142.604 5.65831 137.522 5.63763 132.44 5.66779C130.2 5.681 128.269 6.54352 126.626 8.05645C125.166 9.39992 124.236 11.0517 123.895 12.9981C123.366 16.0099 124.166 18.6549 126.279 20.8695C126.763 21.3773 127.365 21.7728 127.948 22.2409Z" fill="#F8F0EE"/>
<path d="M171.947 23.6086H184.948C184.877 23.77 184.848 23.8721 184.793 23.9582C183.886 25.379 182.965 26.7917 182.073 28.2217C181.872 28.5454 181.613 28.5611 181.296 28.5605C177.691 28.5558 174.087 28.5576 170.482 28.5576C166.11 28.5576 161.739 28.5223 157.368 28.5788C156.013 28.5961 154.535 27.504 154.54 25.7585C154.565 17.5907 154.551 9.42277 154.552 1.25496C154.552 1.08608 154.57 0.917046 154.582 0.709961H159.952C159.969 2.22289 159.958 3.73065 159.96 5.23741C159.962 6.77145 159.96 8.30506 159.96 9.83924V23.4687C160.023 23.5322 160.035 23.5478 160.051 23.5586C160.065 23.5694 160.083 23.5826 160.1 23.5826C164.03 23.592 167.96 23.6005 171.947 23.6086Z" fill="#F8F0EE"/>
</svg>
