<svg width="335" height="112" viewBox="0 0 335 112" fill="none" xmlns="http://www.w3.org/2000/svg">
<path d="M247.134 45.1593H256.364V26.6793L270.259 1.45937H259.649L247.129 24.8093V45.1593H247.134ZM239.029 20.5894H249.389L239.029 1.45437H228.639L239.029 20.5894ZM218.564 16.5644C218.564 21.0594 216.124 23.2444 211.459 23.2444H202.539V10.1044H211.144C215.804 10.1044 218.559 12.0694 218.559 16.5644H218.564ZM192.994 45.1593H202.539V31.8943H211.459C211.989 31.8943 212.524 31.8643 213.054 31.8343L220.034 45.1643H230.234L221.689 29.1193C225.759 26.3393 227.729 21.7544 227.729 16.5694C227.729 8.10937 222.504 1.45937 211.144 1.45937H192.994V45.1593ZM179.819 23.2444H175.534C175.534 28.8943 171.309 33.0793 166.019 33.0793V37.3543C158.259 37.3543 152.624 30.9543 152.624 23.2444C152.624 14.9094 157.629 9.32437 166.019 9.32437C173.779 9.32437 179.819 15.2244 179.819 23.2444ZM166.019 46.1543V41.6593C176.189 41.6593 183.824 33.7643 183.824 23.2444H188.519C188.519 10.7894 178.819 0.364375 166.019 0.364375C152.279 0.364375 143.424 9.88436 143.424 23.2444C143.424 35.6993 153.219 46.1543 166.019 46.1543ZM119.989 45.1593H129.629V10.0744H143.494V1.42437H106.159V10.0694H119.989V45.1543V45.1593ZM86.8794 46.1543C96.4543 46.1543 104.214 40.4093 104.214 30.7943C104.214 21.7444 97.4243 15.4344 86.8444 15.4344V22.0844C81.9644 22.0844 78.3944 19.9594 78.3944 15.5594C78.3944 11.1594 81.4944 8.56937 87.0944 8.56937C91.6944 8.56937 94.4793 10.4744 95.1693 12.9694H103.679C103.024 6.00937 96.4493 0.359375 86.9044 0.359375C76.8294 0.359375 69.6594 6.63437 69.6594 15.8094C69.6594 24.9844 77.1094 30.4793 86.8394 30.4793V24.1444C92.0044 24.1444 95.5393 26.4543 95.5393 30.9493C95.5393 35.4443 91.9094 37.9743 86.8694 37.9743C82.3294 37.9743 79.1694 35.9743 78.1994 33.2293H69.3744C70.6244 40.4693 77.2894 46.1543 86.8694 46.1543H86.8794ZM264.234 88.4543C264.234 79.9643 269.584 74.3743 277.689 74.3743C285.794 74.3743 291.144 79.9643 291.144 88.4543C291.144 96.9443 285.794 102.529 277.689 102.529C269.584 102.529 264.234 96.9393 264.234 88.4543ZM255.099 88.4543C255.099 101.909 264.394 111.334 277.694 111.334C290.994 111.334 300.289 101.909 300.289 88.4543C300.289 74.9993 290.994 65.5743 277.694 65.5743C264.394 65.5743 255.099 74.9993 255.099 88.4543ZM169.824 88.4843C169.824 79.9943 175.174 74.4043 183.279 74.4043C191.384 74.4043 196.734 79.9943 196.734 88.4843C196.734 96.9743 191.384 102.564 183.279 102.564C175.174 102.564 169.824 96.9743 169.824 88.4843ZM160.684 88.4843C160.684 101.939 169.979 111.364 183.279 111.364C196.579 111.364 205.874 101.939 205.874 88.4843C205.874 75.0293 196.579 65.6043 183.279 65.6043C169.979 65.6043 160.684 75.0293 160.684 88.4843ZM87.0193 88.4543C87.0193 79.9643 92.3693 74.3743 100.474 74.3743C108.579 74.3743 113.929 79.9643 113.929 88.4543C113.929 96.9443 108.579 102.529 100.474 102.529C92.3693 102.529 87.0193 96.9393 87.0193 88.4543ZM77.8794 88.4543C77.8794 101.909 87.1744 111.334 100.474 111.334C113.774 111.334 123.069 101.909 123.069 88.4543C123.069 74.9993 113.774 65.5743 100.474 65.5743C87.1744 65.5743 77.8794 74.9993 77.8794 88.4543ZM9.84943 88.4543V75.3143H17.5144C22.1794 75.3143 24.9294 77.2793 24.9294 81.7743C24.9294 86.2693 22.4894 88.4543 17.8244 88.4543H9.84443H9.84943ZM0.304443 110.364H9.84943V97.0993H17.8294C28.8744 97.0993 34.1044 90.2293 34.1044 81.7743C34.1044 73.3193 28.8794 66.6643 17.5194 66.6643H0.304443V110.364ZM305.389 110.364H334.679V100.779H315.029V66.6293H305.389V110.359V110.364ZM137.244 110.364H146.884V75.2793H160.749V66.6343H123.414V75.2793H137.244V110.364ZM64.5194 81.7743C64.5194 86.2693 62.0794 88.4543 57.4144 88.4543H48.4944V75.3143H57.0994C61.7644 75.3143 64.5144 77.2793 64.5144 81.7743H64.5194ZM38.9544 110.364H48.4994V97.0993H57.4194C57.9494 97.0993 58.4844 97.0693 59.0144 97.0393L65.9944 110.369H76.1944L67.6494 94.3243C71.7194 91.5443 73.6894 86.9593 73.6894 81.7743C73.6894 73.3143 68.4644 66.6643 57.1044 66.6643H38.9544V110.364ZM231.814 111.364C243.019 111.364 250.934 104.374 252.309 93.9443H243.079C241.859 99.3743 237.539 102.559 231.594 102.559C223.834 102.559 218.949 96.9693 218.949 88.4493C218.949 79.9293 223.864 74.5293 231.499 74.5293C237.444 74.5293 241.484 77.6843 242.764 82.9593H251.994C250.179 72.6293 242.044 65.5743 231.309 65.5743C218.699 65.5743 209.809 75.2793 209.809 88.4843C209.809 101.689 218.604 111.364 231.809 111.364H231.814Z" fill="white"/>
</svg>
