<svg width="988" height="1349" viewBox="0 0 988 1349" fill="none" xmlns="http://www.w3.org/2000/svg">
<path d="M103.072 894.193C104.118 895.948 104.821 898.032 106.246 899.402C117.257 910.109 128.182 920.939 139.608 931.207C146.932 937.81 154.834 943.814 162.87 949.525C172.338 956.253 182.241 962.338 191.934 968.753C207.08 978.799 223.038 987.421 239.37 995.289C254.474 1002.56 269.77 1009.54 285.725 1014.87C303.607 1020.85 321.416 1026.97 340.083 1030.11C347.521 1031.37 354.896 1033.08 362.22 1034.86C364.049 1035.31 366.352 1036.42 367.188 1037.95C372.692 1047.88 377.671 1058.05 378.974 1069.55C379.048 1070.23 379.151 1070.92 379.167 1071.59C379.338 1077.03 377.084 1080.01 371.794 1081.05C365.307 1082.31 358.767 1082.13 352.328 1080.86C340.858 1078.62 329.809 1074.89 318.948 1070.64C295.236 1061.38 272.728 1049.65 250.391 1037.53C242.275 1033.13 234.11 1028.77 226.089 1024.16C207.683 1013.59 189.276 1003.03 171.636 991.174C158.558 982.375 145.067 974.148 131.986 965.377C124.314 960.248 117.218 954.256 109.53 949.14C100.103 942.856 91.1333 935.99 82.0102 929.328C68.4339 919.419 54.8676 909.555 42.0888 898.631C39.2379 896.186 36.3994 893.624 33.2571 891.574C18.5028 881.98 6.43693 869.18 -6.88827 857.874C-22.0578 845.008 -36.8046 831.615 -51.5896 818.306C-63.3353 807.741 -74.9848 797.097 -86.4676 786.267C-103.205 770.476 -119.893 754.646 -136.351 738.576C-153.781 721.567 -171.655 705.024 -187.699 686.578C-197.155 675.728 -206.447 664.851 -215.277 653.495C-222.842 643.77 -230.346 634.022 -237.513 624.002C-244.463 614.283 -251.104 604.29 -256.126 593.412C-258.558 588.135 -260.187 582.474 -262.418 577.087C-263.317 574.923 -264.719 572.925 -266.133 571.043C-268.601 567.758 -271.865 566.707 -276.059 566.966C-288.601 567.761 -299.32 573.078 -308.557 580.886C-318.423 589.229 -318.287 600.923 -309.959 611.066C-296.824 627.062 -281.287 640.612 -266.112 654.535C-243.104 675.658 -219.897 696.568 -196.69 717.478C-178.869 733.56 -160.865 749.442 -143.057 765.508C-131.34 776.07 -119.922 786.953 -108.141 797.463C-95.0877 809.121 -81.7175 820.417 -68.6003 832.023C-52.6804 846.113 -37.0136 860.513 -21.0104 874.51C-9.90684 884.215 1.58124 893.476 12.8836 902.967C20.2254 909.132 27.2567 915.734 34.8737 921.517C51.2627 933.955 66.3541 947.972 82.9769 960.141C97.64 970.87 111.297 982.915 125.464 994.309C135.872 1002.69 146.311 1011.05 156.873 1019.23C166.347 1026.59 176.023 1033.71 185.6 1040.93C190.232 1044.43 194.825 1048.02 199.508 1051.45C210.834 1059.75 222.246 1067.94 233.539 1076.27C243.743 1083.81 253.774 1091.59 264.029 1099.07C272.324 1105.1 280.894 1110.75 289.228 1116.69C298.993 1123.66 308.519 1130.95 318.394 1137.72C331.385 1146.65 344.62 1155.21 357.749 1163.94C363.177 1167.54 368.589 1171.16 374.033 1174.74C400.388 1192.13 427.331 1208.53 454.913 1223.89C474.016 1234.53 493.027 1245.36 512.44 1255.43C533.427 1266.3 554.672 1276.67 576.089 1286.67C594.054 1295.05 612.239 1303.01 630.647 1310.4C651.292 1318.68 672.282 1326.21 693.919 1331.64C706.896 1334.9 719.807 1338.5 732.907 1341.16C762.655 1347.18 792.781 1349.23 823.057 1347.8C845.414 1346.74 866.201 1339.74 886.151 1329.98C897.59 1324.38 908.662 1318.08 918.993 1310.61C930.487 1302.28 940.018 1291.85 949.076 1281.03C976.068 1248.77 988.078 1211.13 987.984 1169.48C987.953 1158.87 986.751 1148.22 985.363 1137.67C984.57 1131.6 982.53 1125.66 980.646 1119.78C978.441 1112.92 975.946 1106.15 973.284 1099.44C968.088 1086.34 962.721 1073.33 957.37 1060.3C956.881 1059.11 955.977 1058.09 954.817 1056.29C953.723 1059.96 955.288 1062.23 956.179 1064.61C961.207 1078.19 965.237 1092.04 966.499 1106.54C970.735 1155.62 955.995 1197.39 918.465 1230.24C913.561 1234.54 908.395 1238.56 903.216 1242.56C901.409 1243.96 899.254 1244.91 897.439 1245.98C893.931 1243.64 894.14 1240.29 893.511 1237.37C890.006 1220.92 885.928 1204.61 880.779 1188.58C874.89 1170.26 867.711 1152.48 860.137 1134.83C851.458 1114.6 840.946 1095.31 830.573 1075.97C823.127 1062.09 814.844 1048.62 806.446 1035.27C794.775 1016.69 782.84 998.241 770.68 979.972C764.593 970.83 757.861 962.103 751.187 953.382C740.128 938.972 729.07 924.562 717.613 910.448C705.505 895.559 693.06 880.943 680.518 866.405C669.766 853.95 658.952 841.517 647.68 829.535C631.924 812.792 615.595 796.618 599.788 779.943C583.256 762.501 565.755 746.028 548.114 729.774C524.419 707.932 500.195 686.65 475.987 665.355C463.375 654.243 450.443 643.522 437.462 632.84C421.566 619.765 405.485 606.92 389.439 594.02C375.272 582.625 361.073 571.256 346.82 559.984C338.752 553.61 330.531 547.439 322.411 541.133C321.651 540.553 321.163 539.621 320.074 538.273C325.334 538.347 329.33 540.371 333.312 542.115C356.292 552.172 379.34 562.148 402.149 572.583C417.148 579.459 431.729 587.229 446.635 594.286C480.679 610.419 511.577 631.588 542.017 653.472C597.292 693.224 651.463 734.401 704.065 777.64C714.955 786.589 726.217 795.078 736.976 804.159C755.074 819.434 774.142 833.58 791.035 850.253C798.619 857.735 805.791 865.628 813.032 873.441C816.903 877.608 820.485 882.009 824.905 885.707C815.633 874.231 806.816 862.333 796.964 851.353C779.309 831.635 761.48 812.03 742.911 793.183C720.964 770.911 698.699 748.869 675.566 727.82C555.108 618.224 426.845 518.436 292.582 426.36C217.66 374.997 140.481 327.342 59.6502 285.739C3.93145 257.062 -53.3932 232.175 -112.344 210.857C-131.759 203.835 -151.601 198.352 -171.257 192.214C-190.612 186.152 -210.167 180.729 -229.723 175.306C-251.601 169.24 -273.489 163.261 -295.491 157.666C-310.863 153.743 -325.416 147.781 -339.893 141.518C-358.775 133.349 -377.58 125.012 -396.44 116.772C-414.951 108.702 -433.503 100.744 -451.979 92.6184C-470.82 84.3366 -489.565 75.8448 -508.412 67.6211C-534.803 56.1014 -561.187 44.5237 -587.734 33.3689C-611.149 23.53 -634.715 14.2913 -659.771 8.98811C-690.998 2.38365 -722.017 -5.21118 -753.121 -12.4189C-778.524 -18.3166 -803.906 -24.4174 -829.338 -30.1861C-855.444 -36.0997 -881.635 -41.6263 -907.76 -47.498C-925.846 -51.5617 -943.833 -55.9966 -961.916 -60.0894C-981.66 -64.5641 -1001.44 -68.8808 -1021.21 -73.1685C-1030.31 -75.1324 -1039.41 -76.8482 -1048.51 -78.651C-1049.67 -78.8775 -1050.85 -78.9588 -1052.41 -77.8621C-1045.12 -74.2265 -1037.9 -70.407 -1030.5 -66.9944C-1017.74 -61.1196 -1004.74 -55.7617 -992.075 -49.677C-963.679 -36.0368 -935.376 -22.2157 -907.136 -8.21059C-892.39 -0.892012 -877.799 6.79147 -863.295 14.5978C-840.058 27.0737 -816.802 39.5076 -793.833 52.4391C-773.246 64.0318 -752.988 76.2352 -732.624 88.2737C-719.37 96.1086 -706.107 103.989 -693.013 112.085C-680.485 119.843 -668.135 127.905 -655.729 135.841C-639.269 146.364 -622.703 156.722 -606.402 167.507C-593.529 176.021 -581.087 185.149 -568.32 193.827C-560.395 199.203 -552.119 204.03 -544.242 209.444C-535.777 215.259 -527.674 221.578 -519.245 227.448C-500.084 240.724 -480.836 253.876 -462.331 268.079C-453.378 274.959 -443.848 281.107 -434.725 287.769C-423.939 295.635 -413.26 303.666 -402.577 311.668C-391.593 319.878 -380.639 328.085 -369.741 336.418C-364.013 340.783 -358.506 345.433 -352.81 349.823C-339.25 360.303 -325.537 370.578 -312.06 381.151C-298.856 391.519 -285.952 402.237 -272.78 412.631C-258.242 424.124 -243.534 435.4 -228.929 446.812C-225.691 449.342 -222.62 452.061 -219.449 454.672C-195.096 474.735 -170.627 494.678 -146.408 514.903C-134.32 525.006 -122.69 535.691 -110.79 546.052C-86.4993 567.253 -62.3298 588.632 -37.7887 609.551C-9.87245 633.368 17.3931 657.922 44.2932 682.878C63.392 700.607 82.8019 718.032 101.936 735.706C113.521 746.401 125.052 757.193 136.275 768.26C151.655 783.423 166.837 798.799 181.922 814.253C189.837 822.343 197.329 830.827 205.084 839.047C207.432 841.526 210.185 843.653 212.533 846.133C223.614 857.845 234.807 869.467 245.596 881.442C254.785 891.633 263.44 902.281 272.372 912.679C277.739 918.928 283.317 924.979 288.558 931.302C302.977 948.754 317.282 966.297 331.601 983.856C331.951 984.29 331.836 985.099 331.968 985.788C330.812 987.837 328.944 986.905 327.454 986.57C312.752 983.248 297.947 980.354 283.523 975.931C266.502 970.689 249.538 965.321 232.589 959.808C226.718 957.893 220.939 955.665 215.278 953.156C199.963 946.349 184.684 939.488 169.519 932.374C149.952 923.194 131.526 911.977 113.177 900.593C109.831 898.521 107.78 894.209 103.035 894.541L103.085 894.209L103.072 894.193Z" fill="url(#paint0_linear_823_2947)" fill-opacity="0.6"/>
<defs>
<linearGradient id="paint0_linear_823_2947" x1="341.342" y1="286.801" x2="-323.699" y2="824.099" gradientUnits="userSpaceOnUse">
<stop offset="0.07" stop-color="#3A5FF3"/>
<stop offset="0.83" stop-color="#0B3B48"/>
</linearGradient>
</defs>
</svg>
