<svg xmlns="http://www.w3.org/2000/svg" width="104" height="77" viewBox="0 0 104 77" fill="none">
  <path fill-rule="evenodd" clip-rule="evenodd" d="M86.3461 53.1587V67.6264C86.3461 71.785 87.495 73.8675 91.8753 75.3443L91.6568 76.8772C88.9749 76.6025 85.6904 76.4932 83.9389 76.4932C82.1874 76.4932 79.4525 76.6025 76.1118 76.8772L75.8933 75.3443C80.2736 73.9206 81.4225 71.7882 81.4225 67.6264V56.4216C75.0913 60.6128 65.3324 66.6049 56.8721 69.8069C57.2915 72.564 58.7215 74.1517 62.2589 75.3443L62.0404 76.8772C59.3585 76.6025 56.074 76.4932 54.3225 76.4932C52.571 76.4932 49.8329 76.6025 46.4954 76.8772L46.2769 75.3443C50.6572 73.9206 51.8061 71.7882 51.8061 67.6264V44.579C51.8061 40.4204 50.6572 38.2849 46.2769 36.8612L46.4954 35.3282C49.8329 35.603 52.571 35.7123 54.3225 35.7123C56.074 35.7123 59.3585 35.603 62.0404 35.3282L62.2589 36.8612C57.8786 38.338 56.7297 40.4173 56.7297 44.579V58.4149C56.9264 61.5643 58.0605 66.511 63.4972 63.7452C68.9024 60.9955 75.63 57.3202 81.4225 52.9134V44.579C81.4225 40.4204 80.2736 38.2849 75.8933 36.8612L76.1118 35.3282C79.4494 35.603 82.1874 35.7123 83.9389 35.7123C85.6904 35.7123 88.9749 35.603 91.6568 35.3282L91.8753 36.8612C87.495 38.338 86.3461 40.4173 86.3461 44.579V48.7323C86.9659 48.1363 87.5611 47.5301 88.1274 46.914C88.6425 46.3537 89.0764 45.9119 89.4389 45.5734C93.3107 41.3081 103.707 27.4613 91.8745 12.2932C77.6189 -5.97425 46.5883 5.3746 46.5883 5.3746C46.5883 5.3746 71.7494 -4.99079 92.9079 5.21537C108.859 12.9082 104.257 29.4366 99.5861 37.5604C99.4418 37.8112 99.2981 38.0624 99.1546 38.3135C97.9687 40.388 96.7854 42.4578 95.237 44.2791C93.3918 46.449 90.635 49.5492 88.1279 51.794C87.4236 52.4249 86.8361 52.8645 86.3461 53.1587ZM43.5393 6.67963C43.5983 6.66492 43.6286 6.65775 43.6286 6.65775L43.6255 6.65463C43.6255 6.65463 43.5957 6.66304 43.5393 6.67963ZM42.3234 73.3453C36.2215 74.202 14.3133 75.9023 7.13119 57.6136C-1.22568 36.3337 20.2175 17.7354 28.2145 17.9238C31.6502 18.1492 32.6771 20.2752 32.6771 24.2073V47.776L32.6802 47.7792C32.6802 51.9472 31.5282 54.0858 25.4994 55.5095L25.7179 57.0456C30.7039 56.7708 33.4451 56.6615 35.1998 56.6615C36.9544 56.6615 40.242 56.7708 44.5723 57.0456L44.7909 55.5095C38.7621 54.0296 37.61 51.944 37.61 47.7792V24.2104C37.61 20.0455 38.7621 17.9631 42.7084 17.9069C48.8996 17.8507 51.9155 22.2903 52.7928 31.0072H54.3289L54.6036 15.4935C50.2442 15.6745 46.2252 15.8191 39.6169 15.8315L39.6229 15.8274C39.6229 15.8274 39.5773 15.8295 39.494 15.8317C39.2307 15.8321 38.9632 15.8324 38.6915 15.8324C36.7199 15.7892 32.4128 15.3799 33.7721 12.5617C35.4116 9.16243 42.6661 6.93689 43.5393 6.67963C41.8834 7.09291 17.5903 13.4642 5.14241 34.5132C-7.74876 56.3117 7.22797 67.8416 13.2006 70.7233C18.9699 73.507 27.4834 75.6613 42.3234 73.3453ZM42.3234 73.3453C43.3382 73.2028 43.9158 73.0836 43.9158 73.0836C43.3771 73.1765 42.8463 73.2637 42.3234 73.3453Z" fill="#F8F0EE"/>
</svg>
