<svg width="158" height="50" viewBox="0 0 158 50" fill="none" xmlns="http://www.w3.org/2000/svg">
<path d="M39.296 8.22266V32.2901H34.4248V8.22266H39.296Z" fill="#201F21"/>
<path d="M59.3541 16.0455V32.3182C59.3541 37.366 55.4181 40.4616 50.6167 40.4616C45.8153 40.4616 42.4935 37.6449 42.1585 33.4616H47.0436C47.239 35.1768 48.7604 35.9576 50.7842 35.9576C51.2764 36.0005 51.7721 35.9349 52.2361 35.7655C52.7002 35.5962 53.1215 35.3271 53.4702 34.9774C53.8189 34.6278 54.0865 34.2059 54.2543 33.7416C54.422 33.2773 54.4858 32.7819 54.4411 32.2903V30.3103C53.0504 31.1689 51.4417 31.6095 49.8072 31.5792C47.7072 31.5946 45.6848 30.787 44.1739 29.3298C42.6631 27.8725 41.7842 25.8817 41.7258 23.7845C41.6911 22.7136 41.8761 21.6469 42.2696 20.6501C42.6631 19.6533 43.2566 18.7476 44.0137 17.9886C44.7708 17.2297 45.6753 16.6336 46.6717 16.2371C47.6681 15.8405 48.7351 15.652 49.8072 15.683C51.4409 15.6589 53.0479 16.099 54.4411 16.9519V16.0874L59.3541 16.0455ZM54.4411 25.639V21.665C54.0308 21.0464 53.4695 20.5425 52.8101 20.2009C52.1507 19.8593 51.415 19.6913 50.6725 19.7128C50.13 19.6823 49.5871 19.7669 49.0796 19.9609C48.572 20.155 48.1113 20.4541 47.7277 20.8386C47.3441 21.2232 47.0463 21.6845 46.8538 22.1922C46.6613 22.6999 46.5786 23.2425 46.6109 23.7845C46.6719 24.814 47.1284 25.7802 47.8851 26.4816C48.6418 27.183 49.6404 27.5655 50.6725 27.5494C51.4138 27.5934 52.1535 27.4397 52.8157 27.104C53.4779 26.7683 54.0389 26.2627 54.4411 25.639Z" fill="#201F21"/>
<path d="M78.9481 23.9793C78.9591 25.7037 78.457 27.3925 77.5055 28.8313C76.554 30.2701 75.196 31.394 73.604 32.0603C72.0119 32.7266 70.2575 32.9053 68.5636 32.5736C66.8697 32.2419 65.3127 31.4149 64.0902 30.1975C62.8676 28.9801 62.0348 27.4272 61.6974 25.736C61.3599 24.0448 61.5331 22.2916 62.1949 20.6989C62.8567 19.1062 63.9773 17.7459 65.4144 16.7907C66.8516 15.8355 68.5404 15.3284 70.2665 15.3339C71.4157 15.2911 72.5614 15.4853 73.6323 15.9042C74.7031 16.3232 75.676 16.958 76.4905 17.7691C77.305 18.5802 77.9436 19.5502 78.3664 20.6186C78.7892 21.687 78.9872 22.831 78.9481 23.9793ZM74.2025 23.9793C74.2346 23.4404 74.156 22.9006 73.9716 22.3932C73.7873 21.8858 73.501 21.4213 73.1304 21.0285C72.7598 20.6356 72.3128 20.3225 71.8167 20.1086C71.3206 19.8946 70.7859 19.7842 70.2456 19.7842C69.7052 19.7842 69.1706 19.8946 68.6745 20.1086C68.1784 20.3225 67.7313 20.6356 67.3607 21.0285C66.9901 21.4213 66.7039 21.8858 66.5195 22.3932C66.3351 22.9006 66.2566 23.4404 66.2886 23.9793C66.2566 24.5181 66.3351 25.0579 66.5195 25.5653C66.7039 26.0727 66.9901 26.5372 67.3607 26.93C67.7313 27.3229 68.1784 27.636 68.6745 27.8499C69.1706 28.0639 69.7052 28.1743 70.2456 28.1743C70.7859 28.1743 71.3206 28.0639 71.8167 27.8499C72.3128 27.636 72.7598 27.3229 73.1304 26.93C73.501 26.5372 73.7873 26.0727 73.9716 25.5653C74.156 25.0579 74.2346 24.5181 74.2025 23.9793Z" fill="#201F21"/>
<path d="M109.431 16.0865V32.2616H104.63V31.3552C103.238 32.2275 101.625 32.6824 99.9818 32.6659C97.8117 32.5416 95.7713 31.5928 94.2789 30.0139C92.7865 28.435 91.955 26.3456 91.955 24.174C91.955 22.0024 92.7865 19.913 94.2789 18.3341C95.7713 16.7552 97.8117 15.8064 99.9818 15.6821C101.625 15.6656 103.238 16.1205 104.63 16.9928V16.0865H109.431ZM104.588 26.67V21.7338C104.158 21.1145 103.574 20.6178 102.894 20.2926C102.213 19.9674 101.46 19.8249 100.708 19.8792C99.56 19.8792 98.4595 20.3347 97.6481 21.1453C96.8366 21.956 96.3808 23.0555 96.3808 24.2019C96.3808 25.3483 96.8366 26.4478 97.6481 27.2585C98.4595 28.0691 99.56 28.5246 100.708 28.5246C101.46 28.5789 102.213 28.4364 102.894 28.1112C103.574 27.786 104.158 27.2893 104.588 26.67Z" fill="#201F21"/>
<path d="M129.224 23.5183V32.2891H124.436V24.09C124.436 21.4267 123.124 20.0462 120.765 20.0462C120.035 20.1056 119.325 20.319 118.682 20.6723C118.04 21.0256 117.48 21.5108 117.039 22.096V32.2891H112.237V16.114H117.081V17.3271C118.403 16.2595 120.057 15.6873 121.756 15.7096C126.069 15.7096 129.224 18.7355 129.224 23.5183Z" fill="#201F21"/>
<path d="M153.747 8.82209H152.532V11.6806H151.834V8.82209H150.62V8.18066H153.747V8.82209Z" fill="#201F21"/>
<path d="M157.935 11.7085H157.238V9.75634L156.316 11.1507H155.884L154.879 9.75634V11.7364H154.167V8.18066H154.669L156.065 10.3002L157.461 8.18066H157.935V11.7085Z" fill="#201F21"/>
<path d="M32.1645 32.2618H27.1816L23.9435 20.1863L16.9648 32.2618H11.3818L22.1849 13.5628L20.4262 7.03701L5.79881 32.2618H0.21582L18.7095 0.288086H23.6225L25.744 8.25014H30.7827L27.3491 14.2321L32.1645 32.2618Z" fill="#201F21"/>
<path d="M148.778 8.22266V32.2901H143.865V31.3837C142.474 32.2582 140.86 32.7133 139.217 32.6945C137.047 32.5702 135.007 31.6214 133.514 30.0425C132.022 28.4636 131.19 26.3742 131.19 24.2026C131.19 22.0309 132.022 19.9416 133.514 18.3627C135.007 16.7838 137.047 15.8349 139.217 15.7106C140.86 15.6918 142.474 16.1469 143.865 17.0214V8.22266H148.778ZM143.865 26.6707V21.6926C143.429 21.0839 142.846 20.5958 142.17 20.2738C141.493 19.9519 140.746 19.8068 139.999 19.852C138.844 19.852 137.736 20.3104 136.92 21.1263C136.103 21.9421 135.644 23.0487 135.644 24.2026C135.644 25.3564 136.103 26.463 136.92 27.2789C137.736 28.0947 138.844 28.5531 139.999 28.5531C140.75 28.5951 141.5 28.4441 142.177 28.1146C142.854 27.7851 143.435 27.288 143.865 26.6707Z" fill="#201F21"/>
<path d="M90.9382 20.1863C89.9821 20.1894 89.0376 20.3948 88.1667 20.7889C87.2958 21.1831 86.5184 21.7571 85.8856 22.4731V32.2339H81.168V16.1564H86.0112V17.3556C86.7057 16.8256 87.4997 16.4402 88.346 16.2222C89.1923 16.0043 90.0738 15.9582 90.9382 16.0867V20.1863Z" fill="#201F21"/>
<path d="M69.3877 48.7993V40.9209H74.2868V42.0364H70.5601V44.1978H72.9608V45.3133H70.5601V48.7993H69.3877Z" fill="#201F21"/>
<path d="M81.0722 48.7988C80.6262 48.9656 80.1525 49.046 79.6764 49.0359C79.2328 49.0371 78.7928 48.9567 78.3784 48.7988C78.006 48.6581 77.6682 48.4394 77.3874 48.1574C77.125 47.8821 76.9082 47.5667 76.7454 47.2231C76.5804 46.8706 76.4541 46.5012 76.3685 46.1216C76.2196 45.3478 76.2196 44.5527 76.3685 43.779C76.4544 43.3949 76.5807 43.0209 76.7454 42.6634C76.9117 42.3219 77.1281 42.007 77.3874 41.7292C77.6695 41.4522 78.0073 41.2384 78.3784 41.1017C78.8214 40.9242 79.2973 40.8434 79.7741 40.8646C80.2507 40.8472 80.7258 40.9278 81.1699 41.1017C81.5375 41.237 81.871 41.4512 82.1469 41.7292C82.4107 42.0034 82.6276 42.319 82.7889 42.6634C82.9666 43.0157 83.0934 43.3912 83.1658 43.779C83.3147 44.5527 83.3147 45.3478 83.1658 46.1216C83.0922 46.5045 82.9653 46.8753 82.7889 47.2231C82.6311 47.5696 82.4138 47.8858 82.1469 48.1574C81.8437 48.4521 81.4756 48.6718 81.0722 48.7988ZM78.6994 47.6415C79.0119 47.8251 79.3699 47.917 79.7323 47.9064C80.1001 47.9102 80.462 47.8138 80.7791 47.6275C81.0687 47.4479 81.3087 47.1986 81.4769 46.9024C81.6445 46.6062 81.7668 46.2866 81.8398 45.9542C81.9245 45.6263 81.9667 45.2889 81.9654 44.9503C81.9667 44.5978 81.9245 44.2466 81.8398 43.9045C81.7691 43.5714 81.6467 43.2515 81.4769 42.9563C81.3115 42.6652 81.0704 42.4243 80.7791 42.2591C80.4609 42.077 80.0988 41.9854 79.7323 41.9941C79.3677 41.9812 79.0078 42.0784 78.6994 42.273C78.4005 42.4409 78.1578 42.6931 78.0015 42.9981C77.8356 43.2917 77.7089 43.6058 77.6247 43.9323C77.5523 44.2669 77.5149 44.608 77.513 44.9503C77.5142 45.3018 77.5516 45.6522 77.6247 45.9961C77.7063 46.3234 77.8332 46.6379 78.0015 46.9303C78.1726 47.2026 78.4136 47.4241 78.6994 47.5717V47.6415Z" fill="#201F21"/>
<path d="M89.0555 48.9666C88.644 48.9965 88.231 48.9349 87.8462 48.7863C87.4614 48.6376 87.1144 48.4056 86.8301 48.1069C86.5458 47.8082 86.3313 47.4503 86.202 47.0588C86.0728 46.6674 86.032 46.2522 86.0826 45.8432V40.9209H87.255V45.8432C87.2269 46.1219 87.2543 46.4034 87.3358 46.6715C87.4172 46.9395 87.5511 47.1888 87.7296 47.4049C88.1109 47.6944 88.5766 47.8512 89.0555 47.8512C89.5345 47.8512 90.0002 47.6944 90.3815 47.4049C90.5783 47.1978 90.7296 46.9519 90.8258 46.6829C90.9219 46.414 90.9608 46.128 90.9398 45.8432V40.9209H92.1122V45.8432C92.1631 46.2535 92.1221 46.67 91.992 47.0625C91.862 47.455 91.6462 47.8137 91.3603 48.1127C91.0745 48.4116 90.7256 48.6433 90.3391 48.791C89.9525 48.9387 89.5379 48.9987 89.1253 48.9666H89.0555Z" fill="#201F21"/>
<path d="M101.211 48.7993H100.108L96.6748 43.4448C96.5609 43.2558 96.4584 43.0602 96.3677 42.8591C96.3677 43.2077 96.3677 43.4029 96.3677 43.4448V48.7993H95.1953V40.9209H96.3817L99.7175 46.2057C99.8375 46.3984 99.9447 46.5987 100.039 46.8053C100.039 46.5822 100.039 46.387 100.039 46.2057V40.9209H101.211V48.7993Z" fill="#201F21"/>
<path d="M104.45 40.9205H106.669C107.269 40.9105 107.864 41.0294 108.414 41.2691C108.879 41.4676 109.287 41.7792 109.601 42.1755C109.88 42.5572 110.096 42.9808 110.243 43.4304C110.374 43.8835 110.44 44.3531 110.438 44.8248C110.445 45.2969 110.379 45.7672 110.243 46.2193C110.107 46.6678 109.899 47.0915 109.628 47.4742C109.324 47.8894 108.914 48.2166 108.442 48.4224C107.87 48.6686 107.251 48.7876 106.628 48.771H104.45V40.9205ZM106.823 47.7252C107.214 47.7312 107.602 47.6452 107.954 47.4742C108.257 47.3114 108.516 47.0768 108.707 46.791C108.885 46.5118 109.017 46.2057 109.098 45.8846C109.183 45.5567 109.225 45.2193 109.224 44.8806C109.243 44.1642 109.043 43.459 108.651 42.8587C108.46 42.5888 108.204 42.3717 107.906 42.2278C107.608 42.0839 107.279 42.0179 106.949 42.036H105.637V47.7252H106.823Z" fill="#201F21"/>
<path d="M118.045 48.7989L117.417 46.9861H114.221L113.579 48.7989H112.351L115.142 40.8926H116.356L119.148 48.7989H118.045ZM117.054 46.01L116.063 43.291C115.951 43.0012 115.862 42.7028 115.798 42.3985C115.798 42.6635 115.631 42.9563 115.519 43.291L114.584 46.01H117.054Z" fill="#201F21"/>
<path d="M123.852 42.0504V48.7993H122.679V42.0504H120.446V40.9209H126.029V42.0504H123.852Z" fill="#201F21"/>
<path d="M128.888 48.7993V40.9209H130.018V48.7993H128.888Z" fill="#201F21"/>
<path d="M137.849 48.7998C137.404 48.9699 136.93 49.0505 136.453 49.0368C135.977 49.047 135.504 48.9665 135.058 48.7998C134.689 48.6596 134.356 48.4407 134.081 48.1584C133.814 47.8867 133.597 47.5706 133.439 47.2241C133.262 46.8763 133.135 46.5055 133.062 46.1225C132.913 45.3487 132.913 44.5537 133.062 43.7799C133.134 43.3922 133.261 43.0166 133.439 42.6644C133.6 42.32 133.817 42.0043 134.081 41.7302C134.357 41.4522 134.69 41.238 135.058 41.1027C135.502 40.9288 135.977 40.8481 136.453 40.8656C136.93 40.8444 137.406 40.9252 137.849 41.1027C138.22 41.2393 138.558 41.4532 138.84 41.7302C139.104 42.0043 139.321 42.32 139.482 42.6644C139.647 43.0219 139.773 43.3958 139.859 43.7799C140.008 44.5537 140.008 45.3487 139.859 46.1225C139.773 46.5022 139.647 46.8715 139.482 47.2241C139.324 47.5706 139.107 47.8867 138.84 48.1584C138.559 48.4403 138.222 48.659 137.849 48.7998ZM135.476 47.6424C135.795 47.8245 136.157 47.9161 136.523 47.9074C136.887 47.913 137.245 47.8163 137.556 47.6285C137.853 47.4532 138.098 47.2032 138.268 46.9034C138.424 46.6017 138.545 46.2837 138.631 45.9552C138.704 45.6255 138.741 45.2889 138.742 44.9512C138.741 44.5997 138.704 44.2493 138.631 43.9054C138.548 43.5762 138.426 43.2579 138.268 42.9572C138.101 42.6625 137.854 42.4209 137.556 42.26C137.244 42.0764 136.886 41.9845 136.523 41.9951C136.155 41.9845 135.791 42.0814 135.476 42.274C135.184 42.4501 134.943 42.7002 134.779 42.9991C134.617 43.2932 134.495 43.6073 134.416 43.9333C134.332 44.2662 134.29 44.6081 134.29 44.9512C134.289 45.3037 134.331 45.6549 134.416 45.997C134.493 46.3238 134.615 46.6382 134.779 46.9313C134.957 47.1976 135.196 47.4176 135.476 47.5727V47.6424Z" fill="#201F21"/>
<path d="M148.917 48.7993H147.814L144.381 43.4448C144.267 43.2558 144.164 43.0602 144.074 42.8591C144.074 43.2077 144.074 43.4029 144.074 43.4448V48.7993H142.901V40.9209H144.088L147.424 46.2057C147.507 46.3312 147.605 46.5404 147.745 46.8053C147.745 46.5822 147.745 46.387 147.745 46.2057V40.9209H148.917V48.7993Z" fill="#201F21"/>
</svg>
