<svg width="668" height="122" viewBox="0 0 668 122" fill="none" xmlns="http://www.w3.org/2000/svg">
<mask id="mask0_2529_238" style="mask-type:luminance" maskUnits="userSpaceOnUse" x="0" y="0" width="668" height="122">
<path d="M667.538 0.285889H0.567383V121.793H667.538V0.285889Z" fill="white"/>
</mask>
<g mask="url(#mask0_2529_238)">
<path d="M30.0638 95.8227C30.0638 96.7032 30.9443 97.5836 30.9443 98.0239C35.3467 106.829 31.8248 116.954 23.0199 120.476C11.1332 125.759 0.567383 115.634 0.567383 105.948C0.567383 98.024 5.85032 91.4203 12.454 89.6593C15.0955 89.219 17.7369 89.219 19.9382 89.6593C22.1394 89.6593 22.5796 89.6593 23.9004 87.8983C26.1016 83.9361 27.8626 80.4141 30.0638 76.4519C38.4285 61.0434 46.7931 45.6348 55.1578 30.6665C55.1578 30.2262 55.598 29.3458 56.0382 28.9055C56.9187 27.5849 56.9187 25.8238 56.0382 24.5031C53.3968 19.2201 53.837 13.9373 56.0382 9.09453C59.12 3.37141 66.1639 -0.590902 74.0883 1.17018C81.1322 2.93114 85.9749 9.09453 86.4151 16.5787C86.4151 19.6605 85.9749 22.3019 84.2139 24.9434C83.3334 26.2641 83.3334 27.1446 84.2139 28.4653C93.8993 45.6348 103.585 63.2446 112.83 80.8544C114.591 83.9361 116.352 87.0178 118.113 90.5398C123.396 89.2191 128.679 88.7788 133.081 92.3008C136.163 94.502 138.364 97.1435 139.685 100.665C142.326 107.709 139.685 116.074 133.081 120.036C127.358 123.558 118.993 123.558 112.83 118.275C107.987 113.873 105.786 104.628 110.629 97.1435C101.824 90.9801 45.4724 90.5398 28.7431 97.1435L30.0638 95.8227ZM78.4907 31.5469H77.17C73.2077 33.3079 68.8053 33.3079 64.8431 31.5469C63.5224 31.1066 62.6419 31.5469 62.2016 32.8676C59.5602 37.7103 56.9187 42.553 54.2772 47.3956C48.1138 58.842 41.5101 70.2884 35.3467 81.7346C34.4662 83.4956 33.5857 85.2565 32.265 87.4578C45.4723 84.8163 57.7992 83.9359 70.5663 83.9359C83.3334 83.9359 96.1005 84.8164 109.308 87.4578C98.742 68.5273 88.6163 50.0372 78.4907 31.5469ZM61.7614 16.5786C61.3212 20.9811 64.8431 25.8238 70.5663 26.2641C75.8492 26.2641 79.8114 22.3019 79.8114 17.0189C79.8114 11.7359 75.8492 7.77372 70.5663 7.33345C65.2833 7.33345 60.8809 12.1762 61.3212 16.5786H61.7614ZM125.157 96.2629C119.874 96.2629 115.912 100.225 115.912 105.508C115.912 110.791 119.874 114.753 125.157 114.753C130.44 114.753 134.402 110.791 134.402 105.508C134.402 100.225 130.44 96.2629 125.157 96.2629ZM16.4162 114.753C21.6991 114.753 25.6613 110.791 25.6613 105.508C25.6613 100.225 21.6991 96.2629 16.4162 96.2629C11.1332 96.2629 7.17104 100.225 7.17104 105.508C7.17104 110.791 10.693 114.753 16.4162 114.753Z" fill="#F8F0EE"/>
<path d="M244.02 98.4649H232.133C230.812 98.4649 230.812 97.5844 230.372 96.7039C229.051 93.182 227.731 89.2197 226.85 85.6978C226.263 83.9369 225.089 83.0563 223.328 83.0563H200.435C198.234 83.0563 197.794 83.0563 197.354 85.2576C196.033 88.7795 195.153 92.3015 193.832 95.8234C192.951 98.0246 192.951 98.4649 190.75 98.4649H178.864C179.304 96.7039 179.744 95.3831 180.184 94.0625C185.467 78.6539 191.19 63.6856 196.473 48.277C198.675 41.6734 201.316 35.0697 203.517 28.9063C203.957 27.1453 205.278 26.7051 207.039 26.7051H217.165C218.926 26.7051 220.1 27.5856 220.687 29.3466C222.448 34.1893 224.209 39.032 225.97 43.8746C232.133 61.4844 238.297 79.0942 244.46 96.2637C244.46 96.7039 244.46 97.1442 244.9 98.4649H244.02ZM211.882 43.8746C209.681 47.8368 202.637 68.9686 202.637 70.7295H221.567C218.486 61.9246 215.404 53.1198 211.882 43.8746Z" fill="#F8F0EE"/>
<path d="M332.957 74.6913V98.4645H321.07C320.19 96.2632 320.19 31.1071 321.07 27.1448H347.925C351.887 27.1448 355.849 27.585 359.812 29.346C365.535 31.9875 368.616 36.8302 368.616 42.9936V56.6412C368.616 67.6473 362.013 73.3705 351.447 74.251H333.397L332.957 74.6913ZM333.397 62.8046C339.56 62.8046 345.724 63.2449 351.447 62.8046C354.529 62.8046 355.849 60.6034 355.849 57.5216V44.7546C355.849 41.2327 354.529 39.9118 351.007 39.4716C345.283 39.0313 339.56 39.4716 333.837 39.4716H333.397V63.2448V62.8046Z" fill="#F8F0EE"/>
<path d="M259.43 27.1448H286.285C290.247 27.1448 294.649 27.585 298.171 29.7863C303.894 32.4278 306.536 37.2705 306.976 43.4339V57.0815C306.976 68.0876 300.372 73.8107 290.247 74.6913H272.197V95.823C272.197 98.4645 272.197 98.9047 269.115 98.9047H259.87C258.989 96.7035 258.989 32.4278 259.87 27.585L259.43 27.1448ZM272.197 38.5912C271.316 42.9936 271.756 60.6034 272.197 62.8046H289.366C292.448 62.8046 294.209 60.6034 294.209 57.0815V44.7547C294.209 41.2328 292.888 39.912 289.366 39.0316C286.285 38.5913 283.203 39.0316 280.121 38.5913L272.197 38.5912Z" fill="#F8F0EE"/>
<path d="M660.498 86.1375V27.1448H666.661C667.101 29.346 667.542 94.9424 666.661 98.9046C664.46 99.3449 661.819 98.9046 659.177 98.9046C658.297 98.9046 657.856 97.5839 657.416 97.1437C655.655 94.5022 654.334 91.4205 653.014 88.779C646.41 75.5717 639.366 62.3644 632.762 49.5973C630.561 45.6351 628.8 41.6729 626.159 37.7106V98.9046H619.995C619.115 96.7034 619.115 30.6667 619.995 27.1448H629.681C630.121 27.1448 631.001 28.4655 631.442 29.346C636.725 39.4716 641.567 49.5973 646.85 59.2826C651.253 68.0875 655.655 76.4521 660.058 85.257C660.058 85.257 660.498 86.1375 660.938 86.5777H661.378L660.498 86.1375Z" fill="#F8F0EE"/>
<path d="M498.925 62.8039V77.7721C498.925 89.2185 491.881 96.7026 482.195 98.9038C475.592 100.225 468.548 100.225 461.944 98.4636C452.259 95.3818 447.856 88.338 447.416 79.0928V47.3952C447.416 35.5085 454.46 28.9048 466.347 26.7036C471.629 25.8231 476.912 26.2633 482.195 27.1439C492.321 29.3451 498.925 36.8293 498.925 47.3952V62.8039ZM492.761 62.8039V47.3953C492.761 39.4709 489.239 34.6282 480.875 32.427C476.032 31.1063 471.189 31.1063 466.347 32.427C457.982 34.188 454.46 39.4709 454.46 46.955V78.6527C454.46 84.8161 457.542 90.0991 463.705 92.3003C470.749 94.5015 477.793 94.5015 484.837 91.4198C488.359 89.6588 491 86.577 491.881 82.6149C491.881 80.8539 492.321 78.6527 492.321 76.4515V62.8039H492.761Z" fill="#F8F0EE"/>
<path d="M569.804 27.1453C568.923 29.7868 568.043 32.4283 567.162 34.6296C562.76 46.9564 558.357 58.843 554.395 71.1698C551.313 79.5345 548.232 87.8991 545.15 96.2638C544.563 98.0248 543.389 98.9053 541.628 98.9053H537.225C535.464 98.9053 534.584 98.4651 533.703 96.7041C532.383 92.7419 531.062 88.7798 529.301 84.8174C522.697 66.7674 516.534 48.7173 509.93 30.6674C509.93 29.7868 509.49 28.9064 509.05 27.1455H515.213C515.653 27.1455 516.534 28.4662 516.974 29.3467C519.175 34.6297 520.936 39.9126 522.697 45.1955C527.54 58.8432 532.383 72.9309 537.225 86.5785C537.225 87.8992 538.106 88.7798 538.986 90.5407C539.867 87.8992 540.747 85.698 541.628 83.4968C547.791 65.4467 554.395 47.8369 560.558 29.7868C561.145 27.7322 562.466 26.7051 564.521 26.7051H568.923L569.804 27.1453Z" fill="#F8F0EE"/>
<path d="M396.79 27.1448H402.513C403.393 27.1448 403.834 28.0253 403.834 28.9057V91.4205H432.89C434.944 91.4205 435.972 92.4476 435.972 94.5023V95.823C435.972 98.4645 435.972 98.9047 432.89 98.9047H398.551C387.104 98.9047 396.79 98.9047 395.909 98.9047V27.1449L396.79 27.1448Z" fill="#F8F0EE"/>
<path d="M591.376 98.9052H586.093C585.213 98.9052 584.333 98.4649 584.333 97.1442V29.3466C584.333 27.1453 584.333 26.7051 586.974 26.7051H591.376C592.257 29.3466 592.257 94.5027 591.376 98.9052Z" fill="#F8F0EE"/>
</g>
</svg>
