<svg width="265" height="54" viewBox="0 0 265 54" fill="none" xmlns="http://www.w3.org/2000/svg">
<path d="M0.248779 1.40172C0.86508 1.3546 1.33637 1.29297 1.81128 1.29297C6.33928 1.28572 10.8673 1.27121 15.3989 1.29659C18.9299 1.31834 22.2761 1.99265 24.8718 4.62099C28.856 8.65957 28.0258 15.4208 23.2332 18.408C22.7365 18.7162 22.2435 19.0352 21.4604 19.5355C22.2761 19.9016 22.8054 20.13 23.3274 20.3765C27.0252 22.1022 28.9104 24.9625 28.9611 29.0881C29.0119 33.3225 27.2718 36.4982 23.4398 38.2601C21.609 39.1012 19.5462 39.7864 17.5596 39.877C12.0165 40.1272 6.45529 40.0293 0.901333 40.0583C0.730944 40.0583 0.56418 39.964 0.252405 39.8734V1.40172H0.248779ZM7.34711 33.9678C10.5773 33.9678 13.6914 34.0113 16.7983 33.9352C17.5523 33.917 18.3281 33.5871 19.0387 33.2717C21.174 32.311 22.2942 30.3062 22.0658 28.0078C21.8302 25.6514 20.5541 23.8568 18.2629 23.5777C14.7101 23.1426 11.1102 23.0774 7.34711 22.8454V33.9678ZM7.28911 16.8709C10.2365 16.8709 12.9917 16.9071 15.7433 16.8419C16.3777 16.8274 17.0267 16.5265 17.6321 16.2618C19.4846 15.4534 20.4272 13.9888 20.3764 11.9876C20.3257 9.97556 19.3251 8.58344 17.3819 7.91639C14.0974 6.78892 10.7513 7.30734 7.29274 7.26746V16.8672L7.28911 16.8709Z" fill="#F8F0EE"/>
<path d="M257.547 17.2294C257.721 15.8227 257.827 14.9527 257.946 13.9775H263.964C264.019 14.4705 264.12 14.9853 264.12 15.4965C264.127 23.2836 264.214 31.0708 264.073 38.8579C264.011 42.3164 263.243 45.7206 260.923 48.4649C259.929 49.6359 258.74 50.854 257.381 51.4703C250.507 54.5808 243.789 54.0153 237.355 50.0999C236.956 49.857 236.633 49.4836 236.071 48.987C237.311 47.2686 238.525 45.5937 239.86 43.7484C240.585 44.2378 241.179 44.6004 241.73 45.0209C244.485 47.1272 247.614 47.7 250.975 47.2577C254.39 46.8082 256.569 44.7853 257.163 41.3702C257.384 40.0941 257.305 38.7636 257.203 37.3171C253.425 40.4385 249.249 41.0838 244.743 39.9201C241.886 39.1805 239.613 37.502 237.931 35.1093C234.226 29.8454 234.799 21.4383 239.124 16.9538C241.607 14.3799 244.696 13.2742 248.227 13.1545C251.816 13.0313 254.803 14.3219 257.551 17.233L257.547 17.2294ZM249.938 34.522C254.451 34.551 257.725 31.3064 257.721 26.8074C257.718 22.2178 254.6 19.1363 249.956 19.129C245.41 19.1218 242.154 22.283 242.089 26.7748C242.024 31.0309 245.533 34.493 249.942 34.522H249.938Z" fill="#F8F0EE"/>
<path d="M109.355 13.9951H115.278C115.398 14.9087 115.511 15.7642 115.685 17.0802C118.103 14.3975 120.764 13.0308 124.11 13.1395C127.441 13.2483 130.041 14.5643 131.908 17.5878C132.571 16.8953 133.082 16.3334 133.622 15.8005C138.419 11.0767 147.217 12.7154 149.287 18.795C149.842 20.4228 150.074 22.2209 150.114 23.9465C150.223 28.8987 150.161 33.8545 150.154 38.8066C150.154 39.151 150.034 39.4955 149.951 39.945H143.762C143.726 39.2888 143.661 38.658 143.657 38.0236C143.646 34.0358 143.672 30.0479 143.639 26.0637C143.632 25.045 143.52 24.0154 143.331 23.0112C142.896 20.6874 141.66 19.4403 139.615 19.1394C137.237 18.7877 135 19.6868 134.079 21.659C133.532 22.8263 133.158 24.1749 133.119 25.4583C132.992 29.5005 133.061 33.55 133.042 37.5994C133.042 38.31 132.974 39.0205 132.93 39.8979H126.401C126.401 39.0133 126.401 38.2483 126.401 37.4834C126.401 33.5572 126.401 29.631 126.401 25.7048C126.401 25.4039 126.401 25.0994 126.401 24.7985C126.365 21.0753 124.918 19.1793 122.036 19.0705C118.625 18.9436 115.967 21.3182 115.88 24.7985C115.772 29.0836 115.844 33.3759 115.826 37.6647C115.826 38.3716 115.764 39.0822 115.724 39.9305H109.362V13.9951H109.355Z" fill="#F8F0EE"/>
<path d="M161.996 36.9158C161.917 38.007 161.855 38.8807 161.779 39.9212H155.728V0.394531H162.156V16.5742C162.917 16.1573 163.349 16.0051 163.671 15.7295C169.682 10.6287 181.798 12.6807 183.81 23.9662C184.749 29.2374 183.697 34.0518 179.554 37.8692C175.577 41.5344 166.851 42.0565 162.997 37.5937C162.783 37.3472 162.442 37.2131 161.993 36.9158H161.996ZM177.466 26.9535C177.476 22.5922 174.163 19.17 169.889 19.1264C165.357 19.0829 162 22.4363 161.993 27.0042C161.989 31.4198 165.39 34.853 169.755 34.8421C174.119 34.8312 177.451 31.4235 177.462 26.9535H177.466Z" fill="#F8F0EE"/>
<path d="M73.3489 27.0364C73.3525 35.0193 67.349 40.7726 59.0108 40.769C50.5711 40.769 44.6075 35.0265 44.6148 26.9167C44.622 18.9628 50.6871 13.1406 58.9528 13.1587C67.3889 13.1769 73.3452 18.9193 73.3489 27.0364ZM51.2781 27.04C51.2962 31.5172 54.6206 34.8743 59.0144 34.8561C63.4663 34.838 66.7835 31.3432 66.711 26.7572C66.6421 22.4286 63.2343 19.097 58.9166 19.1332C54.4792 19.1731 51.2599 22.5048 51.2781 27.04Z" fill="#F8F0EE"/>
<path d="M193.886 29.4033C194.208 32.2926 195.622 34.011 197.953 35.0116C200.998 36.3131 203.986 35.4793 208.068 32.1114C209.467 33.1482 210.935 34.2358 212.766 35.5917C211.642 36.5995 210.758 37.5384 209.732 38.2889C203.105 43.1432 190.061 41.2 187.559 30.5271C185.384 21.2464 191.254 13.6115 200.712 13.1946C208.307 12.8574 213.433 17.7624 213.763 25.3611C213.818 26.6118 213.77 27.8662 213.77 29.4069H193.889L193.886 29.4033ZM206.958 24.2227C207.147 20.4379 204.395 18.0271 200.321 18.1322C196.673 18.2265 193.791 21.018 194.147 24.2227H206.958Z" fill="#F8F0EE"/>
<path d="M76.429 26.9428C76.4797 18.8112 82.5013 13.0869 90.9265 13.1594C99.2103 13.2319 105.17 19.0831 105.138 27.1131C105.105 35.1432 99.0037 40.8313 90.4915 40.766C82.2621 40.7044 76.3782 34.9184 76.4253 26.9428H76.429ZM98.4563 26.9029C98.4236 22.4691 95.1174 19.094 90.8431 19.1302C86.3441 19.1701 82.853 22.6867 82.9545 27.0696C83.0596 31.536 86.4565 34.8967 90.825 34.8532C95.2515 34.8097 98.4889 31.4345 98.4563 26.9029Z" fill="#F8F0EE"/>
<path d="M40.0704 39.9776H33.6863V0.574219H40.0704V39.974V39.9776Z" fill="#F8F0EE"/>
<path d="M218.369 13.9926H224.619C224.731 15.0041 224.833 15.9285 224.981 17.3098C227.78 14.0216 230.88 12.3903 235.041 13.5685V19.6445C234.411 19.5865 233.954 19.5683 233.501 19.5031C228.226 18.72 224.804 21.6456 224.782 26.9748C224.767 30.6618 224.778 34.3451 224.778 38.032C224.778 38.6193 224.778 39.2102 224.778 39.9353H218.365V13.9926H218.369Z" fill="#F8F0EE"/>
</svg>
