<svg width="213" height="76" viewBox="0 0 213 76" fill="none" xmlns="http://www.w3.org/2000/svg">
<g id="Group 432">
<path id="Vector" d="M51.0729 75.8616C52.2529 73.7316 53.4029 71.5916 54.6029 69.4816C57.6929 64.0316 60.7729 58.5716 63.9129 53.1516C64.4529 52.2216 64.4529 51.4816 63.9729 50.5216C59.0429 40.5916 54.1529 30.6316 49.2529 20.6916C49.0829 20.3416 48.9429 19.9816 48.7529 19.5316C49.1729 19.4916 49.4729 19.4416 49.7829 19.4416C52.5829 19.4416 55.3729 19.4716 58.1729 19.4216C58.9929 19.4116 59.3629 19.7016 59.6829 20.4316C62.7029 27.3816 65.7629 34.3216 68.8029 41.2516C68.9729 41.6516 69.1729 42.0316 69.4729 42.6516C69.7429 42.1716 69.9429 41.8616 70.0929 41.5316C73.4129 34.5416 76.7529 27.5616 80.0329 20.5516C80.4429 19.6816 80.9029 19.3916 81.8329 19.4116C84.4729 19.4716 87.1029 19.4316 89.7429 19.4316C90.1329 19.4316 90.5229 19.4316 91.1329 19.4316C90.8229 20.0616 90.6129 20.5116 90.3829 20.9516C80.9529 38.8916 71.5229 56.8316 62.0929 74.7716C61.9129 75.1216 61.7829 75.4916 61.6329 75.8616H51.0829H51.0729Z" fill="#F8F0EE"/>
<path id="Vector_2" d="M47.1729 44.1516C48.7329 46.3917 50.2629 48.5717 51.8129 50.8017C50.1229 52.6017 48.1929 53.9317 46.1029 55.0317C42.2129 57.0816 38.0429 57.9516 33.6829 58.1716C28.5329 58.4316 23.5529 57.7416 18.8329 55.6816C9.64294 51.6616 3.54294 44.9016 1.40294 35.0216C-1.68706 20.7416 6.39294 5.36165 22.2929 1.22165C29.8729 -0.74835 37.3329 -0.19835 44.5029 3.11165C46.5429 4.05165 48.4329 5.24165 50.1029 6.75165C50.5429 7.14165 50.9229 7.60165 51.4029 8.10165C49.5629 10.5016 47.7729 12.8417 45.9629 15.2116C45.2629 14.6516 44.6629 14.1416 44.0229 13.6616C40.9729 11.4016 37.5329 10.1417 33.7729 9.67165C30.6829 9.29165 27.6329 9.33165 24.6529 10.2816C19.7429 11.8417 16.1229 14.9816 14.0329 19.6616C10.9329 26.6116 10.7829 33.5716 15.1529 40.0816C19.1529 46.0416 24.9729 48.8916 32.1629 48.8816C36.4629 48.8816 40.5729 48.0717 44.3729 45.9617C45.3129 45.4417 46.1829 44.8017 47.1929 44.1516H47.1729Z" fill="#F8F0EE"/>
<path id="Vector_3" d="M175.443 1.47144H185.003V21.1014C186.683 20.4614 188.183 19.8314 189.723 19.3114C193.103 18.1514 196.543 18.1114 199.983 18.9914C204.803 20.2314 208.283 23.1714 210.423 27.6214C212.863 32.7014 213.353 38.0514 211.993 43.4814C210.203 50.6114 205.453 54.9914 198.533 57.1214C193.793 58.5814 188.993 58.2914 184.213 57.2614C181.503 56.6714 178.963 55.6714 176.533 54.3314C175.653 53.8414 175.333 53.2714 175.333 52.2514C175.363 36.6514 175.353 21.0514 175.353 5.45144C175.353 4.49144 175.353 3.53144 175.353 2.58144C175.353 2.23144 175.403 1.88144 175.433 1.48144L175.443 1.47144ZM191.543 50.0914C191.883 50.0914 192.323 50.1114 192.763 50.0914C196.743 49.8414 199.703 47.9514 201.313 44.3214C203.183 40.1014 203.153 35.7814 201.243 31.5714C199.993 28.8114 197.903 26.8714 194.813 26.3914C191.353 25.8514 188.273 26.9714 185.503 28.9914C185.203 29.2114 185.053 29.8114 185.053 30.2414C185.023 36.0614 185.053 41.8914 185.023 47.7114C185.023 48.4514 185.263 48.8714 185.953 49.1614C187.723 49.9114 189.553 50.1514 191.553 50.1014L191.543 50.0914Z" fill="#F8F0EE"/>
<path id="Vector_4" d="M157.503 34.9416C157.503 33.3616 157.633 31.9216 157.473 30.5116C157.213 28.2416 155.453 26.7316 152.773 26.2516C149.353 25.6416 146.013 26.1916 142.723 27.1116C141.723 27.3916 140.753 27.7516 139.603 28.1416C138.713 26.0016 137.823 23.8516 136.903 21.6516C137.133 21.4916 137.293 21.3216 137.503 21.2316C143.943 18.3816 150.623 17.5416 157.493 19.1516C163.403 20.5316 165.583 24.4416 166.313 29.1016C166.533 30.5116 166.603 31.9616 166.613 33.3916C166.643 39.7016 166.603 46.0016 166.653 52.3116C166.653 53.2916 166.293 53.8416 165.513 54.3216C162.823 55.9816 159.883 56.9316 156.793 57.4716C152.713 58.1816 148.623 58.4216 144.533 57.6116C140.913 56.8916 137.723 55.3716 135.383 52.3816C132.143 48.2416 131.933 41.7316 134.963 37.8616C136.893 35.3916 139.563 34.0716 142.523 33.3316C147.453 32.1116 152.253 32.4916 156.863 34.7216C157.003 34.7916 157.153 34.8216 157.503 34.9516V34.9416ZM157.543 45.8216C157.543 44.9016 157.503 43.9816 157.553 43.0716C157.593 42.3316 157.283 41.9016 156.683 41.5216C154.893 40.4016 152.953 39.7016 150.873 39.4616C148.763 39.2216 146.733 39.5316 144.893 40.6916C143.093 41.8216 142.343 43.6616 142.733 45.7216C143.203 48.2016 144.673 49.8216 147.043 50.5116C150.333 51.4716 153.583 51.1116 156.743 49.8416C157.363 49.5916 157.573 49.2016 157.543 48.5516C157.503 47.6416 157.533 46.7216 157.543 45.8016V45.8216Z" fill="#F8F0EE"/>
<path id="Vector_5" d="M106.423 1.47144V47.4214H129.583V56.8214H96.093V1.47144H106.423Z" fill="#F8F0EE"/>
<path id="Vector_6" d="M31.7431 19.2617C36.8431 19.1217 42.0231 23.3717 41.9131 29.3217C41.8231 33.9417 38.1531 38.0417 33.5631 38.7117C29.3731 39.3217 25.8731 38.0917 23.3531 34.6817C19.2831 29.1917 22.3431 21.2117 29.0431 19.6417C29.9231 19.4317 30.8431 19.3817 31.7531 19.2617H31.7431Z" fill="#F8F0EE"/>
</g>
</svg>
