<svg width="211" height="51" viewBox="0 0 211 51" fill="none" xmlns="http://www.w3.org/2000/svg">
<path d="M20.6759 0.483242C20.6701 0.647296 20.6603 0.810529 20.6603 0.974582C20.6595 5.15794 20.6603 9.3413 20.6603 13.5247V14.025C20.7267 14.0488 20.739 14.0554 20.7522 14.0578C20.7653 14.0603 20.7809 14.0628 20.7915 14.0578C20.8276 14.0398 20.8686 14.025 20.8957 13.998C25.2562 9.64398 29.616 5.28919 34.0159 0.895016V15.0906C35.909 15.1439 37.7727 15.0906 39.6733 15.1217V35.3872C39.51 35.3971 39.3517 35.4151 39.1934 35.4151C37.6349 35.4176 36.0764 35.4151 34.5179 35.4168C34.0208 35.4168 34.0183 35.4201 34.0183 35.9171C34.0183 40.3466 34.0183 44.776 34.0183 49.2055V49.755C29.5708 45.3043 25.1783 40.9093 20.7866 36.5143C20.7505 36.5307 20.7136 36.5479 20.6775 36.5643V50.8698H19.3881V36.6349C19.3487 36.6168 19.3101 36.598 19.2708 36.5799C18.64 37.191 18.0256 37.8202 17.4038 38.4411C16.7845 39.0588 16.166 39.6781 15.5476 40.2974C14.9192 40.9257 14.2909 41.554 13.6626 42.1832C13.0343 42.8115 12.4059 43.4398 11.7776 44.0689C11.1493 44.6973 10.5218 45.3264 9.89428 45.9556C9.2758 46.5749 8.65732 47.1933 8.03884 47.8118C7.4138 48.4369 6.78875 49.0619 6.10137 49.7485C6.10137 49.5204 6.10137 49.3761 6.10137 49.2317C6.10137 44.8433 6.10137 40.4548 6.10137 36.0664C6.10137 35.9434 6.09645 35.8203 6.10055 35.6973C6.10711 35.507 6.01278 35.4217 5.82904 35.4192C5.78803 35.4192 5.74701 35.416 5.706 35.416C3.91536 35.4192 2.12471 35.4233 0.334072 35.4266C0.333252 28.6455 0.333252 21.8651 0.333252 15.084C0.400514 15.093 0.467776 15.1102 0.535038 15.1102C2.27072 15.1119 4.00641 15.1127 5.74127 15.1102C5.84545 15.1102 5.9488 15.0832 6.10711 15.061V0.890095C7.64101 2.42317 9.09944 3.88079 10.5579 5.3384C12.0073 6.78781 13.4551 8.23887 14.9053 9.68746C16.3588 11.1377 17.7951 12.606 19.2675 14.0357C19.3068 14.0193 19.3454 14.0037 19.3848 13.9873C19.3848 13.8175 19.3848 13.6469 19.3848 13.4771C19.3848 9.30931 19.3848 5.14154 19.384 0.972941C19.384 0.809708 19.37 0.645655 19.3634 0.482422C19.8006 0.482422 20.2387 0.482422 20.6759 0.482422V0.483242ZM32.5984 46.4707C32.6313 46.4617 32.6649 46.4535 32.6977 46.4444C32.7067 46.3001 32.7223 46.1557 32.7223 46.0113C32.7223 40.6115 32.719 35.2125 32.7264 29.8127C32.7264 29.4862 32.6255 29.2516 32.3942 29.022C30.3485 26.9885 28.3126 24.9452 26.2742 22.9052C24.5639 21.1933 22.8537 19.4823 21.1426 17.772C21.0351 17.6646 20.9179 17.5678 20.8055 17.466C20.7784 17.4833 20.7513 17.5013 20.7251 17.5185V17.9631C20.7251 23.3629 20.7275 28.7619 20.7193 34.1618C20.7193 34.4702 20.7997 34.6941 21.0237 34.9172C24.7788 38.6626 28.5258 42.4161 32.2753 46.168C32.3794 46.2722 32.4902 46.3706 32.5984 46.4715V46.4707ZM19.3643 17.5325C19.3298 17.521 19.2954 17.5087 19.2617 17.4972C19.1551 17.5989 19.0452 17.6974 18.941 17.8024C15.2104 21.5346 11.4823 25.2684 7.74518 28.9941C7.4827 29.2557 7.37196 29.5199 7.37278 29.8915C7.38263 35.2503 7.38017 40.6091 7.38017 45.9679C7.38017 46.0499 7.37196 46.1327 7.38345 46.2139C7.39575 46.2984 7.4261 46.3796 7.46137 46.5092C7.59261 46.3928 7.68694 46.3173 7.77143 46.2328C11.5488 42.4514 15.3245 38.6675 19.1059 34.8893C19.3044 34.6917 19.3905 34.4882 19.3905 34.2052C19.384 28.7783 19.3856 23.3506 19.3848 17.9238C19.3848 17.7933 19.3716 17.6629 19.3651 17.5325H19.3643ZM1.71786 34.1109C1.88766 34.1216 2.02054 34.138 2.15424 34.138C3.31574 34.1396 4.47806 34.1404 5.63956 34.138C6.09563 34.138 6.09891 34.1339 6.09973 33.6827C6.10137 32.2473 6.11285 30.8126 6.09235 29.3771C6.0866 28.9801 6.19324 28.6914 6.48361 28.4092C7.63035 27.2945 8.75165 26.1543 9.88198 25.0232C12.6061 22.2966 15.3302 19.5692 18.0535 16.8418C18.1618 16.7335 18.2594 16.6154 18.4234 16.435H1.71786V34.1101V34.1109ZM34.0175 34.0609C34.1135 34.0994 34.1504 34.1265 34.1881 34.1273C35.5137 34.1322 36.84 34.1339 38.1656 34.1363C38.3305 34.1363 38.4232 34.0674 38.4207 33.8927C38.4191 33.7967 38.4223 33.7016 38.4223 33.6056C38.4223 28.0417 38.4223 22.4787 38.4223 16.9148V16.4825C38.3264 16.4473 38.2755 16.412 38.2255 16.412C32.9216 16.4054 27.6186 16.4013 22.3148 16.3989C22.1524 16.3989 21.9908 16.4218 21.8283 16.4358C21.8185 16.4366 21.8087 16.4522 21.8013 16.4629C21.7939 16.4735 21.789 16.4866 21.7644 16.5359C21.8751 16.6515 21.994 16.7787 22.1171 16.9025C25.9814 20.7709 29.8432 24.6409 33.714 28.5036C33.9355 28.7242 34.0274 28.944 34.0241 29.2549C34.0093 30.6904 34.0175 32.125 34.0175 33.5605V34.0609ZM18.3045 15.0889C14.665 11.4535 11.0484 7.84104 7.44989 4.24581C7.34243 4.49107 7.33423 14.7075 7.47368 15.0889H18.3045ZM32.6764 15.0848C32.6928 14.924 32.7215 14.778 32.7215 14.632C32.724 11.2829 32.724 7.93373 32.7215 4.58458C32.7215 4.44677 32.692 4.30897 32.6641 4.07027C28.9696 7.76803 25.353 11.3813 21.7447 15.0028C21.7627 15.0299 21.7816 15.0577 21.7996 15.0848H32.6756H32.6764Z" fill="#F8F0EE"/>
<path d="M210.321 15.3303C210.26 15.4616 210.184 15.5879 210.139 15.7241C207.872 22.5183 205.614 29.3159 203.332 36.1052C203.073 36.8763 202.732 37.6326 202.335 38.3421C201.459 39.9055 200.046 40.7102 198.311 40.999C196.94 41.227 195.557 41.1441 194.179 41.1581C193.69 41.163 193.201 41.1581 192.684 41.1581V38.1895C192.81 38.1789 192.926 38.16 193.043 38.1617C194.382 38.1797 195.722 38.1928 197.06 38.2256C197.497 38.2363 197.931 38.3003 198.366 38.3413C199.012 38.402 199.312 38.2265 199.535 37.6326C199.871 36.7385 200.2 35.8419 200.532 34.9462C200.564 34.8568 200.598 34.7657 200.619 34.6731C200.706 34.2769 200.527 34.0275 200.119 34.0193C199.45 34.0054 198.779 33.9947 198.11 34.0193C197.819 34.03 197.708 33.9209 197.622 33.6617C195.544 27.3932 193.458 21.128 191.375 14.862C191.341 14.7603 191.316 14.6561 191.271 14.4953C191.425 14.4838 191.551 14.4658 191.678 14.465C192.54 14.4625 193.401 14.4773 194.261 14.4568C194.572 14.4494 194.713 14.5503 194.813 14.8464C196.253 19.0831 197.706 23.3156 199.156 27.5499C199.51 28.5826 199.864 29.6153 200.218 30.6472C200.258 30.7628 200.298 30.8793 200.349 30.9909C200.455 31.2247 200.635 31.3444 200.899 31.3403C201.145 31.3362 201.316 31.2238 201.416 31.0056C201.472 30.8818 201.518 30.753 201.562 30.6242C203.359 25.3844 205.155 20.1445 206.951 14.9038C207.12 14.41 207.044 14.4674 207.577 14.465C208.342 14.4617 209.107 14.4658 209.873 14.4625C210.021 14.4625 210.171 14.4412 210.319 14.4297V15.332L210.321 15.3303Z" fill="#F8F0EE"/>
<path d="M59.2047 41.1478H55.8506V14.5244H59.2047C59.2047 14.686 59.2047 14.8312 59.2047 14.9763C59.2047 15.8647 59.2022 16.753 59.2071 17.6414C59.2079 17.7948 59.1505 17.9941 59.3794 18.0458C59.5877 18.0934 59.7083 17.958 59.8051 17.7972C60.0028 17.47 60.1824 17.1304 60.4006 16.8178C61.5219 15.2109 63.0993 14.3423 65.0072 14.0544C67.0021 13.7542 68.9289 13.9953 70.7565 14.882C72.8892 15.9172 74.3681 17.5881 75.1892 19.7724C76.3327 22.8148 76.3507 25.9236 75.1129 28.9348C73.8153 32.092 71.393 33.9565 68.0028 34.4954C66.7085 34.7013 65.4157 34.6267 64.1418 34.2936C62.2971 33.8121 60.928 32.7212 59.9905 31.0716C59.9027 30.9174 59.8322 30.7443 59.7108 30.6221C59.6296 30.5401 59.4671 30.4901 59.3539 30.5081C59.2908 30.5179 59.2358 30.6918 59.2104 30.7993C59.1858 30.9026 59.2047 31.0167 59.2047 31.1258C59.2047 34.2961 59.2047 37.4672 59.2047 40.6376C59.2047 40.7983 59.2047 40.9591 59.2047 41.1461V41.1478ZM59.1103 24.1412C59.212 25.0624 59.244 25.8736 59.3982 26.6602C59.8732 29.0841 61.3341 30.6352 63.6956 31.339C64.625 31.6163 65.5781 31.6376 66.5387 31.5843C69.1701 31.4383 71.3963 29.7551 72.1821 27.241C72.7973 25.2732 72.8112 23.2742 72.1829 21.3104C71.4964 19.1638 70.0281 17.7694 67.8462 17.1689C66.6691 16.8449 65.4625 16.8137 64.2706 17.0598C61.8287 17.5635 60.1471 18.9612 59.5098 21.4187C59.2719 22.3358 59.2276 23.3029 59.1103 24.1412Z" fill="#F8F0EE"/>
<path d="M112.404 41.1357H109.059V14.4934H112.403V14.9544C112.403 15.7878 112.403 16.622 112.403 17.4554C112.403 17.5645 112.395 17.6761 112.414 17.7827C112.459 18.0452 112.653 18.1215 112.856 17.9476C112.957 17.8614 113.034 17.74 113.098 17.6219C114.391 15.198 116.477 14.0825 119.157 13.9299C121.283 13.8093 123.263 14.2638 125.032 15.4654C127.031 16.8238 128.271 18.7358 128.832 21.0638C129.396 23.404 129.397 25.768 128.641 28.0639C127.513 31.4877 125.19 33.6688 121.615 34.3931C120.095 34.7015 118.568 34.6334 117.075 34.1848C115.357 33.668 114.079 32.5959 113.203 31.0374C113.109 30.8717 113.02 30.6962 112.893 30.5592C112.824 30.4862 112.669 30.4443 112.57 30.4665C112.501 30.4821 112.438 30.6232 112.415 30.7183C112.387 30.8348 112.404 30.9627 112.404 31.0858C112.404 34.243 112.404 37.4002 112.404 40.5582V41.1357ZM112.376 24.5565C112.412 24.9362 112.44 25.6351 112.55 26.3217C112.96 28.8735 114.404 30.5543 116.883 31.3023C117.955 31.6263 119.063 31.6649 120.172 31.5049C122.641 31.1489 124.408 29.8472 125.279 27.5004C126.09 25.3127 126.077 23.0669 125.251 20.8817C124.505 18.9114 123.049 17.6613 121.006 17.1248C119.796 16.8074 118.566 16.7795 117.351 17.0551C114.951 17.6006 113.341 19.0131 112.698 21.4362C112.454 22.354 112.397 23.2949 112.377 24.5556L112.376 24.5565Z" fill="#F8F0EE"/>
<path d="M154.928 25.1669H139.249C139.317 25.6254 139.362 26.0413 139.442 26.4498C140 29.2748 142.07 31.1729 144.935 31.5125C145.839 31.6191 146.736 31.6002 147.631 31.4624C149.585 31.1614 150.837 29.9991 151.588 28.2248C151.64 28.1002 151.69 27.9747 151.746 27.836H155.268C155.245 27.9484 155.232 28.0501 155.202 28.1461C154.447 30.5044 153.076 32.3803 150.877 33.582C149.882 34.1258 148.784 34.3703 147.664 34.4827C145.881 34.6623 144.112 34.5885 142.393 34.0356C138.815 32.8856 136.677 30.424 135.953 26.7664C135.48 24.3786 135.597 21.9966 136.516 19.7154C137.769 16.6074 140.093 14.747 143.369 14.1212C145.382 13.7373 147.403 13.7734 149.35 14.4928C152.28 15.5747 154.02 17.7066 154.696 20.7317C155.018 22.1729 154.92 23.6379 154.927 25.1661L154.928 25.1669ZM151.171 22.3501C151.171 22.1639 151.183 22.0269 151.169 21.8932C151.124 21.5003 151.088 21.1049 151.015 20.7169C150.639 18.7089 149.342 17.4178 147.331 17.0348C146.453 16.8674 145.571 16.851 144.68 16.9486C141.917 17.2513 140.007 18.9673 139.43 21.6947C139.386 21.9022 139.361 22.1139 139.322 22.3501H151.17H151.171Z" fill="#F8F0EE"/>
<path d="M92.8806 27.8349H96.3946C96.3667 27.9645 96.3527 28.0703 96.3224 28.1704C95.7416 30.0849 94.6515 31.6598 93.0938 32.9009C91.9856 33.7835 90.679 34.2198 89.2952 34.4175C87.4373 34.6825 85.5851 34.6439 83.7731 34.1099C80.1443 33.0403 77.9115 30.6386 77.1191 26.9457C76.6319 24.6752 76.691 22.3957 77.4661 20.1941C78.7334 16.5964 81.3246 14.5654 85.0815 14.0273C86.6482 13.8034 88.2214 13.8305 89.7553 14.266C92.8789 15.1536 94.8722 17.1755 95.7203 20.3139C95.9385 21.1218 96.0419 21.9478 96.0476 22.7845C96.0525 23.5605 96.0484 24.3373 96.0484 25.1633H80.3936C80.5175 26.9129 81.0252 28.4452 82.2294 29.6969C83.1735 30.6787 84.3391 31.2349 85.6688 31.4564C86.923 31.6655 88.1755 31.6417 89.4092 31.3169C90.8996 30.9248 91.888 29.9389 92.5475 28.5846C92.6665 28.3402 92.769 28.0875 92.8814 27.8324L92.8806 27.8349ZM92.2686 22.3473C92.3375 21.76 92.2375 21.2112 92.1284 20.6658C91.7273 18.67 90.4485 17.4118 88.4462 17.0344C87.5677 16.8687 86.6867 16.8573 85.7967 16.9499C83.0546 17.2362 81.0613 19.0433 80.5446 21.7419C80.5076 21.9355 80.4863 22.1316 80.4552 22.3481H92.2695L92.2686 22.3473Z" fill="#F8F0EE"/>
<path d="M153.489 33.9878C153.401 33.5719 153.444 33.2446 153.721 32.9059C156.15 29.9324 158.562 26.9442 160.978 23.9592C161.054 23.8649 161.123 23.7656 161.204 23.6565C160.365 22.5418 159.536 21.4402 158.706 20.3386C157.498 18.7341 156.299 17.1231 155.073 15.5318C154.815 15.1963 154.819 14.8698 154.868 14.4556C155.027 14.4556 155.161 14.4556 155.294 14.4556C156.25 14.4556 157.208 14.4646 158.164 14.4499C158.437 14.4458 158.608 14.5278 158.772 14.755C160.357 16.9476 161.955 19.1303 163.548 21.3163C163.644 21.4484 163.743 21.578 163.871 21.7502C163.98 21.6223 164.077 21.5165 164.166 21.4033C165.898 19.2017 167.633 17.0025 169.354 14.7919C169.553 14.5368 169.758 14.4425 170.074 14.449C171.031 14.4679 171.988 14.4556 172.944 14.4556C173.079 14.4556 173.213 14.4556 173.369 14.4556C173.442 14.8961 173.424 15.2455 173.123 15.6105C170.855 18.3634 168.612 21.1359 166.36 23.9026C166.274 24.0084 166.193 24.1167 166.098 24.2398C166.413 24.663 166.721 25.0789 167.031 25.4939C168.881 27.967 170.723 30.4451 172.588 32.9051C172.853 33.2528 172.863 33.5875 172.807 33.9927C172.657 33.9993 172.524 34.01 172.39 34.01C171.461 34.0116 170.531 34.0001 169.602 34.0173C169.309 34.0231 169.136 33.9222 168.964 33.6859C167.235 31.3113 165.491 28.9464 163.753 26.5792C163.656 26.4479 163.557 26.3175 163.433 26.1518C163.324 26.2814 163.227 26.3897 163.137 26.5037C161.244 28.9087 159.349 31.3121 157.463 33.7229C157.306 33.923 157.155 34.0231 156.887 34.0182C155.875 34.0001 154.864 34.0116 153.853 34.01C153.733 34.01 153.613 33.996 153.489 33.9886L153.489 33.9878Z" fill="#F8F0EE"/>
<path d="M186.284 14.4519H190.182C190.499 15.3993 190.808 16.3245 191.134 17.2998H186.292C186.292 17.4975 186.292 17.6558 186.292 17.8133C186.288 21.1887 186.293 24.5633 186.276 27.9387C186.273 28.6605 186.188 29.3824 186.141 30.105C186.138 30.146 186.133 30.1862 186.129 30.2272C186.06 31.0737 186.211 31.2173 187.049 31.1812C188.522 31.1172 189.996 31.0688 191.47 31.0155C191.605 31.0106 191.741 31.0155 191.914 31.0155V33.9578C191.893 33.9709 191.87 33.9972 191.848 33.998C190.415 34.0005 188.978 34.0981 187.554 33.8618C186.208 33.6387 185.013 33.122 184.147 32.013C183.462 31.1353 183.142 30.1116 183.021 29.0247C182.956 28.4423 182.935 27.8534 182.934 27.2669C182.925 24.1244 182.93 20.9812 182.93 17.8387V17.317H179.268V14.4756H182.91V9.22266H186.283V14.4543L186.284 14.4519Z" fill="#F8F0EE"/>
<path d="M134.092 33.9888H130.784V6.979H134.092V33.9888Z" fill="#F8F0EE"/>
<path d="M100.745 14.4898C100.745 15.4118 100.745 16.2985 100.745 17.1861C100.745 17.3091 100.718 17.4436 100.759 17.5519C100.801 17.6618 100.9 17.8103 100.994 17.825C101.095 17.8414 101.232 17.7414 101.326 17.6593C101.391 17.6019 101.415 17.4928 101.444 17.4026C102.059 15.5472 103.429 14.6465 105.294 14.4587C106.144 14.3734 107.01 14.4439 107.899 14.4439V17.7348C107.754 17.7422 107.609 17.7545 107.464 17.7561C106.713 17.7643 105.959 17.7356 105.21 17.7865C104.655 17.8242 104.093 17.9087 103.561 18.067C101.994 18.5338 101.159 19.6624 100.905 21.2332C100.801 21.8772 100.753 22.5367 100.75 23.1896C100.735 26.6199 100.744 30.0503 100.744 33.4807V33.9859H97.4092V14.4898H100.747H100.745Z" fill="#F8F0EE"/>
<path d="M174.812 14.4888H178.12V33.9832H174.842C174.743 33.7134 174.707 15.0703 174.812 14.4888Z" fill="#F8F0EE"/>
<path d="M178.299 12.2822H174.435V8.13574H178.299V12.2822Z" fill="#F8F0EE"/>
</svg>
