<svg width="213" height="68" viewBox="0 0 213 68" fill="none" xmlns="http://www.w3.org/2000/svg">
<path d="M32.7234 1.02306C34.3195 2.04546 35.4221 3.4793 35.9445 5.29568C36.0105 5.63832 36.0173 5.95481 36.0063 6.30295C36.1273 6.32634 36.2469 6.35111 36.372 6.3745C43.1469 7.87715 49.1463 12.6451 52.8527 18.419C54.7636 21.4574 56.0312 24.6663 56.7653 28.1821C56.7891 28.2885 56.8134 28.3963 56.8382 28.5055C57.5805 31.8176 57.5228 35.8893 56.7653 39.1905C56.7378 39.318 56.7103 39.4464 56.6828 39.5758C55.106 46.8605 50.7383 53.2908 44.512 57.3956C41.8807 59.0895 39.0844 60.438 36.0063 61.0696C35.9953 61.2457 35.983 61.4219 35.972 61.6035C35.8166 62.9397 35.231 63.9277 34.3566 64.9225C34.2782 65.0175 34.1985 65.1124 34.1174 65.2101C33.1317 66.3082 31.5383 67.1476 30.0632 67.2907C27.8443 67.4008 25.9513 67.0692 24.2287 65.5638C23.056 64.4327 22.0318 63.0649 21.9686 61.3613C21.9727 61.2636 21.9782 61.1673 21.9837 61.0669C21.8944 61.0476 21.8064 61.0297 21.7143 61.0104C19.5325 60.5109 17.4855 59.6509 15.5223 58.59C15.4398 58.5459 15.3564 58.5015 15.2721 58.4565C8.86706 55.0136 4.12549 48.9645 1.91624 42.0747C1.64404 41.1665 1.4227 40.2528 1.22474 39.3253C1.19999 39.2166 1.17662 39.1079 1.15187 38.9951C0.423246 35.5866 0.463115 31.4378 1.22474 28.0417C1.25223 27.917 1.27973 27.7908 1.30722 27.6633C2.95144 20.3372 7.42631 13.8657 13.742 9.80499C15.279 8.83625 16.8352 8.02438 18.5207 7.34187C18.6595 7.28545 18.7997 7.22765 18.9427 7.16986C19.9381 6.77906 20.9361 6.51624 21.9837 6.30157C21.9947 6.12544 22.0071 5.94931 22.0181 5.76767C22.216 4.08201 23.1509 2.65505 24.4322 1.57072C26.893 -0.278683 30.0508 -0.4328 32.7234 1.02031V1.02306ZM26.0255 5.17872C25.5306 5.9438 25.3106 6.77218 25.4193 7.68037C25.7162 8.87065 26.1767 9.66876 27.2106 10.3375C28.1523 10.8301 29.1806 10.9044 30.1952 10.5907C31.1369 10.1683 31.8545 9.54354 32.3055 8.60645C32.7055 7.51937 32.6189 6.63733 32.1996 5.56814C31.7652 4.69435 31.0668 4.1343 30.1649 3.78066C28.518 3.34582 27.08 3.85771 26.0255 5.17872ZM22.2573 9.88205C15.7835 11.8278 10.4398 16.1183 7.18847 22.0518C6.61932 23.0031 6.18902 23.992 5.89757 25.0186C5.97868 25.0309 6.05979 25.042 6.14365 25.0543C6.69768 25.1534 7.07849 25.2552 7.54729 25.5772C7.91572 26.1194 7.99684 26.5694 7.95972 27.2202C7.74938 27.889 7.38919 28.1986 6.86265 28.6197C6.40898 29.0311 6.05017 29.5182 5.6776 30.0026C5.45673 30.2576 5.26334 30.4416 5.09745 30.5544C4.6589 30.8558 4.41969 31.0539 4.29871 31.5864C4.26984 32.046 4.27397 32.496 4.29046 32.9556C4.29046 33.1097 4.29046 33.2638 4.29046 33.4235C4.31246 34.7568 4.64928 35.8659 5.32291 37.0149C5.66661 37.6809 5.68585 38.0552 5.48651 38.7777C5.41319 38.8685 5.33895 38.9602 5.2638 39.0529C5.00809 39.4258 5.09058 39.69 5.15382 40.1221C5.24868 40.6202 5.39303 41.0935 5.55525 41.5724C5.59099 41.6784 5.62674 41.7843 5.66386 41.8944C7.81674 48.0453 12.4511 53.1106 18.2718 55.9782C19.6026 56.6043 20.954 57.1809 22.3961 57.4919C22.4575 57.3809 22.5199 57.2685 22.5831 57.1548C23.0134 56.3938 23.3997 55.7402 24.0459 55.1526V54.8774C24.1242 54.8402 24.2012 54.8031 24.2823 54.7646C24.6068 54.5967 24.9065 54.4054 25.2144 54.2073C26.9782 53.1642 28.8589 52.9344 30.8647 53.3225C32.9612 53.9678 34.3814 55.2737 35.4262 57.1754C35.4812 57.28 35.5362 57.3846 35.5925 57.4933C41.6717 56.0525 46.8697 51.7056 50.1362 46.4849C50.9294 45.1749 51.6374 43.825 52.0897 42.3568C52.0082 42.3448 51.9261 42.3329 51.8436 42.321C51.2896 42.2219 50.9088 42.1201 50.44 41.7981C50.0702 41.2545 49.9918 40.8073 50.0276 40.1551C50.2407 39.4437 50.6765 39.1079 51.2277 38.6511C51.8134 38.1171 52.3166 37.4966 52.7771 36.8526V36.5774C53.0493 36.4865 53.3215 36.3957 53.602 36.3021C53.6185 35.7146 53.6281 35.127 53.6363 34.5394C53.6409 34.3752 53.6455 34.2092 53.6501 34.0413C53.6652 32.6639 53.3999 31.6029 52.6657 30.4374C52.3413 29.8815 52.3097 29.4907 52.4197 28.8619C52.4747 28.6857 52.5768 28.5032 52.7262 28.3142C52.9861 27.9482 52.8995 27.6812 52.8362 27.2533C52.7414 26.7551 52.597 26.2818 52.4348 25.8029C52.399 25.697 52.3633 25.591 52.3262 25.4809C50.1733 19.33 45.539 14.2648 39.7182 11.3971C38.3874 10.771 37.036 10.1944 35.5939 9.88342C35.532 9.99488 35.4715 10.1063 35.4069 10.2206C34.9766 10.9815 34.5903 11.6351 33.9442 12.2227V12.4979C33.8658 12.5351 33.7888 12.5722 33.7077 12.6107C33.3833 12.7786 33.0836 12.9699 32.7756 13.168C31.0118 14.2111 29.1311 14.4409 27.1253 14.0528C25.5705 13.574 24.1696 12.6933 23.2732 11.3283C22.946 10.8393 22.6079 10.3577 22.2587 9.88342L22.2573 9.88205ZM26.1767 57.8882C25.6131 58.6822 25.2818 59.6867 25.4193 60.6568C25.719 61.8471 26.1754 62.6438 27.2106 63.3139C28.1523 63.8066 29.1806 63.8809 30.1952 63.5671C31.1369 63.1447 31.8545 62.52 32.3055 61.5829C32.7055 60.4958 32.6189 59.6138 32.1996 58.5446C31.7652 57.6694 31.0668 57.1121 30.1649 56.7571C28.6472 56.3594 27.2394 56.7364 26.1767 57.8882Z" fill="#F8F0EE"/>
<path d="M164.27 17.4487H168.12C168.47 18.4147 168.821 19.3807 169.166 20.3481C169.211 20.4747 169.256 20.6013 169.302 20.7306C169.446 21.1352 169.591 21.5411 169.735 21.9457C169.784 22.0846 169.834 22.2236 169.885 22.3653C170.517 24.1432 171.137 25.9224 171.724 27.7154C172.357 29.6419 173.032 31.5546 173.719 33.4604C174.266 34.9782 174.79 36.5001 175.285 38.0358C175.338 38.2023 175.392 38.3688 175.447 38.5408C175.694 39.3159 175.817 39.8072 175.817 40.0145H176.092C176.119 39.859 176.148 39.7049 176.177 39.5453C176.393 38.5779 176.746 37.6518 177.08 36.7203C177.284 36.1506 177.486 35.5809 177.688 35.0112C177.728 34.897 177.769 34.7842 177.81 34.6672C178.158 33.682 178.489 32.6926 178.817 31.7004C179.214 30.495 179.63 29.3006 180.068 28.1103C180.663 26.4894 181.217 24.8532 181.776 23.2185C182.023 22.5002 182.27 21.7805 182.517 21.0622C182.604 20.8118 182.689 20.5627 182.775 20.3123C182.828 20.1582 182.88 20.0027 182.935 19.8431C182.981 19.7091 183.027 19.5738 183.074 19.4371C183.308 18.7725 183.55 18.1106 183.79 17.4487H187.64V42.2176H185.44V19.5128H185.165C185.154 19.6408 185.143 19.7687 185.131 19.8995C185.048 20.4843 184.845 21.0072 184.636 21.5562C184.485 21.9718 184.351 22.3901 184.224 22.8139C183.928 23.7813 183.62 24.7445 183.301 25.705C183.27 25.7986 183.239 25.8931 183.208 25.9885C182.293 28.7364 181.299 31.4583 180.318 34.1828C179.696 35.9098 179.085 37.6408 178.473 39.3705C178.422 39.5164 178.37 39.6609 178.318 39.8109C178.034 40.6131 177.751 41.4153 177.468 42.2162H174.306C174.222 41.9726 174.14 41.7291 174.053 41.4786C173.456 39.7393 172.856 38.0041 172.234 36.273C171.759 34.9465 171.291 33.6187 170.833 32.2866C170.501 31.3193 170.164 30.3519 169.826 29.3859C168.75 26.3091 167.986 24.0982 167.534 22.7534C167.486 22.613 167.439 22.4727 167.39 22.3282C167.08 21.3994 166.83 20.4636 166.606 19.5114H166.331C166.335 19.649 166.339 19.7866 166.343 19.9297C166.474 24.4253 166.486 28.9208 166.478 33.4191C166.477 34.3824 166.475 35.3442 166.475 36.3074C166.474 38.2779 166.471 40.2471 166.468 42.2176H164.269V17.4487H164.27Z" fill="#F8F0EE"/>
<path d="M127.564 17.4497C127.709 17.4896 127.854 17.5295 128.003 17.5708C129.511 18.0317 130.756 18.7858 131.963 19.789C132.046 19.8523 132.13 19.9155 132.215 19.9802C133.947 21.3425 135.013 23.5717 135.4 25.706C135.718 28.9699 135.151 31.3932 133.143 33.9774C131.797 35.4855 130.021 36.4006 128.021 36.6166C127.043 36.6497 126.222 36.4267 125.381 35.9314C124.978 35.4938 124.856 35.0782 124.677 34.5127C124.614 34.5842 124.551 34.6558 124.485 34.7287C123.383 35.908 122.175 36.4942 120.553 36.5767C119.387 36.501 118.304 36.1859 117.494 35.3121C116.679 34.2388 116.473 33.2577 116.497 31.9243C116.499 31.7775 116.501 31.6294 116.503 31.4798C116.529 30.4313 116.657 29.5465 117.116 28.5957C117.171 28.4636 117.226 28.3301 117.282 28.1938C118.238 26.05 120.029 24.257 122.203 23.3667C123.192 22.9869 124.397 22.9029 125.42 23.1809C126.276 23.5635 126.781 24.2556 127.289 25.0179C127.471 24.6092 127.652 24.2006 127.839 23.7795H129.901C129.802 24.3712 129.707 24.8157 129.508 25.3647C129.454 25.5119 129.402 25.6592 129.347 25.8105C129.289 25.9692 129.231 26.1293 129.171 26.2908C129.079 26.5453 128.988 26.7999 128.896 27.0545C128.653 27.7301 128.408 28.4044 128.162 29.0773C127.97 29.6043 127.779 30.1313 127.59 30.6583C127.516 30.8634 127.442 31.0684 127.366 31.2721C127.26 31.561 127.156 31.85 127.051 32.139C126.991 32.3041 126.93 32.4706 126.869 32.6412C126.717 33.215 126.697 33.6444 126.739 34.2347C127.025 34.6049 127.234 34.748 127.695 34.8374C128.995 34.9117 130.153 34.3558 131.13 33.5357C131.587 33.1105 131.994 32.6646 132.376 32.1706L132.564 31.9284C133.847 30.0859 134.013 27.8498 133.709 25.6812C133.323 23.6116 132.04 21.7127 130.319 20.5224C127.673 18.7872 124.574 18.3744 121.479 18.8519C118.176 19.5468 115.66 21.443 113.826 24.2295C112.262 26.7132 111.896 30.1217 112.476 32.9605C113.179 35.6892 114.549 38.0257 116.996 39.5132C119.097 40.7049 121.196 41.0998 123.579 41.1136C123.672 41.1136 123.766 41.1163 123.863 41.1177C126.115 41.1301 128.474 40.504 130.315 39.1871C130.432 39.1073 130.55 39.0261 130.671 38.9435C131.792 38.1206 132.575 37.0308 133.34 35.8846C133.872 35.963 134.175 36.2272 134.577 36.5726C134.401 37.9363 132.957 39.1513 131.965 40.0127C128.843 42.3685 124.919 43.1639 121.077 42.652C117.715 42.147 114.769 40.6223 112.707 37.8399C112.466 37.4698 112.245 37.0955 112.029 36.7116C111.967 36.6097 111.906 36.5079 111.842 36.402C110.275 33.6086 110.124 29.8492 110.929 26.804C112.005 23.2112 114.201 20.4522 117.432 18.556C120.487 16.9171 124.225 16.5208 127.564 17.4469V17.4497ZM121.928 25.5683C121.849 25.6248 121.771 25.6798 121.69 25.7376C121.1 26.1834 120.693 26.7545 120.278 27.3572C120.219 27.4411 120.158 27.5237 120.098 27.6104C118.94 29.3277 118.499 31.3588 118.861 33.3953C119.124 34.0242 119.442 34.4755 120.037 34.8402C121.101 35.0823 121.955 34.9392 122.89 34.375C124.175 33.4655 124.853 32.2284 125.373 30.7712C125.418 30.6446 125.465 30.5194 125.512 30.3886C125.604 30.1368 125.694 29.885 125.785 29.6318C125.899 29.3236 126.02 29.0195 126.147 28.7154C126.545 27.7232 126.743 26.9953 126.327 25.9798C126.033 25.439 125.754 25.0592 125.227 24.7413C123.913 24.5281 122.967 24.7592 121.928 25.567V25.5683Z" fill="#F8F0EE"/>
<path d="M43.5589 16.3925C44.8291 17.4328 45.8575 18.7882 46.0403 20.4766C46.0596 21.0284 46.0568 21.5761 46.0403 22.1279C46.1989 22.0829 46.3593 22.0371 46.5215 21.9903C47.5223 21.8761 48.3623 22.465 49.205 22.9384C49.4566 23.0801 49.7109 23.215 49.9653 23.3498C50.9074 23.8645 51.4775 24.3745 51.6755 24.88C51.7703 25.4524 51.8061 25.985 51.549 26.5189C51.1682 27.0211 50.7736 27.2468 50.1632 27.3569C49.2971 27.3101 48.7032 26.9936 47.9719 26.5657C47.8674 26.5065 47.7629 26.4473 47.6557 26.3868C46.4514 25.6997 45.5917 25.1515 45.0766 24.7424C45.0395 24.8222 45.0024 24.902 44.9639 24.9846C44.2847 26.2739 43.0791 27.0583 41.7235 27.5137C40.3804 27.8468 38.9988 27.9087 37.7051 27.3748C37.5117 27.3096 37.311 27.3041 37.1029 27.3583C36.5448 27.8261 36.0911 28.3545 35.6347 28.9214C35.4134 29.1967 35.181 29.4609 34.9459 29.7237C34.8731 29.8076 34.8002 29.8916 34.7246 29.9796C34.4442 30.3016 34.1582 30.6195 33.8709 30.9374C33.5011 31.3474 33.134 31.7589 32.7711 32.1758C32.3064 32.7111 31.8321 33.2367 31.3564 33.7624C30.999 34.1628 30.6539 34.5715 30.3116 34.9843C29.9005 35.393 29.5857 35.4742 29.0083 35.5306C28.4131 35.5141 28.0707 35.3201 27.6171 34.9279C27.2198 34.4504 27.1276 34.0321 27.1579 33.4087C27.3036 32.5556 28.1189 31.8923 28.6756 31.2814C28.9451 30.9855 29.2104 30.6883 29.4716 30.3856C29.9377 29.8489 30.4133 29.3219 30.889 28.7948C31.1516 28.5017 31.4128 28.2059 31.6712 27.9087C32.0342 27.4917 32.4013 27.0803 32.7711 26.6702C32.8742 26.5546 32.9773 26.4391 33.0831 26.3193C33.2811 26.1005 33.4846 25.8873 33.6922 25.6781C33.941 25.4208 34.1623 25.1841 34.352 24.88C34.3319 24.5984 34.2402 24.3232 34.0771 24.0544C34.0015 23.8493 33.93 23.6429 33.8626 23.4351C33.8278 23.3306 33.7925 23.2246 33.7568 23.1173C33.644 22.7457 33.5767 22.3756 33.5286 21.9903C33.4117 22.0357 33.2962 22.0811 33.1752 22.1265C32.4274 22.3453 31.6974 22.2793 30.9247 22.249C30.6429 22.238 30.3597 22.2325 30.0779 22.2256C29.8978 22.2201 29.7191 22.2132 29.5335 22.2077C29.3699 22.2022 29.2077 22.1967 29.0386 22.1912C28.3402 22.0935 27.8934 21.872 27.4287 21.3449C27.1565 20.789 27.1056 20.3955 27.206 19.7886C27.4425 19.1267 27.6803 18.8557 28.3058 18.5502C28.5808 18.5162 28.8695 18.4997 29.1719 18.5006C29.3383 18.5006 29.5032 18.5006 29.6751 18.5006C29.8474 18.5025 30.0215 18.5048 30.1975 18.5075C30.368 18.5075 30.5371 18.5075 30.713 18.5075C31.9063 18.5144 33.0721 18.5227 34.0812 19.2396C34.094 19.1414 34.1069 19.0423 34.1197 18.9424C34.4606 17.5952 35.6993 16.5907 36.8404 15.904C38.9424 14.7757 41.6383 14.978 43.5602 16.3939L43.5589 16.3925ZM37.6542 19.9262C37.2404 20.4739 37.0837 21.0312 37.1043 21.7151C37.2693 22.5036 37.6405 23.0774 38.2041 23.6416C38.8008 24.0268 39.4167 24.2154 40.1288 24.192C40.9138 24.0158 41.6122 23.6663 42.0796 22.9921C42.4728 22.3027 42.6006 21.6752 42.4659 20.8895C42.1648 19.9469 41.6273 19.4047 40.7736 18.9203C39.4744 18.5873 38.5437 18.9162 37.6542 19.9262Z" fill="#F8F0EE"/>
<path d="M79.4474 19.2379C81.2346 20.7777 82.3248 23.0331 82.8843 25.2926C82.9255 25.4494 82.9668 25.6077 83.0094 25.77C83.6033 28.4767 83.5703 31.6925 82.8843 34.3745C82.8472 34.5355 82.8114 34.6978 82.7729 34.8643C82.2849 36.8128 81.3803 38.5576 79.9973 40.0163C79.8928 40.1263 79.7883 40.2364 79.6811 40.3506C78.5771 41.4267 76.9013 42.4931 75.3231 42.4931C75.4441 42.8234 75.5678 43.1536 75.6929 43.4825C75.7259 43.5747 75.7603 43.6683 75.7946 43.7632C76.0696 44.4774 76.416 44.9838 77.0828 45.3994C77.465 45.5521 77.7715 45.5535 78.1826 45.5521C78.3366 45.5521 78.4919 45.5521 78.6514 45.5521C78.8122 45.5507 78.9731 45.5493 79.1394 45.5466C79.2975 45.5466 79.457 45.5466 79.6206 45.5466C80.4468 45.5425 81.2442 45.5094 82.0608 45.3828C82.0649 45.6209 82.0677 45.859 82.0691 46.097C82.0704 46.2291 82.0718 46.3626 82.0746 46.4988C82.0622 46.8772 82.0086 47.2171 81.9233 47.5845C80.9816 47.7551 80.0426 47.7579 79.0886 47.7648C78.925 47.7689 78.76 47.773 78.5909 47.7772C77.3179 47.7868 75.8977 47.6574 74.8447 46.8621C74.0995 46.042 73.6747 45.1173 73.298 44.0839C73.2156 43.8637 73.1331 43.6421 73.0506 43.422C73.0148 43.3257 72.9805 43.2293 72.9434 43.1316C72.892 42.9803 72.815 42.8592 72.7124 42.7684C72.4292 42.7298 72.146 42.6968 71.8614 42.6651C70.1966 42.4326 68.8108 41.8891 67.4883 40.8419C67.3852 40.7703 67.2821 40.6974 67.1762 40.6231C67.0983 40.5589 67.019 40.4942 66.9384 40.4291V40.1539H66.6634C63.7297 36.7358 62.9873 32.5278 63.2457 28.1396C63.4148 26.0604 63.9056 24.1133 64.8762 22.2653C64.9367 22.1469 64.9972 22.0286 65.0591 21.9061C66.295 19.6631 68.342 18.0422 70.7877 17.3115C73.8438 16.4817 77.0305 17.2441 79.4487 19.2379H79.4474ZM68.32 21.3612C65.7739 24.5385 65.5141 28.5964 65.9018 32.5099C66.2262 35.1258 67.2216 37.5972 69.2741 39.3269C70.8496 40.4951 72.5832 40.7579 74.4982 40.5653C76.3679 40.2268 77.7825 39.1961 78.8975 37.6756C79.2673 37.0509 79.5739 36.4151 79.8598 35.7491C79.9148 35.6225 79.9698 35.4959 80.0261 35.3652C81.3597 31.8714 81.2263 27.0553 79.7223 23.6399C78.7352 21.7107 77.4512 20.2301 75.3739 19.4719C74.8969 19.3288 74.446 19.2586 73.9483 19.2366C73.8425 19.2311 73.7366 19.2256 73.628 19.2201C71.5576 19.165 69.7484 19.8104 68.32 21.3598V21.3612Z" fill="#F8F0EE"/>
<path d="M195.065 17.4487H197.403C197.403 17.662 197.403 17.8767 197.404 18.0968C197.409 20.1196 197.416 22.141 197.427 24.1638C197.433 25.2028 197.437 26.243 197.44 27.282C197.441 28.1888 197.445 29.0956 197.451 30.0038C197.453 30.4826 197.456 30.9629 197.456 31.4417C197.411 34.0452 197.943 36.4909 199.052 38.7788C199.143 38.8242 199.234 38.8696 199.327 38.9164V39.1916C199.404 39.2302 199.481 39.2687 199.56 39.3072C199.774 39.4146 199.987 39.5233 200.199 39.6347C202.042 40.5443 204.217 40.6984 206.201 40.1549C207.825 39.5068 208.909 38.7664 209.632 37.1331C210.027 35.9813 210.093 34.8943 210.094 33.6806C210.096 33.5044 210.097 33.3283 210.098 33.1467C210.103 32.6678 210.104 32.1889 210.107 31.7101C210.109 31.2078 210.112 30.7069 210.116 30.2047C210.123 29.2552 210.127 28.3071 210.133 27.3576C210.138 26.2761 210.145 25.1959 210.152 24.1157C210.166 21.8934 210.178 19.6724 210.189 17.4501H212.526C212.536 19.7853 212.543 22.1204 212.548 24.4556C212.551 25.5399 212.554 26.6242 212.558 27.7085C212.562 28.6539 212.565 29.6006 212.566 30.5459C212.566 31.0454 212.568 31.5463 212.57 32.0458C212.573 32.6059 212.573 33.1673 212.573 33.7274C212.574 33.8897 212.576 34.0535 212.577 34.2214C212.569 36.5372 211.978 38.6591 210.393 40.3943C210.257 40.5099 210.098 40.5677 209.914 40.5677C209.869 40.7039 209.824 40.8401 209.777 40.9805C207.617 42.5616 204.818 43.0707 202.199 42.6951C199.961 42.329 198.049 41.5406 196.579 39.7421C195.635 38.3234 195.049 36.668 195.05 34.9575C195.05 34.8021 195.05 34.6479 195.05 34.4869C195.05 34.3191 195.05 34.1512 195.052 33.9778C195.052 33.7989 195.052 33.62 195.052 33.437C195.052 32.9485 195.052 32.4614 195.053 31.9729C195.053 31.4624 195.053 30.9519 195.053 30.4414C195.053 29.4754 195.054 28.508 195.056 27.542C195.057 26.4412 195.059 25.3404 195.059 24.2409C195.06 21.9773 195.063 19.7151 195.065 17.4515V17.4487Z" fill="#F8F0EE"/>
<path d="M103.445 18.7122C104.859 19.8778 105.655 21.1671 106.393 22.8142C106.451 22.9353 106.51 23.0564 106.57 23.1816C106.688 23.5669 106.64 23.8064 106.53 24.1903C106.268 24.2825 106.004 24.3747 105.74 24.4655C105.593 24.5164 105.447 24.5673 105.296 24.6196C105.019 24.7003 104.697 24.7407 104.331 24.7407C104.302 24.6682 104.274 24.5948 104.245 24.5205C103.427 22.4386 102.653 20.7488 100.542 19.7443C99.0983 19.1539 97.1503 19.1526 95.6697 19.6493C94.6977 20.0773 93.4164 20.7185 92.9201 21.7134H92.6452C92.6104 21.8061 92.5755 21.8996 92.5407 21.9941C92.3757 22.389 92.1833 22.7619 91.9825 23.1404C90.0661 26.7869 90.0661 31.054 91.1852 34.9592C91.6155 36.316 92.3221 37.5077 93.3326 38.5025V38.7778C93.4095 38.8149 93.4865 38.8521 93.5663 38.8906C93.9017 39.064 94.2152 39.258 94.5355 39.4575C96.2209 40.4717 97.9848 40.6272 99.9053 40.2749C101.281 39.8965 102.436 39.141 103.231 37.9521C103.781 36.982 104.247 35.9816 104.606 34.9248C104.843 34.9867 105.081 35.05 105.319 35.1147C105.451 35.1505 105.584 35.1849 105.721 35.2207C106.095 35.3308 106.448 35.4615 106.805 35.6128C106.776 37.2875 105.835 38.7929 104.743 40.0162C104.658 40.1125 104.574 40.2075 104.486 40.3065C102.905 41.9936 100.769 42.6472 98.5099 42.7986C95.6889 42.8715 93.3174 41.9743 91.2525 40.0671C88.4054 37.0838 87.7373 33.0121 87.8087 29.0505C87.916 25.3296 89.0185 21.8496 91.7832 19.2186C95.0826 16.5009 99.9548 16.1542 103.447 18.7122H103.445Z" fill="#F8F0EE"/>
<path d="M155.816 18.9543C156.397 19.4497 156.846 19.9725 157.259 20.6138C157.328 20.717 157.397 20.8202 157.468 20.9261C158.022 21.7944 158.772 22.9999 158.772 24.0539C158.462 24.1736 158.153 24.2906 157.844 24.4062C157.757 24.4401 157.669 24.4745 157.58 24.5094C157.229 24.6387 156.909 24.7392 156.535 24.7543C156.135 24.5025 156.048 24.069 155.902 23.6411C155.619 22.8678 155.304 22.2072 154.812 21.5399C154.702 21.3812 154.601 21.1642 154.51 20.889C154.34 20.7927 154.157 20.7009 153.96 20.6138C153.776 20.4803 153.593 20.3455 153.41 20.2092C151.976 19.2529 150.226 19.2006 148.561 19.44C147.584 19.6506 146.804 20.0469 145.986 20.6138C145.861 20.6991 145.736 20.7844 145.608 20.8725C145.164 21.2922 144.822 21.7642 144.474 22.265C144.415 22.349 144.354 22.4315 144.293 22.5182C142.365 25.379 142.118 29.5897 142.721 32.9033C143.23 35.4421 144.181 37.7593 146.301 39.3555C147.973 40.4619 149.972 40.6655 151.918 40.272C153.581 39.7684 154.727 38.8822 155.61 37.4016C155.995 36.5979 156.296 35.7709 156.572 34.9247C157.439 35.0774 158.136 35.3279 158.909 35.7503C158.63 37.7373 157.324 39.7752 155.773 41.0219C153.598 42.5163 151.083 43.0516 148.477 42.6952C146.807 42.3842 145.545 41.8806 144.2 40.8417C144.107 40.7729 144.013 40.7032 143.919 40.6325C141.527 38.7294 140.35 35.5246 139.939 32.5854C139.921 32.1946 139.91 31.8079 139.906 31.4185C139.906 31.307 139.903 31.1942 139.903 31.0786C139.902 30.8419 139.9 30.6039 139.899 30.3672C139.897 30.1291 139.895 29.8911 139.891 29.6544C139.823 25.7506 140.933 22.2472 143.652 19.3767C144 19.0644 144.357 18.8029 144.752 18.5511C144.831 18.4924 144.91 18.4332 144.991 18.3736C148.189 16.1279 152.837 16.6824 155.819 18.9543H155.816Z" fill="#F8F0EE"/>
<path d="M9.08811 40.284C9.40568 40.4505 9.71363 40.6253 10.0216 40.8083C10.1261 40.8675 10.2292 40.9267 10.3364 40.9872C10.6457 41.1647 10.9523 41.3463 11.2589 41.5307C11.3606 41.5913 11.4637 41.6532 11.5696 41.7151C11.6672 41.7743 11.7648 41.8335 11.8651 41.8954C11.9522 41.9486 12.0402 42.0018 12.1291 42.055C12.5154 42.3288 12.7065 42.6219 12.91 43.0444C13.0076 43.72 12.9045 44.1975 12.5415 44.7617C12.2088 45.1429 11.8775 45.2543 11.3977 45.3837C10.4684 45.3451 9.80849 45.0548 9.00013 44.6103C8.88602 44.5484 8.77054 44.4851 8.65231 44.4218C7.20331 43.62 6.38853 42.9091 6.20797 42.2889C6.12686 41.6656 6.25747 41.2486 6.58603 40.7065C7.3559 39.9744 8.1189 39.8712 9.08949 40.2854L9.08811 40.284Z" fill="#F8F0EE"/>
<path d="M26.9505 45.1326C27.2461 45.1408 27.543 45.1463 27.8386 45.1532C28.0283 45.1587 28.2181 45.1642 28.4078 45.1697C28.5796 45.1739 28.7515 45.1794 28.9274 45.1835C29.5956 45.2702 30.052 45.5027 30.5565 45.9417C30.8837 46.5334 30.8686 47.0604 30.7792 47.7223C30.54 48.314 30.2417 48.5411 29.6794 48.8231C29.4063 48.8571 29.1194 48.8736 28.8188 48.8727C28.6539 48.8727 28.4889 48.8727 28.3184 48.8727C28.1466 48.8699 27.9747 48.8686 27.7988 48.8658C27.6297 48.8658 27.4606 48.8658 27.2873 48.8658C25.6917 48.8566 24.6712 48.6961 24.2257 48.3842C23.7116 47.8434 23.6318 47.3329 23.6318 46.6187C23.8573 45.9692 24.1652 45.6252 24.7316 45.2427C25.4438 45.0046 26.2068 45.1078 26.9505 45.1312V45.1326Z" fill="#F8F0EE"/>
<path d="M39.4334 44.876C39.8348 45.3989 40.0465 45.7388 39.975 46.4062C39.8884 46.991 39.7688 47.3281 39.3042 47.7217C38.4642 48.0849 37.5843 48.2404 36.6839 48.367C36.567 48.3849 36.4515 48.4028 36.3319 48.4207C34.9681 48.6198 34.0109 48.539 33.46 48.1785C33.0847 47.8428 32.972 47.5125 32.8441 47.0336C32.8194 46.4598 32.9211 46.0291 33.2304 45.5365C33.9673 44.821 34.9173 44.8113 35.8947 44.6682C36.0588 44.6416 36.2247 44.615 36.3924 44.5884C37.8946 44.3646 38.9087 44.46 39.4348 44.8746L39.4334 44.876Z" fill="#F8F0EE"/>
<path d="M24.3711 19.0477C24.7877 19.4247 24.9719 19.6642 25.1437 20.2008C25.1712 20.8338 25.0915 21.3016 24.7574 21.8438C24.0109 22.5483 23.0637 22.5607 22.0849 22.7038C21.9199 22.73 21.7536 22.7561 21.5845 22.7836C20.229 22.9855 19.2446 22.9047 18.6315 22.5415C18.1723 22.0158 18.0142 21.5865 17.9963 20.8902C18.1668 20.2407 18.384 19.8651 18.9546 19.5032C19.5732 19.2224 20.2592 19.1619 20.9273 19.0669C21.0772 19.0436 21.227 19.0188 21.381 18.9954C22.8401 18.7743 23.8373 18.7927 24.3725 19.0504L24.3711 19.0477Z" fill="#F8F0EE"/>
<path d="M15.4259 20.9673C15.8768 21.3774 16.0391 21.6815 16.2082 22.2663C16.1862 22.9213 16.0817 23.4112 15.6583 23.9176C14.8705 24.3964 13.9975 24.6895 13.1342 25.0033C12.7685 25.1363 12.4101 25.2858 12.0591 25.4519C11.5477 25.6886 10.9813 25.639 10.4341 25.5675C9.86499 25.2826 9.57216 25.0514 9.33433 24.4666C9.23809 23.8529 9.28071 23.3534 9.52405 22.781C10.3338 21.9319 11.5078 21.6031 12.5829 21.1903C12.6929 21.1476 12.8029 21.1036 12.9156 21.0595C13.7886 20.7348 14.5474 20.5518 15.4273 20.9673H15.4259Z" fill="#F8F0EE"/>
<path d="M47.6904 41.8055C48.199 42.0972 48.43 42.3738 48.6527 42.9063C48.6866 43.1237 48.7068 43.3475 48.7132 43.5778C48.7187 43.6906 48.7242 43.8049 48.7297 43.9204C48.6183 44.4433 48.364 44.7708 47.9653 45.108C47.557 45.3433 47.1322 45.5153 46.6937 45.6845C46.5823 45.7299 46.4709 45.7754 46.3568 45.8221C44.6466 46.5111 43.43 46.7234 42.7068 46.4592C42.2642 46.1675 42.1061 46.0175 41.9163 45.5222C41.8421 44.9002 41.8476 44.3456 42.0538 43.7498C43.1234 42.6132 46.1616 41.4133 47.6904 41.8068V41.8055Z" fill="#F8F0EE"/>
<path d="M18.9312 44.1009C19.0815 44.1349 19.2332 44.1688 19.3863 44.2028C20.2373 44.4078 20.8325 44.5936 21.4319 45.2444C21.7248 45.7783 21.7179 46.2682 21.6299 46.8613C21.3701 47.4489 21.036 47.7131 20.4696 47.9965C19.3918 48.1039 18.3841 47.8809 17.342 47.6264C17.1908 47.5934 17.0409 47.559 16.8856 47.5246C16.0291 47.3195 15.4448 47.1269 14.833 46.4829C14.5608 45.938 14.6186 45.2871 14.6956 44.694C15.5246 43.0896 17.5207 43.7542 18.9312 44.1009Z" fill="#F8F0EE"/>
</svg>
