<svg width="273" height="45" viewBox="0 0 273 45" fill="none" xmlns="http://www.w3.org/2000/svg">
<path d="M171.306 19.9686C172.47 12.1586 178.932 6.18196 186.73 6.18196C194.528 6.18196 200.99 12.1586 202.154 19.9686H171.306ZM202.154 25.0314H205.702H207.436C207.528 24.2005 207.581 23.3567 207.581 22.5C207.581 10.4638 198.245 0.706922 186.73 0.706922C175.214 0.706922 165.879 10.4638 165.879 22.5C165.879 34.5362 175.214 44.2939 186.73 44.2939C195.226 44.2939 202.53 38.9799 205.779 31.3607H199.828C197.046 35.8454 192.224 38.818 186.73 38.818C178.932 38.818 172.47 32.8414 171.306 25.0314H187.195H202.154ZM107.237 38.1006H118.088V43.2456H107.237H102.314H91.4637V38.1006H102.314V8.59018C102.314 7.6562 101.59 6.89935 100.697 6.89935H91.4637V1.75443H100.697C104.309 1.75443 107.237 4.81481 107.237 8.59018V38.1006ZM156.834 16.5829V43.2456H151.912V16.5829C151.912 10.6562 147.315 5.85185 141.645 5.85185C135.975 5.85185 131.378 10.6562 131.378 16.5829V43.2456H126.455V16.5829C126.455 7.81481 133.256 0.706922 141.645 0.706922C150.034 0.706922 156.834 7.81481 156.834 16.5829ZM76.8777 1.75443H81.8001V28.4171C81.8001 37.186 74.9997 44.2939 66.6109 44.2939C58.2222 44.2939 51.4218 37.186 51.4218 28.4171V1.75443H56.3441V28.4171C56.3441 34.3438 60.9406 39.149 66.6109 39.149C72.2812 39.149 76.8777 34.3438 76.8777 28.4171V1.75443ZM34.3023 32.3293L25.7872 23.4291L12.1225 9.14654C14.7539 7.11836 18.0054 5.91787 21.5258 5.91787C30.2881 5.91787 37.3912 13.3422 37.3912 22.5C37.3912 26.1795 36.2427 29.5781 34.3023 32.3293ZM21.5258 39.0821C12.7642 39.0821 5.66107 31.6586 5.66107 22.5C5.66107 18.8204 6.80961 15.4219 8.75004 12.6715L30.9298 35.8535C28.2984 37.8816 25.0469 39.0821 21.5258 39.0821ZM39.7546 38.0282L37.8557 36.0435C40.6836 32.3237 42.3767 27.62 42.3767 22.5C42.3767 10.4638 33.042 0.706922 21.5258 0.706922C16.6281 0.706922 12.1271 2.47665 8.56901 5.43236L11.3437 8.33253L3.37168 -1.36466e-06L0 3.52496L5.19657 8.95652C2.36873 12.6763 0.675568 17.38 0.675568 22.5C0.675568 34.5362 10.0103 44.2939 21.5258 44.2939C26.4242 44.2939 30.9244 42.5233 34.4833 39.5684L39.6798 45L43.0523 41.475L39.7546 38.0282Z" fill="#1B1D22"/>
<rect x="224" y="1" width="49" height="20" rx="1.51111" fill="#AEF162"/>
<path d="M231.144 14.6679C230.593 14.6679 230.131 14.5746 229.758 14.3879C229.385 14.1919 229.105 13.9353 228.918 13.6179C228.731 13.2913 228.638 12.9366 228.638 12.5539C228.638 11.8726 228.885 11.3406 229.38 10.9579C229.884 10.5753 230.593 10.3839 231.508 10.3839H233.3V10.2299C233.3 9.18459 232.815 8.66192 231.844 8.66192C231.443 8.66192 231.102 8.75059 230.822 8.92792C230.551 9.09592 230.369 9.37126 230.276 9.75392H228.792C228.867 9.02592 229.179 8.45192 229.73 8.03192C230.29 7.60259 230.995 7.38792 231.844 7.38792C232.871 7.38792 233.617 7.63992 234.084 8.14392C234.551 8.64792 234.784 9.34326 234.784 10.2299V14.4999H233.524L233.398 13.4779H233.3C233.095 13.8046 232.838 14.0846 232.53 14.3179C232.222 14.5513 231.76 14.6679 231.144 14.6679ZM231.424 13.4219C232.031 13.4219 232.483 13.2399 232.782 12.8759C233.09 12.5026 233.258 12.0313 233.286 11.4619H231.662C231.13 11.4619 230.752 11.5506 230.528 11.7279C230.313 11.8959 230.206 12.1339 230.206 12.4419C230.206 12.7499 230.313 12.9926 230.528 13.1699C230.752 13.3379 231.051 13.4219 231.424 13.4219Z" fill="#00371D"/>
<path d="M236.92 14.4999V13.2119H239.244V6.16992C239.244 5.86192 239.095 5.70792 238.796 5.70792H237.116V4.41992H239.062C239.604 4.41992 240.014 4.56459 240.294 4.85392C240.584 5.13392 240.728 5.54459 240.728 6.08592V13.2119H243.066V14.4999H236.92Z" fill="#00371D"/>
<path d="M245.329 17.5799V7.55592H246.617L246.729 8.61992H246.813C247 8.27459 247.28 7.98526 247.653 7.75192C248.036 7.50926 248.488 7.38792 249.011 7.38792C249.552 7.38792 250.047 7.52792 250.495 7.80792C250.943 8.07859 251.298 8.48459 251.559 9.02592C251.83 9.55792 251.965 10.2253 251.965 11.0279C251.965 11.8213 251.825 12.4886 251.545 13.0299C251.274 13.5713 250.906 13.9819 250.439 14.2619C249.972 14.5326 249.45 14.6679 248.871 14.6679C248.358 14.6679 247.928 14.5653 247.583 14.3599C247.238 14.1546 246.981 13.9213 246.813 13.6599V17.5799H245.329ZM248.619 13.2539C249.142 13.2539 249.576 13.0673 249.921 12.6939C250.276 12.3206 250.453 11.7606 250.453 11.0139C250.453 10.2673 250.276 9.71192 249.921 9.34792C249.576 8.98392 249.142 8.80192 248.619 8.80192C248.087 8.80192 247.644 8.98859 247.289 9.36192C246.944 9.72592 246.771 10.2813 246.771 11.0279C246.771 11.7653 246.944 12.3206 247.289 12.6939C247.644 13.0673 248.087 13.2539 248.619 13.2539Z" fill="#00371D"/>
<path d="M253.78 14.4999V4.41992H255.264V8.59192C255.45 8.24659 255.749 7.96192 256.16 7.73792C256.57 7.50459 257.032 7.38792 257.546 7.38792C258.404 7.38792 259.058 7.64926 259.506 8.17192C259.954 8.68526 260.178 9.42726 260.178 10.3979V14.4999H258.694V10.6079C258.694 10.0293 258.554 9.58126 258.274 9.26392C257.994 8.94659 257.606 8.78792 257.112 8.78792C256.598 8.78792 256.16 8.96059 255.796 9.30592C255.441 9.65126 255.264 10.1506 255.264 10.8039V14.4999H253.78Z" fill="#00371D"/>
<path d="M264.722 14.6679C264.171 14.6679 263.709 14.5746 263.336 14.3879C262.963 14.1919 262.683 13.9353 262.496 13.6179C262.309 13.2913 262.216 12.9366 262.216 12.5539C262.216 11.8726 262.463 11.3406 262.958 10.9579C263.462 10.5753 264.171 10.3839 265.086 10.3839H266.878V10.2299C266.878 9.18459 266.393 8.66192 265.422 8.66192C265.021 8.66192 264.68 8.75059 264.4 8.92792C264.129 9.09592 263.947 9.37126 263.854 9.75392H262.37C262.445 9.02592 262.757 8.45192 263.308 8.03192C263.868 7.60259 264.573 7.38792 265.422 7.38792C266.449 7.38792 267.195 7.63992 267.662 8.14392C268.129 8.64792 268.362 9.34326 268.362 10.2299V14.4999H267.102L266.976 13.4779H266.878C266.673 13.8046 266.416 14.0846 266.108 14.3179C265.8 14.5513 265.338 14.6679 264.722 14.6679ZM265.002 13.4219C265.609 13.4219 266.061 13.2399 266.36 12.8759C266.668 12.5026 266.836 12.0313 266.864 11.4619H265.24C264.708 11.4619 264.33 11.5506 264.106 11.7279C263.891 11.8959 263.784 12.1339 263.784 12.4419C263.784 12.7499 263.891 12.9926 264.106 13.1699C264.33 13.3379 264.629 13.4219 265.002 13.4219Z" fill="#00371D"/>
</svg>