<svg width="254" height="73" viewBox="0 0 254 73" fill="none" xmlns="http://www.w3.org/2000/svg">
<path id="Union" fill-rule="evenodd" clip-rule="evenodd" d="M104.578 0.171369L104.578 0.171373L104.578 0.171394C104.865 0.236826 105.151 0.302236 105.43 0.388127C108.284 1.26757 110.008 3.91181 109.715 6.94713C109.452 9.67685 107.111 11.9673 104.269 12.2749C100.837 12.6473 97.8601 10.5524 97.2595 7.34214C96.6273 3.96291 98.8648 0.77528 102.282 0.185707C102.379 0.16908 102.475 0.142999 102.571 0.11691C102.617 0.104455 102.663 0.0919974 102.708 0.0805664H104.19C104.319 0.112108 104.449 0.141741 104.578 0.171369ZM0.468466 33.722C0.435343 33.9395 0.402217 34.1569 0.367432 34.3741V35.455C0.44152 35.9365 0.515609 36.418 0.58871 36.8995C1.4758 42.748 6.52666 47.6778 13.2588 47.6719C17.4118 47.668 20.808 45.9759 23.3309 42.6537C23.6379 42.2498 23.9231 41.8297 24.2084 41.4095C24.4206 41.0969 24.6329 40.7842 24.8542 40.4782C26.3646 38.3901 28.694 37.6354 30.8712 38.5169C33.2223 39.468 34.4926 41.673 34.0412 44.2023C33.9058 44.9579 33.5621 45.6959 33.2134 46.3916C31.9469 48.9179 31.2189 51.5248 31.5706 54.3911C32.4952 61.9239 40.0483 67.064 47.4542 65.1626C53.7537 63.5462 57.8226 57.7605 57.0531 51.29C56.495 46.593 53.9611 43.1951 49.6551 41.165C47.7466 40.2659 45.6701 40.0802 43.5907 39.9927C41.2831 39.8955 39.3341 38.4618 38.774 36.4337C37.8582 33.1134 40.2053 29.9749 43.6687 29.8197C44.8966 29.7646 46.1384 29.6507 47.3376 29.3932C53.7152 28.0254 58.033 21.7003 57.0304 15.2729C55.8696 7.82859 48.8648 3.01374 41.5152 4.62917C34.0353 6.2731 29.665 14.136 32.2403 21.1038C32.4914 21.783 32.8023 22.4399 33.1133 23.097L33.1133 23.0971C33.2648 23.4173 33.4164 23.7376 33.5611 24.0605C34.3948 25.9206 34.5726 27.7748 33.2944 29.5072C31.1824 32.3706 26.9603 32.2782 24.8473 29.3519C24.6486 29.0767 24.4599 28.7944 24.2713 28.5122L24.2713 28.5122L24.2713 28.5121L24.2712 28.5121L24.2712 28.5121L24.2712 28.512L24.2711 28.512L24.2711 28.512L24.2711 28.5119L24.2711 28.5119L24.2711 28.5119L24.2711 28.5119L24.271 28.5118C24.0678 28.2078 23.8647 27.9038 23.649 27.6088C20.6173 23.4601 16.5237 21.717 11.4195 22.3154C6.25797 22.9207 1.6704 27.2059 0.702312 32.3028C0.612913 32.7737 0.540695 33.2478 0.468466 33.722ZM253.208 38.0475C253.218 37.9752 253.228 37.9029 253.239 37.8307C253.244 37.7921 253.25 37.7536 253.256 37.7151V35.1623L253.23 35.0366L253.23 35.0351C253.209 34.9347 253.188 34.8348 253.168 34.7338C253.082 34.2838 253.009 33.8299 252.935 33.3761L252.935 33.3754C252.776 32.3898 252.616 31.4043 252.326 30.4585C249.961 22.739 243.123 17.5124 234.721 18.2504C229.489 18.7092 225.295 21.0351 222.299 25.3164C218.872 30.2118 218.033 35.6722 219.253 41.4393C220.345 46.6039 223.177 50.6543 227.919 53.0784C234.854 56.6237 241.773 56.2592 248.493 52.3552C249.963 51.5013 251.226 50.3752 252.287 49.1116C250.456 47.2868 248.646 45.4837 246.75 43.5941C246.733 43.6202 246.714 43.6525 246.694 43.6877C246.646 43.7733 246.587 43.8768 246.503 43.9548C243.734 46.5676 240.518 47.9845 236.624 47.6494C232.525 47.2967 229.076 44.2692 228.255 40.2522C228.21 40.0327 228.176 39.811 228.14 39.5711C228.13 39.505 228.12 39.4376 228.109 39.3684C228.101 39.3143 228.092 39.2592 228.083 39.2028H228.806H252.263C252.307 39.2028 252.354 39.2066 252.4 39.2103C252.508 39.219 252.615 39.2278 252.702 39.19C252.845 39.1271 253.023 38.9984 253.06 38.8648C253.132 38.5981 253.17 38.3229 253.208 38.0477V38.0475ZM243.344 32.1672H228.59C228.734 29.7048 231.585 26.018 236.093 25.9256C240.552 25.8342 243.216 29.5122 243.344 32.1672ZM126.704 21.4398L126.703 21.4404C126.554 21.5458 126.399 21.6561 126.232 21.772V21.773C126.232 21.5146 126.23 21.2666 126.227 21.0257C126.222 20.4777 126.216 19.9671 126.242 19.4579C126.265 19.0128 126.105 18.9106 125.682 18.9135C122.965 18.9312 120.25 18.9322 117.533 18.9135C117.085 18.9106 116.951 19.0324 116.951 19.4894C116.962 36.9447 116.962 54.4009 116.951 71.8572C116.951 72.3063 117.072 72.4419 117.528 72.4389C119.542 72.4257 121.557 72.4268 123.571 72.4278C124.404 72.4283 125.238 72.4287 126.072 72.4281C126.178 72.4281 126.285 72.4203 126.411 72.411C126.475 72.4063 126.544 72.4013 126.62 72.3967V52.2981C126.89 52.4613 127.15 52.625 127.406 52.786L127.406 52.7862C127.941 53.1223 128.456 53.4464 128.994 53.7288C132.432 55.5359 136.083 55.8464 139.839 55.0927C144.242 54.2083 147.937 52.1006 150.646 48.4826C153.762 44.3202 154.875 39.5987 154.29 34.4802C153.717 29.4649 151.544 25.2623 147.616 22.0206C141.963 17.3551 133.732 16.8815 127.572 20.8434C127.286 21.0265 127.009 21.2229 126.704 21.4398ZM139.505 45.8403C138.286 46.4456 136.904 46.761 135.008 46.7493V46.7502C131.943 46.6392 128.98 45.3962 127.074 42.2508C124.821 38.5345 125.289 33.0574 128.172 30.0506C130.837 27.2698 134.189 26.4227 137.852 27.3464C141.51 28.2691 143.686 30.8524 144.578 34.439C145.73 39.071 143.569 43.8201 139.505 45.8403ZM169.957 21.402C169.797 21.5122 169.631 21.627 169.454 21.7472C169.454 21.4948 169.452 21.2515 169.45 21.0146V21.0143V21.0141V21.0139C169.445 20.4744 169.44 19.968 169.463 19.463C169.483 19.0277 169.338 18.9078 168.905 18.9108C166.189 18.9294 163.473 18.9294 160.756 18.9108C160.309 18.9068 160.175 19.0296 160.175 19.4846C160.185 36.9399 160.186 54.3962 160.173 71.8515C160.172 72.3516 160.345 72.4381 160.796 72.4351C162.882 72.4219 164.969 72.4235 167.056 72.4252C167.751 72.4258 168.447 72.4263 169.142 72.4263C169.585 72.4256 169.807 72.2023 169.807 71.7561V52.9419V52.2334C169.882 52.284 169.954 52.3331 170.024 52.3809L170.124 52.4493L170.248 52.5347L170.249 52.5351L170.25 52.5358L170.25 52.5362C170.528 52.7266 170.777 52.8975 171.032 53.0598C174.34 55.1626 177.963 55.8229 181.812 55.2923C186.682 54.6212 190.774 52.4977 193.781 48.5702C196.84 44.5739 197.987 39.9978 197.553 35.0287C197.118 30.0606 195.104 25.8343 191.36 22.4718C185.778 17.4575 177.257 16.746 170.915 20.7571C170.6 20.9567 170.293 21.1689 169.957 21.4014L169.957 21.4016L169.957 21.402ZM168.875 37.1181C168.88 37.195 168.886 37.2756 168.891 37.3593V37.3596C168.913 37.6839 168.937 38.0536 168.984 38.4207C170.023 46.5519 178.698 48.2558 183.195 45.5948C186.628 43.5637 188.59 39.6166 187.961 35.3991C186.84 27.8811 179.056 24.7072 172.861 28.7733C169.999 30.6511 168.95 33.5459 168.865 36.9841C168.868 37.0273 168.871 37.072 168.875 37.1181ZM203.977 2.3072H203.416V54.6839H212.999C213.002 54.6185 213.006 54.5567 213.01 54.4973L213.01 54.4963L213.01 54.4954C213.018 54.3832 213.025 54.2793 213.025 54.1749C213.026 50.3186 213.026 46.4623 213.026 42.606L213.026 41.9971C213.027 28.962 213.027 15.9274 213.037 2.89284C213.037 2.40742 212.885 2.29442 212.421 2.29737C210.31 2.31211 208.199 2.31027 206.087 2.30843C205.384 2.30781 204.68 2.3072 203.977 2.3072ZM70.6814 18.9214H71.205C71.8983 18.9214 72.5916 18.9222 73.285 18.923H73.2856C75.308 18.9252 77.3306 18.9275 79.3527 18.9106C79.8289 18.9067 79.9296 19.0738 79.9178 19.5032C79.8989 20.1748 79.9023 20.8469 79.9059 21.5537V21.5546V21.5549C79.9074 21.8456 79.9089 22.1422 79.9089 22.4471C83.7585 18.5205 88.438 17.703 93.6518 18.4518C93.2784 21.4537 92.9129 24.3848 92.5474 27.315C92.2713 27.2864 92 27.2554 91.7318 27.2247L91.7317 27.2247L91.7315 27.2247C91.1699 27.1604 90.622 27.0977 90.0719 27.0625C86.5541 26.8394 83.6993 28.1099 81.5626 30.9016C80.6804 32.0542 80.2803 33.3876 80.2813 34.8478C80.287 39.4599 80.286 44.0725 80.285 48.6848C80.2847 50.4579 80.2843 52.231 80.2843 54.004V54.6751H70.6794V18.9214H70.6814ZM108.237 54.6849H108.238L108.237 54.6858C108.237 54.6855 108.237 54.6852 108.237 54.6849ZM98.6424 54.6849H108.237C108.241 54.6233 108.245 54.5653 108.248 54.5096C108.257 54.3889 108.264 54.2794 108.264 54.17C108.264 51.7367 108.264 49.3034 108.264 46.8702C108.264 37.7432 108.265 28.6166 108.274 19.4893C108.274 19.0373 108.142 18.9096 107.692 18.9125C104.878 18.9312 102.062 18.9361 99.2479 18.9086C98.7244 18.9037 98.6325 19.0766 98.6325 19.5502C98.6433 29.2445 98.6429 38.9394 98.6425 48.6344C98.6424 50.4508 98.6424 52.2671 98.6424 54.0835V54.6849Z" fill="#F8F0EE"/>
</svg>
