<svg width="210" height="39" viewBox="0 0 210 39" fill="none" xmlns="http://www.w3.org/2000/svg">
<path d="M0.770392 27.6779C0.770392 24.394 0.767213 21.11 0.770392 17.826C0.77675 14.4117 1.45071 11.15 3.15469 8.16164C4.39453 5.98716 6.12712 4.25774 8.26664 2.95433C10.5111 1.59051 12.9399 0.770306 15.5467 0.442862C16.8628 0.27755 18.1408 0.458757 19.3997 0.741694C24.1588 1.81622 27.6494 4.55022 29.754 8.95641C30.927 11.4075 31.5279 14.0302 31.69 16.7483C31.7345 17.5145 31.7886 18.2774 31.849 19.0436C31.8808 19.4219 31.7282 19.5459 31.3499 19.5459C28.7812 19.5332 26.2125 19.5268 23.6438 19.5491C23.1097 19.5554 23.1256 19.2693 23.1288 18.9005C23.1447 17.1234 23.0366 15.3495 22.5375 13.6392C21.0592 8.59399 15.4259 7.5608 12.0211 10.5904C10.5683 11.8843 9.96426 13.6296 9.60185 15.4671C9.45879 16.1888 9.427 16.9359 9.39839 17.6734C9.34752 18.9959 9.32209 20.3184 9.31573 21.6409C9.29665 26.9627 9.2903 32.2876 9.28076 37.6094C9.28076 37.7429 9.26804 37.8764 9.28076 38.0067C9.31255 38.3564 9.1536 38.4677 8.81344 38.4613C7.99324 38.4455 7.16986 38.4582 6.34966 38.4582C4.73469 38.4582 3.11972 38.4582 1.50158 38.4582C0.697273 38.4582 0.716348 38.5535 0.716348 37.6952C0.716348 34.3572 0.716348 31.0223 0.716348 27.6843C0.732243 27.6843 0.751317 27.6843 0.767213 27.6843L0.770392 27.6779Z" fill="#F8F0EE"/>
<path d="M66.59 38.4421C64.4854 38.4421 62.4794 38.4357 60.4735 38.4453C60.0761 38.4453 60.0157 38.1306 59.8917 37.8921C58.7027 35.5905 57.5233 33.2825 56.3407 30.9745C56.0514 30.4086 55.7398 29.8554 55.4728 29.28C55.2979 28.9017 55.0849 28.7205 54.6303 28.7364C53.5463 28.7746 52.459 28.7428 51.375 28.7491C50.7264 28.7555 50.7137 28.765 50.7105 29.4199C50.7042 32.1189 50.7105 34.8211 50.7074 37.5202C50.7074 37.7046 50.6978 37.8921 50.7074 38.0765C50.7201 38.3531 50.5865 38.4453 50.3259 38.4421C48.7109 38.4357 47.0959 38.4357 45.481 38.4421C45.1694 38.4421 45.0518 38.3086 45.0613 38.0161C45.0677 37.8317 45.0613 37.6442 45.0613 37.4598C45.0613 29.1465 45.0613 20.8332 45.0613 12.52C45.0613 12.361 45.074 12.2021 45.0613 12.0431C45.0232 11.6521 45.2076 11.5504 45.5763 11.5535C49.4929 11.5726 53.4127 11.5186 57.3294 11.6044C59.6946 11.6553 61.8468 12.4182 63.5794 14.1318C64.8192 15.3557 65.4805 16.8721 65.6776 18.5666C65.8683 20.2006 65.8397 21.8378 65.2389 23.4146C64.5395 25.2458 63.3728 26.6541 61.6179 27.5538C60.9853 27.8781 60.9821 27.8844 61.3477 28.5679C62.969 31.6007 64.5903 34.6304 66.2117 37.6632C66.3325 37.8921 66.4406 38.1242 66.5963 38.4357L66.59 38.4421ZM50.7105 20.2165C50.7105 21.3832 50.7042 22.5468 50.7105 23.7135C50.7169 24.3684 50.7264 24.3811 51.3781 24.3843C52.8628 24.3906 54.3442 24.3938 55.8288 24.3715C58.1686 24.3366 59.6342 23.1063 59.9616 20.811C60.2859 18.5316 58.9952 16.3539 56.3883 16.0805C54.7352 15.9089 53.0567 15.9693 51.3908 15.9534C50.7614 15.947 50.7169 16.0106 50.7105 16.64C50.701 17.8322 50.7105 19.0244 50.7074 20.2165H50.7105Z" fill="#F8F0EE"/>
<path d="M97.0073 35.4475C97.0073 36.2645 96.9914 37.0847 97.0137 37.9018C97.0232 38.3087 96.8834 38.4581 96.4669 38.4517C94.9855 38.4327 93.5008 38.4295 92.0194 38.4517C91.5807 38.4581 91.4599 38.2705 91.4917 37.8827C91.5044 37.7237 91.4917 37.5648 91.4917 37.4058C91.4917 29.118 91.4917 20.8302 91.4917 12.5391C91.4917 12.4056 91.5044 12.2721 91.4917 12.1418C91.4376 11.6967 91.6125 11.5409 92.0734 11.5505C93.504 11.5759 94.9346 11.5568 96.362 11.5632C96.9978 11.5632 97.0073 11.5695 97.0073 12.2308C97.0105 15.1174 97.0073 18.004 97.0073 20.8906V21.5168L97.1504 21.5868C97.2744 21.4183 97.4079 21.253 97.5224 21.0781C98.6827 19.3074 100.298 18.3251 102.428 18.128C107.117 17.6988 109.784 20.4042 110.77 23.9679C111.644 27.1406 111.634 30.3483 110.579 33.4956C109.453 36.8558 106.923 38.7855 103.407 38.8555C100.87 38.9063 98.7654 37.9526 97.4015 35.6828C97.338 35.5779 97.2521 35.4888 97.1758 35.3903C97.1218 35.4062 97.0677 35.4221 97.0105 35.4412L97.0073 35.4475ZM105.794 28.4472C105.832 27.1851 105.613 25.9739 105.022 24.8485C104.456 23.7708 103.626 23.0015 102.405 22.7122C100.256 22.2067 98.3362 23.3194 97.4683 25.5543C97.0359 26.6638 96.9755 27.8114 97.0042 28.9813C97.0328 30.1417 97.3157 31.2257 97.8975 32.2239C98.6954 33.5909 99.9066 34.3412 101.48 34.3158C103.089 34.2903 104.287 33.4892 105.028 32.0459C105.607 30.9173 105.829 29.7093 105.791 28.4472H105.794Z" fill="#F8F0EE"/>
<path d="M195.399 21.5582C196.197 20.7317 196.852 19.9337 197.628 19.282C198.493 18.554 199.567 18.2456 200.702 18.1344C202.009 18.0072 203.29 18.0899 204.523 18.5477C206.714 19.3551 208.055 20.9955 208.875 23.1096C209.597 24.963 209.746 26.9022 209.724 28.8733C209.699 30.9111 209.378 32.8757 208.462 34.7069C207.13 37.3709 204.472 39.1576 200.883 38.8047C198.617 38.5821 196.884 37.5553 195.73 35.5811C195.692 35.5143 195.635 35.4571 195.504 35.2982C195.457 35.562 195.406 35.7178 195.403 35.8736C195.393 36.5634 195.393 37.2501 195.403 37.94C195.406 38.242 195.355 38.4486 194.977 38.4454C193.416 38.4359 191.851 38.4359 190.291 38.4454C189.969 38.4454 189.877 38.2865 189.887 38.0036C189.893 37.8192 189.887 37.6316 189.887 37.4472C189.887 29.1308 189.887 20.8175 189.887 12.5011C189.887 12.3167 189.896 12.1291 189.887 11.9447C189.874 11.6745 190.008 11.5601 190.268 11.5601C191.858 11.5601 193.447 11.5601 195.034 11.5601C195.301 11.5601 195.415 11.6936 195.403 11.9574C195.393 12.1418 195.403 12.3294 195.403 12.5138C195.403 15.2669 195.403 18.0231 195.403 20.7762C195.403 21.0305 195.403 21.2817 195.403 21.5614L195.399 21.5582ZM195.406 28.46C195.339 29.7157 195.584 30.8888 196.162 31.9919C196.941 33.4766 198.168 34.3286 199.844 34.319C201.56 34.3095 202.826 33.4289 203.509 31.8616C204.482 29.6267 204.495 27.3314 203.528 25.0934C202.87 23.5738 201.684 22.6645 199.968 22.6041C198.257 22.5469 197.04 23.3639 196.223 24.8168C195.587 25.9485 195.333 27.1788 195.409 28.46H195.406Z" fill="#F8F0EE"/>
<path d="M68.4082 28.3869C68.4654 26.0916 68.8882 23.9108 70.2107 21.9811C71.5968 19.956 73.517 18.7448 75.9172 18.2965C77.7324 17.9564 79.5508 17.9596 81.3407 18.4174C84.6501 19.2598 86.7864 21.393 87.7306 24.6356C88.5953 27.608 88.5222 30.5995 87.2919 33.4798C85.9439 36.6366 83.4198 38.2643 80.0976 38.7443C78.4032 38.9891 76.7088 38.916 75.0684 38.4232C71.3647 37.3106 69.3429 34.7133 68.6657 30.9906C68.5099 30.1354 68.4909 29.2548 68.4114 28.3869H68.4082ZM82.6981 28.7843C82.6949 26.9818 82.4438 25.707 81.9542 24.7278C81.4392 23.6946 80.6953 22.9062 79.5667 22.5438C77.6402 21.9302 75.7423 22.7695 74.7886 24.6451C74.1973 25.8055 74.0352 27.0644 74.0256 28.336C74.0161 29.5791 74.1274 30.8189 74.6551 31.9793C75.3259 33.4575 76.3845 34.4208 78.0758 34.5289C79.9419 34.6465 81.1912 33.75 81.9828 32.1255C82.5519 30.9588 82.6759 29.6999 82.6981 28.7843Z" fill="#F8F0EE"/>
<path d="M133.662 28.4916C133.592 30.5199 133.233 32.4591 132.257 34.233C130.769 36.9448 128.388 38.3435 125.377 38.7505C123.708 38.9762 122.046 38.9094 120.424 38.4357C116.953 37.4184 114.874 35.0596 114.101 31.5753C113.602 29.3309 113.631 27.0547 114.232 24.8134C115.29 20.8841 118.546 18.3218 122.608 18.1215C123.991 18.0547 125.358 18.0706 126.693 18.4299C130.292 19.3931 132.409 21.7933 133.23 25.3666C133.465 26.3871 133.522 27.4489 133.659 28.4916H133.662ZM119.41 28.4694C119.41 28.8922 119.375 29.3182 119.417 29.7378C119.531 30.9109 119.855 32.0172 120.555 32.9868C121.709 34.5891 123.804 34.9292 125.377 34.1821C126.49 33.6544 127.174 32.7007 127.542 31.5626C128.204 29.5248 128.216 27.4584 127.555 25.4143C127.412 24.9692 127.186 24.5337 126.929 24.1395C125.333 21.7107 121.919 21.752 120.37 24.2158C119.553 25.516 119.337 26.9657 119.413 28.4694H119.41Z" fill="#F8F0EE"/>
<path d="M180.362 35.3395C180.175 35.6065 180.057 35.7655 179.949 35.934C178.862 37.6157 177.326 38.5535 175.33 38.7856C174.316 38.9032 173.321 38.8905 172.332 38.668C169.7 38.0735 167.888 36.0643 167.509 33.3112C167.411 32.6055 167.36 31.8902 167.357 31.1781C167.341 27.2329 167.35 23.2876 167.35 19.3424C167.35 18.4586 167.351 18.4554 168.199 18.4554C169.442 18.4554 170.689 18.4554 171.932 18.4554C172.803 18.4554 172.806 18.4586 172.806 19.3074C172.806 22.7758 172.799 26.2442 172.815 29.7125C172.815 30.3452 172.869 30.9842 172.99 31.6041C173.356 33.4797 174.955 34.478 176.865 34.2904C178.913 34.0901 180.308 32.3702 180.353 30.5232C180.404 28.301 180.439 26.0789 180.461 23.8599C180.477 22.2703 180.477 20.6808 180.458 19.0944C180.451 18.6208 180.598 18.4364 181.09 18.4459C182.467 18.4713 183.844 18.4459 185.22 18.4586C185.859 18.4618 185.872 18.4777 185.872 19.1358C185.878 21.7839 185.872 24.4321 185.872 27.0803C185.872 30.5741 185.872 34.071 185.872 37.5648C185.872 38.5885 185.888 38.4391 184.956 38.4454C183.764 38.4518 182.572 38.4518 181.383 38.4454C180.445 38.4391 180.461 38.6044 180.461 37.4885C180.461 36.8781 180.455 36.2709 180.448 35.6606C180.448 35.6097 180.42 35.5588 180.356 35.3427L180.362 35.3395Z" fill="#F8F0EE"/>
<path d="M152.32 25.8944C151.659 25.8944 150.994 25.8753 150.333 25.9008C149.939 25.9167 149.735 25.7672 149.678 25.3889C149.672 25.3381 149.659 25.284 149.643 25.2332C149.125 23.5324 147.939 22.5119 146.318 22.3752C144.572 22.2289 143.148 23.0015 142.347 24.5814C141.552 26.1455 141.457 27.8273 141.597 29.5408C141.692 30.7171 141.972 31.8361 142.633 32.8343C144.042 34.9643 146.95 34.9389 148.365 33.7308C149.014 33.1777 149.449 32.4942 149.637 31.674C149.745 31.1971 149.958 31.035 150.447 31.0477C151.719 31.0795 152.987 31.054 154.259 31.0604C154.873 31.0636 154.939 31.1335 154.841 31.7598C154.459 34.2172 153.296 36.1723 151.137 37.4885C149.284 38.617 147.259 38.9572 145.122 38.8428C143.406 38.7506 141.784 38.3436 140.306 37.4376C137.985 36.0166 136.736 33.8516 136.231 31.267C135.795 29.0449 135.84 26.8004 136.482 24.5942C137.582 20.8111 140.78 18.325 144.7 18.1248C146.518 18.0326 148.301 18.1057 149.99 18.8273C152.803 20.029 154.408 22.1749 154.834 25.2014C154.92 25.8054 154.844 25.8817 154.221 25.8912C153.585 25.9008 152.949 25.8912 152.313 25.8912L152.32 25.8944Z" fill="#F8F0EE"/>
<path d="M157.944 25.0075C157.944 20.7984 157.944 16.5925 157.944 12.3834C157.944 11.5632 157.947 11.5632 158.757 11.5632C160 11.5632 161.247 11.5632 162.49 11.5632C163.456 11.5632 163.456 11.5632 163.456 12.5042C163.456 19.1739 163.456 25.8436 163.456 32.5133C163.456 34.2332 163.456 35.953 163.456 37.6729C163.456 38.4359 163.45 38.4391 162.661 38.4391C161.364 38.4391 160.067 38.4391 158.77 38.4391C157.947 38.4391 157.944 38.4391 157.94 37.6284C157.94 33.4193 157.94 29.2134 157.94 25.0043L157.944 25.0075Z" fill="#F8F0EE"/>
<path d="M27.4112 26.4285C28.8672 26.4285 30.32 26.4412 31.7729 26.4221C32.183 26.4158 32.3165 26.5429 32.3165 26.9594C32.307 29.8142 32.3133 32.6722 32.3324 35.527C32.3324 35.9689 32.1957 36.1278 31.7474 36.1246C28.7877 36.0992 25.8248 36.0897 22.8619 36.0928C22.42 36.0928 22.3438 35.9085 22.3438 35.5238C22.3533 32.669 22.3565 29.811 22.3438 26.9562C22.3438 26.5366 22.4804 26.4158 22.8874 26.4221C24.3942 26.4412 25.9011 26.4285 27.408 26.4285H27.4112Z" fill="#F8F0EE"/>
<path d="M33.3211 19.3169C33.3211 18.9481 33.2925 18.573 33.3274 18.2074C33.3942 17.5366 33.6962 17.0089 34.332 16.7069C34.9901 16.3953 35.6354 16.4812 36.214 16.8531C36.7831 17.2187 36.8912 17.8418 36.8753 18.4649C36.8498 19.5998 36.8022 20.7348 36.7481 21.8665C36.6559 23.7898 36.5542 25.7132 36.4556 27.6397C36.4239 28.2691 36.4239 28.2723 35.788 28.2787C35.3398 28.285 34.8884 28.2691 34.4401 28.2819C34.1222 28.2914 33.9664 28.196 33.941 27.8432C33.7916 25.7895 33.6231 23.739 33.4641 21.6853C33.4037 20.8969 33.3529 20.1053 33.2988 19.3169C33.3052 19.3169 33.3115 19.3169 33.3211 19.3169Z" fill="#F8F0EE"/>
<path d="M27.2489 20.7095C27.9897 20.7095 28.7272 20.7254 29.4679 20.7031C29.8462 20.6936 29.9798 20.8335 29.9766 21.2054C29.9639 22.4453 29.9639 23.6883 29.9766 24.9281C29.9798 25.2969 29.8494 25.4431 29.4711 25.44C27.9928 25.4272 26.5114 25.4272 25.0331 25.44C24.658 25.4431 24.5213 25.3033 24.5245 24.9313C24.5372 23.6915 24.5372 22.4484 24.5245 21.2086C24.5213 20.8398 24.6485 20.6904 25.0299 20.7031C25.7675 20.7254 26.5082 20.7095 27.2489 20.7095Z" fill="#F8F0EE"/>
<path d="M35.1203 31.7915C34.6974 31.7915 34.2714 31.782 33.8486 31.7947C33.5339 31.8042 33.3463 31.7216 33.3527 31.3592C33.3654 30.5898 33.3622 29.8237 33.3527 29.0543C33.3527 28.7492 33.4862 28.6347 33.785 28.6347C34.6847 28.6442 35.5876 28.6474 36.4873 28.6347C36.8433 28.6283 36.9419 28.7873 36.9355 29.1116C36.9228 29.8523 36.9196 30.5962 36.9355 31.3369C36.9419 31.6834 36.8052 31.8074 36.4682 31.7947C36.0199 31.7788 35.5685 31.7915 35.1171 31.7915H35.1203Z" fill="#F8F0EE"/>
<path d="M19.3807 31.6327C18.9579 31.6327 18.5319 31.6264 18.1091 31.6327C17.8452 31.6359 17.7212 31.531 17.7244 31.2576C17.7308 30.4628 17.734 29.6681 17.7244 28.8733C17.7212 28.549 17.8897 28.4727 18.1695 28.4759C18.9897 28.4823 19.8131 28.4855 20.6333 28.4759C20.9289 28.4759 21.072 28.5872 21.0688 28.8924C21.0624 29.6617 21.0593 30.4279 21.0688 31.1972C21.0752 31.5596 20.8844 31.6455 20.5697 31.6359C20.1723 31.6232 19.7749 31.6359 19.3775 31.6359L19.3807 31.6327Z" fill="#F8F0EE"/>
<path d="M36.2964 33.448C36.2964 34.3254 35.846 34.7631 34.9453 34.761C34.7864 34.761 34.6274 34.7546 34.4684 34.761C34.1378 34.7769 33.9757 34.6306 33.9916 34.2936C34.0011 34.1093 33.9789 33.9217 33.9916 33.7405C34.0266 33.2509 34.0742 32.7613 34.1156 32.2718C34.745 32.2463 35.3713 32.205 36.0008 32.2145C36.1025 32.2145 36.2614 32.4403 36.2837 32.5801C36.3282 32.8631 36.2964 33.1587 36.2964 33.4512V33.448Z" fill="#F8F0EE"/>
<path d="M24.7533 38.1338C24.3304 38.1338 23.9076 38.1084 23.488 38.1401C23.0461 38.1751 22.9571 37.9685 22.9634 37.5806C22.9666 37.1896 22.9984 36.9257 23.5039 36.9448C24.3749 36.9766 25.246 36.9766 26.1171 36.9448C26.6162 36.9257 26.5844 37.2246 26.5908 37.5552C26.5971 37.9049 26.5876 38.1815 26.1012 38.1401C25.6561 38.102 25.2047 38.1306 24.7564 38.1306L24.7533 38.1338Z" fill="#F8F0EE"/>
<path d="M29.8111 38.1339C29.3629 38.1339 28.9115 38.118 28.4632 38.1402C27.9864 38.1625 28.0627 37.8319 28.0595 37.5521C28.0563 37.2628 28.0086 36.9513 28.4696 36.9576C29.3693 36.9703 30.2689 36.9576 31.1686 36.964C31.6455 36.964 31.5183 37.3327 31.5278 37.5966C31.5374 37.8541 31.5851 38.1498 31.1622 38.137C30.714 38.1243 30.2626 38.137 29.8143 38.137L29.8111 38.1339Z" fill="#F8F0EE"/>
</svg>
