<svg width="251" height="98" viewBox="0 0 251 98" fill="none" xmlns="http://www.w3.org/2000/svg">
<g id="Group 428">
<path id="Vector" d="M0.875507 49.0536C0.875507 46.6425 0.806158 44.2271 0.892315 41.8181C1.0142 38.4694 1.25165 35.1271 1.44288 31.7805C1.51222 30.5613 1.59208 29.3421 1.66142 28.1228C1.81272 25.4742 1.87786 22.8171 2.13213 20.1768C2.53559 15.9978 4.11373 12.2687 6.81401 9.04194C10.4893 4.64852 15.2384 2.22689 20.8933 1.5416C22.07 1.39866 23.2615 1.37552 24.4488 1.31036C26.1236 1.21997 27.8005 1.1506 29.4753 1.05391C32.7177 0.868922 35.9623 0.671327 39.2047 0.480035C39.3098 0.473728 39.4148 0.465316 39.5199 0.463214C44.4161 0.391742 49.3103 0.250895 54.2065 0.274019C57.5603 0.288733 60.912 0.509456 64.2637 0.681829C67.7183 0.858407 71.173 1.03709 74.6193 1.31246C76.9455 1.49745 79.3054 1.43649 81.5833 2.09446C89.9257 4.50768 95.1098 9.91222 96.9864 18.4006C97.2701 19.6849 97.31 21.0282 97.4088 22.3483C97.6231 25.2366 97.8101 28.127 97.9971 31.0174C98.0833 32.3418 98.159 33.6661 98.2178 34.9904C98.3103 37.0841 98.4111 39.1778 98.4574 41.2715C98.5414 44.9376 98.6675 48.6079 98.6255 52.274C98.5834 55.938 98.3754 59.602 98.2094 63.266C98.1043 65.5678 97.9614 67.8675 97.808 70.1651C97.6168 73.0555 97.5454 75.9627 97.1587 78.8279C96.4526 84.0622 93.9709 88.3946 89.9426 91.8148C87.1078 94.2196 83.838 95.7373 80.1774 96.3848C79.1835 96.5592 78.1685 96.6286 77.1599 96.698C74.1633 96.9061 71.1646 97.0911 68.1659 97.2803C66.8757 97.3622 65.5854 97.4463 64.2952 97.5052C62.2695 97.5977 60.2437 97.7007 58.218 97.7448C54.3031 97.831 50.3862 97.9634 46.4713 97.9235C42.6972 97.8857 38.9273 97.6692 35.1553 97.501C32.8522 97.398 30.5512 97.2529 28.2502 97.0974C25.4638 96.9103 22.6626 96.8073 19.8951 96.4646C15.9466 95.9748 12.4604 94.3289 9.42182 91.758C5.2884 88.2601 2.92225 83.7889 2.16995 78.4537C2.02916 77.4531 1.99344 76.4378 1.9346 75.4267C1.77069 72.6035 1.62359 69.7804 1.46809 66.9552C1.27897 63.575 1.0331 60.1969 0.915427 56.8125C0.825068 54.229 0.898619 51.6392 0.898619 49.0536H0.883908H0.875507ZM49.2388 10.032C47.9864 10.0867 46.2422 10.1645 44.496 10.2401C41.2157 10.3831 37.9334 10.5176 34.6531 10.6711C31.6166 10.814 28.5822 10.9633 25.5478 11.1419C24.0495 11.2302 22.545 11.308 21.0656 11.5329C16.4173 12.2392 12.6685 15.9873 12.0065 20.8747C11.6892 23.2207 11.6766 25.6066 11.54 27.9757C11.4455 29.6132 11.3698 31.2529 11.2879 32.8904C11.0924 36.8298 10.8003 40.767 10.731 44.7085C10.6616 48.6521 10.7982 52.5998 10.8802 56.5455C10.9327 59.0239 11.0399 61.5023 11.1429 63.9786C11.1996 65.3387 11.29 66.6966 11.3803 68.0546C11.5589 70.7348 11.8363 73.4108 11.9162 76.0952C12.0717 81.4009 15.9445 85.8952 21.2148 86.6646C22.6626 86.8769 24.1315 86.9463 25.5941 87.0388C29.1496 87.2637 32.7051 87.4844 36.2628 87.6673C39.543 87.8355 42.8254 88.012 46.1077 88.0667C48.9719 88.1129 51.8403 88.0289 54.7024 87.9385C58.1592 87.8292 61.6138 87.6652 65.0706 87.5033C68.0357 87.3646 71.0028 87.2111 73.9658 87.0346C75.4283 86.9484 76.9014 86.8853 78.3429 86.6499C83.0731 85.8805 86.759 82.145 87.3494 77.3985C87.6899 74.6678 87.7781 71.9057 87.9568 69.1561C88.1102 66.8227 88.2572 64.4894 88.3602 62.1539C88.522 58.4921 88.7259 54.8281 88.7637 51.1641C88.7994 47.6388 88.6502 44.1094 88.5809 40.5842C88.5809 40.479 88.5704 40.3739 88.5641 40.2709C88.3728 36.9958 88.1774 33.7229 87.9925 30.4478C87.8979 28.7745 87.8454 27.0991 87.7382 25.4279C87.6395 23.8618 87.5575 22.2916 87.3558 20.7381C86.7274 15.8675 82.6003 11.7537 77.1578 11.348C73.8145 11.0978 70.4669 10.9191 67.1194 10.7278C64.3645 10.5702 61.6075 10.4167 58.8505 10.3116C55.8119 10.1939 52.7712 10.135 49.2346 10.0362L49.2388 10.032Z" fill="#F8F0EE"/>
<path id="Vector_2" d="M113.413 61.6917V35.8903C115.489 35.7726 117.53 35.8546 119.692 35.8399C121.463 42.1462 123.224 48.4105 124.985 54.6769C125.025 54.6811 125.065 54.6853 125.105 54.6895C125.13 54.5193 125.166 54.3511 125.179 54.1808C125.191 54.0064 125.183 53.8319 125.183 53.6574C125.183 48.2066 125.183 42.7558 125.187 37.3051C125.187 36.8594 125.238 36.4138 125.269 35.9029H128.955C129.19 36.6681 129.274 59.989 129.035 61.7085C127.024 61.8031 124.985 61.7253 122.815 61.7526C121.041 55.2739 119.28 48.8373 117.517 42.4006C117.444 42.409 117.37 42.4174 117.296 42.4258V61.6938H113.413V61.6917Z" fill="#F8F0EE"/>
<path id="Vector_3" d="M113.384 21.6377H117.769C117.79 22.0582 117.813 22.4281 117.828 22.8002C117.847 23.2879 117.795 23.7882 117.883 24.2633C118.36 26.8089 121.018 28.0134 123.29 26.7396C124.103 26.2834 124.647 25.5918 124.803 24.6984C125.149 22.6993 124.845 20.8621 122.787 19.6176C121.235 18.678 119.64 17.8035 118.078 16.8785C117.538 16.559 117.015 16.2038 116.527 15.8086C115.319 14.8269 114.508 13.5845 114.287 12.0227C114.079 10.5617 114.081 9.09442 114.489 7.66078C115.059 5.64695 116.401 4.35836 118.372 3.74874C120.318 3.14754 122.302 3.116 124.265 3.66466C126.78 4.36886 128.295 6.34065 128.514 9.15958C128.564 9.81124 128.522 10.4713 128.522 11.2049H124.54C124.502 10.9085 124.466 10.6437 124.439 10.3809C124.378 9.82595 124.357 9.26468 124.254 8.72024C124.078 7.7869 123.531 7.13946 122.594 6.8893C121.701 6.65176 120.793 6.58869 119.923 6.95866C118.295 7.65236 117.666 9.55268 118.421 11.4236C118.803 12.3737 119.486 13.0632 120.352 13.5593C121.289 14.0974 122.283 14.5431 123.21 15.1002C124.342 15.7812 125.507 16.4476 126.528 17.2801C129.911 20.0401 129.796 25.3164 127.589 27.9861C126.988 28.7134 126.269 29.2411 125.416 29.5732C123.096 30.4792 120.684 30.6011 118.314 29.9642C116.174 29.3903 114.636 27.9966 113.999 25.7831C113.623 24.4756 113.405 23.1428 113.39 21.6356L113.384 21.6377Z" fill="#F8F0EE"/>
<path id="Vector_4" d="M166.94 12.1403V4.20898H170.775C170.806 4.65884 170.861 5.09608 170.863 5.53542C170.894 12.7688 170.918 20.0043 170.953 27.2376C170.957 28.0322 171.031 28.8289 171.077 29.7223H167.261C167.167 29.2872 167.076 28.8647 166.963 28.3434C166.725 28.5346 166.566 28.6524 166.418 28.7848C163.689 31.2443 159.642 30.0755 158.742 26.5187C158.463 25.413 158.334 24.2484 158.305 23.107C158.24 20.6622 158.263 18.2154 158.292 15.7685C158.326 12.9517 160.444 10.8895 163.229 10.8559C164.531 10.8391 165.719 11.1165 166.942 12.1424L166.94 12.1403ZM166.885 20.307C166.885 20.307 166.879 20.307 166.874 20.307C166.874 18.7367 166.917 17.1664 166.86 15.5982C166.818 14.3979 165.962 13.5655 164.819 13.4562C163.51 13.3301 162.768 13.8135 162.388 15.0769C162.268 15.4742 162.161 15.8925 162.144 16.3045C162.06 18.3247 161.947 20.3448 161.972 22.3628C161.987 23.5695 162.033 24.8118 162.573 25.9448C163.014 26.8719 163.743 27.286 164.769 27.2208C165.792 27.1557 166.414 26.6617 166.704 25.619C166.814 25.2217 166.87 24.7992 166.877 24.3851C166.898 23.025 166.885 21.6649 166.885 20.3028V20.307Z" fill="#F8F0EE"/>
<path id="Vector_5" d="M141.744 67.8319V75.82C142.124 75.6014 142.391 75.4584 142.649 75.3008C145.923 73.3016 149.893 75.2167 150.376 79.0215C150.82 82.5089 150.78 85.9837 150.164 89.448C150.09 89.86 149.998 90.2678 149.88 90.6693C148.958 93.8624 144.784 94.5834 142.767 92.866C142.477 92.6201 142.181 92.3804 141.737 92.0147C141.624 92.5192 141.54 92.8975 141.426 93.4C140.243 93.6522 139.016 93.5324 137.697 93.4714C138.085 84.9095 137.762 76.4359 137.919 67.8425C139.203 67.7226 140.433 67.7605 141.742 67.8298L141.744 67.8319ZM146.722 84.4071H146.707C146.707 83.3245 146.762 82.2398 146.69 81.1636C146.63 80.2302 146.476 79.2969 146.266 78.3845C146.106 77.6908 145.598 77.2914 144.862 77.1506C143.164 76.8248 141.807 77.8759 141.78 79.669C141.742 82.3197 141.742 84.9747 141.794 87.6255C141.809 88.3044 141.998 89.0128 142.261 89.6435C142.654 90.5852 143.496 90.9363 144.48 90.9005C145.417 90.8669 146.079 90.375 146.35 89.4858C146.541 88.8594 146.672 88.1993 146.707 87.5477C146.766 86.505 146.722 85.454 146.722 84.4071Z" fill="#F8F0EE"/>
<path id="Vector_6" d="M143.875 11.165H147.586C147.714 11.4341 147.843 11.7073 147.988 12.0121C148.425 11.7557 148.82 11.453 149.265 11.2785C150.898 10.6437 152.558 10.6374 154.168 11.3205C155.595 11.926 156.21 13.1788 156.435 14.6251C156.559 15.4155 156.599 16.2248 156.603 17.0257C156.62 20.8368 156.614 24.648 156.607 28.457C156.607 28.8648 156.565 29.2726 156.538 29.7372H152.39C152.39 29.2537 152.39 28.8459 152.39 28.436C152.39 24.4504 152.39 20.4647 152.39 16.4791C152.39 16.0945 152.405 15.7035 152.342 15.3293C152.113 13.9629 151.373 13.3722 150.036 13.4416C148.824 13.5067 148.135 14.2257 148.036 15.5563C148.004 15.9746 148.006 16.395 148.006 16.8134C148.006 20.6939 148.006 24.5744 148.002 28.4549C148.002 28.8627 147.96 29.2705 147.933 29.7414H144.1C144.073 29.3041 144.026 28.9005 144.026 28.4969C144.018 23.9164 144.026 19.338 144.003 14.7575C143.999 13.7821 143.89 12.8067 143.839 11.8314C143.829 11.6317 143.863 11.4299 143.881 11.1587L143.875 11.165Z" fill="#F8F0EE"/>
<path id="Vector_7" d="M177.795 43.6445C179.043 42.6355 180.414 42.4821 181.84 42.5598C184.221 42.6881 185.749 44.086 186.043 46.4403C186.138 47.2013 186.19 47.9707 186.192 48.738C186.207 52.6164 186.201 56.4926 186.197 60.371C186.197 60.7831 186.159 61.193 186.136 61.6764H182.296C182.271 61.2813 182.225 60.8798 182.223 60.4804C182.217 56.3581 182.225 52.2359 182.212 48.1136C182.212 47.5965 182.183 47.0562 182.032 46.5686C181.71 45.5217 180.945 45.0803 179.758 45.1433C178.791 45.1938 178.106 45.7971 177.915 46.8355C177.833 47.277 177.85 47.7394 177.85 48.1935C177.846 52.2464 177.848 56.2993 177.848 60.35C177.848 60.762 177.848 61.172 177.848 61.666H173.901C173.872 55.4185 173.84 49.2151 173.811 42.8457C174.91 42.7301 176.11 42.8058 177.335 42.8121C177.48 43.0748 177.61 43.3103 177.793 43.6445H177.795Z" fill="#F8F0EE"/>
<path id="Vector_8" d="M139.329 49.7724C139.542 48.5511 139.483 47.4433 139.096 46.3775C138.741 45.3979 137.896 45.0027 136.698 45.1519C135.829 45.2613 135.421 45.73 135.251 46.8021C135.175 47.2772 135.08 47.7481 134.99 48.2505C134.719 48.2757 134.515 48.3093 134.311 48.3093C133.406 48.3156 132.498 48.3114 131.617 48.3114C131.021 46.5772 131.825 44.3763 133.479 43.4766C135.73 42.251 138.106 42.1606 140.445 43.2033C142.011 43.9012 142.759 45.2865 143.005 46.9282C143.122 47.7186 143.143 48.53 143.154 49.3309C143.194 52.5808 143.206 55.8307 143.244 59.0827C143.253 59.8394 143.33 60.5941 143.381 61.4307H139.842C139.674 61.0587 139.504 60.6866 139.304 60.2472C138.983 60.4974 138.714 60.7118 138.441 60.9199C137.43 61.6851 136.297 62.116 135.024 62.0025C132.893 61.8112 131.668 60.7412 131.145 58.637C130.779 57.1613 130.735 55.6583 131.056 54.1721C131.443 52.3895 132.5 51.1367 134.297 50.6826C135.646 50.34 137.035 50.1508 138.405 49.8964C138.674 49.846 138.947 49.8208 139.327 49.7682L139.329 49.7724ZM139.327 52.7385C138.098 52.6018 136.988 52.707 135.992 53.2619C135.564 53.4995 135.089 53.9052 134.938 54.3382C134.545 55.4691 134.486 56.6652 134.912 57.8193C135.162 58.4941 135.669 58.8703 136.417 58.9166C137.865 59.007 139.111 58.1956 139.294 56.7577C139.458 55.467 139.327 54.1385 139.327 52.7364V52.7385Z" fill="#F8F0EE"/>
<path id="Vector_9" d="M199.887 61.456H196.348C196.189 61.0861 196.027 60.714 195.823 60.2473C195.48 60.508 195.19 60.735 194.894 60.9515C193.846 61.7209 192.688 62.1476 191.37 61.9816C189.319 61.723 188.157 60.7056 187.651 58.7002C187.287 57.2602 187.272 55.7866 187.525 54.3362C187.878 52.3097 189.128 51.0274 191.124 50.5671C192.412 50.2686 193.734 50.1088 195.039 49.8902C195.243 49.8566 195.449 49.8355 195.733 49.7977C196.231 48.6688 195.907 47.5526 195.617 46.4637C195.384 45.5914 194.722 45.1772 193.818 45.1373C192.467 45.0785 191.917 45.5409 191.727 46.9052C191.666 47.3466 191.572 47.7818 191.49 48.24H188.029C187.579 46.0938 188.523 44.0841 190.416 43.2307C192.267 42.3961 194.203 42.3037 196.147 42.8775C198.097 43.4535 199.131 44.864 199.475 46.798C199.61 47.5484 199.637 48.3262 199.645 49.0914C199.683 52.3391 199.687 55.5869 199.725 58.8347C199.736 59.6629 199.824 60.4911 199.885 61.4539L199.887 61.456ZM195.8 52.7238C194.625 52.6124 193.568 52.7469 192.562 53.1884C192.001 53.4343 191.515 53.8169 191.37 54.4265C191.11 55.5175 191.009 56.6275 191.366 57.7248C191.606 58.4605 192.137 58.8578 192.913 58.9145C194.316 59.0154 195.579 58.2314 195.762 56.8608C195.939 55.5386 195.8 54.1764 195.8 52.7238Z" fill="#F8F0EE"/>
<path id="Vector_10" d="M132.551 93.1201C132.376 92.7165 132.227 92.3717 132.053 91.9639C131.612 92.2961 131.246 92.6114 130.845 92.8657C129.848 93.4963 128.777 93.9105 127.573 93.7171C125.381 93.3681 124.259 92.2687 123.815 90.072C123.53 88.6531 123.502 87.2278 123.822 85.811C124.219 84.0558 125.27 82.8512 127.014 82.4077C128.464 82.0398 129.958 81.8443 131.435 81.5753C131.603 81.5437 131.775 81.529 132.032 81.4933C132.097 81.2305 132.229 80.9699 132.213 80.7176C132.162 79.9545 132.126 79.1768 131.954 78.4347C131.666 77.184 130.424 76.5302 129.187 76.9023C128.609 77.0767 128.209 77.4341 128.094 78.05C127.978 78.6638 127.871 79.2776 127.741 79.9903C126.568 80.1626 125.408 80.129 124.274 80.0071C123.723 77.8125 125.045 75.6788 126.442 75.0461C128.619 74.0581 130.84 73.8899 133.043 74.859C135.133 75.7776 135.797 77.638 135.854 79.7443C135.917 82.084 135.854 84.4278 135.884 86.7696C135.9 88.2369 135.993 89.702 136.037 91.1672C136.056 91.7894 136.039 92.4138 136.039 93.1201H132.551ZM132.303 84.451C130.821 84.2723 129.617 84.4846 128.483 85.0795C127.957 85.3549 127.59 85.8257 127.545 86.3912C127.472 87.3224 127.434 88.2747 127.556 89.1954C127.684 90.1687 128.327 90.5975 129.319 90.6165C130.735 90.6417 131.784 89.9122 132.007 88.5143C132.213 87.2194 132.206 85.893 132.303 84.4531V84.451Z" fill="#F8F0EE"/>
<path id="Vector_11" d="M186.879 93.1453H183.42C183.261 92.7837 183.095 92.4137 182.893 91.9576C182.573 92.2077 182.315 92.4264 182.042 92.6197C180.867 93.4543 179.619 93.9441 178.121 93.6645C176.244 93.3134 175.147 92.1846 174.718 90.3978C174.365 88.9263 174.307 87.4317 174.632 85.9329C175.021 84.1335 176.051 82.8806 177.833 82.414C179.278 82.0356 180.775 81.8485 182.25 81.5752C182.452 81.5374 182.653 81.5038 182.968 81.4491C183.145 80.1437 183.109 78.8698 182.47 77.7031C182.008 76.8602 181.14 76.7404 180.264 76.8581C179.426 76.9695 178.991 77.5034 178.875 78.3317C178.804 78.8467 178.701 79.3575 178.593 79.9671C177.431 80.2067 176.271 80.0617 175.147 80.0596C174.601 78.1257 175.498 75.95 177.27 75.0776C179.442 74.0055 181.727 73.871 183.952 74.8905C185.879 75.7734 186.602 77.4971 186.677 79.5025C186.74 81.2116 186.673 82.9269 186.703 84.638C186.74 86.8368 186.822 89.0356 186.877 91.2344C186.892 91.8251 186.879 92.4179 186.879 93.1432V93.1453ZM183.017 84.4509C181.701 84.2638 180.539 84.4509 179.476 85.0227C179.079 85.2371 178.667 85.6449 178.52 86.0569C178.127 87.1605 178.14 88.323 178.48 89.4518C178.705 90.196 179.232 90.5828 180.037 90.6164C181.706 90.6858 182.853 89.6999 182.998 87.9026C183.088 86.7948 183.015 85.6723 183.015 84.4488L183.017 84.4509Z" fill="#F8F0EE"/>
<path id="Vector_12" d="M190.672 29.7477H187.194C187.039 29.3819 186.879 29.0098 186.684 28.5474C186.308 28.8249 185.984 29.0708 185.654 29.3062C184.389 30.2122 182.996 30.5129 181.481 30.1429C180.083 29.8023 179.115 28.9237 178.673 27.5699C178.077 25.7411 178.007 23.866 178.539 22.0014C178.961 20.5194 179.909 19.462 181.399 19.0542C182.737 18.6864 184.124 18.4888 185.49 18.2176C185.889 18.1377 186.293 18.0704 186.711 17.9948C186.961 16.7797 186.808 15.6845 186.421 14.6314C186.07 13.6728 185.358 13.3449 184.118 13.45C183.214 13.5278 182.876 13.8473 182.641 14.9152C182.529 15.4197 182.464 15.9368 182.361 16.5506C181.212 16.6851 180.075 16.6011 178.963 16.6011C178.373 15.1821 179.058 13.0065 180.449 12.0248C181.008 11.6296 181.666 11.2533 182.323 11.1482C183.519 10.9569 184.765 10.8118 185.959 10.9338C188.693 11.2155 190.386 13.2104 190.454 16.0966C190.506 18.4005 190.445 20.7065 190.481 23.0104C190.508 24.8245 190.609 26.6387 190.67 28.4507C190.685 28.8585 190.67 29.2663 190.67 29.7435L190.672 29.7477ZM186.806 21.0428C185.492 20.9167 184.366 21.0134 183.296 21.5326C182.653 21.8458 182.197 22.344 182.134 23.0419C182.057 23.9059 182.021 24.793 182.136 25.6486C182.294 26.8068 183.183 27.387 184.337 27.2062C185.517 27.0212 186.308 26.3591 186.619 25.1882C186.974 23.8513 186.772 22.4975 186.806 21.0428Z" fill="#F8F0EE"/>
<path id="Vector_13" d="M142.187 29.7648H138.785C138.6 29.357 138.43 28.987 138.228 28.5435C137.936 28.7705 137.699 28.9639 137.453 29.1426C136.652 29.727 135.799 30.1873 134.784 30.2651C132.214 30.4627 130.443 29.1468 129.98 26.62C129.756 25.384 129.678 24.1374 129.901 22.8699C130.262 20.7993 131.376 19.4119 133.418 18.8927C134.633 18.5836 135.887 18.4344 137.123 18.2158C137.493 18.1506 137.863 18.0917 138.27 18.0224C138.451 16.8641 138.411 15.792 138.056 14.7536C137.699 13.7046 136.909 13.3116 135.61 13.4587C134.74 13.5554 134.364 13.9926 134.179 15.1046C134.105 15.5524 134.017 15.998 133.921 16.5299H130.518C129.88 14.9869 130.869 12.5527 132.395 11.7581C134.706 10.5578 137.102 10.4506 139.46 11.5437C141.055 12.2836 141.736 13.7446 141.958 15.4263C142.017 15.874 141.998 16.3344 142.009 16.7884C142.105 20.9801 142.2 25.1717 142.292 29.3633C142.295 29.46 142.242 29.5588 142.185 29.7669L142.187 29.7648ZM138.312 21.0662C136.98 20.8897 135.782 20.9927 134.709 21.6548C134.347 21.8756 133.971 22.256 133.847 22.6407C133.502 23.7128 133.441 24.8269 133.784 25.9284C134.047 26.7756 134.585 27.1855 135.467 27.2275C136.921 27.2948 138.174 26.248 138.296 24.7239C138.388 23.5509 138.315 22.3654 138.315 21.0662H138.312Z" fill="#F8F0EE"/>
<path id="Vector_14" d="M233.761 87.4947H237.477C237.477 87.8856 237.54 88.2346 237.466 88.552C236.693 91.9659 234.913 93.8304 231.084 93.7631C228.804 93.7232 226.932 92.8067 225.963 90.5911C225.717 90.0256 225.545 89.3844 225.52 88.7727C225.396 85.7036 225.236 82.6325 225.278 79.5634C225.318 76.7213 227.266 74.8715 230.122 74.615C231.385 74.5015 232.635 74.5141 233.86 74.8483C236.153 75.4748 237.498 77.2384 237.517 79.6138C237.529 81.1168 237.523 82.6177 237.517 84.1208C237.517 84.4256 237.479 84.7325 237.449 85.1802H229.275C229.229 86.7085 229.145 88.0979 229.369 89.4727C229.527 90.4334 230.141 90.8622 231.158 90.9169C232.332 90.9779 233.139 90.5595 233.41 89.6178C233.6 88.9619 233.639 88.2619 233.759 87.4968L233.761 87.4947ZM233.721 82.2982C233.618 81.0454 233.602 79.8682 233.406 78.7204C233.215 77.5958 232.496 77.1165 231.311 77.0892C230.279 77.0661 229.649 77.5054 229.294 78.5565C228.888 79.7547 228.825 80.9886 228.979 82.2982H233.721Z" fill="#F8F0EE"/>
<path id="Vector_15" d="M159.435 52.484C159.526 50.857 159.633 49.1858 159.708 47.5125C159.744 46.7116 160.028 46.0053 160.501 45.3873C163.115 41.9777 168.486 41.9546 171.064 45.3284C171.529 45.936 171.857 46.7663 171.936 47.5252C172.287 50.8654 172.317 54.2162 171.968 57.5628C171.825 58.9375 171.092 59.9697 169.988 60.7559C167.587 62.4649 164.023 62.4712 161.608 60.7664C160.465 59.9592 159.751 58.906 159.696 57.4535C159.633 55.8138 159.526 54.1763 159.435 52.4862V52.484ZM168.509 52.4736C168.454 52.4736 168.402 52.4714 168.347 52.4693C168.347 51.248 168.37 50.0246 168.337 48.8054C168.322 48.2525 168.236 47.6912 168.108 47.1531C167.814 45.9149 167.023 45.3411 165.752 45.3768C164.395 45.4168 163.625 46.0726 163.434 47.5945C163.031 50.7918 163.037 54.0018 163.424 57.2033C163.504 57.8592 163.728 58.5024 164.357 58.8871C165.872 59.8183 167.889 59.0237 168.158 57.2685C168.4 55.6898 168.402 54.0753 168.509 52.4756V52.4736Z" fill="#F8F0EE"/>
<path id="Vector_16" d="M209.877 84.3605C209.778 86.019 209.696 87.728 209.57 89.4329C209.49 90.4986 208.929 91.3416 208.16 92.0437C205.668 94.314 201.198 94.3224 198.717 92.0605C197.914 91.329 197.38 90.4335 197.334 89.3278C197.243 87.131 197.155 84.9322 197.138 82.7334C197.13 81.5142 197.231 80.2908 197.346 79.0757C197.458 77.9049 198.084 76.9778 198.948 76.219C201.52 73.9613 205.515 73.9886 208.061 76.2862C209.005 77.1376 209.555 78.1844 209.602 79.4962C209.658 81.1001 209.782 82.7019 209.879 84.3605H209.877ZM206.181 84.1776C206.158 84.1776 206.137 84.1755 206.113 84.1734C206.113 83.6142 206.153 83.0529 206.105 82.498C205.998 81.2493 205.897 79.9965 205.702 78.7604C205.573 77.9574 205.105 77.3688 204.218 77.207C202.337 76.8622 201.341 77.5896 201.095 79.2187C201.06 79.4604 200.999 79.698 200.976 79.9397C200.711 82.7271 200.707 85.5145 200.965 88.304C201.156 90.3599 202.022 91.0893 204.06 90.8434C204.13 90.835 204.199 90.8244 204.268 90.816C204.922 90.7383 205.374 90.3725 205.596 89.7755C205.754 89.3551 205.878 88.9052 205.914 88.4617C206.027 87.0365 206.095 85.607 206.179 84.1797L206.181 84.1776Z" fill="#F8F0EE"/>
<path id="Vector_17" d="M164.947 84.3986C164.851 86.034 164.769 87.7409 164.638 89.4457C164.554 90.5515 163.957 91.4112 163.142 92.1196C160.658 94.2764 156.46 94.31 153.938 92.189C153.047 91.4385 152.452 90.501 152.404 89.3154C152.312 87.0136 152.232 84.7097 152.211 82.4078C152.2 81.2937 152.253 80.1649 152.438 79.0697C152.555 78.3739 152.845 77.6318 153.272 77.0748C155.756 73.8312 160.805 73.6631 163.581 76.7469C164.252 77.491 164.626 78.376 164.668 79.4061C164.735 81.0457 164.851 82.6811 164.949 84.3986H164.947ZM161.257 84.2031C161.234 84.2031 161.209 84.201 161.186 84.1989C161.186 83.6061 161.228 83.007 161.177 82.4184C161.07 81.1697 160.957 79.919 160.759 78.6829C160.65 78.006 160.249 77.4385 159.521 77.2598C157.824 76.8478 156.445 77.2892 156.187 79.1979C156.155 79.4397 156.075 79.6751 156.052 79.9168C155.779 82.74 155.775 85.561 156.048 88.3842C156.241 90.3791 157.109 91.077 159.112 90.8457C159.181 90.8373 159.25 90.8268 159.32 90.8205C160.024 90.7469 160.475 90.337 160.709 89.7043C160.852 89.3154 160.955 88.8971 160.988 88.4851C161.1 87.0598 161.171 85.6304 161.259 84.2031H161.257Z" fill="#F8F0EE"/>
<path id="Vector_18" d="M242.366 87.4381C242.366 88.0141 242.333 88.4303 242.373 88.8402C242.453 89.6411 242.724 90.381 243.535 90.69C244.411 91.0243 245.325 91.0537 246.151 90.5156C246.702 90.1561 246.851 89.5654 246.79 88.9453C246.704 88.0708 246.3 87.3414 245.6 86.8074C244.962 86.3198 244.312 85.8426 243.631 85.418C242.314 84.5981 241.206 83.5429 240.082 82.4876C237.676 80.232 238.609 76.2296 241.631 75.0861C243.631 74.3293 245.663 74.3209 247.683 75.0209C248.853 75.4266 249.606 76.2464 249.938 77.4509C250.192 78.3675 250.175 79.2882 250.186 80.2867H246.496C246.407 79.799 246.29 79.3386 246.248 78.872C246.103 77.2849 244.772 76.5891 243.409 77.4047C242.663 77.8503 242.398 79.2125 242.984 80.1374C243.291 80.6188 243.764 81.0266 244.232 81.3672C245.39 82.2059 246.62 82.9522 247.771 83.8014C249.809 85.3065 250.867 87.2405 250.387 89.8702C250.051 91.7222 249.005 92.8826 247.254 93.4291C245.39 94.0093 243.531 93.8685 241.69 93.2736C239.183 92.4642 238.155 90.1961 238.594 87.4906C239.183 87.4759 239.801 87.4528 240.416 87.4444C241.005 87.436 241.593 87.4444 242.366 87.4444V87.4381Z" fill="#F8F0EE"/>
<path id="Vector_19" d="M117.591 90.1604H122.588V93.3493C121.703 93.6058 114.422 93.61 113.432 93.3409V67.9726C114.289 67.7225 116.437 67.7077 117.553 67.9642C117.635 70.3501 117.578 72.7822 117.589 75.2102C117.599 77.6907 117.591 80.1733 117.591 82.6538V90.1604Z" fill="#F8F0EE"/>
<path id="Vector_20" d="M149.835 37.9501V42.7072C150.745 42.7597 151.526 42.8039 152.361 42.8522C152.613 43.7687 152.508 44.6495 152.447 45.6186C151.602 45.6648 150.816 45.709 149.971 45.7573C149.938 46.1441 149.887 46.4489 149.885 46.7516C149.881 50.1045 149.873 53.4574 149.891 56.8124C149.896 57.4934 149.782 58.2292 150.45 58.8619C151.016 58.8998 151.667 58.9418 152.363 58.9881C152.619 59.8688 152.495 60.7223 152.443 61.7271C150.858 61.7082 149.303 61.9668 147.794 61.3508C146.857 60.9683 146.243 60.283 146.075 59.2676C145.979 58.6853 145.911 58.0904 145.909 57.5019C145.895 54.0081 145.901 50.5165 145.901 47.0228C145.901 46.6444 145.901 46.2661 145.901 45.7868C145.178 45.7174 144.539 45.6565 143.842 45.5892V42.8585C144.506 42.8144 145.119 42.7744 145.861 42.7261V39.6696C147.183 39.0958 148.412 38.5639 149.83 37.948L149.835 37.9501Z" fill="#F8F0EE"/>
<path id="Vector_21" d="M193.667 90.5513C194.669 90.606 195.457 90.648 196.3 90.6943V93.4817C194.671 93.5679 193.076 93.6709 191.542 93.0718C190.454 92.6471 189.977 91.7285 189.823 90.6291C189.767 90.2171 189.773 89.7925 189.771 89.3741C189.767 85.8132 189.769 82.2543 189.769 78.6933C189.769 78.317 189.769 77.9407 189.769 77.4699C188.956 77.4299 188.241 77.3963 187.426 77.3564V74.5605C188.203 74.5164 188.918 74.4744 189.75 74.426V71.3632C190.971 70.8041 192.099 70.2869 193.402 69.6899V74.487H196.048V77.3248C195.211 77.3774 194.365 77.4299 193.467 77.4867C193.448 77.8588 193.419 78.1636 193.417 78.4705C193.413 81.8906 193.404 85.3129 193.425 88.733C193.429 89.3048 193.57 89.8765 193.663 90.5555L193.667 90.5513Z" fill="#F8F0EE"/>
<path id="Vector_22" d="M205.956 61.6828H202.222V35.9172H205.861C206.082 36.6971 206.174 59.6627 205.956 61.6828Z" fill="#F8F0EE"/>
<path id="Vector_23" d="M211.212 74.5669H214.895C214.986 75.269 215.07 75.908 215.185 76.7972C216.078 75.4687 216.984 74.5038 218.642 74.5984C218.848 75.557 218.741 76.5113 218.712 77.5099C218.478 77.5855 218.289 77.6528 218.098 77.7095C216.295 78.2393 215.503 79.2441 215.475 81.1297C215.45 82.9102 215.469 84.6886 215.469 86.4691C215.469 88.4934 215.469 90.5177 215.467 92.5421C215.467 92.8153 215.433 93.0907 215.41 93.4481H211.3C211.271 87.167 211.241 80.9405 211.212 74.5669Z" fill="#F8F0EE"/>
<path id="Vector_24" d="M170.537 93.4524H166.612V74.5544C167.658 74.4493 168.787 74.4366 170.007 74.5859C170.129 75.2712 170.243 75.9144 170.363 76.5871C170.917 76.0427 171.411 75.4267 172.031 74.9853C172.655 74.5418 173.42 74.4093 174.317 74.6069C174.225 75.5991 174.139 76.524 174.048 77.4994C173.805 77.5772 173.582 77.655 173.357 77.7159C171.31 78.2667 170.547 79.2505 170.537 81.4072C170.526 83.8163 170.535 86.2253 170.535 88.6343C170.535 90.2025 170.535 91.7686 170.535 93.4545L170.537 93.4524Z" fill="#F8F0EE"/>
<path id="Vector_25" d="M157.494 61.6893H153.894C153.644 60.8716 153.604 44.0105 153.857 42.8733H157.507C157.755 43.8718 157.742 60.7833 157.494 61.6893Z" fill="#F8F0EE"/>
<path id="Vector_26" d="M223.834 93.4249C222.509 93.6057 221.279 93.5637 220.073 93.4733C219.823 92.5189 219.802 75.66 220.048 74.5774C221.147 74.4281 222.273 74.4618 223.502 74.5669C223.542 74.9999 223.599 75.3699 223.603 75.7399C223.626 77.2765 223.622 78.8153 223.645 80.3519C223.704 84.264 223.769 88.176 223.832 92.088C223.839 92.5021 223.832 92.9141 223.832 93.4271L223.834 93.4249Z" fill="#F8F0EE"/>
<path id="Vector_27" d="M176.887 29.7622H173.336C173.09 28.9739 173.021 12.5459 173.256 11.1753H176.833C177.068 11.9278 177.131 28.4084 176.887 29.7622Z" fill="#F8F0EE"/>
<path id="Vector_28" d="M153.764 35.8962H157.597V39.6296H153.745C153.673 38.3704 153.652 37.147 153.761 35.8962H153.764Z" fill="#F8F0EE"/>
<path id="Vector_29" d="M219.932 67.8464H223.521C223.658 69.1266 223.591 70.3542 223.555 71.6702H219.978C219.794 70.453 219.88 69.2254 219.932 67.8464Z" fill="#F8F0EE"/>
<path id="Vector_30" d="M176.972 7.96349H173.217V4.22803H176.978C177.06 5.45776 177.064 6.70222 176.972 7.96349Z" fill="#F8F0EE"/>
<path id="Vector_31" d="M58.3425 16.9165C58.6556 21.6252 58.6493 26.2919 58.8699 31.07H79.3353C79.6337 31.9445 79.6883 69.8435 79.4088 71.0775C76.7023 71.2309 73.962 71.3865 71.0621 71.5525C70.9466 69.1982 71.0243 66.9426 71.0117 64.6891C70.997 62.4231 71.0075 60.157 71.0075 57.8047H66.8384V45.5494C64.3041 45.4569 61.919 45.5158 59.5298 45.5031C59.4583 45.7743 59.3932 45.9047 59.3953 46.035C59.4415 48.1644 59.494 50.2938 59.5487 52.4254C59.555 52.6356 59.5802 52.8437 59.5865 53.0539C59.6748 56.7915 59.7504 60.5291 59.8534 64.2666C59.9858 69.051 60.135 73.8333 60.2884 78.6156C60.3094 79.2715 60.3871 79.9231 60.4376 80.5475C59.6222 80.8439 40.4555 80.9175 39.1148 80.64C39.098 80.2994 39.0539 79.9274 39.0623 79.5574C39.138 76.2739 39.2199 72.9904 39.3082 69.709C39.3649 67.6132 39.4427 65.5195 39.5078 63.4258C39.6507 58.8179 39.7894 54.208 39.9386 49.6002C39.9701 48.6227 40.0542 47.6494 40.0941 46.6719C40.1088 46.3335 40.0626 45.9929 40.0394 45.5809H32.5333C32.5333 47.6662 32.5333 49.6842 32.5333 51.7002C32.5333 53.7161 32.5333 55.7362 32.5333 57.8047H28.3726V71.5042C25.4769 71.3928 22.7094 71.2498 19.9628 71.0522C19.7128 70.2261 19.6792 32.264 19.9418 31.1226H40.4156C40.714 28.806 40.7812 26.5946 40.7182 24.234C38.455 24.0511 36.2275 24.2487 33.8719 24.1078C33.7857 21.703 33.8362 19.3528 33.8383 16.9207H58.3467L58.3425 16.9165Z" fill="#F8F0EE"/>
</g>
</svg>
