<svg width="399" height="92" viewBox="0 0 399 92" fill="none" xmlns="http://www.w3.org/2000/svg">
<g clip-path="url(#clip0_2908_39)">
<path d="M352.2 89.7001H370.6V52.8001L398.3 2.6001H377.1L352.2 49.1001V89.7001Z" fill="#F8F0EE"/>
<path d="M357.4 40.9001L336.6 2.6001H315.7L336.6 40.9001H357.4Z" fill="#F8F0EE"/>
<path d="M286.3 62.6002L300.4 89.7002H320.4L302.8 57.7002C310.9 52.1002 315.7 43.1002 315.7 32.8002C315.7 16.0002 305.2 2.7002 282.6 2.7002H246.4V89.8002H265.5V62.8002L286.3 62.6002ZM265.5 18.7002H282.7C292 18.7002 297.5 23.6002 297.5 32.5002C297.5 41.4002 292.6 45.8002 283.3 45.8002H265.5V18.7002Z" fill="#F8F0EE"/>
<path d="M100.9 89.7001H120.2V19.8001H148V2.6001H73.1001V19.8001H100.9V89.7001Z" fill="#F8F0EE"/>
<path d="M34.9 30.2V43.5C25.1 43.5 18 39.3 18 30.5C18 21.7 24.2 16.5 35.4 16.5C46.6 16.5 50.2 20.3 51.5 25.3H68.5C67.3 11.3 54.1 0 35 0C15.9 0 0.6 12.5 0.6 30.9C0.6 49.3 15.5 60.1 35 60.1V47.6C45.3 47.6 52.4 52.2 52.4 61.2C52.4 70.2 45.1 75.2 35.1 75.2C25.1 75.2 19.7 71.2 17.8 65.7H0C2.5 80.2 15.8 91.5 35 91.5C54.2 91.5 69.7 80 69.7 60.8C69.7 42.8 56.1 30.2 34.9 30.2Z" fill="#F8F0EE"/>
<path d="M192.9 73.9C177.5 73.9 166.3 61.1 166.3 45.8C166.3 30.5 176.2 18.1 192.9 18.1C209.6 18.1 220.3 29.9 220.3 45.8H237.6C237.6 21 218.3 0.100002 192.9 0.100002C165.6 2.24842e-06 148 19 148 45.7C148 72.4 167.5 91.4 192.9 91.4V73.9Z" fill="#F8F0EE"/>
<path d="M192.4 80.9998C211.8 80.9998 226.4 65.6998 226.4 45.2998H210.6C210.6 56.2998 202.6 64.2998 192.5 64.2998V80.9998H192.4Z" fill="#F8F0EE"/>
</g>
<defs>
<clipPath id="clip0_2908_39">
<rect width="398.4" height="91.4" fill="white"/>
</clipPath>
</defs>
</svg>
