<svg width="187" height="79" viewBox="0 0 187 79" fill="none" xmlns="http://www.w3.org/2000/svg">
<path d="M118.734 60.7933C118.734 61.9031 118.738 62.8669 118.734 63.8307C118.729 64.7978 118.714 65.765 118.706 66.7321C118.697 67.6724 118.692 68.6127 118.687 69.5529C118.682 70.5201 118.686 71.4872 118.671 72.4544C118.655 73.4148 118.707 74.3786 118.617 75.381C114.459 76.2625 110.344 77.1356 106.228 78.0037C106.131 78.0238 106.02 77.9919 105.924 77.9852C105.797 77.3421 105.781 18.8048 105.902 18.0241C105.917 18.0022 105.929 17.9754 105.949 17.962C105.969 17.9468 106 17.9384 106.025 17.9384C109.57 17.9284 113.115 17.9183 116.66 17.9116C116.791 17.9116 116.923 17.9317 117.084 17.9435C117.45 18.9291 117.465 19.9953 117.875 21.0565C118.157 20.8264 118.382 20.6468 118.605 20.4638C120.441 18.9576 122.497 17.8881 124.836 17.4146C129.233 16.5247 133.263 17.4263 136.904 20.0222C139.732 22.0387 141.714 24.7487 143.128 27.8936C144.236 30.3602 144.895 32.9527 145.249 35.6308C145.53 37.7414 145.612 39.8603 145.52 41.9827C145.348 45.9251 144.716 49.7786 143.121 53.4238C142.154 55.6352 140.879 57.6433 139.163 59.3526C136.58 61.9266 133.48 63.4227 129.854 63.8643C126.178 64.3109 122.816 63.5201 119.763 61.4195C119.564 61.2819 119.369 61.1408 119.166 61.0082C119.082 60.9528 118.984 60.9158 118.734 60.7916V60.7933ZM132.907 40.5974C132.837 39.7143 132.798 38.8277 132.688 37.9512C132.442 36.017 131.91 34.1683 130.932 32.464C130.474 31.6665 129.93 30.9361 129.257 30.3081C127.966 29.1009 126.459 28.4612 124.664 28.4914C122.692 28.525 120.911 29.0404 119.381 30.3333C118.875 30.7598 118.64 31.2249 118.647 31.92C118.702 37.8052 118.718 43.6903 118.744 49.5754C118.744 49.656 118.753 49.7366 118.744 49.8172C118.713 50.1396 118.845 50.378 119.077 50.5963C119.768 51.2511 120.549 51.7599 121.437 52.1058C122.219 52.4114 123.033 52.5541 123.864 52.6498C126.036 52.9 127.892 52.2636 129.446 50.7323C130.378 49.8138 131.051 48.7191 131.561 47.5219C132.503 45.3123 132.852 42.9884 132.909 40.5991L132.907 40.5974Z" fill="#F8F0EE"/>
<path d="M186.132 45.2886H160.946C160.961 45.5573 160.96 45.7604 160.987 45.9602C161.47 49.545 163.531 51.8504 167.046 52.7588C168.808 53.2138 170.603 53.2793 172.404 53.1903C174.715 53.0744 177.006 52.7873 179.22 52.0855C180.445 51.6976 181.634 51.1972 182.839 50.7472C183.055 50.6667 183.27 50.5777 183.545 50.4702V60.647C183.273 60.7965 183 60.9577 182.714 61.1004C180.296 62.3127 177.743 63.0917 175.074 63.5283C172.867 63.8876 170.646 64.0471 168.414 63.9766C165.438 63.8843 162.542 63.3671 159.798 62.1733C155.102 60.1299 151.876 56.6559 149.945 51.9444C148.96 49.5417 148.418 47.0331 148.146 44.4541C147.933 42.4426 147.899 40.4277 148.03 38.4179C148.336 33.7333 149.536 29.314 152.161 25.3631C154.613 21.6759 157.915 19.0968 162.195 17.8426C164.728 17.1004 167.308 16.9241 169.928 17.223C175.336 17.8409 179.42 20.5425 182.318 25.0978C183.925 27.6215 184.902 30.3953 185.524 33.3068C186.1 36 186.295 38.7268 186.248 41.4738C186.229 42.4946 186.201 43.5155 186.174 44.5364C186.169 44.7479 186.149 44.9578 186.129 45.2903L186.132 45.2886ZM174.136 35.7498C174.151 33.8793 173.817 32.1432 172.879 30.5514C172.338 29.633 171.615 28.8892 170.693 28.3435C168.053 26.7786 164.545 27.4435 162.559 29.8899C161.566 31.1139 161.052 32.5395 160.864 34.0875C160.799 34.6332 160.639 35.1873 160.792 35.733C161.45 35.8506 173.162 35.8707 174.134 35.7498H174.136Z" fill="#F8F0EE"/>
<path d="M0.938492 48.969C1.32119 49.147 1.58638 49.2628 1.84487 49.3921C4.61436 50.7874 7.50471 51.8419 10.5377 52.4967C11.8805 52.7855 13.2384 52.9853 14.6064 52.9921C15.5379 52.9971 16.4762 52.8561 17.4027 52.7268C17.7653 52.6764 18.1211 52.5085 18.4551 52.3439C20.1151 51.5279 20.3652 49.4005 19.3649 48.1429C18.957 47.6291 18.4635 47.211 17.8895 46.9122C17.1056 46.5025 16.3117 46.1012 15.4909 45.7771C13.9199 45.1542 12.3236 44.5984 10.7442 43.9956C9.21341 43.4113 7.71117 42.7598 6.31131 41.8985C5.76245 41.561 5.22533 41.2017 4.71339 40.8138C2.10839 38.8358 0.644757 36.2064 0.371164 32.9507C0.157997 30.4237 0.486982 27.9605 1.53268 25.6283C2.95267 22.4616 5.36129 20.2956 8.48327 18.8835C10.531 17.9567 12.6879 17.4429 14.9236 17.238C19.8902 16.7847 24.7259 17.3858 29.4307 19.038C29.659 19.1186 29.8839 19.2059 30.1071 19.2949C30.2062 19.3335 30.3002 19.3805 30.4428 19.4443C30.4663 19.6374 30.5117 19.8456 30.5117 20.0538C30.5167 23.6269 30.515 27.2016 30.5117 30.7746C30.5117 30.9593 30.4781 31.1424 30.4546 31.3875C30.2465 31.3136 30.0719 31.2733 29.9158 31.1961C26.955 29.7236 23.8212 28.8169 20.5499 28.4038C19.0862 28.2191 17.6075 28.0562 16.1355 28.3501C15.6151 28.4542 15.0797 28.5902 14.6114 28.8303C13.225 29.5389 12.8792 31.3254 13.8527 32.5494C14.2438 33.0414 14.7356 33.4259 15.2962 33.6895C16.1942 34.1093 17.1039 34.5106 18.0305 34.8598C19.9389 35.5785 21.8708 36.2299 23.7742 36.9603C25.1288 37.4808 26.4094 38.1625 27.6163 38.9786C31.126 41.3511 32.8833 44.6756 33.0243 48.8884C33.0848 50.7035 32.8985 52.485 32.3143 54.2094C31.3777 56.9798 29.6607 59.1559 27.2453 60.7913C25.1909 62.1816 22.9098 63.0178 20.4928 63.5064C17.5454 64.1024 14.5762 64.1394 11.5918 63.8607C8.14589 63.54 4.83089 62.6987 1.62331 61.4109C0.886457 61.1154 0.883104 61.1087 0.883104 60.2977C0.881426 56.8052 0.881426 53.3111 0.883104 49.8186C0.883104 49.5802 0.909956 49.3434 0.931776 48.969H0.938492Z" fill="#F8F0EE"/>
<path d="M35.7634 9.41875C39.9025 8.53557 43.988 7.66413 48.0818 6.79102C48.3084 7.105 48.2228 7.4341 48.2211 7.74137C48.2144 10.804 48.1976 13.8666 48.1825 16.9292C48.1825 17.2197 48.1825 17.5119 48.1825 17.7923C48.4997 18.0089 48.8035 17.9417 49.0872 17.9417C51.7459 17.9467 54.4046 17.9434 57.065 17.9467C57.3537 17.9467 57.6424 17.9652 57.9647 17.977V28.7532C57.6911 28.9396 57.389 28.8724 57.1036 28.8741C54.4449 28.8791 51.7862 28.8758 49.1258 28.8791C48.8388 28.8791 48.5517 28.9077 48.2144 28.9261C48.2009 29.2603 48.1791 29.5222 48.1791 29.7858C48.1791 35.5887 48.1741 41.3915 48.1842 47.1927C48.1842 47.7535 48.2362 48.321 48.3352 48.8735C48.7011 50.9102 49.9617 52.4767 52.6405 52.7387C54.1831 52.8898 55.692 52.6598 57.1724 52.2215C57.3789 52.1611 57.5837 52.0973 57.7901 52.0419C57.8371 52.0301 57.8925 52.0486 57.9731 52.057V62.3547C57.639 62.5092 57.2882 62.6972 56.9207 62.8383C55.6114 63.3403 54.2435 63.619 52.8587 63.8054C51.3112 64.0119 49.7535 64.064 48.1959 64.0002C42.6737 63.7735 37.4603 60.234 36.0101 53.9778C35.7365 52.7974 35.6459 51.5935 35.6493 50.3796C35.6627 41.7828 35.6644 33.1876 35.6761 24.5908C35.6828 19.8625 35.6996 15.1343 35.7147 10.4077C35.7147 10.0921 35.7433 9.77807 35.7617 9.42043L35.7634 9.41875Z" fill="#F8F0EE"/>
<path d="M62.2249 63.0297V18.0425C62.3977 18.0072 62.5471 17.9501 62.6982 17.9501C66.082 17.9451 69.4675 17.9468 72.8513 17.9501C72.9554 17.9501 73.0595 17.9753 73.2189 17.9972C73.6117 19.149 73.7006 20.3848 74.1051 21.634C74.6624 20.954 75.1374 20.326 75.6645 19.7434C76.21 19.1423 76.878 18.6873 77.6065 18.3246C78.3551 17.9518 79.1356 17.6563 79.9714 17.5774C80.7704 17.5018 81.5777 17.428 82.3767 17.4649C83.174 17.5018 83.9763 17.6244 84.7148 17.9367C84.8625 18.6956 84.8491 28.9833 84.6947 29.6566C84.1744 29.5726 83.6523 29.4702 83.1253 29.4047C81.2152 29.168 79.3705 29.4047 77.6484 30.2946C77.1281 30.5633 76.6329 30.9025 76.1781 31.2735C75.025 32.2172 75.0048 32.3011 75.0048 33.8039C75.0048 43.1529 75.0048 52.502 75.0048 61.851C75.0048 62.2221 74.9813 62.5915 74.9679 63.0079C74.7144 63.0431 74.5097 63.0969 74.3049 63.0986C70.4914 63.1036 66.6762 63.1036 62.8627 63.0986C62.6797 63.0986 62.4968 63.0599 62.2265 63.0297H62.2249Z" fill="#F8F0EE"/>
<path d="M100.898 63.018C100.703 63.0532 100.575 63.0969 100.448 63.0986C96.4462 63.1002 92.4447 63.0986 88.4449 63.0935C88.3442 63.0935 88.2452 63.0398 88.1562 63.0146C88.0287 62.3883 88.0052 18.8988 88.126 18.0643C88.1461 18.0458 88.1646 18.0257 88.1864 18.0106C88.2083 17.9971 88.2334 17.982 88.2569 17.9787C88.3895 17.9652 88.5238 17.9468 88.6564 17.9468C92.6579 17.9501 96.6577 17.9569 100.659 17.9636C100.708 17.9636 100.757 18.0005 100.861 18.0408C100.882 18.1886 100.921 18.3649 100.933 18.5428C100.946 18.7292 100.936 18.919 100.936 19.107C100.936 33.369 100.936 47.631 100.936 61.893C100.936 62.2607 100.911 62.6284 100.898 63.0163V63.018Z" fill="#F8F0EE"/>
<path d="M88.1408 3.46809C92.3941 2.5765 96.6037 1.66309 100.825 0.800049C100.988 1.606 100.974 10.5185 100.825 11.1481C99.395 11.5897 88.8072 13.8229 88.1761 13.8145C88.1593 13.7977 88.1408 13.7809 88.1257 13.7608C88.1089 13.7389 88.0888 13.7154 88.0854 13.6919C88.072 13.5593 88.0569 13.4249 88.0569 13.2906C88.0569 10.1189 88.0602 6.94879 88.0653 3.77703C88.0653 3.70148 88.1005 3.62592 88.1408 3.46641V3.46809Z" fill="#F8F0EE"/>
</svg>
