<svg width="200" height="49" viewBox="0 0 200 49" fill="none" xmlns="http://www.w3.org/2000/svg">
<g clip-path="url(#clip0_3081_59)">
<path d="M26.8788 2.59033H46.7022C49.911 2.59033 52.5124 5.27842 52.5124 8.59431V31.9038C52.5124 35.2198 49.911 37.9078 46.7022 37.9078H18.3342L26.8788 2.59033Z" fill="#F8F0EE"/>
<path d="M21.7298 9.28125H5.76079C2.57919 9.28125 0 11.9693 0 15.2852V38.5947C0 41.9107 2.57919 44.5987 5.76079 44.5987H25.4152L26.2033 41.313H14.0462L21.7298 9.28125Z" fill="#F8F0EE"/>
<path d="M76.3164 37.8939L67.5769 9.29189H72.5143L78.7001 31.1406L85.3964 9.29189H90.0501L96.7464 31.1406L102.875 9.29189H107.926L99.1301 37.8939H94.4195L87.7232 16.1587L81.0264 37.8939H76.3164ZM129.698 19.2799C129.698 15.3642 126.917 12.8672 122.717 12.8672C118.802 12.8672 116.021 15.1939 115.624 19.0529L111.141 18.2017C111.992 12.5267 116.702 8.83789 122.717 8.83789C129.641 8.83789 134.465 12.9239 134.465 19.5637V37.8939H129.698V33.0134C128.052 36.3049 124.306 38.3479 120.164 38.3479C114.432 38.3479 110.516 34.8294 110.516 29.8922C110.516 24.3874 115 21.3796 124.136 20.4717L129.698 19.8474V19.2799ZM115.34 29.8354C115.34 32.5026 117.61 34.3754 120.902 34.3754C126.463 34.3754 129.698 30.6866 129.698 24.9549V23.5929L124.136 24.2172C118.348 24.8414 115.34 26.8276 115.34 29.8354ZM166.937 18.9962L162.114 19.9042C161.886 15.6479 159.22 13.2077 154.906 13.2077C149.628 13.2077 146.224 17.9747 146.224 25.6359V37.8939H141.4V9.29189H146.224V14.9102C148.323 10.8242 151.842 8.83789 156.041 8.83789C162.397 8.83789 166.711 12.8104 166.937 18.9962ZM172.079 48.2224V9.29189H176.903V13.4347C178.435 10.8242 182.181 8.83789 186.323 8.83789C195.12 8.83789 200 15.1939 200 23.5929C200 31.9919 195.006 38.3479 186.21 38.3479C182.578 38.3479 178.832 36.5319 176.903 33.9214V48.2224H172.079ZM185.756 34.0349C191.431 34.0349 195.12 29.8922 195.12 23.5929C195.12 17.2937 191.431 13.1509 185.756 13.1509C180.194 13.1509 176.506 17.2937 176.506 23.5929C176.506 29.8922 180.194 34.0349 185.756 34.0349Z" fill="#F8F0EE"/>
</g>
<defs>
<clipPath id="clip0_3081_59">
<rect width="200" height="48.4211" fill="white"/>
</clipPath>
</defs>
</svg>
